M48
; DRILL file {KiCad (5.1.6)-1} date 08/21/20 11:05:19
; FORMAT={-:-/ absolute / inch / decimal}
; #@! TF.CreationDate,2020-08-21T11:05:19+09:00
; #@! TF.GenerationSoftware,Kicad,Pcbnew,(5.1.6)-1
; #@! TF.FileFunction,NonPlated,1,2,NPTH
FMAT,2
INCH
T1C0.0157
T2C0.0591
T3C0.0689
T4C0.1200
T5C0.1570
%
G90
G05
T1
X5.4291Y0.2494
X5.7244Y0.2494
T3
X11.4262Y-1.1214
X11.8262Y-1.1214
X10.6812Y-0.3708
X11.0812Y-0.3708
X8.3723Y-1.9402
X8.7662Y-1.8707
X2.5026Y-3.4658
X2.8965Y-3.5353
X3.5394Y-1.3627
X3.9333Y-1.4322
X9.9262Y-0.3714
X10.3262Y-0.3714
X8.2964Y-0.4304
X8.6904Y-0.3609
X10.4887Y-1.1214
X10.8887Y-1.1214
X5.9174Y-3.1346
X6.3113Y-3.0651
X2.8552Y-2.0037
X3.2491Y-2.0731
X10.0012Y-1.8714
X10.4012Y-1.8714
X3.9783Y-3.7224
X4.3723Y-3.7918
X2.0622Y-1.1023
X2.4561Y-1.1717
X0.1762Y-1.1214
X0.5762Y-1.1214
X6.1565Y-2.3309
X6.5504Y-2.2614
X1.4887Y-2.6214
X1.8887Y-2.6214
X6.656Y-3.0044
X7.0499Y-2.9349
X0.195Y-1.8714
X0.595Y-1.8714
X2.3557Y-2.6772
X2.7496Y-2.7466
X0.9262Y-0.3714
X1.3262Y-0.3714
X11.4276Y-0.3704
X11.8276Y-0.3704
X6.5802Y-1.4946
X6.9741Y-1.4251
X9.7387Y-2.6214
X10.1387Y-2.6214
X7.5578Y-0.5606
X7.9518Y-0.4912
X1.1137Y-1.1214
X1.5137Y-1.1214
X8.9887Y-2.6214
X9.3887Y-2.6214
X4.7775Y-0.8195
X5.1715Y-0.889
X0.27Y-2.6214
X0.67Y-2.6214
X11.22Y-1.8714
X11.62Y-1.8714
X12.9278Y-2.1728
X13.3278Y-2.1728
X3.8329Y-2.9376
X4.2268Y-3.0071
X8.1332Y-2.7439
X8.5271Y-2.6744
X4.0389Y-0.6893
X4.4329Y-0.7587
X6.8946Y-2.2011
X7.2885Y-2.1316
X8.9887Y-1.1214
X9.3887Y-1.1214
X7.6337Y-2.0704
X8.0276Y-2.0009
X0.8325Y-3.3714
X1.2325Y-3.3714
X-0.105Y-3.3714
X0.295Y-3.3714
X10.77Y-2.6214
X11.17Y-2.6214
X11.0512Y-0.3714
X11.4512Y-0.3714
X0.1762Y-0.3714
X0.5762Y-0.3714
X12.5538Y-0.3728
X12.9538Y-0.3728
X4.5715Y-3.0679
X4.9654Y-3.1373
X7.3946Y-2.8741
X7.7885Y-2.8047
X4.278Y-1.493
X4.6719Y-1.5624
X7.9866Y-3.5326
X8.3806Y-3.4632
X9.7387Y-1.1214
X10.1387Y-1.1214
X2.1166Y-1.8734
X2.5105Y-1.9429
X11.9887Y-2.8089
X12.3887Y-2.8089
X9.27Y-3.3714
X9.67Y-3.3714
X10.2075Y-3.3714
X10.6075Y-3.3714
X12.7398Y-1.2728
X13.1398Y-1.2728
X0.0069Y-1.8713
X0.4069Y-1.8713
X9.1762Y-0.3714
X9.5762Y-0.3714
X6.8192Y-0.6909
X7.2132Y-0.6214
X2.5617Y-0.4288
X2.9556Y-0.4982
X6.6935Y-3.7631
X7.0874Y-3.6937
X3.5938Y-2.1339
X3.9877Y-2.2034
X4.3324Y-2.2641
X4.7263Y-2.3336
X11.9887Y-3.5589
X12.3887Y-3.5589
X12.7387Y-3.5589
X13.1387Y-3.5589
X9.2512Y-1.8714
X9.6512Y-1.8714
X11.2387Y-3.5589
X11.6387Y-3.5589
X5.8385Y-1.6253
X6.2324Y-1.5558
X6.0806Y-0.8211
X6.4746Y-0.7516
X8.0574Y-1.2341
X8.4513Y-1.1647
X2.8008Y-1.2325
X3.1947Y-1.302
X3.0943Y-2.8074
X3.4882Y-2.8769
X3.3003Y-0.559
X3.6943Y-0.6285
X7.3188Y-1.3644
X7.7127Y-1.2949
X1.8231Y-0.2985
X2.217Y-0.368
X1.2262Y-1.8714
X1.6262Y-1.8714
T4
X6.4766Y-4.0806
X4.5892Y-4.1093
X10.7825Y-0.6464
X11.72Y-0.6464
X7.3999Y-3.9178
X3.6659Y-3.9465
X0.0012Y-2.8964
X0.9387Y-2.8964
X10.9512Y-2.1464
X11.8887Y-2.1464
T5
X12.9398Y-1.2728
X0.2069Y-1.8713
X9.3762Y-0.3714
X7.0162Y-0.6561
X2.7587Y-0.4635
X6.3724Y-3.4898
X6.8905Y-3.7284
X7.2957Y-3.327
X3.7908Y-2.1686
X4.5294Y-2.2989
X12.1887Y-3.5589
X12.9387Y-3.5589
X9.4512Y-1.8714
X11.4387Y-3.5589
X6.0354Y-1.5906
X6.2776Y-0.7864
X8.2543Y-1.1994
X2.9978Y-1.2672
X3.2912Y-2.8421
X3.4973Y-0.5937
X7.5157Y-1.3296
X2.0201Y-0.3333
X1.4262Y-1.8714
X11.6262Y-1.1214
X10.8812Y-0.3708
X8.5692Y-1.9054
X2.6995Y-3.5006
X3.7364Y-1.3975
X10.1262Y-0.3714
X8.4934Y-0.3957
X10.6887Y-1.1214
X6.1143Y-3.0999
X3.0522Y-2.0384
X10.2012Y-1.8714
X3.7701Y-3.3556
X4.1753Y-3.7571
X4.6934Y-3.5184
X2.2591Y-1.137
X0.3762Y-1.1214
X6.3534Y-2.2961
X1.6887Y-2.6214
X6.853Y-2.9696
X0.395Y-1.8714
X2.5526Y-2.7119
X1.1262Y-0.3714
X11.6276Y-0.3704
X6.7771Y-1.4599
X9.9387Y-2.6214
X7.7548Y-0.5259
X1.3137Y-1.1214
X9.1887Y-2.6214
X4.9745Y-0.8542
X0.0012Y-2.2964
X0.47Y-2.6214
X0.9387Y-2.2964
X10.9512Y-1.5464
X11.42Y-1.8714
X11.8887Y-1.5464
X13.1278Y-2.1728
X4.0298Y-2.9724
X8.3302Y-2.7092
X4.2359Y-0.724
X7.0915Y-2.1663
X9.1887Y-1.1214
X7.8306Y-2.0357
X1.0325Y-3.3714
X0.095Y-3.3714
X10.97Y-2.6214
X10.7825Y-0.0464
X11.2512Y-0.3714
X11.72Y-0.0464
X0.3762Y-0.3714
X12.7538Y-0.3728
X4.7684Y-3.1026
X7.5916Y-2.8394
X4.475Y-1.5277
X8.1836Y-3.4979
X9.9387Y-1.1214
X2.3136Y-1.9082
X12.1887Y-2.8089
X9.47Y-3.3714
X10.4075Y-3.3714
T2
G00X12.5304Y-0.4035
M15
G01X12.5304Y-0.3524
M16
G05
G00X12.9713Y-0.4035
M15
G01X12.9713Y-0.3524
M16
G05
G00X12.7184Y-1.2957
M15
G01X12.7184Y-1.2445
M16
G05
G00X13.1593Y-1.2957
M15
G01X13.1593Y-1.2445
M16
G05
G00X12.9054Y-2.1924
M15
G01X12.9054Y-2.1412
M16
G05
G00X13.3463Y-2.1924
M15
G01X13.3463Y-2.1412
M16
G05
T0
M30
