0
SECTION
2
HEADER
9
$INSUNITS
70
4
9
$ACADVER
1
AC1014
9
$HANDSEED
5
FFFF
0
ENDSEC
0
SECTION
2
TABLES
0
TABLE
2
VPORT
5
8
100
AcDbSymbolTable
0
ENDTAB
0
TABLE
2
LTYPE
5
5
100
AcDbSymbolTable
0
LTYPE
5
14
100
AcDbSymbolTableRecord
100
AcDbLinetypeTableRecord
2
BYBLOCK
70
0
0
LTYPE
5
15
100
AcDbSymbolTableRecord
100
AcDbLinetypeTableRecord
2
BYLAYER
70
0
0
ENDTAB
0
TABLE
2
LAYER
5
2
100
AcDbSymbolTable
70
2
0
LAYER
5
50
100
AcDbSymbolTableRecord
100
AcDbLayerTableRecord
2
0
70
0
6
CONTINUOUS
0
ENDTAB
0
TABLE
2
STYLE
5
3
100
AcDbSymbolTable
70
1
0
STYLE
5
11
100
AcDbSymbolTableRecord
100
AcDbTextStyleTableRecord
2
STANDARD
70
0
0
ENDTAB
0
TABLE
2
VIEW
5
6
100
AcDbSymbolTable
70
0
0
ENDTAB
0
TABLE
2
UCS
5
7
100
AcDbSymbolTable
70
0
0
ENDTAB
0
TABLE
2
APPID
5
9
100
AcDbSymbolTable
70
2
0
APPID
5
12
100
AcDbSymbolTableRecord
100
AcDbRegAppTableRecord
2
ACAD
70
0
0
ENDTAB
0
TABLE
2
DIMSTYLE
5
A
100
AcDbSymbolTable
70
1
0
ENDTAB
0
TABLE
2
BLOCK_RECORD
5
1
100
AcDbSymbolTable
70
1
0
BLOCK_RECORD
5
1F
100
AcDbSymbolTableRecord
100
AcDbBlockTableRecord
2
*MODEL_SPACE
0
BLOCK_RECORD
5
1B
100
AcDbSymbolTableRecord
100
AcDbBlockTableRecord
2
*PAPER_SPACE
0
ENDTAB
0
ENDSEC
0
SECTION
2
BLOCKS
0
BLOCK
5
20
100
AcDbEntity
100
AcDbBlockBegin
2
*MODEL_SPACE
0
ENDBLK
5
21
100
AcDbEntity
100
AcDbBlockEnd
0
BLOCK
5
1C
100
AcDbEntity
100
AcDbBlockBegin
2
*PAPER_SPACE
0
ENDBLK
5
1D
100
AcDbEntity
100
AcDbBlockEnd
0
ENDSEC
0
SECTION
2
ENTITIES
0
LWPOLYLINE
5
100
100
AcDbEntity
8
0
100
AcDbPolyline
90
12
70
1
43
0.0
10
-11.999089999999999
20
-10.000000000000002
42
-0.41421356237309542
10
2.0009100000000224
20
4.0000000000000018
10
85.507088945729564
20
3.9999999999999947
10
144.95240173159968
20
14.487102934517416
42
-0.087528721222431147
10
150.51164895658763
20
14.487140764543236
10
209.96190524876687
20
3.9999999999996794
10
352.99399999999991
20
3.9999999999999547
42
-0.41421356237309626
10
366.99400000000003
20
-9.9999999999999467
10
366.99400000000003
20
-110.02400000000002
42
-0.41421356237309281
10
352.99400000000026
20
-124.02399999999999
10
2.0009100000000073
20
-124.02400000000003
42
-0.41421356237309381
10
-11.999090000000017
20
-110.02400000000006
0
LWPOLYLINE
5
101
100
AcDbEntity
8
0
100
AcDbPolyline
90
78
70
1
43
0.0
10
50.375046249999983
20
-118.32400000000001
10
50.375046249999997
20
-117.77400000000003
42
-0.41421356237309709
10
51.625046250000004
20
-116.52400000000002
10
127.87331874999998
20
-116.52400000000003
42
-0.41421356237311585
10
129.12331874999995
20
-117.77400000000003
10
129.12331874999995
20
-118.32400000000001
42
0.41421356237309503
10
133.37331874999998
20
-122.57400000000004
10
133.87331874999998
20
-122.57400000000004
42
0.41421356237309626
10
138.12331875000001
20
-118.32400000000001
10
138.12331875000001
20
-117.77400000000002
42
-0.41421356237309503
10
139.37331875000001
20
-116.52400000000003
10
215.62159124999999
20
-116.52400000000006
42
-0.4142135623730992
10
216.87159124999999
20
-117.774
10
216.87159124999991
20
-118.324
42
0.41421356237309503
10
221.12159124999994
20
-122.57400000000005
10
221.62159125000005
20
-122.57400000000004
42
0.41421356237309015
10
225.87159124999999
20
-118.32400000000004
10
225.87159124999994
20
-117.774
42
-0.41421356237312001
10
227.12159125000002
20
-116.52400000000002
10
303.36986375000004
20
-116.52400000000006
42
-0.41421356237308671
10
304.61986375000004
20
-117.77399999999994
10
304.61986374999992
20
-118.32400000000001
42
0.41421356237309626
10
308.86986374999998
20
-122.57400000000004
10
309.36986374999998
20
-122.57400000000004
42
0.41421356237309503
10
313.61986375000004
20
-118.32400000000004
10
313.61986375000004
20
-117.77400000000002
42
-0.41421356237308254
10
314.86986374999998
20
-116.52400000000006
10
352.99399999999997
20
-116.52399999999997
42
0.41421356237310303
10
359.49399999999991
20
-110.02400000000002
10
359.49400000000003
20
-10.000000000000007
42
0.41421356237310036
10
352.99399999999991
20
-3.5000000000000089
10
287.14042733166832
20
-3.5000000000001403
42
-0.41421356237308082
10
285.89042733166832
20
-2.2500000000002007
10
285.89042733166832
20
-1.7000000000001882
42
0.4142135623730977
10
281.64042733166832
20
2.5499999999998502
10
281.14042733166832
20
2.5499999999998662
42
0.4142135623730952
10
276.89042733166832
20
-1.7000000000001503
10
276.89042733166832
20
-2.2500000000001719
42
-0.4142135623730816
10
275.64042733166832
20
-3.5000000000001776
10
209.78685466333675
20
-3.5000000000003144
42
-0.043679152987155342
10
208.83139590428246
20
-3.4163731924369518
10
184.68264525044532
20
0.84351336128959298
42
-0.41421356237307422
10
183.66880106104026
20
2.2916569866283476
10
183.76434693694577
20
2.8332943058720228
42
0.41421356237310136
10
180.31727669296845
20
7.7569826320241493
10
179.82487913001975
20
7.8438425192109023
42
0.41421356237309492
10
174.90119080386768
20
4.396772275233598
10
174.80564492796222
20
3.8551349559899819
42
-0.41421356237308077
10
173.35750130262338
20
2.841290766584859
10
149.20875064878635
20
7.101177320311435
42
0.087528721222430605
10
146.2554005605115
20
7.1011572231102127
10
122.10910152440405
20
2.8413642871819187
42
-0.41421356237308876
10
120.66094410101755
20
3.8551887675978058
10
120.56539085389439
20
4.3968247845616224
42
0.41421356237309781
10
115.64165561438024
20
7.8438280179756914
10
115.14925923361974
20
7.7569614293815592
42
0.41421356237309437
10
111.70225600020572
20
2.8332261898674549
10
111.79780924759649
20
2.2915901713866624
42
-0.41421356239148044
10
110.78398476710326
20
0.8434327479865128
10
86.637685730134933
20
-3.4163601865294675
42
-0.043682561904744212
10
85.682153256006032
20
-3.4999999980983727
10
49.591531628002997
20
-3.4999999980981711
42
-0.4142135623731012
10
48.341531628002983
20
-2.2499999980981622
10
48.341531628002969
20
-1.7000000000000017
42
0.41421356237309531
10
44.091531628002976
20
2.5499999999999905
10
43.591531628002983
20
2.5500000000000078
42
0.4142135623730962
10
39.341531628002976
20
-1.7000000000000171
10
39.341531628002997
20
-2.2499999980983807
42
-0.41421356237308959
10
38.091531628002997
20
-3.4999999980983736
10
2.0009100000000029
20
-3.4999999980983612
42
0.41421356237309553
10
-4.4990899999999971
20
-9.9999999980983745
10
-4.4990900000000122
20
-110.02400000000002
42
0.41421356237309392
10
2.0009100000000046
20
-116.52400000000003
10
40.125046249999983
20
-116.52400000000003
42
-0.41421356237309709
10
41.375046249999997
20
-117.774
10
41.375046249999983
20
-118.32400000000004
42
0.4142135623730932
10
45.62504624999999
20
-122.57400000000004
10
46.12504624999999
20
-122.57400000000001
42
0.41421356237309503
0
LWPOLYLINE
5
102
100
AcDbEntity
8
0
100
AcDbPolyline
90
12
70
1
43
0.0
10
366.99400000000003
20
-9.9999999999999467
10
366.99400000000003
20
-110.02400000000002
42
-0.41421356237309281
10
352.99400000000026
20
-124.02399999999999
10
2.0009100000000073
20
-124.02400000000003
42
-0.41421356237309381
10
-11.999090000000017
20
-110.02400000000006
10
-11.999089999999999
20
-10.000000000000002
42
-0.41421356237309553
10
2.0009100000000224
20
4.0000000000000018
10
85.507088945729564
20
3.9999999999999947
10
144.95240173159968
20
14.487102934517416
42
-0.087528721222431147
10
150.51164895658763
20
14.487140764543236
10
209.96190524876687
20
3.9999999999996794
10
352.99399999999991
20
3.9999999999999547
42
-0.41421356237309626
0
ENDSEC
0
SECTION
2
OBJECTS
0
DICTIONARY
5
C
100
AcDbDictionary
3
ACAD_GROUP
350
D
3
ACAD_MLINESTYLE
350
17
0
DICTIONARY
5
D
100
AcDbDictionary
0
DICTIONARY
5
1A
330
C
100
AcDbDictionary
0
DICTIONARY
5
17
100
AcDbDictionary
0
ENDSEC
0
EOF
