0
SECTION
2
HEADER
9
$INSUNITS
70
4
9
$ACADVER
1
AC1014
9
$HANDSEED
5
FFFF
0
ENDSEC
0
SECTION
2
TABLES
0
TABLE
2
VPORT
5
8
100
AcDbSymbolTable
0
ENDTAB
0
TABLE
2
LTYPE
5
5
100
AcDbSymbolTable
0
LTYPE
5
14
100
AcDbSymbolTableRecord
100
AcDbLinetypeTableRecord
2
BYBLOCK
70
0
0
LTYPE
5
15
100
AcDbSymbolTableRecord
100
AcDbLinetypeTableRecord
2
BYLAYER
70
0
0
ENDTAB
0
TABLE
2
LAYER
5
2
100
AcDbSymbolTable
70
2
0
LAYER
5
50
100
AcDbSymbolTableRecord
100
AcDbLayerTableRecord
2
0
70
0
6
CONTINUOUS
0
ENDTAB
0
TABLE
2
STYLE
5
3
100
AcDbSymbolTable
70
1
0
STYLE
5
11
100
AcDbSymbolTableRecord
100
AcDbTextStyleTableRecord
2
STANDARD
70
0
0
ENDTAB
0
TABLE
2
VIEW
5
6
100
AcDbSymbolTable
70
0
0
ENDTAB
0
TABLE
2
UCS
5
7
100
AcDbSymbolTable
70
0
0
ENDTAB
0
TABLE
2
APPID
5
9
100
AcDbSymbolTable
70
2
0
APPID
5
12
100
AcDbSymbolTableRecord
100
AcDbRegAppTableRecord
2
ACAD
70
0
0
ENDTAB
0
TABLE
2
DIMSTYLE
5
A
100
AcDbSymbolTable
70
1
0
ENDTAB
0
TABLE
2
BLOCK_RECORD
5
1
100
AcDbSymbolTable
70
1
0
BLOCK_RECORD
5
1F
100
AcDbSymbolTableRecord
100
AcDbBlockTableRecord
2
*MODEL_SPACE
0
BLOCK_RECORD
5
1B
100
AcDbSymbolTableRecord
100
AcDbBlockTableRecord
2
*PAPER_SPACE
0
ENDTAB
0
ENDSEC
0
SECTION
2
BLOCKS
0
BLOCK
5
20
100
AcDbEntity
100
AcDbBlockBegin
2
*MODEL_SPACE
0
ENDBLK
5
21
100
AcDbEntity
100
AcDbBlockEnd
0
BLOCK
5
1C
100
AcDbEntity
100
AcDbBlockBegin
2
*PAPER_SPACE
0
ENDBLK
5
1D
100
AcDbEntity
100
AcDbBlockEnd
0
ENDSEC
0
SECTION
2
ENTITIES
0
LWPOLYLINE
5
100
100
AcDbEntity
8
0
100
AcDbPolyline
90
4
70
1
43
0.0
10
226.79100000000003
20
48.772900000000007
10
229.22200000000004
20
34.985599999999998
10
215.43400000000005
20
32.5548
10
213.00299999999999
20
46.341900000000003
0
LWPOLYLINE
5
101
100
AcDbEntity
8
0
100
AcDbPolyline
90
4
70
1
43
0.0
10
210.46099999999998
20
31.6784
10
196.67400000000001
20
29.247499999999999
10
194.24300000000002
20
43.033200000000001
10
208.03
20
45.464200000000005
0
LWPOLYLINE
5
102
100
AcDbEntity
8
0
100
AcDbPolyline
90
4
70
1
43
0.0
10
66.241100000000003
20
34.985599999999998
10
68.673100000000005
20
48.772900000000007
10
82.459000000000003
20
46.341900000000003
10
80.028300000000016
20
32.5548
0
LWPOLYLINE
5
103
100
AcDbEntity
8
0
100
AcDbPolyline
90
4
70
1
43
0.0
10
19.000399999999999
20
30.824000000000002
10
5.0009100000000011
20
30.824000000000002
10
5.0009100000000011
20
16.8245
10
19.000399999999999
20
16.8245
0
LWPOLYLINE
5
104
100
AcDbEntity
8
0
100
AcDbPolyline
90
4
70
1
43
0.0
10
326.18200000000002
20
26.061499999999999
10
312.18200000000002
20
26.061499999999999
10
312.18200000000002
20
12.062000000000001
10
326.18200000000002
20
12.062000000000001
0
LWPOLYLINE
5
105
100
AcDbEntity
8
0
100
AcDbPolyline
90
4
70
1
43
0.0
10
326.18200000000002
20
45.111499999999999
10
312.18200000000002
20
45.111499999999999
10
312.18200000000002
20
31.112000000000002
10
326.18200000000002
20
31.112000000000002
0
LWPOLYLINE
5
106
100
AcDbEntity
8
0
100
AcDbPolyline
90
4
70
1
43
0.0
10
159.15299999999999
20
22.631499999999999
10
156.72200000000001
20
36.417299999999997
10
170.50900000000001
20
38.848199999999999
10
172.94
20
25.0624
0
LWPOLYLINE
5
107
100
AcDbEntity
8
0
100
AcDbPolyline
90
4
70
1
43
0.0
10
122.52400000000002
20
25.0624
10
124.955
20
38.848199999999999
10
138.74100000000001
20
36.417299999999997
10
136.31
20
22.631499999999999
0
LWPOLYLINE
5
108
100
AcDbEntity
8
0
100
AcDbPolyline
90
4
70
1
43
0.0
10
331.23199999999997
20
26.061499999999999
10
331.23199999999997
20
12.062000000000001
10
345.23199999999997
20
12.062000000000001
10
345.23199999999997
20
26.061499999999999
0
LWPOLYLINE
5
109
100
AcDbEntity
8
0
100
AcDbPolyline
90
4
70
1
43
0.0
10
28.811999999999998
20
30.824000000000002
10
28.811999999999998
20
16.8245
10
42.81280000000001
20
16.8245
10
42.81280000000001
20
30.824000000000002
0
LWPOLYLINE
5
110
100
AcDbEntity
8
0
100
AcDbPolyline
90
4
70
1
43
0.0
10
83.755799999999994
20
12.552500000000002
10
69.968500000000006
20
14.9848
10
72.399500000000003
20
28.772099999999998
10
86.188199999999995
20
26.341200000000001
0
LWPOLYLINE
5
111
100
AcDbEntity
8
0
100
AcDbPolyline
90
4
70
1
43
0.0
10
177.91300000000001
20
25.938800000000004
10
175.48200000000003
20
39.725999999999999
10
189.27000000000004
20
42.156900000000007
10
191.69999999999999
20
28.369700000000005
0
LWPOLYLINE
5
112
100
AcDbEntity
8
0
100
AcDbPolyline
90
4
70
1
43
0.0
10
85.001499999999993
20
31.6784
10
87.433899999999994
20
45.464200000000005
10
101.22100000000002
20
43.033200000000001
10
98.788700000000006
20
29.247499999999999
0
LWPOLYLINE
5
113
100
AcDbEntity
8
0
100
AcDbPolyline
90
4
70
1
43
0.0
10
106.19300000000001
20
42.156900000000007
10
119.98000000000002
20
39.725999999999999
10
117.54899999999999
20
25.938800000000004
10
103.762
20
28.369700000000005
0
LWPOLYLINE
5
114
100
AcDbEntity
8
0
100
AcDbPolyline
90
36
70
1
43
0.0
10
14.5259
20
45.173499999999997
10
14.5259
20
49.874000000000002
10
28.525400000000005
20
49.874000000000002
10
28.525400000000005
20
45.173499999999997
10
30.050899999999999
20
45.173499999999997
10
30.050899999999999
20
48.403600000000004
10
36.800400000000003
20
48.403600000000004
10
36.800400000000003
20
45.173499999999997
10
37.625900000000001
20
45.173499999999997
10
37.625900000000001
20
42.373199999999997
10
36.800400000000003
20
42.373199999999997
10
36.800400000000003
20
36.103299999999997
10
35.075200000000002
20
36.103299999999997
10
35.075200000000002
20
34.904299999999999
10
31.774799999999999
20
34.904299999999999
10
31.774799999999999
20
36.103299999999997
10
30.050899999999999
20
36.103299999999997
10
30.050899999999999
20
40.573700000000002
10
28.525400000000005
20
40.573700000000002
10
28.525400000000005
20
35.874299999999998
10
14.5259
20
35.874299999999998
10
14.5259
20
40.573700000000002
10
13.000400000000001
20
40.573700000000002
10
13.000400000000001
20
36.103299999999997
10
11.2751
20
36.103299999999997
10
11.2751
20
34.904299999999999
10
7.9760900000000001
20
34.904299999999999
10
7.9760900000000001
20
36.103299999999997
10
6.2508000000000008
20
36.103299999999997
10
6.2508000000000008
20
42.373199999999997
10
5.4253300000000007
20
42.373199999999997
10
5.4253300000000007
20
45.173499999999997
10
6.2508000000000008
20
45.173499999999997
10
6.2508000000000008
20
48.403600000000004
10
13.000400000000001
20
48.403600000000004
10
13.000400000000001
20
45.173499999999997
0
LWPOLYLINE
5
115
100
AcDbEntity
8
0
100
AcDbPolyline
90
36
70
1
43
0.0
10
172.59400000000002
20
4.6715499999999999
10
172.38600000000002
20
5.8539200000000005
10
170.68700000000004
20
5.5534999999999997
10
169.59799999999998
20
11.728500000000002
10
168.785
20
11.5852
10
168.30000000000001
20
14.342600000000001
10
169.11100000000002
20
14.485900000000003
10
168.55099999999999
20
17.666399999999999
10
175.19800000000001
20
18.839099999999998
10
175.75900000000001
20
15.657300000000001
10
177.261
20
15.9232
10
176.44400000000002
20
20.552100000000003
10
190.23300000000003
20
22.982900000000001
10
191.04900000000001
20
18.354099999999999
10
192.55099999999999
20
18.6187
10
191.99000000000001
20
21.799199999999999
10
198.63600000000002
20
22.971900000000002
10
199.19700000000003
20
19.791400000000003
10
200.01000000000002
20
19.933299999999999
10
200.49599999999998
20
17.177199999999999
10
199.68299999999999
20
17.033899999999999
10
200.77200000000005
20
10.859000000000004
10
199.07400000000001
20
10.558500000000002
10
199.28200000000004
20
9.3775399999999998
10
196.03300000000002
20
8.80565
10
195.82499999999999
20
9.9852699999999999
10
194.125
20
9.6862200000000005
10
193.35000000000002
20
14.089100000000002
10
191.84799999999998
20
13.824500000000002
10
192.66400000000004
20
9.1956500000000005
10
178.87599999999998
20
6.76342
10
178.06
20
11.392300000000002
10
176.55799999999999
20
11.127700000000001
10
177.334
20
6.7262000000000013
10
175.63500000000002
20
6.4271900000000004
10
175.84299999999999
20
5.2448199999999998
0
LWPOLYLINE
5
116
100
AcDbEntity
8
0
100
AcDbPolyline
90
14
70
1
43
0.0
10
352.99399999999997
20
115.02400000000002
10
2.0009100000000002
20
115.02400000000002
42
0.41421356237309503
10
-2.9990899999999998
20
110.02400000000002
10
-2.9990899999999998
20
9.9999999999999964
42
0.41421356237309531
10
2.0009100000000046
20
4.9999999999999964
10
85.682153245193376
20
5.0000000000000036
42
-0.04368256192048596
10
86.898285485511067
20
4.8935493306467244
10
146.51600032629389
20
-5.6239680808287718
42
0.087528721222431508
10
148.94817098722609
20
-5.623984631465067
10
208.57081624272223
20
4.8935658812833225
42
-0.043679152987157237
10
209.78685466333673
20
5.0000000000003153
10
352.99399999999991
20
5.0000000000000133
42
0.4142135623731068
10
357.99399999999997
20
10
10
357.99399999999997
20
110.02400000000002
42
0.41421356237309503
0
LWPOLYLINE
5
117
100
AcDbEntity
8
0
100
AcDbPolyline
90
4
70
1
43
0.0
10
225.49400000000006
20
14.9848
10
211.708
20
12.552500000000002
10
209.27599999999998
20
26.341200000000001
10
223.06299999999999
20
28.772099999999998
0
LWPOLYLINE
5
118
100
AcDbEntity
8
0
100
AcDbPolyline
90
4
70
1
43
0.0
10
307.13200000000001
20
12.062000000000001
10
307.13200000000001
20
26.061499999999999
10
293.13200000000001
20
26.061499999999999
10
293.13200000000001
20
12.062000000000001
0
LWPOLYLINE
5
119
100
AcDbEntity
8
0
100
AcDbPolyline
90
4
70
1
43
0.0
10
266.93700000000001
20
30.824000000000002
10
266.93700000000001
20
16.8245
10
280.93799999999999
20
16.8245
10
280.93799999999999
20
30.824000000000002
0
LWPOLYLINE
5
120
100
AcDbEntity
8
0
100
AcDbPolyline
90
4
70
1
43
0.0
10
243.126
20
16.8245
10
257.125
20
16.8245
10
257.125
20
30.824000000000002
10
243.126
20
30.824000000000002
0
LWPOLYLINE
5
121
100
AcDbEntity
8
0
100
AcDbPolyline
90
36
70
1
43
0.0
10
103.43000000000002
20
23.066999999999997
10
103.63799999999999
20
24.248000000000005
10
106.88900000000001
20
23.674700000000005
10
106.68100000000001
20
22.493700000000004
10
108.38000000000001
20
22.193300000000001
10
107.60300000000001
20
17.791899999999998
10
109.105
20
17.5273
10
109.92100000000001
20
22.156099999999999
10
123.70800000000001
20
19.725300000000001
10
122.89200000000001
20
15.096400000000001
10
124.39399999999999
20
14.830500000000002
10
125.17000000000002
20
19.2333
10
126.86900000000001
20
18.9343
10
127.07700000000003
20
20.115200000000005
10
130.32800000000003
20
19.543299999999999
10
130.119
20
18.361000000000001
10
131.81799999999998
20
18.060600000000001
10
130.72899999999998
20
11.887
10
131.542
20
11.7423
10
131.05600000000004
20
8.9862000000000002
10
130.24200000000002
20
9.1295000000000002
10
129.68200000000002
20
5.9476200000000006
10
123.03399999999999
20
7.12033
10
123.595
20
10.300800000000001
10
122.09299999999999
20
10.566800000000001
10
121.27700000000002
20
5.9365800000000002
10
107.49000000000001
20
8.3688399999999987
10
108.30600000000001
20
12.996300000000002
10
106.80500000000002
20
13.2623
10
106.24400000000001
20
10.080299999999999
10
99.594800000000006
20
11.253
10
100.15600000000001
20
14.433600000000002
10
99.343999999999994
20
14.576900000000002
10
99.830500000000001
20
17.334299999999999
10
100.64200000000001
20
17.192399999999999
10
101.73100000000002
20
23.366000000000003
0
LWPOLYLINE
5
122
100
AcDbEntity
8
0
100
AcDbPolyline
90
4
70
1
43
0.0
10
295.22500000000002
20
49.874000000000002
10
281.226
20
49.874000000000002
10
281.226
20
35.874299999999998
10
295.22500000000002
20
35.874299999999998
0
LWPOLYLINE
5
123
100
AcDbEntity
8
0
100
AcDbPolyline
90
4
70
1
43
0.0
10
255.03200000000004
20
35.874299999999998
10
269.03199999999998
20
35.874299999999998
10
269.03199999999998
20
49.874000000000002
10
255.03200000000004
20
49.874000000000002
0
LWPOLYLINE
5
124
100
AcDbEntity
8
0
100
AcDbPolyline
90
4
70
1
43
0.0
10
181.55500000000001
20
60.14050000000001
10
195.34099999999998
20
62.571100000000008
10
197.77200000000005
20
48.783900000000003
10
183.98599999999999
20
46.353200000000001
0
LWPOLYLINE
5
125
100
AcDbEntity
8
0
100
AcDbPolyline
90
4
70
1
43
0.0
10
162.79300000000003
20
56.831800000000001
10
176.58199999999999
20
59.2624
10
179.01300000000003
20
45.475200000000001
10
165.22400000000002
20
43.044499999999999
0
LWPOLYLINE
5
126
100
AcDbEntity
8
0
100
AcDbPolyline
90
4
70
1
43
0.0
10
249.982
20
49.874000000000002
10
235.98200000000003
20
49.874000000000002
10
235.98200000000003
20
35.874299999999998
10
249.982
20
35.874299999999998
0
LWPOLYLINE
5
127
100
AcDbEntity
8
0
100
AcDbPolyline
90
4
70
1
43
0.0
10
45.482199999999999
20
35.874299999999998
10
59.481499999999997
20
35.874299999999998
10
59.481499999999997
20
49.874000000000002
10
45.482199999999999
20
49.874000000000002
0
LWPOLYLINE
5
128
100
AcDbEntity
8
0
100
AcDbPolyline
90
4
70
1
43
0.0
10
132.66899999999998
20
56.831800000000001
10
130.238
20
43.044499999999999
10
116.45100000000001
20
45.475200000000001
10
118.88200000000001
20
59.2624
0
LWPOLYLINE
5
129
100
AcDbEntity
8
0
100
AcDbPolyline
90
4
70
1
43
0.0
10
335.995
20
68.923999999999992
10
335.995
20
54.924300000000002
10
349.99400000000003
20
54.924300000000002
10
349.99400000000003
20
68.923999999999992
0
LWPOLYLINE
5
130
100
AcDbEntity
8
0
100
AcDbPolyline
90
4
70
1
43
0.0
10
111.47800000000001
20
46.353200000000001
10
97.6905
20
48.783900000000003
10
100.12200000000001
20
62.571100000000008
10
113.90900000000001
20
60.14050000000001
0
LWPOLYLINE
5
131
100
AcDbEntity
8
0
100
AcDbPolyline
90
4
70
1
43
0.0
10
275.69999999999999
20
68.923999999999992
10
261.69900000000001
20
68.923999999999992
10
261.69900000000001
20
54.924300000000002
10
275.69999999999999
20
54.924300000000002
0
LWPOLYLINE
5
132
100
AcDbEntity
8
0
100
AcDbPolyline
90
4
70
1
43
0.0
10
202.74700000000001
20
49.660499999999999
10
200.31400000000005
20
63.447800000000001
10
214.10300000000001
20
65.878399999999999
10
216.53400000000005
20
52.091200000000001
0
LWPOLYLINE
5
133
100
AcDbEntity
8
0
100
AcDbPolyline
90
36
70
1
43
0.0
10
291.13
20
64.223500000000001
10
292.65499999999997
20
64.223500000000001
10
292.65499999999997
20
68.923999999999992
10
306.65499999999997
20
68.923999999999992
10
306.65499999999997
20
64.223500000000001
10
308.18000000000001
20
64.223500000000001
10
308.18000000000001
20
67.453599999999994
10
314.93000000000001
20
67.453599999999994
10
314.93000000000001
20
64.223500000000001
10
315.75599999999997
20
64.223500000000001
10
315.75599999999997
20
61.423200000000008
10
314.93000000000001
20
61.423200000000008
10
314.93000000000001
20
55.153300000000002
10
313.20600000000002
20
55.153300000000002
10
313.20600000000002
20
53.954200000000007
10
309.90600000000001
20
53.954200000000007
10
309.90600000000001
20
55.153300000000002
10
308.18000000000001
20
55.153300000000002
10
308.18000000000001
20
59.623699999999999
10
306.65499999999997
20
59.623699999999999
10
306.65499999999997
20
54.924300000000002
10
292.65499999999997
20
54.924300000000002
10
292.65499999999997
20
59.623699999999999
10
291.13
20
59.623699999999999
10
291.13
20
55.153300000000002
10
289.40600000000006
20
55.153300000000002
10
289.40600000000006
20
53.954200000000007
10
286.10599999999999
20
53.954200000000007
10
286.10599999999999
20
55.153300000000002
10
284.38
20
55.153300000000002
10
284.38
20
61.423200000000008
10
283.55599999999998
20
61.423200000000008
10
283.55599999999998
20
64.223500000000001
10
284.38
20
64.223500000000001
10
284.38
20
67.453599999999994
10
291.13
20
67.453599999999994
0
LWPOLYLINE
5
134
100
AcDbEntity
8
0
100
AcDbPolyline
90
4
70
1
43
0.0
10
73.956699999999998
20
52.968900000000005
10
60.16940000000001
20
55.399900000000002
10
62.600100000000005
20
69.187100000000015
10
76.387299999999996
20
66.756100000000004
0
LWPOLYLINE
5
135
100
AcDbEntity
8
0
100
AcDbPolyline
90
4
70
1
43
0.0
10
75.005099999999999
20
86.343800000000002
10
72.5745
20
72.5565
10
58.787200000000006
20
74.988600000000005
10
61.217900000000007
20
88.774799999999999
0
LWPOLYLINE
5
136
100
AcDbEntity
8
0
100
AcDbPolyline
90
4
70
1
43
0.0
10
242.649
20
68.923999999999992
10
242.649
20
54.924300000000002
10
256.64999999999998
20
54.924300000000002
10
256.64999999999998
20
68.923999999999992
0
LWPOLYLINE
5
137
100
AcDbEntity
8
0
100
AcDbPolyline
90
4
70
1
43
0.0
10
331.23199999999997
20
87.97399999999999
10
331.23199999999997
20
73.974299999999999
10
345.23199999999997
20
73.974299999999999
10
345.23199999999997
20
87.97399999999999
0
LWPOLYLINE
5
138
100
AcDbEntity
8
0
100
AcDbPolyline
90
4
70
1
43
0.0
10
38.813699999999997
20
54.924300000000002
10
52.814700000000002
20
54.924300000000002
10
52.814700000000002
20
68.923999999999992
10
38.813699999999997
20
68.923999999999992
0
LWPOLYLINE
5
139
100
AcDbEntity
8
0
100
AcDbPolyline
90
4
70
1
43
0.0
10
92.717100000000002
20
49.660499999999999
10
78.9298
20
52.091200000000001
10
81.360799999999998
20
65.878399999999999
10
95.147999999999996
20
63.447800000000001
0
LWPOLYLINE
5
140
100
AcDbEntity
8
0
100
AcDbPolyline
90
4
70
1
43
0.0
10
232.86200000000002
20
69.187100000000015
10
235.29300000000003
20
55.399900000000002
10
221.50599999999997
20
52.968900000000005
10
219.07499999999999
20
66.756100000000004
0
LWPOLYLINE
5
141
100
AcDbEntity
8
0
100
AcDbPolyline
90
4
70
1
43
0.0
10
157.226
20
60.978300000000004
10
154.79499999999999
20
74.765600000000006
10
168.58199999999999
20
77.196200000000005
10
171.01300000000003
20
63.410400000000003
0
LWPOLYLINE
5
142
100
AcDbEntity
8
0
100
AcDbPolyline
90
4
70
1
43
0.0
10
187.34300000000002
20
80.504900000000021
10
189.77500000000003
20
66.717699999999994
10
175.988
20
64.286699999999996
10
173.55700000000002
20
78.074299999999994
0
LWPOLYLINE
5
143
100
AcDbEntity
8
0
100
AcDbPolyline
90
4
70
1
43
0.0
10
211.077
20
84.689899999999994
10
224.86400000000003
20
87.12090000000002
10
227.29500000000002
20
73.333699999999993
10
213.50900000000001
20
70.90270000000001
0
LWPOLYLINE
5
144
100
AcDbEntity
8
0
100
AcDbPolyline
90
4
70
1
43
0.0
10
255.03200000000004
20
73.974299999999999
10
269.03199999999998
20
73.974299999999999
10
269.03199999999998
20
87.97399999999999
10
255.03200000000004
20
87.97399999999999
0
LWPOLYLINE
5
145
100
AcDbEntity
8
0
100
AcDbPolyline
90
4
70
1
43
0.0
10
98.739300000000014
20
82.158799999999999
10
112.52700000000002
20
79.727800000000002
10
110.096
20
65.9405
10
96.308300000000017
20
68.371499999999997
0
LWPOLYLINE
5
146
100
AcDbEntity
8
0
100
AcDbPolyline
90
4
70
1
43
0.0
10
297.89499999999998
20
73.974299999999999
10
311.89400000000001
20
73.974299999999999
10
311.89400000000001
20
87.97399999999999
10
297.89499999999998
20
87.97399999999999
0
LWPOLYLINE
5
147
100
AcDbEntity
8
0
100
AcDbPolyline
90
4
70
1
43
0.0
10
194.74700000000001
20
67.595399999999998
10
192.316
20
81.381600000000006
10
206.10500000000002
20
83.812200000000004
10
208.536
20
70.026399999999995
0
LWPOLYLINE
5
148
100
AcDbEntity
8
0
100
AcDbPolyline
90
4
70
1
43
0.0
10
49.956500000000005
20
87.97399999999999
10
35.9572
20
87.97399999999999
10
35.9572
20
73.974299999999999
10
49.956500000000005
20
73.974299999999999
0
LWPOLYLINE
5
149
100
AcDbEntity
8
0
100
AcDbPolyline
90
4
70
1
43
0.0
10
125.214
20
96.834699999999998
10
122.783
20
83.04740000000001
10
108.99600000000001
20
85.478399999999993
10
111.42800000000001
20
99.265699999999995
0
LWPOLYLINE
5
150
100
AcDbEntity
8
0
100
AcDbPolyline
90
4
70
1
43
0.0
10
91.334900000000005
20
69.249200000000002
10
77.547600000000017
20
71.680199999999999
10
79.9786
20
85.467500000000015
10
93.765900000000002
20
83.036500000000018
0
LWPOLYLINE
5
151
100
AcDbEntity
8
0
100
AcDbPolyline
90
4
70
1
43
0.0
10
131.28700000000003
20
76.420500000000004
10
128.85599999999999
20
62.633200000000002
10
115.06900000000002
20
65.0642
10
117.5
20
78.851500000000001
0
LWPOLYLINE
5
152
100
AcDbEntity
8
0
100
AcDbPolyline
90
4
70
1
43
0.0
10
26.620899999999999
20
68.923999999999992
10
12.620100000000001
20
68.923999999999992
10
12.620100000000001
20
54.924300000000002
10
26.620899999999999
20
54.924300000000002
0
LWPOLYLINE
5
153
100
AcDbEntity
8
0
100
AcDbPolyline
90
4
70
1
43
0.0
10
274.08199999999999
20
87.97399999999999
10
274.08199999999999
20
73.974299999999999
10
288.08199999999999
20
73.974299999999999
10
288.08199999999999
20
87.97399999999999
0
LWPOLYLINE
5
154
100
AcDbEntity
8
0
100
AcDbPolyline
90
4
70
1
43
0.0
10
235.98200000000003
20
87.97399999999999
10
235.98200000000003
20
73.974299999999999
10
249.982
20
73.974299999999999
10
249.982
20
87.97399999999999
0
LWPOLYLINE
5
155
100
AcDbEntity
8
0
100
AcDbPolyline
90
36
70
1
43
0.0
10
280.09500000000003
20
99.523200000000003
10
279.26900000000001
20
99.523200000000003
10
279.26900000000001
20
102.324
10
280.09500000000003
20
102.324
10
280.09500000000003
20
105.554
10
286.84399999999999
20
105.554
10
286.84399999999999
20
102.324
10
288.37
20
102.324
10
288.37
20
107.024
10
302.36900000000003
20
107.024
10
302.36900000000003
20
102.324
10
303.89299999999997
20
102.324
10
303.89299999999997
20
105.554
10
310.64299999999997
20
105.554
10
310.64299999999997
20
102.324
10
311.47000000000003
20
102.324
10
311.47000000000003
20
99.523200000000003
10
310.64299999999997
20
99.523200000000003
10
310.64299999999997
20
93.253299999999996
10
308.9190000000001
20
93.253299999999996
10
308.9190000000001
20
92.054200000000009
10
305.62
20
92.054200000000009
10
305.62
20
93.253299999999996
10
303.89299999999997
20
93.253299999999996
10
303.89299999999997
20
97.725099999999998
10
302.36900000000003
20
97.725099999999998
10
302.36900000000003
20
93.024299999999997
10
288.37
20
93.024299999999997
10
288.37
20
97.725099999999998
10
286.84399999999999
20
97.725099999999998
10
286.84399999999999
20
93.253299999999996
10
285.11900000000003
20
93.253299999999996
10
285.11900000000003
20
92.054200000000009
10
281.81799999999998
20
92.054200000000009
10
281.81799999999998
20
93.253299999999996
10
280.09500000000003
20
93.253299999999996
0
LWPOLYLINE
5
156
100
AcDbEntity
8
0
100
AcDbPolyline
90
4
70
1
43
0.0
10
127.75800000000001
20
82.16970000000002
10
130.18899999999999
20
95.958400000000012
10
143.976
20
93.5274
10
141.54399999999998
20
79.738699999999994
0
LWPOLYLINE
5
157
100
AcDbEntity
8
0
100
AcDbPolyline
90
4
70
1
43
0.0
10
179.62900000000002
20
98.488500000000002
10
193.416
20
100.91900000000001
10
195.84700000000001
20
87.131900000000002
10
182.05900000000003
20
84.7012
0
LWPOLYLINE
5
158
100
AcDbEntity
8
0
100
AcDbPolyline
90
4
70
1
43
0.0
10
174.65500000000003
20
97.611900000000006
10
177.08600000000001
20
83.8232
10
163.29900000000004
20
81.392500000000013
10
160.86799999999999
20
95.181200000000018
0
LWPOLYLINE
5
159
100
AcDbEntity
8
0
100
AcDbPolyline
90
4
70
1
43
0.0
10
90.235299999999995
20
88.78570000000002
10
92.666300000000007
20
102.57400000000001
10
106.455
20
100.14299999999999
10
104.024
20
86.354699999999994
0
LWPOLYLINE
5
160
100
AcDbEntity
8
0
100
AcDbPolyline
90
4
70
1
43
0.0
10
230.93700000000001
20
107.53500000000001
10
233.36799999999999
20
93.747900000000016
10
219.58100000000002
20
91.3172
10
217.15000000000003
20
105.10400000000001
0
LWPOLYLINE
5
161
100
AcDbEntity
8
0
100
AcDbPolyline
90
4
70
1
43
0.0
10
12.144700000000002
20
73.974299999999999
10
26.144100000000002
20
73.974299999999999
10
26.144100000000002
20
87.97399999999999
10
12.144700000000002
20
87.97399999999999
0
LWPOLYLINE
5
162
100
AcDbEntity
8
0
100
AcDbPolyline
90
4
70
1
43
0.0
10
214.60700000000003
20
90.4392
10
200.81999999999999
20
88.008499999999998
10
198.38900000000001
20
101.79700000000003
10
212.17600000000002
20
104.22800000000001
0
LWPOLYLINE
5
163
100
AcDbEntity
8
0
100
AcDbPolyline
90
4
70
1
43
0.0
10
87.692800000000005
20
103.45100000000002
10
85.262200000000007
20
89.66340000000001
10
71.475999999999999
20
92.094399999999993
10
73.906899999999993
20
105.88200000000001
0
LWPOLYLINE
5
164
100
AcDbEntity
8
0
100
AcDbPolyline
90
4
70
1
43
0.0
10
52.714199999999998
20
95.401700000000019
10
55.144799999999996
20
109.19
10
68.933499999999995
20
106.759
10
66.501400000000004
20
92.970699999999994
0
LWPOLYLINE
5
165
100
AcDbEntity
8
0
100
AcDbPolyline
90
4
70
1
43
0.0
10
273.79400000000004
20
107.024
10
259.79500000000002
20
107.024
10
259.79500000000002
20
93.024299999999997
10
273.79400000000004
20
93.024299999999997
0
LWPOLYLINE
5
166
100
AcDbEntity
8
0
100
AcDbPolyline
90
4
70
1
43
0.0
10
340.46899999999999
20
93.024299999999997
10
340.46899999999999
20
107.024
10
326.47000000000003
20
107.024
10
326.47000000000003
20
93.024299999999997
0
LWPOLYLINE
5
167
100
AcDbEntity
8
0
100
AcDbPolyline
90
4
70
1
43
0.0
10
31.194700000000001
20
107.024
10
31.194700000000001
20
93.024299999999997
10
45.194000000000003
20
93.024299999999997
10
45.194000000000003
20
107.024
0
LWPOLYLINE
5
168
100
AcDbEntity
8
0
100
AcDbPolyline
90
4
70
1
43
0.0
10
240.745
20
93.024299999999997
10
254.74400000000003
20
93.024299999999997
10
254.74400000000003
20
107.024
10
240.745
20
107.024
0
LWPOLYLINE
5
169
100
AcDbEntity
8
0
100
AcDbPolyline
90
4
70
1
43
0.0
10
12.144700000000002
20
107.024
10
12.144700000000002
20
93.024299999999997
10
26.144100000000002
20
93.024299999999997
10
26.144100000000002
20
107.024
0
ENDSEC
0
SECTION
2
OBJECTS
0
DICTIONARY
5
C
100
AcDbDictionary
3
ACAD_GROUP
350
D
3
ACAD_MLINESTYLE
350
17
0
DICTIONARY
5
D
100
AcDbDictionary
0
DICTIONARY
5
1A
330
C
100
AcDbDictionary
0
DICTIONARY
5
17
100
AcDbDictionary
0
ENDSEC
0
EOF
