0
SECTION
2
HEADER
9
$INSUNITS
70
4
9
$ACADVER
1
AC1014
9
$HANDSEED
5
FFFF
0
ENDSEC
0
SECTION
2
TABLES
0
TABLE
2
VPORT
5
8
100
AcDbSymbolTable
0
ENDTAB
0
TABLE
2
LTYPE
5
5
100
AcDbSymbolTable
0
LTYPE
5
14
100
AcDbSymbolTableRecord
100
AcDbLinetypeTableRecord
2
BYBLOCK
70
0
0
LTYPE
5
15
100
AcDbSymbolTableRecord
100
AcDbLinetypeTableRecord
2
BYLAYER
70
0
0
ENDTAB
0
TABLE
2
LAYER
5
2
100
AcDbSymbolTable
70
2
0
LAYER
5
50
100
AcDbSymbolTableRecord
100
AcDbLayerTableRecord
2
0
70
0
6
CONTINUOUS
0
ENDTAB
0
TABLE
2
STYLE
5
3
100
AcDbSymbolTable
70
1
0
STYLE
5
11
100
AcDbSymbolTableRecord
100
AcDbTextStyleTableRecord
2
STANDARD
70
0
0
ENDTAB
0
TABLE
2
VIEW
5
6
100
AcDbSymbolTable
70
0
0
ENDTAB
0
TABLE
2
UCS
5
7
100
AcDbSymbolTable
70
0
0
ENDTAB
0
TABLE
2
APPID
5
9
100
AcDbSymbolTable
70
2
0
APPID
5
12
100
AcDbSymbolTableRecord
100
AcDbRegAppTableRecord
2
ACAD
70
0
0
ENDTAB
0
TABLE
2
DIMSTYLE
5
A
100
AcDbSymbolTable
70
1
0
ENDTAB
0
TABLE
2
BLOCK_RECORD
5
1
100
AcDbSymbolTable
70
1
0
BLOCK_RECORD
5
1F
100
AcDbSymbolTableRecord
100
AcDbBlockTableRecord
2
*MODEL_SPACE
0
BLOCK_RECORD
5
1B
100
AcDbSymbolTableRecord
100
AcDbBlockTableRecord
2
*PAPER_SPACE
0
ENDTAB
0
ENDSEC
0
SECTION
2
BLOCKS
0
BLOCK
5
20
100
AcDbEntity
100
AcDbBlockBegin
2
*MODEL_SPACE
0
ENDBLK
5
21
100
AcDbEntity
100
AcDbBlockEnd
0
BLOCK
5
1C
100
AcDbEntity
100
AcDbBlockBegin
2
*PAPER_SPACE
0
ENDBLK
5
1D
100
AcDbEntity
100
AcDbBlockEnd
0
ENDSEC
0
SECTION
2
ENTITIES
0
LWPOLYLINE
5
100
100
AcDbEntity
8
0
100
AcDbPolyline
90
36
70
1
43
0.0
10
6.2508000000000008
20
36.633899999999997
10
6.2508000000000008
20
42.903799999999997
10
5.4253300000000007
20
42.903799999999997
10
5.4253300000000007
20
45.704099999999997
10
6.2508000000000008
20
45.704099999999997
10
6.2508000000000008
20
48.934199999999997
10
13.000400000000001
20
48.934199999999997
10
13.000400000000001
20
45.704099999999997
10
14.5259
20
45.704099999999997
10
14.5259
20
50.403100000000009
10
28.525400000000005
20
50.403100000000009
10
28.525400000000005
20
45.704099999999997
10
30.050899999999999
20
45.704099999999997
10
30.050899999999999
20
48.934199999999997
10
36.800400000000003
20
48.934199999999997
10
36.800400000000003
20
45.704099999999997
10
37.625900000000001
20
45.704099999999997
10
37.625900000000001
20
42.903799999999997
10
36.800400000000003
20
42.903799999999997
10
36.800400000000003
20
36.633899999999997
10
35.075200000000002
20
36.633899999999997
10
35.075200000000002
20
35.433399999999999
10
31.774799999999999
20
35.433399999999999
10
31.774799999999999
20
36.633899999999997
10
30.050899999999999
20
36.633899999999997
10
30.050899999999999
20
41.104300000000002
10
28.525400000000005
20
41.104300000000002
10
28.525400000000005
20
36.403500000000001
10
14.5259
20
36.403500000000001
10
14.5259
20
41.104300000000002
10
13.000400000000001
20
41.104300000000002
10
13.000400000000001
20
36.633899999999997
10
11.2751
20
36.633899999999997
10
11.2751
20
35.433399999999999
10
7.9760900000000001
20
35.433399999999999
10
7.9760900000000001
20
36.633899999999997
0
LWPOLYLINE
5
101
100
AcDbEntity
8
0
100
AcDbPolyline
90
4
70
1
43
0.0
10
225.08600000000001
20
35.1524
10
211.30000000000001
20
32.721499999999999
10
208.86799999999999
20
46.510199999999998
10
222.65500000000003
20
48.940899999999999
0
LWPOLYLINE
5
102
100
AcDbEntity
8
0
100
AcDbPolyline
90
36
70
1
43
0.0
10
314.93000000000001
20
64.754099999999994
10
315.75599999999997
20
64.754099999999994
10
315.75599999999997
20
61.953800000000001
10
314.93000000000001
20
61.953800000000001
10
314.93000000000001
20
55.683900000000008
10
313.20600000000002
20
55.683900000000008
10
313.20600000000002
20
54.48340000000001
10
309.90600000000001
20
54.48340000000001
10
309.90600000000001
20
55.683900000000008
10
308.18000000000001
20
55.683900000000008
10
308.18000000000001
20
60.154300000000006
10
306.65499999999997
20
60.154300000000006
10
306.65499999999997
20
55.453499999999998
10
292.65499999999997
20
55.453499999999998
10
292.65499999999997
20
60.154300000000006
10
291.13
20
60.154300000000006
10
291.13
20
55.683900000000008
10
289.40600000000006
20
55.683900000000008
10
289.40600000000006
20
54.48340000000001
10
286.10599999999999
20
54.48340000000001
10
286.10599999999999
20
55.683900000000008
10
284.38
20
55.683900000000008
10
284.38
20
61.953800000000001
10
283.55599999999998
20
61.953800000000001
10
283.55599999999998
20
64.754099999999994
10
284.38
20
64.754099999999994
10
284.38
20
67.984200000000001
10
291.13
20
67.984200000000001
10
291.13
20
64.754099999999994
10
292.65499999999997
20
64.754099999999994
10
292.65499999999997
20
69.453100000000006
10
306.65499999999997
20
69.453100000000006
10
306.65499999999997
20
64.754099999999994
10
308.18000000000001
20
64.754099999999994
10
308.18000000000001
20
67.984200000000001
10
314.93000000000001
20
67.984200000000001
0
LWPOLYLINE
5
103
100
AcDbEntity
8
0
100
AcDbPolyline
90
4
70
1
43
0.0
10
235.98200000000003
20
36.403500000000001
10
249.982
20
36.403500000000001
10
249.982
20
50.403100000000009
10
235.98200000000003
20
50.403100000000009
0
LWPOLYLINE
5
104
100
AcDbEntity
8
0
100
AcDbPolyline
90
4
70
1
43
0.0
10
281.226
20
36.403500000000001
10
295.22500000000002
20
36.403500000000001
10
295.22500000000002
20
50.403100000000009
10
281.226
20
50.403100000000009
0
LWPOLYLINE
5
105
100
AcDbEntity
8
0
100
AcDbPolyline
90
4
70
1
43
0.0
10
66.735699999999994
20
69.353999999999999
10
80.522900000000007
20
66.923000000000002
10
78.091899999999995
20
53.1372
10
64.304699999999997
20
55.568100000000001
0
LWPOLYLINE
5
106
100
AcDbEntity
8
0
100
AcDbPolyline
90
4
70
1
43
0.0
10
120.58500000000001
20
45.643400000000007
10
123.01600000000001
20
59.430700000000002
10
136.80500000000001
20
56.999700000000004
10
134.374
20
43.212499999999999
0
LWPOLYLINE
5
107
100
AcDbEntity
8
0
100
AcDbPolyline
90
4
70
1
43
0.0
10
45.482199999999999
20
36.403500000000001
10
59.481499999999997
20
36.403500000000001
10
59.481499999999997
20
50.403100000000009
10
45.482199999999999
20
50.403100000000009
0
LWPOLYLINE
5
108
100
AcDbEntity
8
0
100
AcDbPolyline
90
4
70
1
43
0.0
10
72.807299999999998
20
48.940899999999999
10
86.594600000000014
20
46.510199999999998
10
84.163600000000002
20
32.721499999999999
10
70.376300000000001
20
35.1524
0
LWPOLYLINE
5
109
100
AcDbEntity
8
0
100
AcDbPolyline
90
4
70
1
43
0.0
10
161.09000000000003
20
43.212499999999999
10
158.65899999999999
20
56.999700000000004
10
172.44600000000003
20
59.430700000000002
10
174.87700000000001
20
45.643400000000007
0
LWPOLYLINE
5
110
100
AcDbEntity
8
0
100
AcDbPolyline
90
4
70
1
43
0.0
10
326.18200000000002
20
31.641100000000005
10
326.18200000000002
20
45.640600000000006
10
312.18200000000002
20
45.640600000000006
10
312.18200000000002
20
31.641100000000005
0
LWPOLYLINE
5
111
100
AcDbEntity
8
0
100
AcDbPolyline
90
4
70
1
43
0.0
10
101.82600000000001
20
48.952100000000002
10
104.25700000000001
20
62.738000000000007
10
118.04400000000001
20
60.306999999999995
10
115.61200000000001
20
46.5212
0
LWPOLYLINE
5
112
100
AcDbEntity
8
0
100
AcDbPolyline
90
4
70
1
43
0.0
10
255.03200000000004
20
50.403100000000009
10
255.03200000000004
20
36.403500000000001
10
269.03199999999998
20
36.403500000000001
10
269.03199999999998
20
50.403100000000009
0
LWPOLYLINE
5
113
100
AcDbEntity
8
0
100
AcDbPolyline
90
4
70
1
43
0.0
10
99.28370000000001
20
63.615700000000004
10
96.851300000000009
20
49.828499999999998
10
83.063999999999993
20
52.259400000000007
10
85.495000000000005
20
66.046700000000001
0
LWPOLYLINE
5
114
100
AcDbEntity
8
0
100
AcDbPolyline
90
4
70
1
43
0.0
10
228.72799999999998
20
69.353999999999999
10
231.15900000000005
20
55.568100000000001
10
217.37200000000001
20
53.1372
10
214.941
20
66.923000000000002
0
LWPOLYLINE
5
115
100
AcDbEntity
8
0
100
AcDbPolyline
90
4
70
1
43
0.0
10
177.42000000000002
20
60.306999999999995
10
191.20699999999999
20
62.738000000000007
10
193.63800000000001
20
48.952100000000002
10
179.851
20
46.5212
0
LWPOLYLINE
5
116
100
AcDbEntity
8
0
100
AcDbPolyline
90
4
70
1
43
0.0
10
212.39800000000002
20
52.259400000000007
10
198.61099999999999
20
49.828499999999998
10
196.17900000000003
20
63.615700000000004
10
209.96800000000002
20
66.046700000000001
0
LWPOLYLINE
5
117
100
AcDbEntity
8
0
100
AcDbPolyline
90
4
70
1
43
0.0
10
297.89499999999998
20
74.503500000000003
10
311.89400000000001
20
74.503500000000003
10
311.89400000000001
20
88.503100000000003
10
297.89499999999998
20
88.503100000000003
0
LWPOLYLINE
5
118
100
AcDbEntity
8
0
100
AcDbPolyline
90
4
70
1
43
0.0
10
256.64999999999998
20
55.453499999999998
10
256.64999999999998
20
69.453100000000006
10
242.649
20
69.453100000000006
10
242.649
20
55.453499999999998
0
LWPOLYLINE
5
119
100
AcDbEntity
8
0
100
AcDbPolyline
90
4
70
1
43
0.0
10
201.97000000000003
20
83.981899999999996
10
204.40000000000001
20
70.193299999999994
10
190.613
20
67.760900000000007
10
188.18200000000002
20
81.549499999999995
0
LWPOLYLINE
5
120
100
AcDbEntity
8
0
100
AcDbPolyline
90
4
70
1
43
0.0
10
81.681799999999996
20
71.848100000000002
10
84.114199999999997
20
85.634
10
97.900100000000009
20
83.203299999999999
10
95.469099999999997
20
69.4161
0
LWPOLYLINE
5
121
100
AcDbEntity
8
0
100
AcDbPolyline
90
4
70
1
43
0.0
10
132.99200000000002
20
62.800100000000008
10
119.20299999999999
20
65.232100000000003
10
121.63400000000001
20
79.018000000000001
10
135.423
20
76.587400000000002
0
LWPOLYLINE
5
122
100
AcDbEntity
8
0
100
AcDbPolyline
90
4
70
1
43
0.0
10
331.23199999999997
20
55.453499999999998
10
345.23199999999997
20
55.453499999999998
10
345.23199999999997
20
69.453100000000006
10
331.23199999999997
20
69.453100000000006
0
LWPOLYLINE
5
123
100
AcDbEntity
8
0
100
AcDbPolyline
90
4
70
1
43
0.0
10
38.813699999999997
20
69.453100000000006
10
38.813699999999997
20
55.453499999999998
10
52.814700000000002
20
55.453499999999998
10
52.814700000000002
20
69.453100000000006
0
LWPOLYLINE
5
124
100
AcDbEntity
8
0
100
AcDbPolyline
90
4
70
1
43
0.0
10
183.209
20
80.673200000000008
10
185.63999999999999
20
66.88600000000001
10
171.85299999999998
20
64.453599999999994
10
169.422
20
78.240799999999993
0
LWPOLYLINE
5
125
100
AcDbEntity
8
0
100
AcDbPolyline
90
4
70
1
43
0.0
10
116.66200000000002
20
79.896100000000004
10
114.23100000000002
20
66.107399999999998
10
100.44400000000002
20
68.539400000000001
10
102.87500000000001
20
82.326700000000002
0
LWPOLYLINE
5
126
100
AcDbEntity
8
0
100
AcDbPolyline
90
4
70
1
43
0.0
10
206.94299999999998
20
84.856800000000007
10
220.73000000000002
20
87.289200000000008
10
223.161
20
73.501999999999995
10
209.37400000000002
20
71.069599999999994
0
LWPOLYLINE
5
127
100
AcDbEntity
8
0
100
AcDbPolyline
90
4
70
1
43
0.0
10
326.47000000000003
20
74.503500000000003
10
340.46899999999999
20
74.503500000000003
10
340.46899999999999
20
88.503100000000003
10
326.47000000000003
20
88.503100000000003
0
LWPOLYLINE
5
128
100
AcDbEntity
8
0
100
AcDbPolyline
90
4
70
1
43
0.0
10
166.87900000000002
20
63.577300000000001
10
153.09200000000001
20
61.1449
10
150.661
20
74.933499999999995
10
164.447
20
77.364500000000021
0
LWPOLYLINE
5
129
100
AcDbEntity
8
0
100
AcDbPolyline
90
4
70
1
43
0.0
10
261.69900000000001
20
69.453100000000006
10
261.69900000000001
20
55.453499999999998
10
275.69999999999999
20
55.453499999999998
10
275.69999999999999
20
69.453100000000006
0
LWPOLYLINE
5
130
100
AcDbEntity
8
0
100
AcDbPolyline
90
4
70
1
43
0.0
10
65.353499999999997
20
88.942700000000002
10
79.140799999999999
20
86.511700000000005
10
76.709800000000001
20
72.723399999999998
10
62.92110000000001
20
75.153999999999996
0
LWPOLYLINE
5
131
100
AcDbEntity
8
0
100
AcDbPolyline
90
4
70
1
43
0.0
10
26.620899999999999
20
69.453100000000006
10
12.620100000000001
20
69.453100000000006
10
12.620100000000001
20
55.453499999999998
10
26.620899999999999
20
55.453499999999998
0
LWPOLYLINE
5
132
100
AcDbEntity
8
0
100
AcDbPolyline
90
36
70
1
43
0.0
10
280.09500000000003
20
100.05400000000002
10
279.26900000000001
20
100.05400000000002
10
279.26900000000001
20
102.85400000000001
10
280.09500000000003
20
102.85400000000001
10
280.09500000000003
20
106.08400000000002
10
286.84399999999999
20
106.08400000000002
10
286.84399999999999
20
102.85400000000001
10
288.37
20
102.85400000000001
10
288.37
20
107.553
10
302.36900000000003
20
107.553
10
302.36900000000003
20
102.85400000000001
10
303.89299999999997
20
102.85400000000001
10
303.89299999999997
20
106.08400000000002
10
310.64299999999997
20
106.08400000000002
10
310.64299999999997
20
102.85400000000001
10
311.47000000000003
20
102.85400000000001
10
311.47000000000003
20
100.05400000000002
10
310.64299999999997
20
100.05400000000002
10
310.64299999999997
20
93.783900000000017
10
308.9190000000001
20
93.783900000000017
10
308.9190000000001
20
92.583400000000012
10
305.62
20
92.583400000000012
10
305.62
20
93.783900000000017
10
303.89299999999997
20
93.783900000000017
10
303.89299999999997
20
98.254300000000001
10
302.36900000000003
20
98.254300000000001
10
302.36900000000003
20
93.5535
10
288.37
20
93.5535
10
288.37
20
98.254300000000001
10
286.84399999999999
20
98.254300000000001
10
286.84399999999999
20
93.783900000000017
10
285.11900000000003
20
93.783900000000017
10
285.11900000000003
20
92.583400000000012
10
281.81799999999998
20
92.583400000000012
10
281.81799999999998
20
93.783900000000017
10
280.09500000000003
20
93.783900000000017
0
LWPOLYLINE
5
133
100
AcDbEntity
8
0
100
AcDbPolyline
90
4
70
1
43
0.0
10
288.08199999999999
20
88.503100000000003
10
274.08199999999999
20
88.503100000000003
10
274.08199999999999
20
74.503500000000003
10
288.08199999999999
20
74.503500000000003
0
LWPOLYLINE
5
134
100
AcDbEntity
8
0
100
AcDbPolyline
90
4
70
1
43
0.0
10
78.0411
20
106.04799999999999
10
91.828400000000002
20
103.61800000000001
10
89.397400000000005
20
89.830299999999994
10
75.610200000000006
20
92.260900000000007
0
LWPOLYLINE
5
135
100
AcDbEntity
8
0
100
AcDbPolyline
90
4
70
1
43
0.0
10
26.144100000000002
20
74.503500000000003
10
26.144100000000002
20
88.503100000000003
10
12.144700000000002
20
88.503100000000003
10
12.144700000000002
20
74.503500000000003
0
LWPOLYLINE
5
136
100
AcDbEntity
8
0
100
AcDbPolyline
90
4
70
1
43
0.0
10
229.23400000000001
20
93.9161
10
215.44499999999999
20
91.48520000000002
10
213.01400000000001
20
105.27100000000002
10
226.80200000000002
20
107.70200000000003
0
LWPOLYLINE
5
137
100
AcDbEntity
8
0
100
AcDbPolyline
90
4
70
1
43
0.0
10
156.73200000000003
20
95.347700000000003
10
170.52000000000004
20
97.778700000000001
10
172.952
20
83.991400000000013
10
159.16300000000001
20
81.560500000000005
0
LWPOLYLINE
5
138
100
AcDbEntity
8
0
100
AcDbPolyline
90
4
70
1
43
0.0
10
255.03200000000004
20
74.503500000000003
10
269.03199999999998
20
74.503500000000003
10
269.03199999999998
20
88.503100000000003
10
255.03200000000004
20
88.503100000000003
0
LWPOLYLINE
5
139
100
AcDbEntity
8
0
100
AcDbPolyline
90
4
70
1
43
0.0
10
129.34999999999999
20
97.001500000000007
10
126.91900000000001
20
83.214299999999994
10
113.13200000000002
20
85.644900000000007
10
115.56200000000003
20
99.432199999999995
0
LWPOLYLINE
5
140
100
AcDbEntity
8
0
100
AcDbPolyline
90
4
70
1
43
0.0
10
108.15799999999999
20
86.522999999999996
10
94.370900000000006
20
88.953599999999994
10
96.801500000000004
20
102.74100000000001
10
110.58900000000001
20
100.31
0
LWPOLYLINE
5
141
100
AcDbEntity
8
0
100
AcDbPolyline
90
4
70
1
43
0.0
10
249.982
20
88.503100000000003
10
235.98200000000003
20
88.503100000000003
10
235.98200000000003
20
74.503500000000003
10
249.982
20
74.503500000000003
0
LWPOLYLINE
5
142
100
AcDbEntity
8
0
100
AcDbPolyline
90
4
70
1
43
0.0
10
131.892
20
82.337600000000009
10
134.32299999999998
20
96.124900000000011
10
148.11000000000001
20
93.694199999999995
10
145.67900000000003
20
79.907000000000011
0
LWPOLYLINE
5
143
100
AcDbEntity
8
0
100
AcDbPolyline
90
4
70
1
43
0.0
10
175.49299999999999
20
98.655000000000001
10
189.28
20
101.08600000000001
10
191.71099999999998
20
87.300200000000018
10
177.92400000000001
20
84.867800000000017
0
LWPOLYLINE
5
144
100
AcDbEntity
8
0
100
AcDbPolyline
90
4
70
1
43
0.0
10
35.9572
20
74.503500000000003
10
49.956500000000005
20
74.503500000000003
10
49.956500000000005
20
88.503100000000003
10
35.9572
20
88.503100000000003
0
LWPOLYLINE
5
145
100
AcDbEntity
8
0
100
AcDbPolyline
90
4
70
1
43
0.0
10
208.04100000000003
20
104.39500000000001
10
210.47200000000004
20
90.607400000000013
10
196.68599999999998
20
88.176500000000004
10
194.255
20
101.964
0
LWPOLYLINE
5
146
100
AcDbEntity
8
0
100
AcDbPolyline
90
4
70
1
43
0.0
10
56.84940000000001
20
95.569600000000008
10
59.2804
20
109.35700000000003
10
73.069100000000006
20
106.926
10
70.636700000000005
20
93.13900000000001
0
LWPOLYLINE
5
147
100
AcDbEntity
8
0
100
AcDbPolyline
90
4
70
1
43
0.0
10
335.70699999999999
20
93.5535
10
335.70699999999999
20
107.553
10
321.70700000000005
20
107.553
10
321.70700000000005
20
93.5535
0
LWPOLYLINE
5
148
100
AcDbEntity
8
0
100
AcDbPolyline
90
4
70
1
43
0.0
10
259.79500000000002
20
107.553
10
259.79500000000002
20
93.5535
10
273.79400000000004
20
93.5535
10
273.79400000000004
20
107.553
0
LWPOLYLINE
5
149
100
AcDbEntity
8
0
100
AcDbPolyline
90
4
70
1
43
0.0
10
31.194700000000001
20
93.5535
10
45.194000000000003
20
93.5535
10
45.194000000000003
20
107.553
10
31.194700000000001
20
107.553
0
LWPOLYLINE
5
150
100
AcDbEntity
8
0
100
AcDbPolyline
90
4
70
1
43
0.0
10
254.74400000000003
20
93.5535
10
254.74400000000003
20
107.553
10
240.745
20
107.553
10
240.745
20
93.5535
0
LWPOLYLINE
5
151
100
AcDbEntity
8
0
100
AcDbPolyline
90
4
70
1
43
0.0
10
12.144700000000002
20
93.5535
10
26.144100000000002
20
93.5535
10
26.144100000000002
20
107.553
10
12.144700000000002
20
107.553
0
LWPOLYLINE
5
152
100
AcDbEntity
8
0
100
AcDbPolyline
90
36
70
1
43
0.0
10
110.815
20
22.660499999999999
10
112.51400000000001
20
22.361400000000003
10
111.73700000000002
20
17.960000000000001
10
113.239
20
17.694000000000003
10
114.056
20
22.322800000000001
10
127.843
20
19.891999999999999
10
127.02799999999999
20
15.263100000000001
10
128.52799999999999
20
14.9986
10
129.30500000000001
20
19.399999999999999
10
131.00299999999999
20
19.100999999999999
10
131.21299999999999
20
20.282
10
134.46200000000002
20
19.710100000000001
10
134.25399999999999
20
18.5291
10
135.95300000000003
20
18.2287
10
134.863
20
12.053700000000001
10
135.67600000000002
20
11.910399999999999
10
135.19
20
9.1529299999999996
10
134.37799999999999
20
9.2962600000000002
10
133.81700000000001
20
6.1157199999999996
10
127.16900000000001
20
7.2870800000000013
10
127.73000000000002
20
10.469000000000001
10
126.22799999999999
20
10.733499999999999
10
125.413
20
6.1047099999999999
10
111.624
20
8.5355600000000003
10
112.44100000000002
20
13.164400000000001
10
110.93899999999999
20
13.429000000000002
10
110.37799999999999
20
10.2485
10
103.73000000000002
20
11.421200000000001
10
104.291
20
14.601699999999999
10
103.48
20
14.744999999999999
10
103.96600000000001
20
17.502500000000005
10
104.77800000000001
20
17.359100000000002
10
105.86600000000001
20
23.534099999999999
10
107.56500000000001
20
23.233700000000002
10
107.774
20
24.416100000000004
10
111.023
20
23.8428
0
LWPOLYLINE
5
153
100
AcDbEntity
8
0
100
AcDbPolyline
90
4
70
1
43
0.0
10
345.23199999999997
20
12.591100000000001
10
345.23199999999997
20
26.590600000000002
10
331.23199999999997
20
26.590600000000002
10
331.23199999999997
20
12.591100000000001
0
LWPOLYLINE
5
154
100
AcDbEntity
8
0
100
AcDbPolyline
90
4
70
1
43
0.0
10
203.89500000000001
20
45.6325
10
206.327
20
31.845099999999999
10
192.53799999999998
20
29.412800000000004
10
190.107
20
43.20150000000001
0
LWPOLYLINE
5
155
100
AcDbEntity
8
0
100
AcDbPolyline
90
4
70
1
43
0.0
10
102.92400000000001
20
29.412800000000004
10
89.137100000000004
20
31.845099999999999
10
91.568100000000001
20
45.6325
10
105.355
20
43.20150000000001
0
LWPOLYLINE
5
156
100
AcDbEntity
8
0
100
AcDbPolyline
90
4
70
1
43
0.0
10
121.68500000000002
20
26.105599999999999
10
107.898
20
28.536400000000004
10
110.328
20
42.325200000000002
10
124.114
20
39.892800000000001
0
LWPOLYLINE
5
157
100
AcDbEntity
8
0
100
AcDbPolyline
90
4
70
1
43
0.0
10
19.000399999999999
20
17.3536
10
19.000399999999999
20
31.353100000000005
10
5.0009100000000011
20
31.353100000000005
10
5.0009100000000011
20
17.3536
0
LWPOLYLINE
5
158
100
AcDbEntity
8
0
100
AcDbPolyline
90
4
70
1
43
0.0
10
266.93700000000001
20
31.353100000000005
10
266.93700000000001
20
17.3536
10
280.93799999999999
20
17.3536
10
280.93799999999999
20
31.353100000000005
0
LWPOLYLINE
5
159
100
AcDbEntity
8
0
100
AcDbPolyline
90
4
70
1
43
0.0
10
218.929
20
28.940200000000004
10
221.36000000000001
20
15.151500000000002
10
207.57300000000001
20
12.720700000000003
10
205.13999999999999
20
26.507900000000003
0
LWPOLYLINE
5
160
100
AcDbEntity
8
0
100
AcDbPolyline
90
4
70
1
43
0.0
10
155.017
20
22.796900000000001
10
152.58600000000001
20
36.585500000000003
10
166.37299999999999
20
39.016500000000001
10
168.80400000000003
20
25.229099999999999
0
LWPOLYLINE
5
161
100
AcDbEntity
8
0
100
AcDbPolyline
90
4
70
1
43
0.0
10
307.13200000000001
20
26.590600000000002
10
293.13200000000001
20
26.590600000000002
10
293.13200000000001
20
12.591100000000001
10
307.13200000000001
20
12.591100000000001
0
LWPOLYLINE
5
162
100
AcDbEntity
8
0
100
AcDbPolyline
90
4
70
1
43
0.0
10
312.18200000000002
20
12.591100000000001
10
326.18200000000002
20
12.591100000000001
10
326.18200000000002
20
26.590600000000002
10
312.18200000000002
20
26.590600000000002
0
LWPOLYLINE
5
163
100
AcDbEntity
8
0
100
AcDbPolyline
90
4
70
1
43
0.0
10
28.811999999999998
20
31.353100000000005
10
28.811999999999998
20
17.3536
10
42.81280000000001
20
17.3536
10
42.81280000000001
20
31.353100000000005
0
LWPOLYLINE
5
164
100
AcDbEntity
8
0
100
AcDbPolyline
90
4
70
1
43
0.0
10
257.125
20
17.3536
10
257.125
20
31.353100000000005
10
243.126
20
31.353100000000005
10
243.126
20
17.3536
0
LWPOLYLINE
5
165
100
AcDbEntity
8
0
100
AcDbPolyline
90
4
70
1
43
0.0
10
126.65799999999999
20
25.229099999999999
10
129.089
20
39.016500000000001
10
142.876
20
36.585500000000003
10
140.44499999999999
20
22.796900000000001
0
LWPOLYLINE
5
166
100
AcDbEntity
8
0
100
AcDbPolyline
90
4
70
1
43
0.0
10
87.890000000000001
20
12.720700000000003
10
74.104100000000003
20
15.151500000000002
10
76.534800000000004
20
28.940200000000004
10
90.322000000000017
20
26.507900000000003
0
LWPOLYLINE
5
167
100
AcDbEntity
8
0
100
AcDbPolyline
90
4
70
1
43
0.0
10
185.13400000000001
20
42.325200000000002
10
187.56599999999997
20
28.536400000000004
10
173.77900000000005
20
26.105599999999999
10
171.34799999999998
20
39.892800000000001
0
LWPOLYLINE
5
168
100
AcDbEntity
8
0
100
AcDbPolyline
90
36
70
1
43
0.0
10
168.458
20
4.83969
10
168.25
20
6.0206500000000007
10
166.55100000000002
20
5.7216300000000011
10
165.46400000000003
20
11.895200000000001
10
164.65100000000001
20
11.751899999999999
10
164.16400000000004
20
14.5107
10
164.97600000000003
20
14.654100000000001
10
164.41500000000002
20
17.834599999999998
10
171.06400000000005
20
19.005900000000004
10
171.625
20
15.8254
10
173.126
20
16.09
10
172.31
20
20.718800000000002
10
186.09700000000001
20
23.151000000000003
10
186.91299999999998
20
18.520800000000001
10
188.41499999999999
20
18.786799999999999
10
187.85400000000004
20
21.967300000000002
10
194.50200000000001
20
23.140000000000001
10
195.06299999999999
20
19.958100000000002
10
195.87599999999998
20
20.101500000000001
10
196.36200000000002
20
17.344000000000001
10
195.54900000000004
20
17.200700000000001
10
196.63800000000003
20
11.027100000000001
10
194.93900000000002
20
10.726700000000001
10
195.14800000000002
20
9.5442999999999998
10
191.89700000000002
20
8.9710300000000007
10
191.68900000000005
20
10.1534
10
189.99000000000001
20
9.8543500000000002
10
189.21400000000003
20
14.257200000000001
10
187.71200000000005
20
13.991199999999999
10
188.52799999999999
20
9.3623999999999992
10
174.74200000000002
20
6.9315199999999999
10
173.92500000000001
20
11.5604
10
172.423
20
11.2958
10
173.19999999999999
20
6.8929600000000013
10
171.50099999999998
20
6.593910000000001
10
171.709
20
5.4129500000000004
0
LWPOLYLINE
5
169
100
AcDbEntity
8
0
100
AcDbPolyline
90
13
70
1
43
0.0
10
345.23200000000003
20
111.553
10
5.0009100000000188
20
111.553
42
0.41421356237309503
10
1.0009100000000182
20
107.553
10
1.0009100000000015
20
17.3536
42
0.41421356237309614
10
5.000909999999994
20
13.3536
10
61.265285140616768
20
13.353599999999993
10
145.12783853218846
20
-1.433471920167233
42
0.087488842880911341
10
150.33729437949199
20
-1.4334604917725269
10
207.1885543921525
20
8.5911000000000541
10
345.23200000000003
20
8.5911000000000364
42
0.41421356237309293
10
349.23200000000003
20
12.591100000000008
10
349.23199999999997
20
15.142173386048423
10
349.23200000000008
20
107.55300000000004
42
0.41421356237309243
0
ENDSEC
0
SECTION
2
OBJECTS
0
DICTIONARY
5
C
100
AcDbDictionary
3
ACAD_GROUP
350
D
3
ACAD_MLINESTYLE
350
17
0
DICTIONARY
5
D
100
AcDbDictionary
0
DICTIONARY
5
1A
330
C
100
AcDbDictionary
0
DICTIONARY
5
17
100
AcDbDictionary
0
ENDSEC
0
EOF
