M48
; DRILL file {KiCad (5.1.6)-1} date 08/21/20 21:37:34
; FORMAT={-:-/ absolute / inch / decimal}
; #@! TF.CreationDate,2020-08-21T21:37:34+09:00
; #@! TF.GenerationSoftware,Kicad,Pcbnew,(5.1.6)-1
; #@! TF.FileFunction,Plated,1,2,PTH
FMAT,2
INCH
T1C0.0157
T2C0.0197
T3C0.0394
T4C0.0579
%
G90
G05
T1
X-0.2127Y-3.5543
X-0.2122Y-1.3068
X-0.2122Y-2.0568
X-0.2122Y-2.8028
X-0.2002Y-0.5548
X-0.0962Y-3.6128
X-0.0199Y-0.2413
X0.0133Y-0.6064
X0.1474Y-1.4055
X0.1818Y-0.6168
X0.1818Y-1.3688
X0.199Y-0.5548
X0.2098Y-2.1168
X0.268Y-0.8032
X0.2738Y-2.8668
X0.2958Y-3.5568
X0.5638Y-1.3568
X0.5697Y-2.1215
X0.6058Y-1.2908
X0.6203Y-1.4863
X0.6218Y-2.0748
X0.6518Y-3.6428
X0.6758Y-2.8028
X0.7678Y-2.8048
X0.8078Y-0.6588
X0.8398Y-3.6148
X0.9104Y-2.5502
X0.9341Y-0.6168
X1.0358Y-2.8048
X1.0608Y-1.4438
X1.1198Y-2.0888
X1.1338Y-1.3628
X1.188Y-1.6884
X1.2058Y-3.5528
X1.2538Y-2.1188
X1.2637Y-1.5858
X1.3038Y-0.5568
X1.4349Y-3.6061
X1.4582Y-3.8411
X1.5218Y-2.8648
X1.5418Y-1.3348
X1.6318Y-2.0908
X1.6448Y-3.2272
X1.6598Y-0.5208
X1.7332Y-1.3258
X1.7464Y-1.418
X1.8078Y-0.5468
X1.867Y-1.4884
X1.8758Y-2.1668
X1.8918Y-2.8508
X1.9078Y-0.8648
X1.9078Y-1.3388
X1.9488Y-2.1575
X2.0358Y-1.3508
X2.0404Y-3.2834
X2.0738Y-1.6688
X2.1195Y-2.8548
X2.1238Y-3.0495
X2.1798Y-0.5468
X2.2078Y-0.6168
X2.2403Y-2.9163
X2.2638Y-1.6712
X2.3278Y-2.9213
X2.3628Y-3.6663
X2.4078Y-0.6268
X2.4138Y-1.4168
X2.4298Y-1.3608
X2.4331Y-3.7205
X2.4618Y-2.1628
X2.5068Y-2.2092
X2.5358Y-0.6728
X2.5428Y-1.8106
X2.5953Y-2.3448
X2.6875Y-1.6275
X2.6893Y-1.4488
X2.6898Y-2.2548
X2.7218Y-2.9628
X2.753Y-1.7915
X2.7678Y-1.4788
X2.8035Y-1.6355
X2.8253Y-2.2463
X2.8628Y-3.7213
X2.8853Y-3.7988
X2.9218Y-1.6988
X2.9303Y-0.7013
X2.9831Y-3.0615
X3.0703Y-3.0513
X3.1698Y-1.5168
X3.1803Y-0.7988
X3.2338Y-2.2868
X3.2628Y-0.8013
X3.4278Y-1.2033
X3.4278Y-1.6038
X3.4278Y-1.7753
X3.4278Y-2.3638
X3.432Y-3.1396
X3.4478Y-3.0838
X3.5128Y-1.6088
X3.5235Y-1.752
X3.5703Y-2.3813
X3.6028Y-3.2063
X3.6404Y-4.1816
X3.6508Y-1.788
X3.6678Y-0.8663
X3.6728Y-0.8113
X3.6815Y-0.9495
X3.7554Y-1.9352
X3.8652Y-1.5065
X3.8853Y-1.6788
X3.8853Y-3.2488
X3.9028Y-1.6263
X3.9103Y-3.8813
X3.9304Y-0.8738
X3.9328Y-0.9859
X3.9585Y-1.639
X3.9603Y-3.9713
X3.9653Y-2.4163
X4.0103Y-0.9363
X4.069Y-2.6065
X4.1652Y-2.4545
X4.1753Y-1.6813
X4.1928Y-3.2263
X4.2475Y-0.0588
X4.2503Y-1.9669
X4.2503Y-2.4588
X4.2528Y-1.7363
X4.2686Y-0.1214
X4.3103Y-2.5063
X4.3503Y-3.9788
X4.3603Y-4.0488
X4.3703Y-0.9388
X4.399Y-2.074
X4.4053Y-3.2138
X4.4203Y-1.0088
X4.5378Y-3.3088
X4.6058Y-1.7948
X4.6119Y-0.4876
X4.6138Y-1.9828
X4.6203Y-1.7388
X4.6528Y-1.0163
X4.6653Y-0.8888
X4.6928Y-2.5538
X4.6953Y-1.0688
X4.7028Y-0.9338
X4.857Y-2.059
X4.8848Y-2.5951
X4.888Y-4.025
X4.8895Y-1.858
X4.9128Y-3.3363
X4.916Y-2.5072
X4.9503Y-2.6413
X4.9615Y-2.3455
X4.962Y-2.412
X4.966Y-1.4635
X4.9699Y-3.3838
X4.97Y-2.03
X4.9785Y-1.4074
X4.9975Y-2.1525
X5.001Y-2.5205
X5.0128Y-1.6298
X5.0128Y-1.7263
X5.0153Y-1.9313
X5.02Y-2.404
X5.0317Y-3.9617
X5.0425Y-2.2
X5.0528Y-2.5913
X5.0555Y-1.6789
X5.0603Y-1.8113
X5.0635Y-1.9355
X5.072Y-2.8735
X5.0812Y-2.2683
X5.121Y-2.624
X5.1228Y-1.0688
X5.1385Y-1.9121
X5.1403Y-1.1238
X5.1734Y-1.2952
X5.2351Y-1.7068
X5.2465Y-2.9165
X5.2674Y-4.2566
X5.2714Y-2.453
X5.2756Y-1.25
X5.291Y-3.1875
X5.2965Y-4.025
X5.2999Y-2.4819
X5.3503Y-0.38
X5.3829Y-1.6663
X5.3976Y-1.8154
X5.4125Y-0.839
X5.433Y-1.7488
X5.4419Y-0.9613
X5.4429Y0.1083
X5.4488Y-0.7087
X5.4553Y-0.7585
X5.4734Y-0.3435
X5.4774Y-0.253
X5.481Y-1.746
X5.4889Y-2.3905
X5.5066Y-0.5214
X5.5163Y-1.0174
X5.5428Y-3.2663
X5.5728Y-2.583
X5.5805Y-2.6875
X5.5875Y-2.528
X5.588Y-2.4725
X5.6128Y-4.3305
X5.631Y-1.3365
X5.6388Y-4.2584
X5.6462Y-2.0163
X5.6686Y-1.0654
X5.673Y-2.9026
X5.6781Y-0.2215
X5.6919Y0.1053
X5.6988Y-1.0174
X5.7131Y-1.5586
X5.7206Y-0.5298
X5.754Y-2.289
X5.7879Y-0.717
X5.793Y-0.7627
X5.8107Y-2.0335
X5.842Y-3.8832
X5.8628Y-1.7963
X5.8642Y-0.3442
X5.8903Y-1.8563
X5.9083Y-2.0698
X5.9428Y-3.3113
X5.9435Y-0.878
X5.9678Y-3.3688
X5.9752Y-0.9382
X5.9942Y-1.3876
X6.0056Y-0.3862
X6.0578Y-1.0038
X6.0598Y-0.2214
X6.1453Y-1.0463
X6.1778Y-2.5638
X6.242Y-1.807
X6.2953Y-1.7588
X6.3026Y-0.2856
X6.3578Y-3.2663
X6.3926Y-0.2206
X6.4078Y-1.8063
X6.4326Y-0.0724
X6.5228Y-0.9388
X6.5448Y-1.0068
X6.5575Y-2.5035
X6.5728Y-3.2913
X6.5903Y-2.4588
X6.6253Y-1.7413
X6.6503Y-2.6488
X6.6578Y-0.5511
X6.7078Y-3.2438
X6.7175Y-0.555
X6.7298Y-1.8972
X6.7473Y-3.9507
X6.7528Y-3.9913
X6.7963Y-2.5028
X6.8528Y-0.9338
X6.9295Y-0.0405
X6.9403Y-2.4463
X7.0028Y-1.6038
X7.0157Y-1.6929
X7.0978Y-3.1263
X7.1169Y-3.1897
X7.122Y-0.0118
X7.1553Y-3.8763
X7.1888Y-0.1759
X7.2003Y-3.9388
X7.2255Y-0.8695
X7.2678Y-0.8238
X7.2678Y-2.7535
X7.3128Y-1.5338
X7.3278Y-0.1644
X7.3278Y-3.0988
X7.3501Y-2.3861
X7.3503Y-2.3338
X7.4115Y-0.872
X7.4428Y-3.1088
X7.452Y-0.5215
X7.4727Y-0.169
X7.4739Y-1.7716
X7.4928Y-0.8038
X7.5078Y-1.6438
X7.5784Y-2.2732
X7.6128Y-0.7988
X7.6405Y-2.3205
X7.6904Y-0.169
X7.6935Y-2.3015
X7.7613Y-2.5094
X7.7628Y-1.4888
X7.7685Y-1.5535
X7.8478Y-3.0088
X7.9128Y-3.0938
X7.9128Y-3.6788
X7.9928Y-1.4238
X8.0148Y-0.675
X8.0278Y-2.1738
X8.0365Y-3.7756
X8.0628Y-2.2088
X8.0628Y-2.4488
X8.1028Y-1.4738
X8.1382Y-0.7473
X8.1653Y-2.9863
X8.2099Y-0.3392
X8.2928Y-2.1538
X8.301Y-0.6157
X8.4028Y-2.1788
X8.434Y-0.8264
X8.4378Y-3.6613
X8.5078Y-1.3538
X8.5728Y-2.8713
X8.5835Y-2.9315
X8.6465Y-3.2437
X8.6678Y-1.1288
X8.749Y-0.5633
X8.7978Y-2.0488
X8.803Y-0.672
X8.8625Y-1.574
X8.8625Y-2.1016
X8.8876Y-2.2184
X8.8876Y-2.4197
X8.8876Y-2.8063
X8.897Y-1.3016
X8.9567Y-0.4497
X8.9694Y-3.318
X8.9935Y-1.3599
X9.0498Y-3.1876
X9.069Y-0.5536
X9.0785Y-2.0532
X9.0805Y-2.9521
X9.1298Y-3.6022
X9.1424Y-3.0916
X9.1547Y-2.4213
X9.1847Y-0.6127
X9.2045Y-2.1122
X9.2141Y-3.6119
X9.4014Y-2.8077
X9.4103Y-1.301
X9.4258Y-2.5072
X9.4315Y-1.3623
X9.4849Y-2.8973
X9.611Y-3.6585
X9.6496Y-2.3622
X9.6649Y-2.0751
X9.6699Y-3.5566
X9.6795Y-2.8628
X9.695Y-1.3034
X9.7376Y-2.8017
X9.7547Y-1.3556
X9.8116Y-1.5319
X9.8489Y-0.5559
X9.8489Y-0.724
X9.8554Y0.0382
X9.8817Y0.0974
X9.8968Y-2.0543
X9.966Y-0.6553
X9.9811Y-2.1091
X10.0282Y-0.6906
X10.0562Y-3.5916
X10.1304Y-3.6119
X10.1365Y-2.9045
X10.1403Y-1.3057
X10.152Y-2.8039
X10.1843Y-1.3615
X10.2057Y-3.554
X10.2564Y0.0974
X10.3489Y-0.5626
X10.3581Y-0.6221
X10.3716Y-1.3362
X10.4044Y-2.0529
X10.4539Y-2.1379
X10.4539Y-2.6698
X10.5094Y-1.3963
X10.528Y-2.212
X10.5606Y-2.9013
X10.6032Y-3.5586
X10.6415Y-1.592
X10.6603Y-3.6138
X10.7103Y-2.8638
X10.7227Y-3.3738
X10.8645Y-1.2882
X10.9175Y-1.342
X10.9919Y-0.5532
X11.0708Y-0.6135
X11.1109Y-3.2904
X11.1403Y-2.0538
X11.1476Y-3.166
X11.1539Y-1.302
X11.1703Y-2.8138
X11.181Y-3.801
X11.215Y-2.863
X11.2278Y-2.1113
X11.3975Y-1.3696
X11.4075Y-2.3684
X11.4326Y-0.5517
X11.4926Y-0.6172
X11.623Y-3.8505
X11.6603Y-3.7413
X11.6816Y-3.9133
X11.6928Y-2.1113
X11.7594Y-2.0604
X11.8128Y-2.9913
X11.8128Y-3.1539
X11.8301Y-1.3639
X11.8313Y-3.8524
X11.8441Y-1.3086
X11.9282Y-3.8015
X11.9343Y-3.0519
X11.9426Y-3.7411
X11.9618Y-0.3173
X11.9731Y-3.9674
X12.0507Y-0.8388
X12.0919Y-1.0459
X12.1367Y-1.4475
X12.3628Y-3.0038
X12.4078Y-3.7388
X12.4167Y-0.8967
X12.4315Y-3.8203
X12.5197Y-1.2717
X12.522Y-0.5995
X12.5837Y-1.6013
X12.6254Y-2.4689
X12.6254Y-2.651
X12.6254Y-3.1289
X12.6427Y-2.1022
X12.6738Y-2.1308
X12.7047Y-1.9213
X12.7047Y-2.0827
X12.7352Y-3.8007
X13.0329Y-2.7289
X13.1174Y-3.8013
X13.2328Y-0.3352
X13.2402Y-3.1289
X13.2675Y-2.564
X13.3356Y-3.1209
X13.3364Y-2.8754
X13.5298Y-0.259
X13.557Y-0.1857
T3
X6.0994Y0.078
X6.0994Y-0.022
X6.0994Y-0.122
X6.1994Y0.078
X6.1994Y-0.022
X6.1994Y-0.122
X12.6524Y-0.1024
X12.6524Y-0.6732
X12.7508Y-0.6732
X12.8493Y-0.1024
X12.8493Y-0.6732
X12.8404Y-0.9945
X12.8404Y-1.5654
X12.9388Y-1.5654
X13.0373Y-0.9945
X13.0373Y-1.5654
X13.0274Y-1.8912
X13.0274Y-2.4621
X13.1258Y-2.4621
X13.2243Y-1.8912
X13.2243Y-2.4621
T4
X2.5692Y-3.376
X2.8328Y-3.321
X1.5387Y-2.5214
X1.7887Y-2.4214
X11.2887Y-3.4589
X11.5387Y-3.3589
X3.1609Y-2.7176
X3.4244Y-2.6625
X10.7312Y-0.2708
X10.9812Y-0.1708
X4.1055Y-0.5995
X4.3691Y-0.5444
X12.9778Y-2.0728
X13.2278Y-1.9728
X12.0387Y-2.7089
X12.2887Y-2.6089
X8.3283Y-0.3232
X8.5572Y-0.1813
X9.0387Y-2.5214
X9.2887Y-2.4214
X8.0185Y-3.4255
X8.2473Y-3.2836
X12.7887Y-3.4589
X13.0387Y-3.3589
X7.5897Y-0.4535
X7.8186Y-0.3116
X8.0893Y-1.127
X8.3181Y-0.9851
X4.8441Y-0.7297
X5.1077Y-0.6746
X6.1125Y-0.7139
X6.3413Y-0.5721
X5.9493Y-3.0274
X6.1781Y-2.8855
X11.4762Y-1.0214
X11.7262Y-0.9214
X11.27Y-1.7714
X11.52Y-1.6714
X9.0387Y-1.0214
X9.2887Y-0.9214
X10.82Y-2.5214
X11.07Y-2.4214
X1.8897Y-0.2087
X2.1533Y-0.1537
X6.9264Y-2.0939
X7.1553Y-1.952
X0.245Y-1.7714
X0.495Y-1.6714
X7.3506Y-1.2572
X7.5795Y-1.1153
X3.6604Y-2.0441
X3.924Y-1.989
X6.8511Y-0.5837
X7.0799Y-0.4418
X3.606Y-1.2729
X3.8696Y-1.2179
X0.2262Y-0.2714
X0.4762Y-0.1714
X10.0512Y-1.7714
X10.3012Y-1.6714
X0.9762Y-0.2714
X1.2262Y-0.1714
X9.7887Y-1.0214
X10.0387Y-0.9214
X0.8825Y-3.2714
X1.1325Y-3.1714
X2.6283Y-0.339
X2.8919Y-0.2839
X8.1651Y-2.6367
X8.3939Y-2.4948
X0.2262Y-1.0214
X0.4762Y-0.9214
X2.1832Y-1.7836
X2.4468Y-1.7286
X2.4223Y-2.5874
X2.6858Y-2.5323
X8.4041Y-1.833
X8.633Y-1.6911
X7.4265Y-2.767
X7.6553Y-2.6251
X11.1012Y-0.2714
X11.3512Y-0.1714
X9.2262Y-0.2714
X9.4762Y-0.1714
X10.5387Y-1.0214
X10.7887Y-0.9214
X3.3669Y-0.4692
X3.6305Y-0.4142
X12.6038Y-0.2728
X12.8538Y-0.1728
X11.4776Y-0.2704
X11.7276Y-0.1704
X4.6381Y-2.9781
X4.9017Y-2.923
X9.32Y-3.2714
X9.57Y-3.1714
X3.8995Y-2.8478
X4.1631Y-2.7928
X6.1883Y-2.2237
X6.4172Y-2.0818
X6.7254Y-3.656
X6.9542Y-3.5141
X9.9762Y-0.2714
X10.2262Y-0.1714
X1.2762Y-1.7714
X1.5262Y-1.6714
X4.0449Y-3.6326
X4.3085Y-3.5775
X2.8674Y-1.1427
X3.131Y-1.0876
X9.3012Y-1.7714
X9.5512Y-1.6714
X12.0387Y-3.4589
X12.2887Y-3.3589
X0.0569Y-1.7713
X0.3069Y-1.6713
X7.6655Y-1.9632
X7.8944Y-1.8213
X6.612Y-1.3874
X6.8409Y-1.2455
X2.1288Y-1.0125
X2.3924Y-0.9574
X-0.055Y-3.2714
X0.195Y-3.1714
X10.2575Y-3.2714
X10.5075Y-3.1714
X1.1637Y-1.0214
X1.4137Y-0.9214
X0.32Y-2.5214
X0.57Y-2.4214
X9.7887Y-2.5214
X10.0387Y-2.4214
X4.399Y-2.1743
X4.6626Y-2.1193
X6.6879Y-2.8972
X6.9167Y-2.7553
X2.9218Y-1.9139
X3.1854Y-1.8588
X12.7898Y-1.1728
X13.0398Y-1.0728
X5.8703Y-1.5181
X6.0992Y-1.3762
X4.3446Y-1.4032
X4.6082Y-1.3481
T2
G00X5.3572Y0.4563
M15
G01X5.3572Y0.411
M16
G05
G00X5.3572Y0.2752
M15
G01X5.3572Y0.2299
M16
G05
G00X5.7962Y0.4563
M15
G01X5.7962Y0.411
M16
G05
G00X5.7962Y0.2752
M15
G01X5.7962Y0.2299
M16
G05
T0
M30
