M48
; DRILL file {KiCad (5.1.6)-1} date 11/21/20 10:53:17
; FORMAT={-:-/ absolute / inch / decimal}
; #@! TF.CreationDate,2020-11-21T10:53:17+09:00
; #@! TF.GenerationSoftware,Kicad,Pcbnew,(5.1.6)-1
; #@! TF.FileFunction,NonPlated,1,2,NPTH
FMAT,2
INCH
T1C0.0157
T2C0.0689
T3C0.1181
T4C0.1200
T5C0.1570
%
G90
G05
T1
X5.9237Y0.0308
X6.219Y0.0308
T2
X3.8056Y-0.774
X4.1968Y-0.8572
X2.5494Y-1.2734
X2.9406Y-1.3566
X12.4833Y-3.0275
X12.8833Y-3.0275
X7.2924Y-4.007
X7.6836Y-3.9238
X0.7568Y-2.8382
X1.1568Y-2.8382
X13.0484Y-0.5914
X13.4484Y-0.5914
X11.6762Y-2.0894
X12.0762Y-2.0894
X13.2333Y-3.7775
X13.6333Y-3.7775
X7.8326Y-1.5914
X8.2238Y-1.5082
X3.3108Y-2.2016
X3.702Y-2.2848
X0.734Y-2.088
X1.134Y-2.088
X0.8004Y-1.338
X1.2004Y-1.338
X12.4833Y-3.7775
X12.8833Y-3.7775
X0.382Y-3.5892
X0.782Y-3.5892
X6.576Y-1.0922
X6.9672Y-1.009
X6.7048Y-2.5986
X7.096Y-2.5154
X6.4936Y-3.41
X6.8848Y-3.3268
X8.566Y-1.436
X8.9572Y-1.3528
X7.2266Y-3.254
X7.6178Y-3.1708
X4.9879Y-3.3249
X5.3791Y-3.4081
X4.0442Y-2.3576
X4.4354Y-2.4408
X4.0162Y-1.5852
X4.4074Y-1.6684
X3.5212Y-3.0126
X3.9124Y-3.0958
X2.9118Y-3.6492
X3.303Y-3.7324
X10.3128Y-0.5896
X10.7128Y-0.5896
X10.1018Y-1.3396
X10.5018Y-1.3396
X10.4578Y-2.0892
X10.8578Y-2.0892
X9.3686Y-1.2978
X9.7686Y-1.2978
X0.7768Y-0.5882
X1.1768Y-0.5882
X2.2602Y-0.5042
X2.6602Y-0.5042
X4.5392Y-0.9296
X4.9304Y-1.0128
X8.6944Y-2.942
X9.0856Y-2.8588
X11.2776Y-2.8388
X11.6776Y-2.8388
X2.7876Y-2.8572
X3.1788Y-2.9404
X6.3656Y-1.9032
X6.7568Y-1.82
X8.7774Y-0.625
X9.1686Y-0.5418
X11.7914Y-1.3388
X12.1914Y-1.3388
X9.7082Y-2.0892
X10.1082Y-2.0892
X8.1716Y-2.2866
X8.5628Y-2.2034
X1.5268Y-0.5884
X1.9268Y-0.5884
X7.9606Y-3.0978
X8.3518Y-3.0146
X4.7778Y-2.5138
X5.169Y-2.597
X2.577Y-2.0454
X2.9682Y-2.1286
X8.5768Y-3.734
X8.968Y-3.6508
X10.7021Y-3.59
X11.1021Y-3.59
X1.9758Y-2.8378
X2.3758Y-2.8378
X8.0432Y-0.7814
X8.4344Y-0.6982
X4.2548Y-3.1692
X4.646Y-3.2524
X10.8524Y-1.3394
X11.2524Y-1.3394
X8.9056Y-2.131
X9.2968Y-2.0478
X3.0718Y-0.6182
X3.463Y-0.7014
X5.2726Y-1.086
X5.6638Y-1.1692
X11.7333Y-3.7775
X12.1333Y-3.7775
X9.7646Y-3.59
X10.1646Y-3.59
X9.5794Y-0.505
X9.9794Y-0.505
X7.3096Y-0.9366
X7.7008Y-0.8534
X11.4372Y-0.589
X11.8372Y-0.589
X13.2344Y-1.4914
X13.6344Y-1.4914
X7.4382Y-2.442
X7.8294Y-2.3588
X3.283Y-1.4292
X3.6742Y-1.5124
X1.765Y-2.0878
X2.165Y-2.0878
X4.7502Y-1.7412
X5.1414Y-1.8244
X9.497Y-2.8396
X9.897Y-2.8396
X10.2472Y-2.8394
X10.6472Y-2.8394
X1.3198Y-3.5902
X1.7198Y-3.5902
X4.3784Y-3.9624
X4.7696Y-4.0456
X13.4224Y-2.3914
X13.8224Y-2.3914
X7.0986Y-1.7472
X7.4898Y-1.664
X1.7372Y-1.3376
X2.1372Y-1.3376
T3
X11.7833Y-3.6775
X12.0333Y-3.5775
X9.8146Y-3.49
X10.0646Y-3.39
X9.6294Y-0.405
X9.8794Y-0.305
X7.3377Y-0.8284
X7.5614Y-0.6786
X11.4872Y-0.489
X11.7372Y-0.389
X13.2844Y-1.3914
X13.5344Y-1.2914
X7.4663Y-2.3338
X7.69Y-2.184
X3.3527Y-1.3418
X3.618Y-1.296
X1.815Y-1.9878
X2.065Y-1.8878
X4.8199Y-1.6538
X5.0852Y-1.608
X9.547Y-2.7396
X9.797Y-2.6396
X10.2972Y-2.7394
X10.5472Y-2.6394
X1.3698Y-3.4902
X1.6198Y-3.3902
X4.4481Y-3.875
X4.7134Y-3.8292
X13.4724Y-2.2914
X13.7224Y-2.1914
X7.1267Y-1.639
X7.3504Y-1.4892
X1.7872Y-1.2376
X2.0372Y-1.1376
X3.8753Y-0.6866
X4.1406Y-0.6408
X2.6191Y-1.186
X2.8844Y-1.1402
X12.5333Y-2.9275
X12.7833Y-2.8275
X7.3205Y-3.8988
X7.5442Y-3.749
X0.8068Y-2.7382
X1.0568Y-2.6382
X13.0984Y-0.4914
X13.3484Y-0.3914
X11.7262Y-1.9894
X11.9762Y-1.8894
X13.2833Y-3.6775
X13.5333Y-3.5775
X7.8607Y-1.4832
X8.0844Y-1.3334
X3.3805Y-2.1142
X3.6458Y-2.0684
X0.784Y-1.988
X1.034Y-1.888
X0.8504Y-1.238
X1.1004Y-1.138
X12.5333Y-3.6775
X12.7833Y-3.5775
X0.432Y-3.4892
X0.682Y-3.3892
X6.6041Y-0.984
X6.8278Y-0.8342
X6.7329Y-2.4904
X6.9566Y-2.3406
X6.5217Y-3.3018
X6.7454Y-3.152
X8.5941Y-1.3278
X8.8178Y-1.178
X7.2547Y-3.1458
X7.4784Y-2.996
X5.0576Y-3.2375
X5.3229Y-3.1917
X4.1139Y-2.2702
X4.3792Y-2.2244
X4.0859Y-1.4978
X4.3512Y-1.452
X3.5909Y-2.9252
X3.8562Y-2.8794
X2.9815Y-3.5618
X3.2468Y-3.516
X10.3628Y-0.4896
X10.6128Y-0.3896
X10.1518Y-1.2396
X10.4018Y-1.1396
X10.5078Y-1.9892
X10.7578Y-1.8892
X9.4186Y-1.1978
X9.6686Y-1.0978
X0.8268Y-0.4882
X1.0768Y-0.3882
X2.3102Y-0.4042
X2.5602Y-0.3042
X4.6089Y-0.8422
X4.8742Y-0.7964
X8.7225Y-2.8338
X8.9462Y-2.684
X11.3276Y-2.7388
X11.5776Y-2.6388
X2.8573Y-2.7698
X3.1226Y-2.724
X6.3937Y-1.795
X6.6174Y-1.6452
X8.8055Y-0.5168
X9.0292Y-0.367
X11.8414Y-1.2388
X12.0914Y-1.1388
X9.7582Y-1.9892
X10.0082Y-1.8892
X8.1997Y-2.1784
X8.4234Y-2.0286
X1.5768Y-0.4884
X1.8268Y-0.3884
X7.9887Y-2.9896
X8.2124Y-2.8398
X4.8475Y-2.4264
X5.1128Y-2.3806
X2.6467Y-1.958
X2.912Y-1.9122
X8.6049Y-3.6258
X8.8286Y-3.476
X10.7521Y-3.49
X11.0021Y-3.39
X2.0258Y-2.7378
X2.2758Y-2.6378
X8.0713Y-0.6732
X8.295Y-0.5234
X4.3245Y-3.0818
X4.5898Y-3.036
X10.9024Y-1.2394
X11.1524Y-1.1394
X8.9337Y-2.0228
X9.1574Y-1.873
X3.1415Y-0.5308
X3.4068Y-0.485
X5.3423Y-0.9986
X5.6076Y-0.9528
T4
X11.1672Y-0.864
X12.1072Y-0.864
X4.0571Y-4.1753
X4.9766Y-4.3707
X7.0854Y-4.3321
X8.0049Y-4.1367
X0.4868Y-3.1132
X1.4268Y-3.1132
X11.4062Y-2.3644
X12.3462Y-2.3644
T5
X8.1562Y-3.0562
X4.9734Y-2.5554
X2.7726Y-2.087
X8.7724Y-3.6924
X10.9021Y-3.59
X2.1758Y-2.8378
X8.2388Y-0.7398
X4.4504Y-3.2108
X11.0524Y-1.3394
X9.1012Y-2.0894
X3.2674Y-0.6598
X5.4682Y-1.1276
X11.9333Y-3.7775
X9.9646Y-3.59
X9.7794Y-0.505
X7.5052Y-0.895
X11.1672Y-0.264
X11.6372Y-0.589
X12.1072Y-0.264
X13.4344Y-1.4914
X7.6338Y-2.4004
X3.4786Y-1.4708
X1.965Y-2.0878
X4.9458Y-1.7828
X9.697Y-2.8396
X10.4472Y-2.8394
X1.5198Y-3.5902
X4.1818Y-3.5884
X4.574Y-4.004
X5.1013Y-3.7838
X13.6224Y-2.3914
X7.2942Y-1.7056
X1.9372Y-1.3376
X4.0012Y-0.8156
X2.745Y-1.315
X12.6833Y-3.0275
X6.9607Y-3.7452
X7.488Y-3.9654
X7.8802Y-3.5498
X0.4868Y-2.5132
X0.9568Y-2.8382
X1.4268Y-2.5132
X13.2484Y-0.5914
X11.4062Y-1.7644
X11.8762Y-2.0894
X12.3462Y-1.7644
X13.4333Y-3.7775
X8.0282Y-1.5498
X3.5064Y-2.2432
X0.934Y-2.088
X1.0004Y-1.338
X12.6833Y-3.7775
X0.582Y-3.5892
X6.7716Y-1.0506
X6.9004Y-2.557
X6.6892Y-3.3684
X8.7616Y-1.3944
X7.4222Y-3.2124
X5.1835Y-3.3665
X4.2398Y-2.3992
X4.2118Y-1.6268
X3.7168Y-3.0542
X3.1074Y-3.6908
X10.5128Y-0.5896
X10.3018Y-1.3396
X10.6578Y-2.0892
X9.5686Y-1.2978
X0.9768Y-0.5882
X2.4602Y-0.5042
X4.7348Y-0.9712
X8.89Y-2.9004
X11.4776Y-2.8388
X2.9832Y-2.8988
X6.5612Y-1.8616
X8.973Y-0.5834
X11.9914Y-1.3388
X9.9082Y-2.0892
X8.3672Y-2.245
X1.7268Y-0.5884
T0
M30
