G04 #@! TF.GenerationSoftware,KiCad,Pcbnew,(5.1.6)-1*
G04 #@! TF.CreationDate,2020-11-21T10:53:14+09:00*
G04 #@! TF.ProjectId,trifecta,74726966-6563-4746-912e-6b696361645f,rev?*
G04 #@! TF.SameCoordinates,Original*
G04 #@! TF.FileFunction,Soldermask,Bot*
G04 #@! TF.FilePolarity,Negative*
%FSLAX46Y46*%
G04 Gerber Fmt 4.6, Leading zero omitted, Abs format (unit mm)*
G04 Created by KiCad (PCBNEW (5.1.6)-1) date 2020-11-21 10:53:14*
%MOMM*%
%LPD*%
G01*
G04 APERTURE LIST*
%ADD10C,4.007800*%
%ADD11C,3.068000*%
%ADD12C,0.100000*%
%ADD13C,1.770000*%
%ADD14C,3.020000*%
%ADD15R,2.570000X2.520000*%
%ADD16R,1.620000X0.870000*%
%ADD17O,1.720000X1.720000*%
%ADD18R,1.720000X1.720000*%
%ADD19R,0.720000X2.320000*%
%ADD20O,1.220000X2.320000*%
%ADD21C,0.620000*%
%ADD22R,0.570000X1.720000*%
%ADD23R,0.320000X1.720000*%
%ADD24R,1.020000X2.020000*%
%ADD25R,1.900000X0.900000*%
%ADD26R,0.900000X1.900000*%
%ADD27R,1.820000X0.840000*%
%ADD28R,1.080000X0.670000*%
G04 APERTURE END LIST*
D10*
X176801763Y-95128601D03*
X200156015Y-90164502D03*
D11*
X179970337Y-110035571D03*
X203324589Y-105071471D03*
D12*
G36*
X193858396Y-96037182D02*
G01*
X193334459Y-93572251D01*
X195848298Y-93037918D01*
X196372235Y-95502849D01*
X193858396Y-96037182D01*
G37*
G36*
X181741978Y-101209351D02*
G01*
X181218041Y-98744420D01*
X183731880Y-98210087D01*
X184255817Y-100675018D01*
X181741978Y-101209351D01*
G37*
D13*
X195164190Y-99664969D03*
X185226210Y-101777351D03*
D14*
X185940362Y-99028809D03*
D10*
X190195200Y-100721160D03*
D14*
X191623504Y-95224074D03*
D15*
X258942340Y-86107186D03*
X246015340Y-88647186D03*
D13*
X258180340Y-91187186D03*
X248020340Y-91187186D03*
D14*
X249290340Y-88647186D03*
D10*
X253100340Y-91187186D03*
D14*
X255640340Y-86107186D03*
D15*
X282754840Y-86107186D03*
X269827840Y-88647186D03*
D13*
X281992840Y-91187186D03*
X271832840Y-91187186D03*
D14*
X273102840Y-88647186D03*
D10*
X276912840Y-91187186D03*
D14*
X279452840Y-86107186D03*
D15*
X308948590Y-90869686D03*
X296021590Y-93409686D03*
D13*
X308186590Y-95949686D03*
X298026590Y-95949686D03*
D14*
X299296590Y-93409686D03*
D10*
X303106590Y-95949686D03*
D14*
X305646590Y-90869686D03*
D15*
X327998590Y-90869686D03*
X315071590Y-93409686D03*
D13*
X327236590Y-95949686D03*
X317076590Y-95949686D03*
D14*
X318346590Y-93409686D03*
D10*
X322156590Y-95949686D03*
D14*
X324696590Y-90869686D03*
D15*
X327998590Y-71819686D03*
X315071590Y-74359686D03*
D13*
X327236590Y-76899686D03*
X317076590Y-76899686D03*
D14*
X318346590Y-74359686D03*
D10*
X322156590Y-76899686D03*
D14*
X324696590Y-71819686D03*
D15*
X297373040Y-67025520D03*
X284446040Y-69565520D03*
D13*
X296611040Y-72105520D03*
X286451040Y-72105520D03*
D14*
X287721040Y-69565520D03*
D10*
X291531040Y-72105520D03*
D14*
X294071040Y-67025520D03*
D15*
X271200880Y-67040760D03*
X258273880Y-69580760D03*
D13*
X270438880Y-72120760D03*
X260278880Y-72120760D03*
D14*
X261548880Y-69580760D03*
D10*
X265358880Y-72120760D03*
D14*
X267898880Y-67040760D03*
D15*
X252145800Y-67045840D03*
X239218800Y-69585840D03*
D13*
X251383800Y-72125840D03*
X241223800Y-72125840D03*
D14*
X242493800Y-69585840D03*
D10*
X246303800Y-72125840D03*
D14*
X248843800Y-67045840D03*
D12*
G36*
X226482156Y-89102982D02*
G01*
X225958219Y-86638051D01*
X228472058Y-86103718D01*
X228995995Y-88568649D01*
X226482156Y-89102982D01*
G37*
G36*
X214365738Y-94275151D02*
G01*
X213841801Y-91810220D01*
X216355640Y-91275887D01*
X216879577Y-93740818D01*
X214365738Y-94275151D01*
G37*
D13*
X227787950Y-92730769D03*
X217849970Y-94843151D03*
D14*
X218564122Y-92094609D03*
D10*
X222818960Y-93786960D03*
D14*
X224247264Y-88289874D03*
D12*
G36*
X229469196Y-68986182D02*
G01*
X228945259Y-66521251D01*
X231459098Y-65986918D01*
X231983035Y-68451849D01*
X229469196Y-68986182D01*
G37*
G36*
X217352778Y-74158351D02*
G01*
X216828841Y-71693420D01*
X219342680Y-71159087D01*
X219866617Y-73624018D01*
X217352778Y-74158351D01*
G37*
D13*
X230774990Y-72613969D03*
X220837010Y-74726351D03*
D14*
X221551162Y-71977809D03*
D10*
X225806000Y-73670160D03*
D14*
X227234304Y-68173074D03*
D12*
G36*
X210830676Y-72943502D02*
G01*
X210306739Y-70478571D01*
X212820578Y-69944238D01*
X213344515Y-72409169D01*
X210830676Y-72943502D01*
G37*
G36*
X198714258Y-78115671D02*
G01*
X198190321Y-75650740D01*
X200704160Y-75116407D01*
X201228097Y-77581338D01*
X198714258Y-78115671D01*
G37*
D13*
X212136470Y-76571289D03*
X202198490Y-78683671D03*
D14*
X202912642Y-75935129D03*
D10*
X207167480Y-77627480D03*
D14*
X208595784Y-72130394D03*
D12*
G36*
X192187076Y-76910982D02*
G01*
X191663139Y-74446051D01*
X194176978Y-73911718D01*
X194700915Y-76376649D01*
X192187076Y-76910982D01*
G37*
G36*
X180070658Y-82083151D02*
G01*
X179546721Y-79618220D01*
X182060560Y-79083887D01*
X182584497Y-81548818D01*
X180070658Y-82083151D01*
G37*
D13*
X193492870Y-80538769D03*
X183554890Y-82651151D03*
D14*
X184269042Y-79902609D03*
D10*
X188523880Y-81594960D03*
D14*
X189952184Y-76097874D03*
D12*
G36*
X173568876Y-80873382D02*
G01*
X173044939Y-78408451D01*
X175558778Y-77874118D01*
X176082715Y-80339049D01*
X173568876Y-80873382D01*
G37*
G36*
X161452458Y-86045551D02*
G01*
X160928521Y-83580620D01*
X163442360Y-83046287D01*
X163966297Y-85511218D01*
X161452458Y-86045551D01*
G37*
D13*
X174874670Y-84501169D03*
X164936690Y-86613551D03*
D14*
X165650842Y-83865009D03*
D10*
X169905680Y-85557360D03*
D14*
X171333984Y-80060274D03*
D12*
G36*
X178933356Y-60263822D02*
G01*
X178409419Y-57798891D01*
X180923258Y-57264558D01*
X181447195Y-59729489D01*
X178933356Y-60263822D01*
G37*
G36*
X166816938Y-65435991D02*
G01*
X166293001Y-62971060D01*
X168806840Y-62436727D01*
X169330777Y-64901658D01*
X166816938Y-65435991D01*
G37*
D13*
X180239150Y-63891609D03*
X170301170Y-66003991D03*
D14*
X171015322Y-63255449D03*
D10*
X175270160Y-64947800D03*
D14*
X176698464Y-59450714D03*
D12*
G36*
X197561716Y-56286182D02*
G01*
X197037779Y-53821251D01*
X199551618Y-53286918D01*
X200075555Y-55751849D01*
X197561716Y-56286182D01*
G37*
G36*
X185445298Y-61458351D02*
G01*
X184921361Y-58993420D01*
X187435200Y-58459087D01*
X187959137Y-60924018D01*
X185445298Y-61458351D01*
G37*
D13*
X198867510Y-59913969D03*
X188929530Y-62026351D03*
D14*
X189643682Y-59277809D03*
D10*
X193898520Y-60970160D03*
D14*
X195326824Y-55473074D03*
D12*
G36*
X216190076Y-52339022D02*
G01*
X215666139Y-49874091D01*
X218179978Y-49339758D01*
X218703915Y-51804689D01*
X216190076Y-52339022D01*
G37*
G36*
X204073658Y-57511191D02*
G01*
X203549721Y-55046260D01*
X206063560Y-54511927D01*
X206587497Y-56976858D01*
X204073658Y-57511191D01*
G37*
D13*
X217495870Y-55966809D03*
X207557890Y-58079191D03*
D14*
X208272042Y-55330649D03*
D10*
X212526880Y-57023000D03*
D14*
X213955184Y-51525914D03*
D12*
G36*
X234833676Y-48386782D02*
G01*
X234309739Y-45921851D01*
X236823578Y-45387518D01*
X237347515Y-47852449D01*
X234833676Y-48386782D01*
G37*
G36*
X222717258Y-53558951D02*
G01*
X222193321Y-51094020D01*
X224707160Y-50559687D01*
X225231097Y-53024618D01*
X222717258Y-53558951D01*
G37*
D13*
X236139470Y-52014569D03*
X226201490Y-54126951D03*
D14*
X226915642Y-51378409D03*
D10*
X231170480Y-53070760D03*
D14*
X232598784Y-47573674D03*
D15*
X257510280Y-47985680D03*
X244583280Y-50525680D03*
D13*
X256748280Y-53065680D03*
X246588280Y-53065680D03*
D14*
X247858280Y-50525680D03*
D10*
X251668280Y-53065680D03*
D14*
X254208280Y-47985680D03*
D15*
X276550120Y-47985680D03*
X263623120Y-50525680D03*
D13*
X275788120Y-53065680D03*
X265628120Y-53065680D03*
D14*
X266898120Y-50525680D03*
D10*
X270708120Y-53065680D03*
D14*
X273248120Y-47985680D03*
D10*
X289717480Y-44815760D03*
X313593480Y-44815760D03*
D11*
X289717480Y-60055760D03*
X313593480Y-60055760D03*
D15*
X307497480Y-47990760D03*
X294570480Y-50530760D03*
D13*
X306735480Y-53070760D03*
X296575480Y-53070760D03*
D14*
X297845480Y-50530760D03*
D10*
X301655480Y-53070760D03*
D14*
X304195480Y-47990760D03*
D15*
X347048590Y-90869686D03*
X334121590Y-93409686D03*
D13*
X346286590Y-95949686D03*
X336126590Y-95949686D03*
D14*
X337396590Y-93409686D03*
D10*
X341206590Y-95949686D03*
D14*
X343746590Y-90869686D03*
D15*
X351851840Y-55661040D03*
X338924840Y-58201040D03*
D13*
X351089840Y-60741040D03*
X340929840Y-60741040D03*
D14*
X342199840Y-58201040D03*
D10*
X346009840Y-60741040D03*
D14*
X348549840Y-55661040D03*
D15*
X347076640Y-32801040D03*
X334149640Y-35341040D03*
D13*
X346314640Y-37881040D03*
X336154640Y-37881040D03*
D14*
X337424640Y-35341040D03*
D10*
X341234640Y-37881040D03*
D14*
X343774640Y-32801040D03*
D15*
X310423560Y-28925520D03*
X297496560Y-31465520D03*
D13*
X309661560Y-34005520D03*
X299501560Y-34005520D03*
D14*
X300771560Y-31465520D03*
D10*
X304581560Y-34005520D03*
D14*
X307121560Y-28925520D03*
D15*
X286572960Y-28940760D03*
X273645960Y-31480760D03*
D13*
X285810960Y-34020760D03*
X275650960Y-34020760D03*
D14*
X276920960Y-31480760D03*
D10*
X280730960Y-34020760D03*
D14*
X283270960Y-28940760D03*
D15*
X267507720Y-28945840D03*
X254580720Y-31485840D03*
D13*
X266745720Y-34025840D03*
X256585720Y-34025840D03*
D14*
X257855720Y-31485840D03*
D10*
X261665720Y-34025840D03*
D14*
X264205720Y-28945840D03*
D15*
X248884440Y-27884120D03*
X235957440Y-30424120D03*
D13*
X248122440Y-32964120D03*
X237962440Y-32964120D03*
D14*
X239232440Y-30424120D03*
D10*
X243042440Y-32964120D03*
D14*
X245582440Y-27884120D03*
D12*
G36*
X226207836Y-30733782D02*
G01*
X225683899Y-28268851D01*
X228197738Y-27734518D01*
X228721675Y-30199449D01*
X226207836Y-30733782D01*
G37*
G36*
X214091418Y-35905951D02*
G01*
X213567481Y-33441020D01*
X216081320Y-32906687D01*
X216605257Y-35371618D01*
X214091418Y-35905951D01*
G37*
D13*
X227513630Y-34361569D03*
X217575650Y-36473951D03*
D14*
X218289802Y-33725409D03*
D10*
X222544640Y-35417760D03*
D14*
X223972944Y-29920674D03*
D12*
G36*
X207579476Y-34680942D02*
G01*
X207055539Y-32216011D01*
X209569378Y-31681678D01*
X210093315Y-34146609D01*
X207579476Y-34680942D01*
G37*
G36*
X195463058Y-39853111D02*
G01*
X194939121Y-37388180D01*
X197452960Y-36853847D01*
X197976897Y-39318778D01*
X195463058Y-39853111D01*
G37*
D13*
X208885270Y-38308729D03*
X198947290Y-40421111D03*
D14*
X199661442Y-37672569D03*
D10*
X203916280Y-39364920D03*
D14*
X205344584Y-33867834D03*
D12*
G36*
X188935876Y-38638262D02*
G01*
X188411939Y-36173331D01*
X190925778Y-35638998D01*
X191449715Y-38103929D01*
X188935876Y-38638262D01*
G37*
G36*
X176819458Y-43810431D02*
G01*
X176295521Y-41345500D01*
X178809360Y-40811167D01*
X179333297Y-43276098D01*
X176819458Y-43810431D01*
G37*
D13*
X190241670Y-42266049D03*
X180303690Y-44378431D03*
D14*
X181017842Y-41629889D03*
D10*
X185272680Y-43322240D03*
D14*
X186700984Y-37825154D03*
D12*
G36*
X170317676Y-42600662D02*
G01*
X169793739Y-40135731D01*
X172307578Y-39601398D01*
X172831515Y-42066329D01*
X170317676Y-42600662D01*
G37*
G36*
X158201258Y-47772831D02*
G01*
X157677321Y-45307900D01*
X160191160Y-44773567D01*
X160715097Y-47238498D01*
X158201258Y-47772831D01*
G37*
D13*
X171623470Y-46228449D03*
X161685490Y-48340831D03*
D14*
X162399642Y-45592289D03*
D10*
X166654480Y-47284640D03*
D14*
X168082784Y-41787554D03*
D15*
X342352240Y-9941040D03*
X329425240Y-12481040D03*
D13*
X341590240Y-15021040D03*
X331430240Y-15021040D03*
D14*
X332700240Y-12481040D03*
D10*
X336510240Y-15021040D03*
D14*
X339050240Y-9941040D03*
D15*
X272867120Y-9895840D03*
X259940120Y-12435840D03*
D13*
X272105120Y-14975840D03*
X261945120Y-14975840D03*
D14*
X263215120Y-12435840D03*
D10*
X267025120Y-14975840D03*
D14*
X269565120Y-9895840D03*
D15*
X254238760Y-7747000D03*
X241311760Y-10287000D03*
D13*
X253476760Y-12827000D03*
X243316760Y-12827000D03*
D14*
X244586760Y-10287000D03*
D10*
X248396760Y-12827000D03*
D14*
X250936760Y-7747000D03*
D12*
G36*
X231577396Y-10134382D02*
G01*
X231053459Y-7669451D01*
X233567298Y-7135118D01*
X234091235Y-9600049D01*
X231577396Y-10134382D01*
G37*
G36*
X219460978Y-15306551D02*
G01*
X218937041Y-12841620D01*
X221450880Y-12307287D01*
X221974817Y-14772218D01*
X219460978Y-15306551D01*
G37*
D13*
X232883190Y-13762169D03*
X222945210Y-15874551D03*
D14*
X223659362Y-13126009D03*
D10*
X227914200Y-14818360D03*
D14*
X229342504Y-9321274D03*
D12*
G36*
X212928716Y-14106942D02*
G01*
X212404779Y-11642011D01*
X214918618Y-11107678D01*
X215442555Y-13572609D01*
X212928716Y-14106942D01*
G37*
G36*
X200812298Y-19279111D02*
G01*
X200288361Y-16814180D01*
X202802200Y-16279847D01*
X203326137Y-18744778D01*
X200812298Y-19279111D01*
G37*
D13*
X214234510Y-17734729D03*
X204296530Y-19847111D03*
D14*
X205010682Y-17098569D03*
D10*
X209265520Y-18790920D03*
D14*
X210693824Y-13293834D03*
D12*
G36*
X194295276Y-18049022D02*
G01*
X193771339Y-15584091D01*
X196285178Y-15049758D01*
X196809115Y-17514689D01*
X194295276Y-18049022D01*
G37*
G36*
X182178858Y-23221191D02*
G01*
X181654921Y-20756260D01*
X184168760Y-20221927D01*
X184692697Y-22686858D01*
X182178858Y-23221191D01*
G37*
D13*
X195601070Y-21676809D03*
X185663090Y-23789191D03*
D14*
X186377242Y-21040649D03*
D10*
X190632080Y-22733000D03*
D14*
X192060384Y-17235914D03*
D10*
X283646880Y-6705600D03*
X307522880Y-6705600D03*
D11*
X283646880Y-21945600D03*
X307522880Y-21945600D03*
D15*
X301426880Y-9880600D03*
X288499880Y-12420600D03*
D13*
X300664880Y-14960600D03*
X290504880Y-14960600D03*
D14*
X291774880Y-12420600D03*
D10*
X295584880Y-14960600D03*
D14*
X298124880Y-9880600D03*
D12*
G36*
X175661836Y-22001262D02*
G01*
X175137899Y-19536331D01*
X177651738Y-19001998D01*
X178175675Y-21466929D01*
X175661836Y-22001262D01*
G37*
G36*
X163545418Y-27173431D02*
G01*
X163021481Y-24708500D01*
X165535320Y-24174167D01*
X166059257Y-26639098D01*
X163545418Y-27173431D01*
G37*
D13*
X176967630Y-25629049D03*
X167029650Y-27741431D03*
D14*
X167743802Y-24992889D03*
D10*
X171998640Y-26685240D03*
D14*
X173426944Y-21188154D03*
D10*
X106218785Y-91144942D03*
X129573037Y-96109041D03*
D11*
X103050211Y-106051911D03*
X126404463Y-111016011D03*
D12*
G36*
X121431242Y-98912529D02*
G01*
X121955179Y-96447598D01*
X124469018Y-96981931D01*
X123945081Y-99446862D01*
X121431242Y-98912529D01*
G37*
G36*
X108258632Y-98709350D02*
G01*
X108782569Y-96244419D01*
X111296408Y-96778752D01*
X110772471Y-99243683D01*
X108258632Y-98709350D01*
G37*
D13*
X121148590Y-102757791D03*
X111210610Y-100645409D03*
D14*
X112980953Y-98424962D03*
D10*
X116179600Y-101701600D03*
D14*
X119720286Y-97260706D03*
D12*
G36*
X84179602Y-90957249D02*
G01*
X84703539Y-88492318D01*
X87217378Y-89026651D01*
X86693441Y-91491582D01*
X84179602Y-90957249D01*
G37*
G36*
X71006992Y-90754070D02*
G01*
X71530929Y-88289139D01*
X74044768Y-88823472D01*
X73520831Y-91288403D01*
X71006992Y-90754070D01*
G37*
D13*
X83896950Y-94802511D03*
X73958970Y-92690129D03*
D14*
X75729313Y-90469682D03*
D10*
X78927960Y-93746320D03*
D14*
X82468646Y-89305426D03*
D15*
X20624800Y-86085680D03*
X7697800Y-88625680D03*
D13*
X19862800Y-91165680D03*
X9702800Y-91165680D03*
D14*
X10972800Y-88625680D03*
D10*
X14782800Y-91165680D03*
D14*
X17322800Y-86085680D03*
D10*
X12364720Y-63835280D03*
X36240720Y-63835280D03*
D11*
X12364720Y-79075280D03*
X36240720Y-79075280D03*
D15*
X30144720Y-67010280D03*
X17217720Y-69550280D03*
D13*
X29382720Y-72090280D03*
X19222720Y-72090280D03*
D14*
X20492720Y-69550280D03*
D10*
X24302720Y-72090280D03*
D14*
X26842720Y-67010280D03*
D15*
X44444920Y-86111080D03*
X31517920Y-88651080D03*
D13*
X43682920Y-91191080D03*
X33522920Y-91191080D03*
D14*
X34792920Y-88651080D03*
D10*
X38602920Y-91191080D03*
D14*
X41142920Y-86111080D03*
D15*
X61107320Y-67000120D03*
X48180320Y-69540120D03*
D13*
X60345320Y-72080120D03*
X50185320Y-72080120D03*
D14*
X51455320Y-69540120D03*
D10*
X55265320Y-72080120D03*
D14*
X57805320Y-67000120D03*
D12*
G36*
X81024922Y-70840449D02*
G01*
X81548859Y-68375518D01*
X84062698Y-68909851D01*
X83538761Y-71374782D01*
X81024922Y-70840449D01*
G37*
G36*
X67852312Y-70637270D02*
G01*
X68376249Y-68172339D01*
X70890088Y-68706672D01*
X70366151Y-71171603D01*
X67852312Y-70637270D01*
G37*
D13*
X80742270Y-74685711D03*
X70804290Y-72573329D03*
D14*
X72574633Y-70352882D03*
D10*
X75773280Y-73629520D03*
D14*
X79313966Y-69188626D03*
D12*
G36*
X99658362Y-74787609D02*
G01*
X100182299Y-72322678D01*
X102696138Y-72857011D01*
X102172201Y-75321942D01*
X99658362Y-74787609D01*
G37*
G36*
X86485752Y-74584430D02*
G01*
X87009689Y-72119499D01*
X89523528Y-72653832D01*
X88999591Y-75118763D01*
X86485752Y-74584430D01*
G37*
D13*
X99375710Y-78632871D03*
X89437730Y-76520489D03*
D14*
X91208073Y-74300042D03*
D10*
X94406720Y-77576680D03*
D14*
X97947406Y-73135786D03*
D12*
G36*
X118291802Y-78765249D02*
G01*
X118815739Y-76300318D01*
X121329578Y-76834651D01*
X120805641Y-79299582D01*
X118291802Y-78765249D01*
G37*
G36*
X105119192Y-78562070D02*
G01*
X105643129Y-76097139D01*
X108156968Y-76631472D01*
X107633031Y-79096403D01*
X105119192Y-78562070D01*
G37*
D13*
X118009150Y-82610511D03*
X108071170Y-80498129D03*
D14*
X109841513Y-78277682D03*
D10*
X113040160Y-81554320D03*
D14*
X116580846Y-77113426D03*
D12*
G36*
X136912542Y-82720029D02*
G01*
X137436479Y-80255098D01*
X139950318Y-80789431D01*
X139426381Y-83254362D01*
X136912542Y-82720029D01*
G37*
G36*
X123739932Y-82516850D02*
G01*
X124263869Y-80051919D01*
X126777708Y-80586252D01*
X126253771Y-83051183D01*
X123739932Y-82516850D01*
G37*
D13*
X136629890Y-86565291D03*
X126691910Y-84452909D03*
D14*
X128462253Y-82232462D03*
D10*
X131660900Y-85509100D03*
D14*
X135201586Y-81068206D03*
D12*
G36*
X131576002Y-62118089D02*
G01*
X132099939Y-59653158D01*
X134613778Y-60187491D01*
X134089841Y-62652422D01*
X131576002Y-62118089D01*
G37*
G36*
X118403392Y-61914910D02*
G01*
X118927329Y-59449979D01*
X121441168Y-59984312D01*
X120917231Y-62449243D01*
X118403392Y-61914910D01*
G37*
D13*
X131293350Y-65963351D03*
X121355370Y-63850969D03*
D14*
X123125713Y-61630522D03*
D10*
X126324360Y-64907160D03*
D14*
X129865046Y-60466266D03*
D12*
G36*
X112942562Y-58150609D02*
G01*
X113466499Y-55685678D01*
X115980338Y-56220011D01*
X115456401Y-58684942D01*
X112942562Y-58150609D01*
G37*
G36*
X99769952Y-57947430D02*
G01*
X100293889Y-55482499D01*
X102807728Y-56016832D01*
X102283791Y-58481763D01*
X99769952Y-57947430D01*
G37*
D13*
X112659910Y-61995871D03*
X102721930Y-59883489D03*
D14*
X104492273Y-57663042D03*
D10*
X107690920Y-60939680D03*
D14*
X111231606Y-56498786D03*
D12*
G36*
X94314202Y-54188209D02*
G01*
X94838139Y-51723278D01*
X97351978Y-52257611D01*
X96828041Y-54722542D01*
X94314202Y-54188209D01*
G37*
G36*
X81141592Y-53985030D02*
G01*
X81665529Y-51520099D01*
X84179368Y-52054432D01*
X83655431Y-54519363D01*
X81141592Y-53985030D01*
G37*
D13*
X94031550Y-58033471D03*
X84093570Y-55921089D03*
D14*
X85863913Y-53700642D03*
D10*
X89062560Y-56977280D03*
D14*
X92603246Y-52536386D03*
D12*
G36*
X75675682Y-50220729D02*
G01*
X76199619Y-47755798D01*
X78713458Y-48290131D01*
X78189521Y-50755062D01*
X75675682Y-50220729D01*
G37*
G36*
X62503072Y-50017550D02*
G01*
X63027009Y-47552619D01*
X65540848Y-48086952D01*
X65016911Y-50551883D01*
X62503072Y-50017550D01*
G37*
D13*
X75393030Y-54065991D03*
X65455050Y-51953609D03*
D14*
X67225393Y-49733162D03*
D10*
X70424040Y-53009800D03*
D14*
X73964726Y-48568906D03*
D15*
X55753000Y-47950120D03*
X42826000Y-50490120D03*
D13*
X54991000Y-53030120D03*
X44831000Y-53030120D03*
D14*
X46101000Y-50490120D03*
D10*
X49911000Y-53030120D03*
D14*
X52451000Y-47950120D03*
D15*
X29565100Y-47956386D03*
X16638100Y-50496386D03*
D13*
X28803100Y-53036386D03*
X18643100Y-53036386D03*
D14*
X19913100Y-50496386D03*
D10*
X23723100Y-53036386D03*
D14*
X26263100Y-47956386D03*
D15*
X31252160Y-28905200D03*
X18325160Y-31445200D03*
D13*
X30490160Y-33985200D03*
X20330160Y-33985200D03*
D14*
X21600160Y-31445200D03*
D10*
X25410160Y-33985200D03*
D14*
X27950160Y-28905200D03*
D15*
X55046880Y-28895040D03*
X42119880Y-31435040D03*
D13*
X54284880Y-33975040D03*
X44124880Y-33975040D03*
D14*
X45394880Y-31435040D03*
D10*
X49204880Y-33975040D03*
D14*
X51744880Y-28895040D03*
D12*
G36*
X74974642Y-30611929D02*
G01*
X75498579Y-28146998D01*
X78012418Y-28681331D01*
X77488481Y-31146262D01*
X74974642Y-30611929D01*
G37*
G36*
X61802032Y-30408750D02*
G01*
X62325969Y-27943819D01*
X64839808Y-28478152D01*
X64315871Y-30943083D01*
X61802032Y-30408750D01*
G37*
D13*
X74691990Y-34457191D03*
X64754010Y-32344809D03*
D14*
X66524353Y-30124362D03*
D10*
X69723000Y-33401000D03*
D14*
X73263686Y-28960106D03*
D12*
G36*
X93608082Y-34569249D02*
G01*
X94132019Y-32104318D01*
X96645858Y-32638651D01*
X96121921Y-35103582D01*
X93608082Y-34569249D01*
G37*
G36*
X80435472Y-34366070D02*
G01*
X80959409Y-31901139D01*
X83473248Y-32435472D01*
X82949311Y-34900403D01*
X80435472Y-34366070D01*
G37*
D13*
X93325430Y-38414511D03*
X83387450Y-36302129D03*
D14*
X85157793Y-34081682D03*
D10*
X88356440Y-37358320D03*
D14*
X91897126Y-32917426D03*
D12*
G36*
X112231362Y-38531649D02*
G01*
X112755299Y-36066718D01*
X115269138Y-36601051D01*
X114745201Y-39065982D01*
X112231362Y-38531649D01*
G37*
G36*
X99058752Y-38328470D02*
G01*
X99582689Y-35863539D01*
X102096528Y-36397872D01*
X101572591Y-38862803D01*
X99058752Y-38328470D01*
G37*
D13*
X111948710Y-42376911D03*
X102010730Y-40264529D03*
D14*
X103781073Y-38044082D03*
D10*
X106979720Y-41320720D03*
D14*
X110520406Y-36879826D03*
D12*
G36*
X130874962Y-42494049D02*
G01*
X131398899Y-40029118D01*
X133912738Y-40563451D01*
X133388801Y-43028382D01*
X130874962Y-42494049D01*
G37*
G36*
X117702352Y-42290870D02*
G01*
X118226289Y-39825939D01*
X120740128Y-40360272D01*
X120216191Y-42825203D01*
X117702352Y-42290870D01*
G37*
D13*
X130592310Y-46339311D03*
X120654330Y-44226929D03*
D14*
X122424673Y-42006482D03*
D10*
X125623320Y-45283120D03*
D14*
X129164006Y-40842226D03*
D12*
G36*
X144143922Y-25851969D02*
G01*
X144667859Y-23387038D01*
X147181698Y-23921371D01*
X146657761Y-26386302D01*
X144143922Y-25851969D01*
G37*
G36*
X130971312Y-25648790D02*
G01*
X131495249Y-23183859D01*
X134009088Y-23718192D01*
X133485151Y-26183123D01*
X130971312Y-25648790D01*
G37*
D13*
X143861270Y-29697231D03*
X133923290Y-27584849D03*
D14*
X135693633Y-25364402D03*
D10*
X138892280Y-28641040D03*
D14*
X142432966Y-24200146D03*
D12*
G36*
X125515562Y-21879409D02*
G01*
X126039499Y-19414478D01*
X128553338Y-19948811D01*
X128029401Y-22413742D01*
X125515562Y-21879409D01*
G37*
G36*
X112342952Y-21676230D02*
G01*
X112866889Y-19211299D01*
X115380728Y-19745632D01*
X114856791Y-22210563D01*
X112342952Y-21676230D01*
G37*
D13*
X125232910Y-25724671D03*
X115294930Y-23612289D03*
D14*
X117065273Y-21391842D03*
D10*
X120263920Y-24668480D03*
D14*
X123804606Y-20227586D03*
D12*
G36*
X106882122Y-17927169D02*
G01*
X107406059Y-15462238D01*
X109919898Y-15996571D01*
X109395961Y-18461502D01*
X106882122Y-17927169D01*
G37*
G36*
X93709512Y-17723990D02*
G01*
X94233449Y-15259059D01*
X96747288Y-15793392D01*
X96223351Y-18258323D01*
X93709512Y-17723990D01*
G37*
D13*
X106599470Y-21772431D03*
X96661490Y-19660049D03*
D14*
X98431833Y-17439602D03*
D10*
X101630480Y-20716240D03*
D14*
X105171166Y-16275346D03*
D12*
G36*
X88243602Y-13969849D02*
G01*
X88767539Y-11504918D01*
X91281378Y-12039251D01*
X90757441Y-14504182D01*
X88243602Y-13969849D01*
G37*
G36*
X75070992Y-13766670D02*
G01*
X75594929Y-11301739D01*
X78108768Y-11836072D01*
X77584831Y-14301003D01*
X75070992Y-13766670D01*
G37*
D13*
X87960950Y-17815111D03*
X78022970Y-15702729D03*
D14*
X79793313Y-13482282D03*
D10*
X82991960Y-16758920D03*
D14*
X86532646Y-12318026D03*
D15*
X68331080Y-7726680D03*
X55404080Y-10266680D03*
D13*
X67569080Y-12806680D03*
X57409080Y-12806680D03*
D14*
X58679080Y-10266680D03*
D10*
X62489080Y-12806680D03*
D14*
X65029080Y-7726680D03*
D15*
X49702720Y-9865360D03*
X36775720Y-12405360D03*
D13*
X48940720Y-14945360D03*
X38780720Y-14945360D03*
D14*
X40050720Y-12405360D03*
D10*
X43860720Y-14945360D03*
D14*
X46400720Y-9865360D03*
D15*
X30652720Y-9860280D03*
X17725720Y-12400280D03*
D13*
X29890720Y-14940280D03*
X19730720Y-14940280D03*
D14*
X21000720Y-12400280D03*
D10*
X24810720Y-14940280D03*
D14*
X27350720Y-9860280D03*
D16*
X324914200Y-26788140D03*
X324914200Y-28538140D03*
X321414200Y-26788140D03*
X321414200Y-28538140D03*
X270151800Y-2985800D03*
X270151800Y-4735800D03*
X266651800Y-2985800D03*
X266651800Y-4735800D03*
X234287000Y-25934700D03*
X234287000Y-27684700D03*
X230787000Y-25934700D03*
X230787000Y-27684700D03*
X192250000Y-8269000D03*
X192250000Y-10019000D03*
X188750000Y-8269000D03*
X188750000Y-10019000D03*
X127746700Y-6872000D03*
X127746700Y-8622000D03*
X124246700Y-6872000D03*
X124246700Y-8622000D03*
X101152900Y-29185900D03*
X101152900Y-30935900D03*
X97652900Y-29185900D03*
X97652900Y-30935900D03*
X59019380Y-24293860D03*
X59019380Y-26043860D03*
X55519380Y-24293860D03*
X55519380Y-26043860D03*
X9133780Y-9696480D03*
X9133780Y-11446480D03*
X5633780Y-9696480D03*
X5633780Y-11446480D03*
X61008200Y-86894700D03*
X61008200Y-88644700D03*
X57508200Y-86894700D03*
X57508200Y-88644700D03*
X149545100Y-113422400D03*
X149545100Y-111672400D03*
X153045100Y-113422400D03*
X153045100Y-111672400D03*
X239151100Y-85916800D03*
X239151100Y-87666800D03*
X235651100Y-85916800D03*
X235651100Y-87666800D03*
X288813300Y-86981000D03*
X288813300Y-85231000D03*
X292313300Y-86981000D03*
X292313300Y-85231000D03*
X348180600Y-76595000D03*
X348180600Y-78345000D03*
X344680600Y-76595000D03*
X344680600Y-78345000D03*
X354009900Y-8281700D03*
X354009900Y-10031700D03*
X350509900Y-8281700D03*
X350509900Y-10031700D03*
D12*
G36*
X158026845Y-84152253D02*
G01*
X158221331Y-85255238D01*
X156428981Y-85571277D01*
X156234495Y-84468292D01*
X158026845Y-84152253D01*
G37*
G36*
X151278539Y-81585083D02*
G01*
X151473025Y-82688068D01*
X149680675Y-83004107D01*
X149486189Y-81901122D01*
X151278539Y-81585083D01*
G37*
G36*
X157384347Y-80508464D02*
G01*
X157578833Y-81611449D01*
X155786483Y-81927488D01*
X155591997Y-80824503D01*
X157384347Y-80508464D01*
G37*
G36*
X151921037Y-85228872D02*
G01*
X152115523Y-86331857D01*
X150323173Y-86647896D01*
X150128687Y-85544911D01*
X151921037Y-85228872D01*
G37*
D17*
X167487600Y-8651240D03*
X170027600Y-8651240D03*
X167487600Y-6111240D03*
X170027600Y-6111240D03*
X167487600Y-3571240D03*
D18*
X170027600Y-3571240D03*
D19*
X149011840Y5462760D03*
X159411840Y5462760D03*
D20*
X148636840Y862760D03*
X159786840Y862760D03*
X148636840Y5462760D03*
X159786840Y5462760D03*
D21*
X150461840Y782760D03*
X157961840Y782760D03*
D22*
X151011840Y-717240D03*
X157411840Y-717240D03*
X151761840Y-717240D03*
D23*
X152461840Y-717240D03*
X152961840Y-717240D03*
X153461840Y-717240D03*
D22*
X156661840Y-717240D03*
D23*
X155961840Y-717240D03*
X155461840Y-717240D03*
X154961840Y-717240D03*
X154461840Y-717240D03*
X153961840Y-717240D03*
G36*
G01*
X6839640Y-13066790D02*
X6839640Y-13989290D01*
G75*
G02*
X6590890Y-14238040I-248750J0D01*
G01*
X6093390Y-14238040D01*
G75*
G02*
X5844640Y-13989290I0J248750D01*
G01*
X5844640Y-13066790D01*
G75*
G02*
X6093390Y-12818040I248750J0D01*
G01*
X6590890Y-12818040D01*
G75*
G02*
X6839640Y-13066790I0J-248750D01*
G01*
G37*
G36*
G01*
X8714640Y-13066790D02*
X8714640Y-13989290D01*
G75*
G02*
X8465890Y-14238040I-248750J0D01*
G01*
X7968390Y-14238040D01*
G75*
G02*
X7719640Y-13989290I0J248750D01*
G01*
X7719640Y-13066790D01*
G75*
G02*
X7968390Y-12818040I248750J0D01*
G01*
X8465890Y-12818040D01*
G75*
G02*
X8714640Y-13066790I0J-248750D01*
G01*
G37*
G36*
G01*
X59100140Y-90308190D02*
X59100140Y-91230690D01*
G75*
G02*
X58851390Y-91479440I-248750J0D01*
G01*
X58353890Y-91479440D01*
G75*
G02*
X58105140Y-91230690I0J248750D01*
G01*
X58105140Y-90308190D01*
G75*
G02*
X58353890Y-90059440I248750J0D01*
G01*
X58851390Y-90059440D01*
G75*
G02*
X59100140Y-90308190I0J-248750D01*
G01*
G37*
G36*
G01*
X60975140Y-90308190D02*
X60975140Y-91230690D01*
G75*
G02*
X60726390Y-91479440I-248750J0D01*
G01*
X60228890Y-91479440D01*
G75*
G02*
X59980140Y-91230690I0J248750D01*
G01*
X59980140Y-90308190D01*
G75*
G02*
X60228890Y-90059440I248750J0D01*
G01*
X60726390Y-90059440D01*
G75*
G02*
X60975140Y-90308190I0J-248750D01*
G01*
G37*
G36*
G01*
X151788440Y-116008390D02*
X151788440Y-115085890D01*
G75*
G02*
X152037190Y-114837140I248750J0D01*
G01*
X152534690Y-114837140D01*
G75*
G02*
X152783440Y-115085890I0J-248750D01*
G01*
X152783440Y-116008390D01*
G75*
G02*
X152534690Y-116257140I-248750J0D01*
G01*
X152037190Y-116257140D01*
G75*
G02*
X151788440Y-116008390I0J248750D01*
G01*
G37*
G36*
G01*
X149913440Y-116008390D02*
X149913440Y-115085890D01*
G75*
G02*
X150162190Y-114837140I248750J0D01*
G01*
X150659690Y-114837140D01*
G75*
G02*
X150908440Y-115085890I0J-248750D01*
G01*
X150908440Y-116008390D01*
G75*
G02*
X150659690Y-116257140I-248750J0D01*
G01*
X150162190Y-116257140D01*
G75*
G02*
X149913440Y-116008390I0J248750D01*
G01*
G37*
G36*
G01*
X237141440Y-89317590D02*
X237141440Y-90240090D01*
G75*
G02*
X236892690Y-90488840I-248750J0D01*
G01*
X236395190Y-90488840D01*
G75*
G02*
X236146440Y-90240090I0J248750D01*
G01*
X236146440Y-89317590D01*
G75*
G02*
X236395190Y-89068840I248750J0D01*
G01*
X236892690Y-89068840D01*
G75*
G02*
X237141440Y-89317590I0J-248750D01*
G01*
G37*
G36*
G01*
X239016440Y-89317590D02*
X239016440Y-90240090D01*
G75*
G02*
X238767690Y-90488840I-248750J0D01*
G01*
X238270190Y-90488840D01*
G75*
G02*
X238021440Y-90240090I0J248750D01*
G01*
X238021440Y-89317590D01*
G75*
G02*
X238270190Y-89068840I248750J0D01*
G01*
X238767690Y-89068840D01*
G75*
G02*
X239016440Y-89317590I0J-248750D01*
G01*
G37*
G36*
G01*
X291137920Y-89589850D02*
X291137920Y-88667350D01*
G75*
G02*
X291386670Y-88418600I248750J0D01*
G01*
X291884170Y-88418600D01*
G75*
G02*
X292132920Y-88667350I0J-248750D01*
G01*
X292132920Y-89589850D01*
G75*
G02*
X291884170Y-89838600I-248750J0D01*
G01*
X291386670Y-89838600D01*
G75*
G02*
X291137920Y-89589850I0J248750D01*
G01*
G37*
G36*
G01*
X289262920Y-89589850D02*
X289262920Y-88667350D01*
G75*
G02*
X289511670Y-88418600I248750J0D01*
G01*
X290009170Y-88418600D01*
G75*
G02*
X290257920Y-88667350I0J-248750D01*
G01*
X290257920Y-89589850D01*
G75*
G02*
X290009170Y-89838600I-248750J0D01*
G01*
X289511670Y-89838600D01*
G75*
G02*
X289262920Y-89589850I0J248750D01*
G01*
G37*
G36*
G01*
X345904240Y-80046590D02*
X345904240Y-80969090D01*
G75*
G02*
X345655490Y-81217840I-248750J0D01*
G01*
X345157990Y-81217840D01*
G75*
G02*
X344909240Y-80969090I0J248750D01*
G01*
X344909240Y-80046590D01*
G75*
G02*
X345157990Y-79797840I248750J0D01*
G01*
X345655490Y-79797840D01*
G75*
G02*
X345904240Y-80046590I0J-248750D01*
G01*
G37*
G36*
G01*
X347779240Y-80046590D02*
X347779240Y-80969090D01*
G75*
G02*
X347530490Y-81217840I-248750J0D01*
G01*
X347032990Y-81217840D01*
G75*
G02*
X346784240Y-80969090I0J248750D01*
G01*
X346784240Y-80046590D01*
G75*
G02*
X347032990Y-79797840I248750J0D01*
G01*
X347530490Y-79797840D01*
G75*
G02*
X347779240Y-80046590I0J-248750D01*
G01*
G37*
G36*
G01*
X352152640Y-11669790D02*
X352152640Y-12592290D01*
G75*
G02*
X351903890Y-12841040I-248750J0D01*
G01*
X351406390Y-12841040D01*
G75*
G02*
X351157640Y-12592290I0J248750D01*
G01*
X351157640Y-11669790D01*
G75*
G02*
X351406390Y-11421040I248750J0D01*
G01*
X351903890Y-11421040D01*
G75*
G02*
X352152640Y-11669790I0J-248750D01*
G01*
G37*
G36*
G01*
X354027640Y-11669790D02*
X354027640Y-12592290D01*
G75*
G02*
X353778890Y-12841040I-248750J0D01*
G01*
X353281390Y-12841040D01*
G75*
G02*
X353032640Y-12592290I0J248750D01*
G01*
X353032640Y-11669790D01*
G75*
G02*
X353281390Y-11421040I248750J0D01*
G01*
X353778890Y-11421040D01*
G75*
G02*
X354027640Y-11669790I0J-248750D01*
G01*
G37*
D24*
X260103620Y-54511400D03*
X260103620Y-58061400D03*
X349469320Y-98203960D03*
X349469320Y-101753960D03*
X330376140Y-98092200D03*
X330376140Y-101642200D03*
X311341380Y-98008380D03*
X311341380Y-101558380D03*
X285240340Y-93258580D03*
X285240340Y-96808580D03*
X261445620Y-93393200D03*
X261445620Y-96943200D03*
D12*
G36*
X232076703Y-95233882D02*
G01*
X231078993Y-95445952D01*
X230659011Y-93470094D01*
X231656721Y-93258024D01*
X232076703Y-95233882D01*
G37*
G36*
X232814789Y-98706306D02*
G01*
X231817079Y-98918376D01*
X231397097Y-96942518D01*
X232394807Y-96730448D01*
X232814789Y-98706306D01*
G37*
G36*
X205033331Y-99614541D02*
G01*
X204028827Y-99791662D01*
X203678057Y-97802351D01*
X204682561Y-97625230D01*
X205033331Y-99614541D01*
G37*
G36*
X205649783Y-103110609D02*
G01*
X204645279Y-103287730D01*
X204294509Y-101298419D01*
X205299013Y-101121298D01*
X205649783Y-103110609D01*
G37*
G36*
X135784247Y-107177692D02*
G01*
X134786537Y-106965622D01*
X135206519Y-104989764D01*
X136204229Y-105201834D01*
X135784247Y-107177692D01*
G37*
G36*
X135046161Y-110650116D02*
G01*
X134048451Y-110438046D01*
X134468433Y-108462188D01*
X135466143Y-108674258D01*
X135046161Y-110650116D01*
G37*
G36*
X89111747Y-99684692D02*
G01*
X88114037Y-99472622D01*
X88534019Y-97496764D01*
X89531729Y-97708834D01*
X89111747Y-99684692D01*
G37*
G36*
X88373661Y-103157116D02*
G01*
X87375951Y-102945046D01*
X87795933Y-100969188D01*
X88793643Y-101181258D01*
X88373661Y-103157116D01*
G37*
D24*
X46988340Y-93471940D03*
X46988340Y-97021940D03*
X23302840Y-93459240D03*
X23302840Y-97009240D03*
X348821530Y-61799490D03*
X348821530Y-65349490D03*
X330462500Y-78968540D03*
X330462500Y-82518540D03*
X299502440Y-74223820D03*
X299502440Y-77773820D03*
X273583400Y-74224800D03*
X273583400Y-77774800D03*
X254647700Y-73853500D03*
X254647700Y-77403500D03*
D12*
G36*
X234959603Y-74634482D02*
G01*
X233961893Y-74846552D01*
X233541911Y-72870694D01*
X234539621Y-72658624D01*
X234959603Y-74634482D01*
G37*
G36*
X235697689Y-78106906D02*
G01*
X234699979Y-78318976D01*
X234279997Y-76343118D01*
X235277707Y-76131048D01*
X235697689Y-78106906D01*
G37*
G36*
X216277903Y-78355582D02*
G01*
X215280193Y-78567652D01*
X214860211Y-76591794D01*
X215857921Y-76379724D01*
X216277903Y-78355582D01*
G37*
G36*
X217015989Y-81828006D02*
G01*
X216018279Y-82040076D01*
X215598297Y-80064218D01*
X216596007Y-79852148D01*
X217015989Y-81828006D01*
G37*
G36*
X197393003Y-81098782D02*
G01*
X196395293Y-81310852D01*
X195975311Y-79334994D01*
X196973021Y-79122924D01*
X197393003Y-81098782D01*
G37*
G36*
X198131089Y-84571206D02*
G01*
X197133379Y-84783276D01*
X196713397Y-82807418D01*
X197711107Y-82595348D01*
X198131089Y-84571206D01*
G37*
G36*
X178787503Y-85200882D02*
G01*
X177789793Y-85412952D01*
X177369811Y-83437094D01*
X178367521Y-83225024D01*
X178787503Y-85200882D01*
G37*
G36*
X179525589Y-88673306D02*
G01*
X178527879Y-88885376D01*
X178107897Y-86909518D01*
X179105607Y-86697448D01*
X179525589Y-88673306D01*
G37*
G36*
X141689747Y-89524692D02*
G01*
X140692037Y-89312622D01*
X141112019Y-87336764D01*
X142109729Y-87548834D01*
X141689747Y-89524692D01*
G37*
G36*
X140951661Y-92997116D02*
G01*
X139953951Y-92785046D01*
X140373933Y-90809188D01*
X141371643Y-91021258D01*
X140951661Y-92997116D01*
G37*
G36*
X121211387Y-85263092D02*
G01*
X120213677Y-85051022D01*
X120633659Y-83075164D01*
X121631369Y-83287234D01*
X121211387Y-85263092D01*
G37*
G36*
X120473301Y-88735516D02*
G01*
X119475591Y-88523446D01*
X119895573Y-86547588D01*
X120893283Y-86759658D01*
X120473301Y-88735516D01*
G37*
G36*
X102420467Y-82232872D02*
G01*
X101422757Y-82020802D01*
X101842739Y-80044944D01*
X102840449Y-80257014D01*
X102420467Y-82232872D01*
G37*
G36*
X101682381Y-85705296D02*
G01*
X100684671Y-85493226D01*
X101104653Y-83517368D01*
X102102363Y-83729438D01*
X101682381Y-85705296D01*
G37*
G36*
X83698127Y-78293332D02*
G01*
X82700417Y-78081262D01*
X83120399Y-76105404D01*
X84118109Y-76317474D01*
X83698127Y-78293332D01*
G37*
G36*
X82960041Y-81765756D02*
G01*
X81962331Y-81553686D01*
X82382313Y-79577828D01*
X83380023Y-79789898D01*
X82960041Y-81765756D01*
G37*
D24*
X63464440Y-74422460D03*
X63464440Y-77972460D03*
X41082840Y-74468986D03*
X41082840Y-78018986D03*
X344130240Y-38849240D03*
X344130240Y-42399240D03*
X319197600Y-55717380D03*
X319197600Y-59267380D03*
X279992700Y-55150960D03*
X279992700Y-58700960D03*
D12*
G36*
X240489183Y-54924082D02*
G01*
X239491473Y-55136152D01*
X239071491Y-53160294D01*
X240069201Y-52948224D01*
X240489183Y-54924082D01*
G37*
G36*
X241227269Y-58396506D02*
G01*
X240229559Y-58608576D01*
X239809577Y-56632718D01*
X240807287Y-56420648D01*
X241227269Y-58396506D01*
G37*
G36*
X221759223Y-58175282D02*
G01*
X220761513Y-58387352D01*
X220341531Y-56411494D01*
X221339241Y-56199424D01*
X221759223Y-58175282D01*
G37*
G36*
X222497309Y-61647706D02*
G01*
X221499599Y-61859776D01*
X221079617Y-59883918D01*
X222077327Y-59671848D01*
X222497309Y-61647706D01*
G37*
G36*
X202866703Y-60926102D02*
G01*
X201868993Y-61138172D01*
X201449011Y-59162314D01*
X202446721Y-58950244D01*
X202866703Y-60926102D01*
G37*
G36*
X203604789Y-64398526D02*
G01*
X202607079Y-64610596D01*
X202187097Y-62634738D01*
X203184807Y-62422668D01*
X203604789Y-64398526D01*
G37*
G36*
X184159603Y-64817382D02*
G01*
X183161893Y-65029452D01*
X182741911Y-63053594D01*
X183739621Y-62841524D01*
X184159603Y-64817382D01*
G37*
G36*
X184897689Y-68289806D02*
G01*
X183899979Y-68501876D01*
X183479997Y-66526018D01*
X184477707Y-66313948D01*
X184897689Y-68289806D01*
G37*
G36*
X134486170Y-68680580D02*
G01*
X133488460Y-68468510D01*
X133908442Y-66492652D01*
X134906152Y-66704722D01*
X134486170Y-68680580D01*
G37*
G36*
X133748084Y-72153004D02*
G01*
X132750374Y-71940934D01*
X133170356Y-69965076D01*
X134168066Y-70177146D01*
X133748084Y-72153004D01*
G37*
G36*
X115778327Y-65174232D02*
G01*
X114780617Y-64962162D01*
X115200599Y-62986304D01*
X116198309Y-63198374D01*
X115778327Y-65174232D01*
G37*
G36*
X115040241Y-68646656D02*
G01*
X114042531Y-68434586D01*
X114462513Y-66458728D01*
X115460223Y-66670798D01*
X115040241Y-68646656D01*
G37*
G36*
X97238867Y-60950212D02*
G01*
X96241157Y-60738142D01*
X96661139Y-58762284D01*
X97658849Y-58974354D01*
X97238867Y-60950212D01*
G37*
G36*
X96500781Y-64422636D02*
G01*
X95503071Y-64210566D01*
X95923053Y-62234708D01*
X96920763Y-62446778D01*
X96500781Y-64422636D01*
G37*
G36*
X78374287Y-57932692D02*
G01*
X77376577Y-57720622D01*
X77796559Y-55744764D01*
X78794269Y-55956834D01*
X78374287Y-57932692D01*
G37*
G36*
X77636201Y-61405116D02*
G01*
X76638491Y-61193046D01*
X77058473Y-59217188D01*
X78056183Y-59429258D01*
X77636201Y-61405116D01*
G37*
D24*
X57891680Y-55095600D03*
X57891680Y-58645600D03*
X31065080Y-54406740D03*
X31065080Y-57956740D03*
X339405840Y-16492160D03*
X339405840Y-20042160D03*
X316200400Y-36116200D03*
X316200400Y-39666200D03*
X292352340Y-35173860D03*
X292352340Y-38723860D03*
X269900400Y-34597800D03*
X269900400Y-38147800D03*
X251180600Y-33505600D03*
X251180600Y-37055600D03*
D12*
G36*
X231683003Y-36343982D02*
G01*
X230685293Y-36556052D01*
X230265311Y-34580194D01*
X231263021Y-34368124D01*
X231683003Y-36343982D01*
G37*
G36*
X232421089Y-39816406D02*
G01*
X231423379Y-40028476D01*
X231003397Y-38052618D01*
X232001107Y-37840548D01*
X232421089Y-39816406D01*
G37*
G36*
X213039403Y-40077782D02*
G01*
X212041693Y-40289852D01*
X211621711Y-38313994D01*
X212619421Y-38101924D01*
X213039403Y-40077782D01*
G37*
G36*
X213777489Y-43550206D02*
G01*
X212779779Y-43762276D01*
X212359797Y-41786418D01*
X213357507Y-41574348D01*
X213777489Y-43550206D01*
G37*
G36*
X194332303Y-43671882D02*
G01*
X193334593Y-43883952D01*
X192914611Y-41908094D01*
X193912321Y-41696024D01*
X194332303Y-43671882D01*
G37*
G36*
X195070389Y-47144306D02*
G01*
X194072679Y-47356376D01*
X193652697Y-45380518D01*
X194650407Y-45168448D01*
X195070389Y-47144306D01*
G37*
G36*
X175498203Y-46681782D02*
G01*
X174500493Y-46893852D01*
X174080511Y-44917994D01*
X175078221Y-44705924D01*
X175498203Y-46681782D01*
G37*
G36*
X176236289Y-50154206D02*
G01*
X175238579Y-50366276D01*
X174818597Y-48390418D01*
X175816307Y-48178348D01*
X176236289Y-50154206D01*
G37*
G36*
X133748827Y-49111272D02*
G01*
X132751117Y-48899202D01*
X133171099Y-46923344D01*
X134168809Y-47135414D01*
X133748827Y-49111272D01*
G37*
G36*
X133010741Y-52583696D02*
G01*
X132013031Y-52371626D01*
X132433013Y-50395768D01*
X133430723Y-50607838D01*
X133010741Y-52583696D01*
G37*
G36*
X115092527Y-45308892D02*
G01*
X114094817Y-45096822D01*
X114514799Y-43120964D01*
X115512509Y-43333034D01*
X115092527Y-45308892D01*
G37*
G36*
X114354441Y-48781316D02*
G01*
X113356731Y-48569246D01*
X113776713Y-46593388D01*
X114774423Y-46805458D01*
X114354441Y-48781316D01*
G37*
G36*
X96291447Y-41976412D02*
G01*
X95293737Y-41764342D01*
X95713719Y-39788484D01*
X96711429Y-40000554D01*
X96291447Y-41976412D01*
G37*
G36*
X95553361Y-45448836D02*
G01*
X94555651Y-45236766D01*
X94975633Y-43260908D01*
X95973343Y-43472978D01*
X95553361Y-45448836D01*
G37*
G36*
X77574187Y-38572812D02*
G01*
X76576477Y-38360742D01*
X76996459Y-36384884D01*
X77994169Y-36596954D01*
X77574187Y-38572812D01*
G37*
G36*
X76836101Y-42045236D02*
G01*
X75838391Y-41833166D01*
X76258373Y-39857308D01*
X77256083Y-40069378D01*
X76836101Y-42045236D01*
G37*
D24*
X57492900Y-35090560D03*
X57492900Y-38640560D03*
X33319720Y-35723020D03*
X33319720Y-39273020D03*
X314915160Y-17078900D03*
X314915160Y-20628900D03*
X275234400Y-17018460D03*
X275234400Y-20568460D03*
X256341880Y-15430960D03*
X256341880Y-18980960D03*
D12*
G36*
X237197343Y-16018902D02*
G01*
X236199633Y-16230972D01*
X235779651Y-14255114D01*
X236777361Y-14043044D01*
X237197343Y-16018902D01*
G37*
G36*
X237935429Y-19491326D02*
G01*
X236937719Y-19703396D01*
X236517737Y-17727538D01*
X237515447Y-17515468D01*
X237935429Y-19491326D01*
G37*
G36*
X218543583Y-20126082D02*
G01*
X217545873Y-20338152D01*
X217125891Y-18362294D01*
X218123601Y-18150224D01*
X218543583Y-20126082D01*
G37*
G36*
X219281669Y-23598506D02*
G01*
X218283959Y-23810576D01*
X217863977Y-21834718D01*
X218861687Y-21622648D01*
X219281669Y-23598506D01*
G37*
G36*
X199724723Y-23522062D02*
G01*
X198727013Y-23734132D01*
X198307031Y-21758274D01*
X199304741Y-21546204D01*
X199724723Y-23522062D01*
G37*
G36*
X200462809Y-26994486D02*
G01*
X199465099Y-27206556D01*
X199045117Y-25230698D01*
X200042827Y-25018628D01*
X200462809Y-26994486D01*
G37*
G36*
X180936343Y-26689442D02*
G01*
X179938633Y-26901512D01*
X179518651Y-24925654D01*
X180516361Y-24713584D01*
X180936343Y-26689442D01*
G37*
G36*
X181674429Y-30161866D02*
G01*
X180676719Y-30373936D01*
X180256737Y-28398078D01*
X181254447Y-28186008D01*
X181674429Y-30161866D01*
G37*
G36*
X147030487Y-32606352D02*
G01*
X146032777Y-32394282D01*
X146452759Y-30418424D01*
X147450469Y-30630494D01*
X147030487Y-32606352D01*
G37*
G36*
X146292401Y-36078776D02*
G01*
X145294691Y-35866706D01*
X145714673Y-33890848D01*
X146712383Y-34102918D01*
X146292401Y-36078776D01*
G37*
G36*
X128226867Y-29311972D02*
G01*
X127229157Y-29099902D01*
X127649139Y-27124044D01*
X128646849Y-27336114D01*
X128226867Y-29311972D01*
G37*
G36*
X127488781Y-32784396D02*
G01*
X126491071Y-32572326D01*
X126911053Y-30596468D01*
X127908763Y-30808538D01*
X127488781Y-32784396D01*
G37*
G36*
X109485087Y-25366832D02*
G01*
X108487377Y-25154762D01*
X108907359Y-23178904D01*
X109905069Y-23390974D01*
X109485087Y-25366832D01*
G37*
G36*
X108747001Y-28839256D02*
G01*
X107749291Y-28627186D01*
X108169273Y-26651328D01*
X109166983Y-26863398D01*
X108747001Y-28839256D01*
G37*
G36*
X90924427Y-21625932D02*
G01*
X89926717Y-21413862D01*
X90346699Y-19438004D01*
X91344409Y-19650074D01*
X90924427Y-21625932D01*
G37*
G36*
X90186341Y-25098356D02*
G01*
X89188631Y-24886286D01*
X89608613Y-22910428D01*
X90606323Y-23122498D01*
X90186341Y-25098356D01*
G37*
D24*
X70751700Y-16017700D03*
X70751700Y-19567700D03*
X51841400Y-15903400D03*
X51841400Y-19453400D03*
X32664400Y-16881300D03*
X32664400Y-20431300D03*
D25*
X142881040Y-55166040D03*
X142881040Y-55966040D03*
X142881040Y-56766040D03*
X142881040Y-57566040D03*
X142881040Y-58366040D03*
X142881040Y-59166040D03*
X142881040Y-59966040D03*
X142881040Y-60766040D03*
X142881040Y-61566040D03*
X142881040Y-62366040D03*
X142881040Y-63166040D03*
D26*
X144781040Y-65066040D03*
X145581040Y-65066040D03*
X146381040Y-65066040D03*
X147181040Y-65066040D03*
X147981040Y-65066040D03*
X148781040Y-65066040D03*
X149581040Y-65066040D03*
X150381040Y-65066040D03*
X151181040Y-65066040D03*
X151981040Y-65066040D03*
X152781040Y-65066040D03*
D25*
X154681040Y-63166040D03*
X154681040Y-62366040D03*
X154681040Y-61566040D03*
X154681040Y-60766040D03*
X154681040Y-59966040D03*
X154681040Y-59166040D03*
X154681040Y-58366040D03*
X154681040Y-57566040D03*
X154681040Y-56766040D03*
X154681040Y-55966040D03*
X154681040Y-55166040D03*
D26*
X152781040Y-53266040D03*
X151981040Y-53266040D03*
X151181040Y-53266040D03*
X150381040Y-53266040D03*
X149581040Y-53266040D03*
X148781040Y-53266040D03*
X147981040Y-53266040D03*
X147181040Y-53266040D03*
X146381040Y-53266040D03*
X145581040Y-53266040D03*
X144781040Y-53266040D03*
G36*
G01*
X296101080Y-23387290D02*
X296101080Y-22464790D01*
G75*
G02*
X296349830Y-22216040I248750J0D01*
G01*
X296847330Y-22216040D01*
G75*
G02*
X297096080Y-22464790I0J-248750D01*
G01*
X297096080Y-23387290D01*
G75*
G02*
X296847330Y-23636040I-248750J0D01*
G01*
X296349830Y-23636040D01*
G75*
G02*
X296101080Y-23387290I0J248750D01*
G01*
G37*
G36*
G01*
X294226080Y-23387290D02*
X294226080Y-22464790D01*
G75*
G02*
X294474830Y-22216040I248750J0D01*
G01*
X294972330Y-22216040D01*
G75*
G02*
X295221080Y-22464790I0J-248750D01*
G01*
X295221080Y-23387290D01*
G75*
G02*
X294972330Y-23636040I-248750J0D01*
G01*
X294474830Y-23636040D01*
G75*
G02*
X294226080Y-23387290I0J248750D01*
G01*
G37*
G36*
G01*
X318973050Y-14634380D02*
X318050550Y-14634380D01*
G75*
G02*
X317801800Y-14385630I0J248750D01*
G01*
X317801800Y-13888130D01*
G75*
G02*
X318050550Y-13639380I248750J0D01*
G01*
X318973050Y-13639380D01*
G75*
G02*
X319221800Y-13888130I0J-248750D01*
G01*
X319221800Y-14385630D01*
G75*
G02*
X318973050Y-14634380I-248750J0D01*
G01*
G37*
G36*
G01*
X318973050Y-16509380D02*
X318050550Y-16509380D01*
G75*
G02*
X317801800Y-16260630I0J248750D01*
G01*
X317801800Y-15763130D01*
G75*
G02*
X318050550Y-15514380I248750J0D01*
G01*
X318973050Y-15514380D01*
G75*
G02*
X319221800Y-15763130I0J-248750D01*
G01*
X319221800Y-16260630D01*
G75*
G02*
X318973050Y-16509380I-248750J0D01*
G01*
G37*
G36*
G01*
X160777240Y-60845480D02*
X158167240Y-60845480D01*
G75*
G02*
X158062240Y-60740480I0J105000D01*
G01*
X158062240Y-60530480D01*
G75*
G02*
X158167240Y-60425480I105000J0D01*
G01*
X160777240Y-60425480D01*
G75*
G02*
X160882240Y-60530480I0J-105000D01*
G01*
X160882240Y-60740480D01*
G75*
G02*
X160777240Y-60845480I-105000J0D01*
G01*
G37*
G36*
G01*
X160777240Y-59645480D02*
X158167240Y-59645480D01*
G75*
G02*
X158062240Y-59540480I0J105000D01*
G01*
X158062240Y-59330480D01*
G75*
G02*
X158167240Y-59225480I105000J0D01*
G01*
X160777240Y-59225480D01*
G75*
G02*
X160882240Y-59330480I0J-105000D01*
G01*
X160882240Y-59540480D01*
G75*
G02*
X160777240Y-59645480I-105000J0D01*
G01*
G37*
G36*
G01*
X160777240Y-58445480D02*
X158167240Y-58445480D01*
G75*
G02*
X158062240Y-58340480I0J105000D01*
G01*
X158062240Y-58130480D01*
G75*
G02*
X158167240Y-58025480I105000J0D01*
G01*
X160777240Y-58025480D01*
G75*
G02*
X160882240Y-58130480I0J-105000D01*
G01*
X160882240Y-58340480D01*
G75*
G02*
X160777240Y-58445480I-105000J0D01*
G01*
G37*
D27*
X338711780Y-100592940D03*
X338711780Y-102092940D03*
X343711780Y-102092940D03*
X343711780Y-100592940D03*
X319539860Y-100575160D03*
X319539860Y-102075160D03*
X324539860Y-102075160D03*
X324539860Y-100575160D03*
X305500020Y-102098020D03*
X305500020Y-100598020D03*
X300500020Y-100598020D03*
X300500020Y-102098020D03*
X274355800Y-95822820D03*
X274355800Y-97322820D03*
X279355800Y-97322820D03*
X279355800Y-95822820D03*
X255418840Y-97305040D03*
X255418840Y-95805040D03*
X250418840Y-95805040D03*
X250418840Y-97305040D03*
D12*
G36*
X222534288Y-98284247D02*
G01*
X222708934Y-99105891D01*
X220928706Y-99484291D01*
X220754060Y-98662647D01*
X222534288Y-98284247D01*
G37*
G36*
X222846156Y-99751468D02*
G01*
X223020802Y-100573112D01*
X221240574Y-100951512D01*
X221065928Y-100129868D01*
X222846156Y-99751468D01*
G37*
G36*
X227736894Y-98711909D02*
G01*
X227911540Y-99533553D01*
X226131312Y-99911953D01*
X225956666Y-99090309D01*
X227736894Y-98711909D01*
G37*
G36*
X227425026Y-97244688D02*
G01*
X227599672Y-98066332D01*
X225819444Y-98444732D01*
X225644798Y-97623088D01*
X227425026Y-97244688D01*
G37*
G36*
X189679388Y-105243847D02*
G01*
X189854034Y-106065491D01*
X188073806Y-106443891D01*
X187899160Y-105622247D01*
X189679388Y-105243847D01*
G37*
G36*
X189991256Y-106711068D02*
G01*
X190165902Y-107532712D01*
X188385674Y-107911112D01*
X188211028Y-107089468D01*
X189991256Y-106711068D01*
G37*
G36*
X194881994Y-105671509D02*
G01*
X195056640Y-106493153D01*
X193276412Y-106871553D01*
X193101766Y-106049909D01*
X194881994Y-105671509D01*
G37*
G36*
X194570126Y-104204288D02*
G01*
X194744772Y-105025932D01*
X192964544Y-105404332D01*
X192789898Y-104582688D01*
X194570126Y-104204288D01*
G37*
G36*
X116290178Y-108530932D02*
G01*
X116464824Y-107709288D01*
X118245052Y-108087688D01*
X118070406Y-108909332D01*
X116290178Y-108530932D01*
G37*
G36*
X116602046Y-107063711D02*
G01*
X116776692Y-106242067D01*
X118556920Y-106620467D01*
X118382274Y-107442111D01*
X116602046Y-107063711D01*
G37*
G36*
X111711308Y-106024152D02*
G01*
X111885954Y-105202508D01*
X113666182Y-105580908D01*
X113491536Y-106402552D01*
X111711308Y-106024152D01*
G37*
G36*
X111399440Y-107491373D02*
G01*
X111574086Y-106669729D01*
X113354314Y-107048129D01*
X113179668Y-107869773D01*
X111399440Y-107491373D01*
G37*
G36*
X78858198Y-100519772D02*
G01*
X79032844Y-99698128D01*
X80813072Y-100076528D01*
X80638426Y-100898172D01*
X78858198Y-100519772D01*
G37*
G36*
X79170066Y-99052551D02*
G01*
X79344712Y-98230907D01*
X81124940Y-98609307D01*
X80950294Y-99430951D01*
X79170066Y-99052551D01*
G37*
G36*
X74279328Y-98012992D02*
G01*
X74453974Y-97191348D01*
X76234202Y-97569748D01*
X76059556Y-98391392D01*
X74279328Y-98012992D01*
G37*
G36*
X73967460Y-99480213D02*
G01*
X74142106Y-98658569D01*
X75922334Y-99036969D01*
X75747688Y-99858613D01*
X73967460Y-99480213D01*
G37*
D27*
X36106340Y-95830440D03*
X36106340Y-97330440D03*
X41106340Y-97330440D03*
X41106340Y-95830440D03*
X17420840Y-97330440D03*
X17420840Y-95830440D03*
X12420840Y-95830440D03*
X12420840Y-97330440D03*
X319560180Y-81548020D03*
X319560180Y-83048020D03*
X324560180Y-83048020D03*
X324560180Y-81548020D03*
X294041200Y-78347000D03*
X294041200Y-76847000D03*
X289041200Y-76847000D03*
X289041200Y-78347000D03*
X262841100Y-76783500D03*
X262841100Y-78283500D03*
X267841100Y-78283500D03*
X267841100Y-76783500D03*
X248791100Y-78308900D03*
X248791100Y-76808900D03*
X243791100Y-76808900D03*
X243791100Y-78308900D03*
D12*
G36*
X225163188Y-78205547D02*
G01*
X225337834Y-79027191D01*
X223557606Y-79405591D01*
X223382960Y-78583947D01*
X225163188Y-78205547D01*
G37*
G36*
X225475056Y-79672768D02*
G01*
X225649702Y-80494412D01*
X223869474Y-80872812D01*
X223694828Y-80051168D01*
X225475056Y-79672768D01*
G37*
G36*
X230365794Y-78633209D02*
G01*
X230540440Y-79454853D01*
X228760212Y-79833253D01*
X228585566Y-79011609D01*
X230365794Y-78633209D01*
G37*
G36*
X230053926Y-77165988D02*
G01*
X230228572Y-77987632D01*
X228448344Y-78366032D01*
X228273698Y-77544388D01*
X230053926Y-77165988D01*
G37*
G36*
X210129312Y-83782953D02*
G01*
X209954666Y-82961309D01*
X211734894Y-82582909D01*
X211909540Y-83404553D01*
X210129312Y-83782953D01*
G37*
G36*
X209817444Y-82315732D02*
G01*
X209642798Y-81494088D01*
X211423026Y-81115688D01*
X211597672Y-81937332D01*
X209817444Y-82315732D01*
G37*
G36*
X204926706Y-83355291D02*
G01*
X204752060Y-82533647D01*
X206532288Y-82155247D01*
X206706934Y-82976891D01*
X204926706Y-83355291D01*
G37*
G36*
X205238574Y-84822512D02*
G01*
X205063928Y-84000868D01*
X206844156Y-83622468D01*
X207018802Y-84444112D01*
X205238574Y-84822512D01*
G37*
G36*
X187914088Y-86092247D02*
G01*
X188088734Y-86913891D01*
X186308506Y-87292291D01*
X186133860Y-86470647D01*
X187914088Y-86092247D01*
G37*
G36*
X188225956Y-87559468D02*
G01*
X188400602Y-88381112D01*
X186620374Y-88759512D01*
X186445728Y-87937868D01*
X188225956Y-87559468D01*
G37*
G36*
X193116694Y-86519909D02*
G01*
X193291340Y-87341553D01*
X191511112Y-87719953D01*
X191336466Y-86898309D01*
X193116694Y-86519909D01*
G37*
G36*
X192804826Y-85052688D02*
G01*
X192979472Y-85874332D01*
X191199244Y-86252732D01*
X191024598Y-85431088D01*
X192804826Y-85052688D01*
G37*
G36*
X172880212Y-91695053D02*
G01*
X172705566Y-90873409D01*
X174485794Y-90495009D01*
X174660440Y-91316653D01*
X172880212Y-91695053D01*
G37*
G36*
X172568344Y-90227832D02*
G01*
X172393698Y-89406188D01*
X174173926Y-89027788D01*
X174348572Y-89849432D01*
X172568344Y-90227832D01*
G37*
G36*
X167677606Y-91267391D02*
G01*
X167502960Y-90445747D01*
X169283188Y-90067347D01*
X169457834Y-90888991D01*
X167677606Y-91267391D01*
G37*
G36*
X167989474Y-92734612D02*
G01*
X167814828Y-91912968D01*
X169595056Y-91534568D01*
X169769702Y-92356212D01*
X167989474Y-92734612D01*
G37*
G36*
X129185582Y-89375708D02*
G01*
X129010936Y-90197352D01*
X127230708Y-89818952D01*
X127405354Y-88997308D01*
X129185582Y-89375708D01*
G37*
G36*
X128873714Y-90842929D02*
G01*
X128699068Y-91664573D01*
X126918840Y-91286173D01*
X127093486Y-90464529D01*
X128873714Y-90842929D01*
G37*
G36*
X133764452Y-91882488D02*
G01*
X133589806Y-92704132D01*
X131809578Y-92325732D01*
X131984224Y-91504088D01*
X133764452Y-91882488D01*
G37*
G36*
X134076320Y-90415267D02*
G01*
X133901674Y-91236911D01*
X132121446Y-90858511D01*
X132296092Y-90036867D01*
X134076320Y-90415267D01*
G37*
G36*
X113219318Y-88335392D02*
G01*
X113393964Y-87513748D01*
X115174192Y-87892148D01*
X114999546Y-88713792D01*
X113219318Y-88335392D01*
G37*
G36*
X113531186Y-86868171D02*
G01*
X113705832Y-86046527D01*
X115486060Y-86424927D01*
X115311414Y-87246571D01*
X113531186Y-86868171D01*
G37*
G36*
X108640448Y-85828612D02*
G01*
X108815094Y-85006968D01*
X110595322Y-85385368D01*
X110420676Y-86207012D01*
X108640448Y-85828612D01*
G37*
G36*
X108328580Y-87295833D02*
G01*
X108503226Y-86474189D01*
X110283454Y-86852589D01*
X110108808Y-87674233D01*
X108328580Y-87295833D01*
G37*
G36*
X91961882Y-81433128D02*
G01*
X91787236Y-82254772D01*
X90007008Y-81876372D01*
X90181654Y-81054728D01*
X91961882Y-81433128D01*
G37*
G36*
X91650014Y-82900349D02*
G01*
X91475368Y-83721993D01*
X89695140Y-83343593D01*
X89869786Y-82521949D01*
X91650014Y-82900349D01*
G37*
G36*
X96540752Y-83939908D02*
G01*
X96366106Y-84761552D01*
X94585878Y-84383152D01*
X94760524Y-83561508D01*
X96540752Y-83939908D01*
G37*
G36*
X96852620Y-82472687D02*
G01*
X96677974Y-83294331D01*
X94897746Y-82915931D01*
X95072392Y-82094287D01*
X96852620Y-82472687D01*
G37*
G36*
X75954978Y-80469012D02*
G01*
X76129624Y-79647368D01*
X77909852Y-80025768D01*
X77735206Y-80847412D01*
X75954978Y-80469012D01*
G37*
G36*
X76266846Y-79001791D02*
G01*
X76441492Y-78180147D01*
X78221720Y-78558547D01*
X78047074Y-79380191D01*
X76266846Y-79001791D01*
G37*
G36*
X71376108Y-77962232D02*
G01*
X71550754Y-77140588D01*
X73330982Y-77518988D01*
X73156336Y-78340632D01*
X71376108Y-77962232D01*
G37*
G36*
X71064240Y-79429453D02*
G01*
X71238886Y-78607809D01*
X73019114Y-78986209D01*
X72844468Y-79807853D01*
X71064240Y-79429453D01*
G37*
D27*
X52933840Y-76780440D03*
X52933840Y-78280440D03*
X57933840Y-78280440D03*
X57933840Y-76780440D03*
X27009340Y-78280440D03*
X27009340Y-76780440D03*
X22009340Y-76780440D03*
X22009340Y-78280440D03*
X299048800Y-57761440D03*
X299048800Y-59261440D03*
X304048800Y-59261440D03*
X304048800Y-57761440D03*
X268203040Y-57756360D03*
X268203040Y-59256360D03*
X273203040Y-59256360D03*
X273203040Y-57756360D03*
X254155580Y-59241120D03*
X254155580Y-57741120D03*
X249155580Y-57741120D03*
X249155580Y-59241120D03*
D12*
G36*
X230512428Y-57568047D02*
G01*
X230687074Y-58389691D01*
X228906846Y-58768091D01*
X228732200Y-57946447D01*
X230512428Y-57568047D01*
G37*
G36*
X230824296Y-59035268D02*
G01*
X230998942Y-59856912D01*
X229218714Y-60235312D01*
X229044068Y-59413668D01*
X230824296Y-59035268D01*
G37*
G36*
X235715034Y-57995709D02*
G01*
X235889680Y-58817353D01*
X234109452Y-59195753D01*
X233934806Y-58374109D01*
X235715034Y-57995709D01*
G37*
G36*
X235403166Y-56528488D02*
G01*
X235577812Y-57350132D01*
X233797584Y-57728532D01*
X233622938Y-56906888D01*
X235403166Y-56528488D01*
G37*
G36*
X215442992Y-63165773D02*
G01*
X215268346Y-62344129D01*
X217048574Y-61965729D01*
X217223220Y-62787373D01*
X215442992Y-63165773D01*
G37*
G36*
X215131124Y-61698552D02*
G01*
X214956478Y-60876908D01*
X216736706Y-60498508D01*
X216911352Y-61320152D01*
X215131124Y-61698552D01*
G37*
G36*
X210240386Y-62738111D02*
G01*
X210065740Y-61916467D01*
X211845968Y-61538067D01*
X212020614Y-62359711D01*
X210240386Y-62738111D01*
G37*
G36*
X210552254Y-64205332D02*
G01*
X210377608Y-63383688D01*
X212157836Y-63005288D01*
X212332482Y-63826932D01*
X210552254Y-64205332D01*
G37*
G36*
X193227768Y-65536027D02*
G01*
X193402414Y-66357671D01*
X191622186Y-66736071D01*
X191447540Y-65914427D01*
X193227768Y-65536027D01*
G37*
G36*
X193539636Y-67003248D02*
G01*
X193714282Y-67824892D01*
X191934054Y-68203292D01*
X191759408Y-67381648D01*
X193539636Y-67003248D01*
G37*
G36*
X198430374Y-65963689D02*
G01*
X198605020Y-66785333D01*
X196824792Y-67163733D01*
X196650146Y-66342089D01*
X198430374Y-65963689D01*
G37*
G36*
X198118506Y-64496468D02*
G01*
X198293152Y-65318112D01*
X196512924Y-65696512D01*
X196338278Y-64874868D01*
X198118506Y-64496468D01*
G37*
G36*
X178214212Y-71057553D02*
G01*
X178039566Y-70235909D01*
X179819794Y-69857509D01*
X179994440Y-70679153D01*
X178214212Y-71057553D01*
G37*
G36*
X177902344Y-69590332D02*
G01*
X177727698Y-68768688D01*
X179507926Y-68390288D01*
X179682572Y-69211932D01*
X177902344Y-69590332D01*
G37*
G36*
X173011606Y-70629891D02*
G01*
X172836960Y-69808247D01*
X174617188Y-69429847D01*
X174791834Y-70251491D01*
X173011606Y-70629891D01*
G37*
G36*
X173323474Y-72097112D02*
G01*
X173148828Y-71275468D01*
X174929056Y-70897068D01*
X175103702Y-71718712D01*
X173323474Y-72097112D01*
G37*
G36*
X123869362Y-68743288D02*
G01*
X123694716Y-69564932D01*
X121914488Y-69186532D01*
X122089134Y-68364888D01*
X123869362Y-68743288D01*
G37*
G36*
X123557494Y-70210509D02*
G01*
X123382848Y-71032153D01*
X121602620Y-70653753D01*
X121777266Y-69832109D01*
X123557494Y-70210509D01*
G37*
G36*
X128448232Y-71250068D02*
G01*
X128273586Y-72071712D01*
X126493358Y-71693312D01*
X126668004Y-70871668D01*
X128448232Y-71250068D01*
G37*
G36*
X128760100Y-69782847D02*
G01*
X128585454Y-70604491D01*
X126805226Y-70226091D01*
X126979872Y-69404447D01*
X128760100Y-69782847D01*
G37*
G36*
X107847218Y-67746152D02*
G01*
X108021864Y-66924508D01*
X109802092Y-67302908D01*
X109627446Y-68124552D01*
X107847218Y-67746152D01*
G37*
G36*
X108159086Y-66278931D02*
G01*
X108333732Y-65457287D01*
X110113960Y-65835687D01*
X109939314Y-66657331D01*
X108159086Y-66278931D01*
G37*
G36*
X103268348Y-65239372D02*
G01*
X103442994Y-64417728D01*
X105223222Y-64796128D01*
X105048576Y-65617772D01*
X103268348Y-65239372D01*
G37*
G36*
X102956480Y-66706593D02*
G01*
X103131126Y-65884949D01*
X104911354Y-66263349D01*
X104736708Y-67084993D01*
X102956480Y-66706593D01*
G37*
G36*
X86610102Y-60861668D02*
G01*
X86435456Y-61683312D01*
X84655228Y-61304912D01*
X84829874Y-60483268D01*
X86610102Y-60861668D01*
G37*
G36*
X86298234Y-62328889D02*
G01*
X86123588Y-63150533D01*
X84343360Y-62772133D01*
X84518006Y-61950489D01*
X86298234Y-62328889D01*
G37*
G36*
X91188972Y-63368448D02*
G01*
X91014326Y-64190092D01*
X89234098Y-63811692D01*
X89408744Y-62990048D01*
X91188972Y-63368448D01*
G37*
G36*
X91500840Y-61901227D02*
G01*
X91326194Y-62722871D01*
X89545966Y-62344471D01*
X89720612Y-61522827D01*
X91500840Y-61901227D01*
G37*
G36*
X70587958Y-59785792D02*
G01*
X70762604Y-58964148D01*
X72542832Y-59342548D01*
X72368186Y-60164192D01*
X70587958Y-59785792D01*
G37*
G36*
X70899826Y-58318571D02*
G01*
X71074472Y-57496927D01*
X72854700Y-57875327D01*
X72680054Y-58696971D01*
X70899826Y-58318571D01*
G37*
G36*
X66009088Y-57279012D02*
G01*
X66183734Y-56457368D01*
X67963962Y-56835768D01*
X67789316Y-57657412D01*
X66009088Y-57279012D01*
G37*
G36*
X65697220Y-58746233D02*
G01*
X65871866Y-57924589D01*
X67652094Y-58302989D01*
X67477448Y-59124633D01*
X65697220Y-58746233D01*
G37*
D27*
X47398300Y-57769060D03*
X47398300Y-59269060D03*
X52398300Y-59269060D03*
X52398300Y-57769060D03*
X26233760Y-59223340D03*
X26233760Y-57723340D03*
X21233760Y-57723340D03*
X21233760Y-59223340D03*
X302089180Y-38800340D03*
X302089180Y-40300340D03*
X307089180Y-40300340D03*
X307089180Y-38800340D03*
X283347800Y-40221600D03*
X283347800Y-38721600D03*
X278347800Y-38721600D03*
X278347800Y-40221600D03*
X259196200Y-38696200D03*
X259196200Y-40196200D03*
X264196200Y-40196200D03*
X264196200Y-38696200D03*
X245552600Y-39154800D03*
X245552600Y-37654800D03*
X240552600Y-37654800D03*
X240552600Y-39154800D03*
D12*
G36*
X221873888Y-39915047D02*
G01*
X222048534Y-40736691D01*
X220268306Y-41115091D01*
X220093660Y-40293447D01*
X221873888Y-39915047D01*
G37*
G36*
X222185756Y-41382268D02*
G01*
X222360402Y-42203912D01*
X220580174Y-42582312D01*
X220405528Y-41760668D01*
X222185756Y-41382268D01*
G37*
G36*
X227076494Y-40342709D02*
G01*
X227251140Y-41164353D01*
X225470912Y-41542753D01*
X225296266Y-40721109D01*
X227076494Y-40342709D01*
G37*
G36*
X226764626Y-38875488D02*
G01*
X226939272Y-39697132D01*
X225159044Y-40075532D01*
X224984398Y-39253888D01*
X226764626Y-38875488D01*
G37*
G36*
X206827312Y-45505153D02*
G01*
X206652666Y-44683509D01*
X208432894Y-44305109D01*
X208607540Y-45126753D01*
X206827312Y-45505153D01*
G37*
G36*
X206515444Y-44037932D02*
G01*
X206340798Y-43216288D01*
X208121026Y-42837888D01*
X208295672Y-43659532D01*
X206515444Y-44037932D01*
G37*
G36*
X201624706Y-45077491D02*
G01*
X201450060Y-44255847D01*
X203230288Y-43877447D01*
X203404934Y-44699091D01*
X201624706Y-45077491D01*
G37*
G36*
X201936574Y-46544712D02*
G01*
X201761928Y-45723068D01*
X203542156Y-45344668D01*
X203716802Y-46166312D01*
X201936574Y-46544712D01*
G37*
G36*
X184662888Y-47852547D02*
G01*
X184837534Y-48674191D01*
X183057306Y-49052591D01*
X182882660Y-48230947D01*
X184662888Y-47852547D01*
G37*
G36*
X184974756Y-49319768D02*
G01*
X185149402Y-50141412D01*
X183369174Y-50519812D01*
X183194528Y-49698168D01*
X184974756Y-49319768D01*
G37*
G36*
X189865494Y-48280209D02*
G01*
X190040140Y-49101853D01*
X188259912Y-49480253D01*
X188085266Y-48658609D01*
X189865494Y-48280209D01*
G37*
G36*
X189553626Y-46812988D02*
G01*
X189728272Y-47634632D01*
X187948044Y-48013032D01*
X187773398Y-47191388D01*
X189553626Y-46812988D01*
G37*
G36*
X169578212Y-53442653D02*
G01*
X169403566Y-52621009D01*
X171183794Y-52242609D01*
X171358440Y-53064253D01*
X169578212Y-53442653D01*
G37*
G36*
X169266344Y-51975432D02*
G01*
X169091698Y-51153788D01*
X170871926Y-50775388D01*
X171046572Y-51597032D01*
X169266344Y-51975432D01*
G37*
G36*
X164375606Y-53014991D02*
G01*
X164200960Y-52193347D01*
X165981188Y-51814947D01*
X166155834Y-52636591D01*
X164375606Y-53014991D01*
G37*
G36*
X164687474Y-54482212D02*
G01*
X164512828Y-53660568D01*
X166293056Y-53282168D01*
X166467702Y-54103812D01*
X164687474Y-54482212D01*
G37*
G36*
X123155622Y-49144648D02*
G01*
X122980976Y-49966292D01*
X121200748Y-49587892D01*
X121375394Y-48766248D01*
X123155622Y-49144648D01*
G37*
G36*
X122843754Y-50611869D02*
G01*
X122669108Y-51433513D01*
X120888880Y-51055113D01*
X121063526Y-50233469D01*
X122843754Y-50611869D01*
G37*
G36*
X127734492Y-51651428D02*
G01*
X127559846Y-52473072D01*
X125779618Y-52094672D01*
X125954264Y-51273028D01*
X127734492Y-51651428D01*
G37*
G36*
X128046360Y-50184207D02*
G01*
X127871714Y-51005851D01*
X126091486Y-50627451D01*
X126266132Y-49805807D01*
X128046360Y-50184207D01*
G37*
G36*
X107161418Y-48137352D02*
G01*
X107336064Y-47315708D01*
X109116292Y-47694108D01*
X108941646Y-48515752D01*
X107161418Y-48137352D01*
G37*
G36*
X107473286Y-46670131D02*
G01*
X107647932Y-45848487D01*
X109428160Y-46226887D01*
X109253514Y-47048531D01*
X107473286Y-46670131D01*
G37*
G36*
X102582548Y-45630572D02*
G01*
X102757194Y-44808928D01*
X104537422Y-45187328D01*
X104362776Y-46008972D01*
X102582548Y-45630572D01*
G37*
G36*
X102270680Y-47097793D02*
G01*
X102445326Y-46276149D01*
X104225554Y-46654549D01*
X104050908Y-47476193D01*
X102270680Y-47097793D01*
G37*
G36*
X85909062Y-41219848D02*
G01*
X85734416Y-42041492D01*
X83954188Y-41663092D01*
X84128834Y-40841448D01*
X85909062Y-41219848D01*
G37*
G36*
X85597194Y-42687069D02*
G01*
X85422548Y-43508713D01*
X83642320Y-43130313D01*
X83816966Y-42308669D01*
X85597194Y-42687069D01*
G37*
G36*
X90487932Y-43726628D02*
G01*
X90313286Y-44548272D01*
X88533058Y-44169872D01*
X88707704Y-43348228D01*
X90487932Y-43726628D01*
G37*
G36*
X90799800Y-42259407D02*
G01*
X90625154Y-43081051D01*
X88844926Y-42702651D01*
X89019572Y-41881007D01*
X90799800Y-42259407D01*
G37*
G36*
X69884378Y-40171912D02*
G01*
X70059024Y-39350268D01*
X71839252Y-39728668D01*
X71664606Y-40550312D01*
X69884378Y-40171912D01*
G37*
G36*
X70196246Y-38704691D02*
G01*
X70370892Y-37883047D01*
X72151120Y-38261447D01*
X71976474Y-39083091D01*
X70196246Y-38704691D01*
G37*
G36*
X65305508Y-37665132D02*
G01*
X65480154Y-36843488D01*
X67260382Y-37221888D01*
X67085736Y-38043532D01*
X65305508Y-37665132D01*
G37*
G36*
X64993640Y-39132353D02*
G01*
X65168286Y-38310709D01*
X66948514Y-38689109D01*
X66773868Y-39510753D01*
X64993640Y-39132353D01*
G37*
D27*
X46730280Y-38693660D03*
X46730280Y-40193660D03*
X51730280Y-40193660D03*
X51730280Y-38693660D03*
X27930480Y-40173340D03*
X27930480Y-38673340D03*
X22930480Y-38673340D03*
X22930480Y-40173340D03*
X293161080Y-19641120D03*
X293161080Y-21141120D03*
X298161080Y-21141120D03*
X298161080Y-19641120D03*
X269550520Y-21163980D03*
X269550520Y-19663980D03*
X264550520Y-19663980D03*
X264550520Y-21163980D03*
X245912000Y-17520220D03*
X245912000Y-19020220D03*
X250912000Y-19020220D03*
X250912000Y-17520220D03*
D12*
G36*
X230835392Y-20938273D02*
G01*
X230660746Y-20116629D01*
X232440974Y-19738229D01*
X232615620Y-20559873D01*
X230835392Y-20938273D01*
G37*
G36*
X230523524Y-19471052D02*
G01*
X230348878Y-18649408D01*
X232129106Y-18271008D01*
X232303752Y-19092652D01*
X230523524Y-19471052D01*
G37*
G36*
X225632786Y-20510611D02*
G01*
X225458140Y-19688967D01*
X227238368Y-19310567D01*
X227413014Y-20132211D01*
X225632786Y-20510611D01*
G37*
G36*
X225944654Y-21977832D02*
G01*
X225770008Y-21156188D01*
X227550236Y-20777788D01*
X227724882Y-21599432D01*
X225944654Y-21977832D01*
G37*
G36*
X208584608Y-23280587D02*
G01*
X208759254Y-24102231D01*
X206979026Y-24480631D01*
X206804380Y-23658987D01*
X208584608Y-23280587D01*
G37*
G36*
X208896476Y-24747808D02*
G01*
X209071122Y-25569452D01*
X207290894Y-25947852D01*
X207116248Y-25126208D01*
X208896476Y-24747808D01*
G37*
G36*
X213787214Y-23708249D02*
G01*
X213961860Y-24529893D01*
X212181632Y-24908293D01*
X212006986Y-24086649D01*
X213787214Y-23708249D01*
G37*
G36*
X213475346Y-22241028D02*
G01*
X213649992Y-23062672D01*
X211869764Y-23441072D01*
X211695118Y-22619428D01*
X213475346Y-22241028D01*
G37*
G36*
X193573592Y-28847833D02*
G01*
X193398946Y-28026189D01*
X195179174Y-27647789D01*
X195353820Y-28469433D01*
X193573592Y-28847833D01*
G37*
G36*
X193261724Y-27380612D02*
G01*
X193087078Y-26558968D01*
X194867306Y-26180568D01*
X195041952Y-27002212D01*
X193261724Y-27380612D01*
G37*
G36*
X188370986Y-28420171D02*
G01*
X188196340Y-27598527D01*
X189976568Y-27220127D01*
X190151214Y-28041771D01*
X188370986Y-28420171D01*
G37*
G36*
X188682854Y-29887392D02*
G01*
X188508208Y-29065748D01*
X190288436Y-28687348D01*
X190463082Y-29508992D01*
X188682854Y-29887392D01*
G37*
G36*
X171315188Y-31220627D02*
G01*
X171489834Y-32042271D01*
X169709606Y-32420671D01*
X169534960Y-31599027D01*
X171315188Y-31220627D01*
G37*
G36*
X171627056Y-32687848D02*
G01*
X171801702Y-33509492D01*
X170021474Y-33887892D01*
X169846828Y-33066248D01*
X171627056Y-32687848D01*
G37*
G36*
X176517794Y-31648289D02*
G01*
X176692440Y-32469933D01*
X174912212Y-32848333D01*
X174737566Y-32026689D01*
X176517794Y-31648289D01*
G37*
G36*
X176205926Y-30181068D02*
G01*
X176380572Y-31002712D01*
X174600344Y-31381112D01*
X174425698Y-30559468D01*
X176205926Y-30181068D01*
G37*
G36*
X139094298Y-35452592D02*
G01*
X139268944Y-34630948D01*
X141049172Y-35009348D01*
X140874526Y-35830992D01*
X139094298Y-35452592D01*
G37*
G36*
X139406166Y-33985371D02*
G01*
X139580812Y-33163727D01*
X141361040Y-33542127D01*
X141186394Y-34363771D01*
X139406166Y-33985371D01*
G37*
G36*
X134515428Y-32945812D02*
G01*
X134690074Y-32124168D01*
X136470302Y-32502568D01*
X136295656Y-33324212D01*
X134515428Y-32945812D01*
G37*
G36*
X134203560Y-34413033D02*
G01*
X134378206Y-33591389D01*
X136158434Y-33969789D01*
X135983788Y-34791433D01*
X134203560Y-34413033D01*
G37*
G36*
X117788602Y-28509688D02*
G01*
X117613956Y-29331332D01*
X115833728Y-28952932D01*
X116008374Y-28131288D01*
X117788602Y-28509688D01*
G37*
G36*
X117476734Y-29976909D02*
G01*
X117302088Y-30798553D01*
X115521860Y-30420153D01*
X115696506Y-29598509D01*
X117476734Y-29976909D01*
G37*
G36*
X122367472Y-31016468D02*
G01*
X122192826Y-31838112D01*
X120412598Y-31459712D01*
X120587244Y-30638068D01*
X122367472Y-31016468D01*
G37*
G36*
X122679340Y-29549247D02*
G01*
X122504694Y-30370891D01*
X120724466Y-29992491D01*
X120899112Y-29170847D01*
X122679340Y-29549247D01*
G37*
G36*
X101830838Y-27379952D02*
G01*
X102005484Y-26558308D01*
X103785712Y-26936708D01*
X103611066Y-27758352D01*
X101830838Y-27379952D01*
G37*
G36*
X102142706Y-25912731D02*
G01*
X102317352Y-25091087D01*
X104097580Y-25469487D01*
X103922934Y-26291131D01*
X102142706Y-25912731D01*
G37*
G36*
X97251968Y-24873172D02*
G01*
X97426614Y-24051528D01*
X99206842Y-24429928D01*
X99032196Y-25251572D01*
X97251968Y-24873172D01*
G37*
G36*
X96940100Y-26340393D02*
G01*
X97114746Y-25518749D01*
X98894974Y-25897149D01*
X98720328Y-26718793D01*
X96940100Y-26340393D01*
G37*
G36*
X80564902Y-20622988D02*
G01*
X80390256Y-21444632D01*
X78610028Y-21066232D01*
X78784674Y-20244588D01*
X80564902Y-20622988D01*
G37*
G36*
X80253034Y-22090209D02*
G01*
X80078388Y-22911853D01*
X78298160Y-22533453D01*
X78472806Y-21711809D01*
X80253034Y-22090209D01*
G37*
G36*
X85143772Y-23129768D02*
G01*
X84969126Y-23951412D01*
X83188898Y-23573012D01*
X83363544Y-22751368D01*
X85143772Y-23129768D01*
G37*
G36*
X85455640Y-21662547D02*
G01*
X85280994Y-22484191D01*
X83500766Y-22105791D01*
X83675412Y-21284147D01*
X85455640Y-21662547D01*
G37*
D27*
X65022100Y-18999900D03*
X65022100Y-17499900D03*
X60022100Y-17499900D03*
X60022100Y-18999900D03*
X41365800Y-19658900D03*
X41365800Y-21158900D03*
X46365800Y-21158900D03*
X46365800Y-19658900D03*
X27277700Y-21070000D03*
X27277700Y-19570000D03*
X22277700Y-19570000D03*
X22277700Y-21070000D03*
G36*
G01*
X341631460Y-104580410D02*
X341631460Y-103657910D01*
G75*
G02*
X341880210Y-103409160I248750J0D01*
G01*
X342377710Y-103409160D01*
G75*
G02*
X342626460Y-103657910I0J-248750D01*
G01*
X342626460Y-104580410D01*
G75*
G02*
X342377710Y-104829160I-248750J0D01*
G01*
X341880210Y-104829160D01*
G75*
G02*
X341631460Y-104580410I0J248750D01*
G01*
G37*
G36*
G01*
X339756460Y-104580410D02*
X339756460Y-103657910D01*
G75*
G02*
X340005210Y-103409160I248750J0D01*
G01*
X340502710Y-103409160D01*
G75*
G02*
X340751460Y-103657910I0J-248750D01*
G01*
X340751460Y-104580410D01*
G75*
G02*
X340502710Y-104829160I-248750J0D01*
G01*
X340005210Y-104829160D01*
G75*
G02*
X339756460Y-104580410I0J248750D01*
G01*
G37*
G36*
G01*
X322500180Y-104562630D02*
X322500180Y-103640130D01*
G75*
G02*
X322748930Y-103391380I248750J0D01*
G01*
X323246430Y-103391380D01*
G75*
G02*
X323495180Y-103640130I0J-248750D01*
G01*
X323495180Y-104562630D01*
G75*
G02*
X323246430Y-104811380I-248750J0D01*
G01*
X322748930Y-104811380D01*
G75*
G02*
X322500180Y-104562630I0J248750D01*
G01*
G37*
G36*
G01*
X320625180Y-104562630D02*
X320625180Y-103640130D01*
G75*
G02*
X320873930Y-103391380I248750J0D01*
G01*
X321371430Y-103391380D01*
G75*
G02*
X321620180Y-103640130I0J-248750D01*
G01*
X321620180Y-104562630D01*
G75*
G02*
X321371430Y-104811380I-248750J0D01*
G01*
X320873930Y-104811380D01*
G75*
G02*
X320625180Y-104562630I0J248750D01*
G01*
G37*
G36*
G01*
X322517960Y-85456750D02*
X322517960Y-84534250D01*
G75*
G02*
X322766710Y-84285500I248750J0D01*
G01*
X323264210Y-84285500D01*
G75*
G02*
X323512960Y-84534250I0J-248750D01*
G01*
X323512960Y-85456750D01*
G75*
G02*
X323264210Y-85705500I-248750J0D01*
G01*
X322766710Y-85705500D01*
G75*
G02*
X322517960Y-85456750I0J248750D01*
G01*
G37*
G36*
G01*
X320642960Y-85456750D02*
X320642960Y-84534250D01*
G75*
G02*
X320891710Y-84285500I248750J0D01*
G01*
X321389210Y-84285500D01*
G75*
G02*
X321637960Y-84534250I0J-248750D01*
G01*
X321637960Y-85456750D01*
G75*
G02*
X321389210Y-85705500I-248750J0D01*
G01*
X320891710Y-85705500D01*
G75*
G02*
X320642960Y-85456750I0J248750D01*
G01*
G37*
G36*
G01*
X301915140Y-61515230D02*
X301915140Y-60592730D01*
G75*
G02*
X302163890Y-60343980I248750J0D01*
G01*
X302661390Y-60343980D01*
G75*
G02*
X302910140Y-60592730I0J-248750D01*
G01*
X302910140Y-61515230D01*
G75*
G02*
X302661390Y-61763980I-248750J0D01*
G01*
X302163890Y-61763980D01*
G75*
G02*
X301915140Y-61515230I0J248750D01*
G01*
G37*
G36*
G01*
X300040140Y-61515230D02*
X300040140Y-60592730D01*
G75*
G02*
X300288890Y-60343980I248750J0D01*
G01*
X300786390Y-60343980D01*
G75*
G02*
X301035140Y-60592730I0J-248750D01*
G01*
X301035140Y-61515230D01*
G75*
G02*
X300786390Y-61763980I-248750J0D01*
G01*
X300288890Y-61763980D01*
G75*
G02*
X300040140Y-61515230I0J248750D01*
G01*
G37*
G36*
G01*
X305062200Y-42556670D02*
X305062200Y-41634170D01*
G75*
G02*
X305310950Y-41385420I248750J0D01*
G01*
X305808450Y-41385420D01*
G75*
G02*
X306057200Y-41634170I0J-248750D01*
G01*
X306057200Y-42556670D01*
G75*
G02*
X305808450Y-42805420I-248750J0D01*
G01*
X305310950Y-42805420D01*
G75*
G02*
X305062200Y-42556670I0J248750D01*
G01*
G37*
G36*
G01*
X303187200Y-42556670D02*
X303187200Y-41634170D01*
G75*
G02*
X303435950Y-41385420I248750J0D01*
G01*
X303933450Y-41385420D01*
G75*
G02*
X304182200Y-41634170I0J-248750D01*
G01*
X304182200Y-42556670D01*
G75*
G02*
X303933450Y-42805420I-248750J0D01*
G01*
X303435950Y-42805420D01*
G75*
G02*
X303187200Y-42556670I0J248750D01*
G01*
G37*
G36*
G01*
X277278020Y-99772190D02*
X277278020Y-98849690D01*
G75*
G02*
X277526770Y-98600940I248750J0D01*
G01*
X278024270Y-98600940D01*
G75*
G02*
X278273020Y-98849690I0J-248750D01*
G01*
X278273020Y-99772190D01*
G75*
G02*
X278024270Y-100020940I-248750J0D01*
G01*
X277526770Y-100020940D01*
G75*
G02*
X277278020Y-99772190I0J248750D01*
G01*
G37*
G36*
G01*
X275403020Y-99772190D02*
X275403020Y-98849690D01*
G75*
G02*
X275651770Y-98600940I248750J0D01*
G01*
X276149270Y-98600940D01*
G75*
G02*
X276398020Y-98849690I0J-248750D01*
G01*
X276398020Y-99772190D01*
G75*
G02*
X276149270Y-100020940I-248750J0D01*
G01*
X275651770Y-100020940D01*
G75*
G02*
X275403020Y-99772190I0J248750D01*
G01*
G37*
G36*
G01*
X265755700Y-80598250D02*
X265755700Y-79675750D01*
G75*
G02*
X266004450Y-79427000I248750J0D01*
G01*
X266501950Y-79427000D01*
G75*
G02*
X266750700Y-79675750I0J-248750D01*
G01*
X266750700Y-80598250D01*
G75*
G02*
X266501950Y-80847000I-248750J0D01*
G01*
X266004450Y-80847000D01*
G75*
G02*
X265755700Y-80598250I0J248750D01*
G01*
G37*
G36*
G01*
X263880700Y-80598250D02*
X263880700Y-79675750D01*
G75*
G02*
X264129450Y-79427000I248750J0D01*
G01*
X264626950Y-79427000D01*
G75*
G02*
X264875700Y-79675750I0J-248750D01*
G01*
X264875700Y-80598250D01*
G75*
G02*
X264626950Y-80847000I-248750J0D01*
G01*
X264129450Y-80847000D01*
G75*
G02*
X263880700Y-80598250I0J248750D01*
G01*
G37*
G36*
G01*
X272096420Y-61651870D02*
X272096420Y-60729370D01*
G75*
G02*
X272345170Y-60480620I248750J0D01*
G01*
X272842670Y-60480620D01*
G75*
G02*
X273091420Y-60729370I0J-248750D01*
G01*
X273091420Y-61651870D01*
G75*
G02*
X272842670Y-61900620I-248750J0D01*
G01*
X272345170Y-61900620D01*
G75*
G02*
X272096420Y-61651870I0J248750D01*
G01*
G37*
G36*
G01*
X270221420Y-61651870D02*
X270221420Y-60729370D01*
G75*
G02*
X270470170Y-60480620I248750J0D01*
G01*
X270967670Y-60480620D01*
G75*
G02*
X271216420Y-60729370I0J-248750D01*
G01*
X271216420Y-61651870D01*
G75*
G02*
X270967670Y-61900620I-248750J0D01*
G01*
X270470170Y-61900620D01*
G75*
G02*
X270221420Y-61651870I0J248750D01*
G01*
G37*
G36*
G01*
X262123500Y-42498250D02*
X262123500Y-41575750D01*
G75*
G02*
X262372250Y-41327000I248750J0D01*
G01*
X262869750Y-41327000D01*
G75*
G02*
X263118500Y-41575750I0J-248750D01*
G01*
X263118500Y-42498250D01*
G75*
G02*
X262869750Y-42747000I-248750J0D01*
G01*
X262372250Y-42747000D01*
G75*
G02*
X262123500Y-42498250I0J248750D01*
G01*
G37*
G36*
G01*
X260248500Y-42498250D02*
X260248500Y-41575750D01*
G75*
G02*
X260497250Y-41327000I248750J0D01*
G01*
X260994750Y-41327000D01*
G75*
G02*
X261243500Y-41575750I0J-248750D01*
G01*
X261243500Y-42498250D01*
G75*
G02*
X260994750Y-42747000I-248750J0D01*
G01*
X260497250Y-42747000D01*
G75*
G02*
X260248500Y-42498250I0J248750D01*
G01*
G37*
G36*
G01*
X248806280Y-21271470D02*
X248806280Y-20348970D01*
G75*
G02*
X249055030Y-20100220I248750J0D01*
G01*
X249552530Y-20100220D01*
G75*
G02*
X249801280Y-20348970I0J-248750D01*
G01*
X249801280Y-21271470D01*
G75*
G02*
X249552530Y-21520220I-248750J0D01*
G01*
X249055030Y-21520220D01*
G75*
G02*
X248806280Y-21271470I0J248750D01*
G01*
G37*
G36*
G01*
X246931280Y-21271470D02*
X246931280Y-20348970D01*
G75*
G02*
X247180030Y-20100220I248750J0D01*
G01*
X247677530Y-20100220D01*
G75*
G02*
X247926280Y-20348970I0J-248750D01*
G01*
X247926280Y-21271470D01*
G75*
G02*
X247677530Y-21520220I-248750J0D01*
G01*
X247180030Y-21520220D01*
G75*
G02*
X246931280Y-21271470I0J248750D01*
G01*
G37*
G36*
G01*
X225402644Y-101924130D02*
X225210846Y-101021788D01*
G75*
G02*
X225402442Y-100726756I243314J51718D01*
G01*
X225889070Y-100623320D01*
G75*
G02*
X226184102Y-100814916I51718J-243314D01*
G01*
X226375900Y-101717258D01*
G75*
G02*
X226184304Y-102012290I-243314J-51718D01*
G01*
X225697676Y-102115726D01*
G75*
G02*
X225402644Y-101924130I-51718J243314D01*
G01*
G37*
G36*
G01*
X223568618Y-102313964D02*
X223376820Y-101411622D01*
G75*
G02*
X223568416Y-101116590I243314J51718D01*
G01*
X224055044Y-101013154D01*
G75*
G02*
X224350076Y-101204750I51718J-243314D01*
G01*
X224541874Y-102107092D01*
G75*
G02*
X224350278Y-102402124I-243314J-51718D01*
G01*
X223863650Y-102505560D01*
G75*
G02*
X223568618Y-102313964I-51718J243314D01*
G01*
G37*
G36*
G01*
X228046784Y-81868290D02*
X227854986Y-80965948D01*
G75*
G02*
X228046582Y-80670916I243314J51718D01*
G01*
X228533210Y-80567480D01*
G75*
G02*
X228828242Y-80759076I51718J-243314D01*
G01*
X229020040Y-81661418D01*
G75*
G02*
X228828444Y-81956450I-243314J-51718D01*
G01*
X228341816Y-82059886D01*
G75*
G02*
X228046784Y-81868290I-51718J243314D01*
G01*
G37*
G36*
G01*
X226212758Y-82258124D02*
X226020960Y-81355782D01*
G75*
G02*
X226212556Y-81060750I243314J51718D01*
G01*
X226699184Y-80957314D01*
G75*
G02*
X226994216Y-81148910I51718J-243314D01*
G01*
X227186014Y-82051252D01*
G75*
G02*
X226994418Y-82346284I-243314J-51718D01*
G01*
X226507790Y-82449720D01*
G75*
G02*
X226212758Y-82258124I-51718J243314D01*
G01*
G37*
G36*
G01*
X232086090Y-62277118D02*
X231925900Y-61368632D01*
G75*
G02*
X232127676Y-61080466I244971J43195D01*
G01*
X232617618Y-60994076D01*
G75*
G02*
X232905784Y-61195852I43195J-244971D01*
G01*
X233065974Y-62104338D01*
G75*
G02*
X232864198Y-62392504I-244971J-43195D01*
G01*
X232374256Y-62478894D01*
G75*
G02*
X232086090Y-62277118I-43195J244971D01*
G01*
G37*
G36*
G01*
X230239576Y-62602708D02*
X230079386Y-61694222D01*
G75*
G02*
X230281162Y-61406056I244971J43195D01*
G01*
X230771104Y-61319666D01*
G75*
G02*
X231059270Y-61521442I43195J-244971D01*
G01*
X231219460Y-62429928D01*
G75*
G02*
X231017684Y-62718094I-244971J-43195D01*
G01*
X230527742Y-62804484D01*
G75*
G02*
X230239576Y-62602708I-43195J244971D01*
G01*
G37*
G36*
G01*
X224846384Y-43552390D02*
X224654586Y-42650048D01*
G75*
G02*
X224846182Y-42355016I243314J51718D01*
G01*
X225332810Y-42251580D01*
G75*
G02*
X225627842Y-42443176I51718J-243314D01*
G01*
X225819640Y-43345518D01*
G75*
G02*
X225628044Y-43640550I-243314J-51718D01*
G01*
X225141416Y-43743986D01*
G75*
G02*
X224846384Y-43552390I-51718J243314D01*
G01*
G37*
G36*
G01*
X223012358Y-43942224D02*
X222820560Y-43039882D01*
G75*
G02*
X223012156Y-42744850I243314J51718D01*
G01*
X223498784Y-42641414D01*
G75*
G02*
X223793816Y-42833010I51718J-243314D01*
G01*
X223985614Y-43735352D01*
G75*
G02*
X223794018Y-44030384I-243314J-51718D01*
G01*
X223307390Y-44133820D01*
G75*
G02*
X223012358Y-43942224I-51718J243314D01*
G01*
G37*
G36*
G01*
X211432644Y-26961110D02*
X211240846Y-26058768D01*
G75*
G02*
X211432442Y-25763736I243314J51718D01*
G01*
X211919070Y-25660300D01*
G75*
G02*
X212214102Y-25851896I51718J-243314D01*
G01*
X212405900Y-26754238D01*
G75*
G02*
X212214304Y-27049270I-243314J-51718D01*
G01*
X211727676Y-27152706D01*
G75*
G02*
X211432644Y-26961110I-51718J243314D01*
G01*
G37*
G36*
G01*
X209598618Y-27350944D02*
X209406820Y-26448602D01*
G75*
G02*
X209598416Y-26153570I243314J51718D01*
G01*
X210085044Y-26050134D01*
G75*
G02*
X210380076Y-26241730I51718J-243314D01*
G01*
X210571874Y-27144072D01*
G75*
G02*
X210380278Y-27439104I-243314J-51718D01*
G01*
X209893650Y-27542540D01*
G75*
G02*
X209598618Y-27350944I-51718J243314D01*
G01*
G37*
G36*
G01*
X192575684Y-108881190D02*
X192383886Y-107978848D01*
G75*
G02*
X192575482Y-107683816I243314J51718D01*
G01*
X193062110Y-107580380D01*
G75*
G02*
X193357142Y-107771976I51718J-243314D01*
G01*
X193548940Y-108674318D01*
G75*
G02*
X193357344Y-108969350I-243314J-51718D01*
G01*
X192870716Y-109072786D01*
G75*
G02*
X192575684Y-108881190I-51718J243314D01*
G01*
G37*
G36*
G01*
X190741658Y-109271024D02*
X190549860Y-108368682D01*
G75*
G02*
X190741456Y-108073650I243314J51718D01*
G01*
X191228084Y-107970214D01*
G75*
G02*
X191523116Y-108161810I51718J-243314D01*
G01*
X191714914Y-109064152D01*
G75*
G02*
X191523318Y-109359184I-243314J-51718D01*
G01*
X191036690Y-109462620D01*
G75*
G02*
X190741658Y-109271024I-51718J243314D01*
G01*
G37*
G36*
G01*
X190810384Y-89767690D02*
X190618586Y-88865348D01*
G75*
G02*
X190810182Y-88570316I243314J51718D01*
G01*
X191296810Y-88466880D01*
G75*
G02*
X191591842Y-88658476I51718J-243314D01*
G01*
X191783640Y-89560818D01*
G75*
G02*
X191592044Y-89855850I-243314J-51718D01*
G01*
X191105416Y-89959286D01*
G75*
G02*
X190810384Y-89767690I-51718J243314D01*
G01*
G37*
G36*
G01*
X188976358Y-90157524D02*
X188784560Y-89255182D01*
G75*
G02*
X188976156Y-88960150I243314J51718D01*
G01*
X189462784Y-88856714D01*
G75*
G02*
X189757816Y-89048310I51718J-243314D01*
G01*
X189949614Y-89950652D01*
G75*
G02*
X189758018Y-90245684I-243314J-51718D01*
G01*
X189271390Y-90349120D01*
G75*
G02*
X188976358Y-90157524I-51718J243314D01*
G01*
G37*
G36*
G01*
X196124064Y-69183530D02*
X195932266Y-68281188D01*
G75*
G02*
X196123862Y-67986156I243314J51718D01*
G01*
X196610490Y-67882720D01*
G75*
G02*
X196905522Y-68074316I51718J-243314D01*
G01*
X197097320Y-68976658D01*
G75*
G02*
X196905724Y-69271690I-243314J-51718D01*
G01*
X196419096Y-69375126D01*
G75*
G02*
X196124064Y-69183530I-51718J243314D01*
G01*
G37*
G36*
G01*
X194290038Y-69573364D02*
X194098240Y-68671022D01*
G75*
G02*
X194289836Y-68375990I243314J51718D01*
G01*
X194776464Y-68272554D01*
G75*
G02*
X195071496Y-68464150I51718J-243314D01*
G01*
X195263294Y-69366492D01*
G75*
G02*
X195071698Y-69661524I-243314J-51718D01*
G01*
X194585070Y-69764960D01*
G75*
G02*
X194290038Y-69573364I-51718J243314D01*
G01*
G37*
G36*
G01*
X187584584Y-51527990D02*
X187392786Y-50625648D01*
G75*
G02*
X187584382Y-50330616I243314J51718D01*
G01*
X188071010Y-50227180D01*
G75*
G02*
X188366042Y-50418776I51718J-243314D01*
G01*
X188557840Y-51321118D01*
G75*
G02*
X188366244Y-51616150I-243314J-51718D01*
G01*
X187879616Y-51719586D01*
G75*
G02*
X187584584Y-51527990I-51718J243314D01*
G01*
G37*
G36*
G01*
X185750558Y-51917824D02*
X185558760Y-51015482D01*
G75*
G02*
X185750356Y-50720450I243314J51718D01*
G01*
X186236984Y-50617014D01*
G75*
G02*
X186532016Y-50808610I51718J-243314D01*
G01*
X186723814Y-51710952D01*
G75*
G02*
X186532218Y-52005984I-243314J-51718D01*
G01*
X186045590Y-52109420D01*
G75*
G02*
X185750558Y-51917824I-51718J243314D01*
G01*
G37*
G36*
G01*
X174254664Y-34855430D02*
X174062866Y-33953088D01*
G75*
G02*
X174254462Y-33658056I243314J51718D01*
G01*
X174741090Y-33554620D01*
G75*
G02*
X175036122Y-33746216I51718J-243314D01*
G01*
X175227920Y-34648558D01*
G75*
G02*
X175036324Y-34943590I-243314J-51718D01*
G01*
X174549696Y-35047026D01*
G75*
G02*
X174254664Y-34855430I-51718J243314D01*
G01*
G37*
G36*
G01*
X172420638Y-35245264D02*
X172228840Y-34342922D01*
G75*
G02*
X172420436Y-34047890I243314J51718D01*
G01*
X172907064Y-33944454D01*
G75*
G02*
X173202096Y-34136050I51718J-243314D01*
G01*
X173393894Y-35038392D01*
G75*
G02*
X173202298Y-35333424I-243314J-51718D01*
G01*
X172715670Y-35436860D01*
G75*
G02*
X172420638Y-35245264I-51718J243314D01*
G01*
G37*
G36*
G01*
X126610585Y-93151052D02*
X126802384Y-92248710D01*
G75*
G02*
X127097416Y-92057114I243314J-51718D01*
G01*
X127584044Y-92160550D01*
G75*
G02*
X127775640Y-92455582I-51718J-243314D01*
G01*
X127583842Y-93357924D01*
G75*
G02*
X127288810Y-93549520I-243314J51718D01*
G01*
X126802182Y-93446084D01*
G75*
G02*
X126610586Y-93151052I51718J243314D01*
G01*
G37*
G36*
G01*
X124776559Y-92761218D02*
X124968358Y-91858876D01*
G75*
G02*
X125263390Y-91667280I243314J-51718D01*
G01*
X125750018Y-91770716D01*
G75*
G02*
X125941614Y-92065748I-51718J-243314D01*
G01*
X125749816Y-92968090D01*
G75*
G02*
X125454784Y-93159686I-243314J51718D01*
G01*
X124968156Y-93056250D01*
G75*
G02*
X124776560Y-92761218I51718J243314D01*
G01*
G37*
G36*
G01*
X124959512Y-73293995D02*
X125151311Y-72391653D01*
G75*
G02*
X125446343Y-72200057I243314J-51718D01*
G01*
X125932971Y-72303493D01*
G75*
G02*
X126124567Y-72598525I-51718J-243314D01*
G01*
X125932769Y-73500867D01*
G75*
G02*
X125637737Y-73692463I-243314J51718D01*
G01*
X125151109Y-73589027D01*
G75*
G02*
X124959513Y-73293995I51718J243314D01*
G01*
G37*
G36*
G01*
X123125486Y-72904161D02*
X123317285Y-72001819D01*
G75*
G02*
X123612317Y-71810223I243314J-51718D01*
G01*
X124098945Y-71913659D01*
G75*
G02*
X124290541Y-72208691I-51718J-243314D01*
G01*
X124098743Y-73111033D01*
G75*
G02*
X123803711Y-73302629I-243314J51718D01*
G01*
X123317083Y-73199193D01*
G75*
G02*
X123125487Y-72904161I51718J243314D01*
G01*
G37*
G36*
G01*
X124248385Y-53643892D02*
X124440184Y-52741550D01*
G75*
G02*
X124735216Y-52549954I243314J-51718D01*
G01*
X125221844Y-52653390D01*
G75*
G02*
X125413440Y-52948422I-51718J-243314D01*
G01*
X125221642Y-53850764D01*
G75*
G02*
X124926610Y-54042360I-243314J51718D01*
G01*
X124439982Y-53938924D01*
G75*
G02*
X124248386Y-53643892I51718J243314D01*
G01*
G37*
G36*
G01*
X122414359Y-53254058D02*
X122606158Y-52351716D01*
G75*
G02*
X122901190Y-52160120I243314J-51718D01*
G01*
X123387818Y-52263556D01*
G75*
G02*
X123579414Y-52558588I-51718J-243314D01*
G01*
X123387616Y-53460930D01*
G75*
G02*
X123092584Y-53652526I-243314J51718D01*
G01*
X122605956Y-53549090D01*
G75*
G02*
X122414360Y-53254058I51718J243314D01*
G01*
G37*
G36*
G01*
X118830565Y-33029252D02*
X119022364Y-32126910D01*
G75*
G02*
X119317396Y-31935314I243314J-51718D01*
G01*
X119804024Y-32038750D01*
G75*
G02*
X119995620Y-32333782I-51718J-243314D01*
G01*
X119803822Y-33236124D01*
G75*
G02*
X119508790Y-33427720I-243314J51718D01*
G01*
X119022162Y-33324284D01*
G75*
G02*
X118830566Y-33029252I51718J243314D01*
G01*
G37*
G36*
G01*
X116996539Y-32639418D02*
X117188338Y-31737076D01*
G75*
G02*
X117483370Y-31545480I243314J-51718D01*
G01*
X117969998Y-31648916D01*
G75*
G02*
X118161594Y-31943948I-51718J-243314D01*
G01*
X117969796Y-32846290D01*
G75*
G02*
X117674764Y-33037886I-243314J51718D01*
G01*
X117188136Y-32934450D01*
G75*
G02*
X116996540Y-32639418I51718J243314D01*
G01*
G37*
G36*
G01*
X93082585Y-85993332D02*
X93274384Y-85090990D01*
G75*
G02*
X93569416Y-84899394I243314J-51718D01*
G01*
X94056044Y-85002830D01*
G75*
G02*
X94247640Y-85297862I-51718J-243314D01*
G01*
X94055842Y-86200204D01*
G75*
G02*
X93760810Y-86391800I-243314J51718D01*
G01*
X93274182Y-86288364D01*
G75*
G02*
X93082586Y-85993332I51718J243314D01*
G01*
G37*
G36*
G01*
X91248559Y-85603498D02*
X91440358Y-84701156D01*
G75*
G02*
X91735390Y-84509560I243314J-51718D01*
G01*
X92222018Y-84612996D01*
G75*
G02*
X92413614Y-84908028I-51718J-243314D01*
G01*
X92221816Y-85810370D01*
G75*
G02*
X91926784Y-86001966I-243314J51718D01*
G01*
X91440156Y-85898530D01*
G75*
G02*
X91248560Y-85603498I51718J243314D01*
G01*
G37*
G36*
G01*
X87664765Y-65381232D02*
X87856564Y-64478890D01*
G75*
G02*
X88151596Y-64287294I243314J-51718D01*
G01*
X88638224Y-64390730D01*
G75*
G02*
X88829820Y-64685762I-51718J-243314D01*
G01*
X88638022Y-65588104D01*
G75*
G02*
X88342990Y-65779700I-243314J51718D01*
G01*
X87856362Y-65676264D01*
G75*
G02*
X87664766Y-65381232I51718J243314D01*
G01*
G37*
G36*
G01*
X85830739Y-64991398D02*
X86022538Y-64089056D01*
G75*
G02*
X86317570Y-63897460I243314J-51718D01*
G01*
X86804198Y-64000896D01*
G75*
G02*
X86995794Y-64295928I-51718J-243314D01*
G01*
X86803996Y-65198270D01*
G75*
G02*
X86508964Y-65389866I-243314J51718D01*
G01*
X86022336Y-65286430D01*
G75*
G02*
X85830740Y-64991398I51718J243314D01*
G01*
G37*
G36*
G01*
X86961185Y-45741952D02*
X87152984Y-44839610D01*
G75*
G02*
X87448016Y-44648014I243314J-51718D01*
G01*
X87934644Y-44751450D01*
G75*
G02*
X88126240Y-45046482I-51718J-243314D01*
G01*
X87934442Y-45948824D01*
G75*
G02*
X87639410Y-46140420I-243314J51718D01*
G01*
X87152782Y-46036984D01*
G75*
G02*
X86961186Y-45741952I51718J243314D01*
G01*
G37*
G36*
G01*
X85127159Y-45352118D02*
X85318958Y-44449776D01*
G75*
G02*
X85613990Y-44258180I243314J-51718D01*
G01*
X86100618Y-44361616D01*
G75*
G02*
X86292214Y-44656648I-51718J-243314D01*
G01*
X86100416Y-45558990D01*
G75*
G02*
X85805384Y-45750586I-243314J51718D01*
G01*
X85318756Y-45647150D01*
G75*
G02*
X85127160Y-45352118I51718J243314D01*
G01*
G37*
G36*
G01*
X81652585Y-25155252D02*
X81844384Y-24252910D01*
G75*
G02*
X82139416Y-24061314I243314J-51718D01*
G01*
X82626044Y-24164750D01*
G75*
G02*
X82817640Y-24459782I-51718J-243314D01*
G01*
X82625842Y-25362124D01*
G75*
G02*
X82330810Y-25553720I-243314J51718D01*
G01*
X81844182Y-25450284D01*
G75*
G02*
X81652586Y-25155252I51718J243314D01*
G01*
G37*
G36*
G01*
X79818559Y-24765418D02*
X80010358Y-23863076D01*
G75*
G02*
X80305390Y-23671480I243314J-51718D01*
G01*
X80792018Y-23774916D01*
G75*
G02*
X80983614Y-24069948I-51718J-243314D01*
G01*
X80791816Y-24972290D01*
G75*
G02*
X80496784Y-25163886I-243314J51718D01*
G01*
X80010156Y-25060450D01*
G75*
G02*
X79818560Y-24765418I51718J243314D01*
G01*
G37*
G36*
G01*
X39046340Y-99708690D02*
X39046340Y-98786190D01*
G75*
G02*
X39295090Y-98537440I248750J0D01*
G01*
X39792590Y-98537440D01*
G75*
G02*
X40041340Y-98786190I0J-248750D01*
G01*
X40041340Y-99708690D01*
G75*
G02*
X39792590Y-99957440I-248750J0D01*
G01*
X39295090Y-99957440D01*
G75*
G02*
X39046340Y-99708690I0J248750D01*
G01*
G37*
G36*
G01*
X37171340Y-99708690D02*
X37171340Y-98786190D01*
G75*
G02*
X37420090Y-98537440I248750J0D01*
G01*
X37917590Y-98537440D01*
G75*
G02*
X38166340Y-98786190I0J-248750D01*
G01*
X38166340Y-99708690D01*
G75*
G02*
X37917590Y-99957440I-248750J0D01*
G01*
X37420090Y-99957440D01*
G75*
G02*
X37171340Y-99708690I0J248750D01*
G01*
G37*
G36*
G01*
X55810340Y-80699330D02*
X55810340Y-79776830D01*
G75*
G02*
X56059090Y-79528080I248750J0D01*
G01*
X56556590Y-79528080D01*
G75*
G02*
X56805340Y-79776830I0J-248750D01*
G01*
X56805340Y-80699330D01*
G75*
G02*
X56556590Y-80948080I-248750J0D01*
G01*
X56059090Y-80948080D01*
G75*
G02*
X55810340Y-80699330I0J248750D01*
G01*
G37*
G36*
G01*
X53935340Y-80699330D02*
X53935340Y-79776830D01*
G75*
G02*
X54184090Y-79528080I248750J0D01*
G01*
X54681590Y-79528080D01*
G75*
G02*
X54930340Y-79776830I0J-248750D01*
G01*
X54930340Y-80699330D01*
G75*
G02*
X54681590Y-80948080I-248750J0D01*
G01*
X54184090Y-80948080D01*
G75*
G02*
X53935340Y-80699330I0J248750D01*
G01*
G37*
G36*
G01*
X50327900Y-61533010D02*
X50327900Y-60610510D01*
G75*
G02*
X50576650Y-60361760I248750J0D01*
G01*
X51074150Y-60361760D01*
G75*
G02*
X51322900Y-60610510I0J-248750D01*
G01*
X51322900Y-61533010D01*
G75*
G02*
X51074150Y-61781760I-248750J0D01*
G01*
X50576650Y-61781760D01*
G75*
G02*
X50327900Y-61533010I0J248750D01*
G01*
G37*
G36*
G01*
X48452900Y-61533010D02*
X48452900Y-60610510D01*
G75*
G02*
X48701650Y-60361760I248750J0D01*
G01*
X49199150Y-60361760D01*
G75*
G02*
X49447900Y-60610510I0J-248750D01*
G01*
X49447900Y-61533010D01*
G75*
G02*
X49199150Y-61781760I-248750J0D01*
G01*
X48701650Y-61781760D01*
G75*
G02*
X48452900Y-61533010I0J248750D01*
G01*
G37*
G36*
G01*
X49741400Y-42477930D02*
X49741400Y-41555430D01*
G75*
G02*
X49990150Y-41306680I248750J0D01*
G01*
X50487650Y-41306680D01*
G75*
G02*
X50736400Y-41555430I0J-248750D01*
G01*
X50736400Y-42477930D01*
G75*
G02*
X50487650Y-42726680I-248750J0D01*
G01*
X49990150Y-42726680D01*
G75*
G02*
X49741400Y-42477930I0J248750D01*
G01*
G37*
G36*
G01*
X47866400Y-42477930D02*
X47866400Y-41555430D01*
G75*
G02*
X48115150Y-41306680I248750J0D01*
G01*
X48612650Y-41306680D01*
G75*
G02*
X48861400Y-41555430I0J-248750D01*
G01*
X48861400Y-42477930D01*
G75*
G02*
X48612650Y-42726680I-248750J0D01*
G01*
X48115150Y-42726680D01*
G75*
G02*
X47866400Y-42477930I0J248750D01*
G01*
G37*
G36*
G01*
X44305800Y-23473650D02*
X44305800Y-22551150D01*
G75*
G02*
X44554550Y-22302400I248750J0D01*
G01*
X45052050Y-22302400D01*
G75*
G02*
X45300800Y-22551150I0J-248750D01*
G01*
X45300800Y-23473650D01*
G75*
G02*
X45052050Y-23722400I-248750J0D01*
G01*
X44554550Y-23722400D01*
G75*
G02*
X44305800Y-23473650I0J248750D01*
G01*
G37*
G36*
G01*
X42430800Y-23473650D02*
X42430800Y-22551150D01*
G75*
G02*
X42679550Y-22302400I248750J0D01*
G01*
X43177050Y-22302400D01*
G75*
G02*
X43425800Y-22551150I0J-248750D01*
G01*
X43425800Y-23473650D01*
G75*
G02*
X43177050Y-23722400I-248750J0D01*
G01*
X42679550Y-23722400D01*
G75*
G02*
X42430800Y-23473650I0J248750D01*
G01*
G37*
D28*
X155311840Y-14243240D03*
X155311840Y-15193240D03*
X155311840Y-13293240D03*
X153111840Y-13293240D03*
X153111840Y-14243240D03*
X153111840Y-15193240D03*
G36*
G01*
X144619490Y-67539840D02*
X143696990Y-67539840D01*
G75*
G02*
X143448240Y-67291090I0J248750D01*
G01*
X143448240Y-66793590D01*
G75*
G02*
X143696990Y-66544840I248750J0D01*
G01*
X144619490Y-66544840D01*
G75*
G02*
X144868240Y-66793590I0J-248750D01*
G01*
X144868240Y-67291090D01*
G75*
G02*
X144619490Y-67539840I-248750J0D01*
G01*
G37*
G36*
G01*
X144619490Y-69414840D02*
X143696990Y-69414840D01*
G75*
G02*
X143448240Y-69166090I0J248750D01*
G01*
X143448240Y-68668590D01*
G75*
G02*
X143696990Y-68419840I248750J0D01*
G01*
X144619490Y-68419840D01*
G75*
G02*
X144868240Y-68668590I0J-248750D01*
G01*
X144868240Y-69166090D01*
G75*
G02*
X144619490Y-69414840I-248750J0D01*
G01*
G37*
G36*
G01*
X146236290Y-45835540D02*
X145313790Y-45835540D01*
G75*
G02*
X145065040Y-45586790I0J248750D01*
G01*
X145065040Y-45089290D01*
G75*
G02*
X145313790Y-44840540I248750J0D01*
G01*
X146236290Y-44840540D01*
G75*
G02*
X146485040Y-45089290I0J-248750D01*
G01*
X146485040Y-45586790D01*
G75*
G02*
X146236290Y-45835540I-248750J0D01*
G01*
G37*
G36*
G01*
X146236290Y-47710540D02*
X145313790Y-47710540D01*
G75*
G02*
X145065040Y-47461790I0J248750D01*
G01*
X145065040Y-46964290D01*
G75*
G02*
X145313790Y-46715540I248750J0D01*
G01*
X146236290Y-46715540D01*
G75*
G02*
X146485040Y-46964290I0J-248750D01*
G01*
X146485040Y-47461790D01*
G75*
G02*
X146236290Y-47710540I-248750J0D01*
G01*
G37*
G36*
G01*
X148217490Y-45835540D02*
X147294990Y-45835540D01*
G75*
G02*
X147046240Y-45586790I0J248750D01*
G01*
X147046240Y-45089290D01*
G75*
G02*
X147294990Y-44840540I248750J0D01*
G01*
X148217490Y-44840540D01*
G75*
G02*
X148466240Y-45089290I0J-248750D01*
G01*
X148466240Y-45586790D01*
G75*
G02*
X148217490Y-45835540I-248750J0D01*
G01*
G37*
G36*
G01*
X148217490Y-47710540D02*
X147294990Y-47710540D01*
G75*
G02*
X147046240Y-47461790I0J248750D01*
G01*
X147046240Y-46964290D01*
G75*
G02*
X147294990Y-46715540I248750J0D01*
G01*
X148217490Y-46715540D01*
G75*
G02*
X148466240Y-46964290I0J-248750D01*
G01*
X148466240Y-47461790D01*
G75*
G02*
X148217490Y-47710540I-248750J0D01*
G01*
G37*
G36*
G01*
X160121840Y-10048190D02*
X160121840Y-10970690D01*
G75*
G02*
X159873090Y-11219440I-248750J0D01*
G01*
X159375590Y-11219440D01*
G75*
G02*
X159126840Y-10970690I0J248750D01*
G01*
X159126840Y-10048190D01*
G75*
G02*
X159375590Y-9799440I248750J0D01*
G01*
X159873090Y-9799440D01*
G75*
G02*
X160121840Y-10048190I0J-248750D01*
G01*
G37*
G36*
G01*
X161996840Y-10048190D02*
X161996840Y-10970690D01*
G75*
G02*
X161748090Y-11219440I-248750J0D01*
G01*
X161250590Y-11219440D01*
G75*
G02*
X161001840Y-10970690I0J248750D01*
G01*
X161001840Y-10048190D01*
G75*
G02*
X161250590Y-9799440I248750J0D01*
G01*
X161748090Y-9799440D01*
G75*
G02*
X161996840Y-10048190I0J-248750D01*
G01*
G37*
G36*
G01*
X148301840Y-10970690D02*
X148301840Y-10048190D01*
G75*
G02*
X148550590Y-9799440I248750J0D01*
G01*
X149048090Y-9799440D01*
G75*
G02*
X149296840Y-10048190I0J-248750D01*
G01*
X149296840Y-10970690D01*
G75*
G02*
X149048090Y-11219440I-248750J0D01*
G01*
X148550590Y-11219440D01*
G75*
G02*
X148301840Y-10970690I0J248750D01*
G01*
G37*
G36*
G01*
X146426840Y-10970690D02*
X146426840Y-10048190D01*
G75*
G02*
X146675590Y-9799440I248750J0D01*
G01*
X147173090Y-9799440D01*
G75*
G02*
X147421840Y-10048190I0J-248750D01*
G01*
X147421840Y-10970690D01*
G75*
G02*
X147173090Y-11219440I-248750J0D01*
G01*
X146675590Y-11219440D01*
G75*
G02*
X146426840Y-10970690I0J248750D01*
G01*
G37*
G36*
G01*
X157522840Y-54091190D02*
X157522840Y-55013690D01*
G75*
G02*
X157274090Y-55262440I-248750J0D01*
G01*
X156776590Y-55262440D01*
G75*
G02*
X156527840Y-55013690I0J248750D01*
G01*
X156527840Y-54091190D01*
G75*
G02*
X156776590Y-53842440I248750J0D01*
G01*
X157274090Y-53842440D01*
G75*
G02*
X157522840Y-54091190I0J-248750D01*
G01*
G37*
G36*
G01*
X159397840Y-54091190D02*
X159397840Y-55013690D01*
G75*
G02*
X159149090Y-55262440I-248750J0D01*
G01*
X158651590Y-55262440D01*
G75*
G02*
X158402840Y-55013690I0J248750D01*
G01*
X158402840Y-54091190D01*
G75*
G02*
X158651590Y-53842440I248750J0D01*
G01*
X159149090Y-53842440D01*
G75*
G02*
X159397840Y-54091190I0J-248750D01*
G01*
G37*
G36*
G01*
X155040340Y-11775440D02*
X155040340Y-10513440D01*
G75*
G02*
X155294340Y-10259440I254000J0D01*
G01*
X156056340Y-10259440D01*
G75*
G02*
X156310340Y-10513440I0J-254000D01*
G01*
X156310340Y-11775440D01*
G75*
G02*
X156056340Y-12029440I-254000J0D01*
G01*
X155294340Y-12029440D01*
G75*
G02*
X155040340Y-11775440I0J254000D01*
G01*
G37*
G36*
G01*
X152240340Y-11775440D02*
X152240340Y-10513440D01*
G75*
G02*
X152494340Y-10259440I254000J0D01*
G01*
X153256340Y-10259440D01*
G75*
G02*
X153510340Y-10513440I0J-254000D01*
G01*
X153510340Y-11775440D01*
G75*
G02*
X153256340Y-12029440I-254000J0D01*
G01*
X152494340Y-12029440D01*
G75*
G02*
X152240340Y-11775440I0J254000D01*
G01*
G37*
G36*
G01*
X143501890Y-49912240D02*
X142579390Y-49912240D01*
G75*
G02*
X142330640Y-49663490I0J248750D01*
G01*
X142330640Y-49165990D01*
G75*
G02*
X142579390Y-48917240I248750J0D01*
G01*
X143501890Y-48917240D01*
G75*
G02*
X143750640Y-49165990I0J-248750D01*
G01*
X143750640Y-49663490D01*
G75*
G02*
X143501890Y-49912240I-248750J0D01*
G01*
G37*
G36*
G01*
X143501890Y-51787240D02*
X142579390Y-51787240D01*
G75*
G02*
X142330640Y-51538490I0J248750D01*
G01*
X142330640Y-51040990D01*
G75*
G02*
X142579390Y-50792240I248750J0D01*
G01*
X143501890Y-50792240D01*
G75*
G02*
X143750640Y-51040990I0J-248750D01*
G01*
X143750640Y-51538490D01*
G75*
G02*
X143501890Y-51787240I-248750J0D01*
G01*
G37*
G36*
G01*
X139095440Y-62387790D02*
X139095440Y-63310290D01*
G75*
G02*
X138846690Y-63559040I-248750J0D01*
G01*
X138349190Y-63559040D01*
G75*
G02*
X138100440Y-63310290I0J248750D01*
G01*
X138100440Y-62387790D01*
G75*
G02*
X138349190Y-62139040I248750J0D01*
G01*
X138846690Y-62139040D01*
G75*
G02*
X139095440Y-62387790I0J-248750D01*
G01*
G37*
G36*
G01*
X140970440Y-62387790D02*
X140970440Y-63310290D01*
G75*
G02*
X140721690Y-63559040I-248750J0D01*
G01*
X140224190Y-63559040D01*
G75*
G02*
X139975440Y-63310290I0J248750D01*
G01*
X139975440Y-62387790D01*
G75*
G02*
X140224190Y-62139040I248750J0D01*
G01*
X140721690Y-62139040D01*
G75*
G02*
X140970440Y-62387790I0J-248750D01*
G01*
G37*
G36*
G01*
X158415840Y-57011090D02*
X158415840Y-56088590D01*
G75*
G02*
X158664590Y-55839840I248750J0D01*
G01*
X159162090Y-55839840D01*
G75*
G02*
X159410840Y-56088590I0J-248750D01*
G01*
X159410840Y-57011090D01*
G75*
G02*
X159162090Y-57259840I-248750J0D01*
G01*
X158664590Y-57259840D01*
G75*
G02*
X158415840Y-57011090I0J248750D01*
G01*
G37*
G36*
G01*
X156540840Y-57011090D02*
X156540840Y-56088590D01*
G75*
G02*
X156789590Y-55839840I248750J0D01*
G01*
X157287090Y-55839840D01*
G75*
G02*
X157535840Y-56088590I0J-248750D01*
G01*
X157535840Y-57011090D01*
G75*
G02*
X157287090Y-57259840I-248750J0D01*
G01*
X156789590Y-57259840D01*
G75*
G02*
X156540840Y-57011090I0J248750D01*
G01*
G37*
G36*
G01*
X151875790Y-68673840D02*
X152798290Y-68673840D01*
G75*
G02*
X153047040Y-68922590I0J-248750D01*
G01*
X153047040Y-69420090D01*
G75*
G02*
X152798290Y-69668840I-248750J0D01*
G01*
X151875790Y-69668840D01*
G75*
G02*
X151627040Y-69420090I0J248750D01*
G01*
X151627040Y-68922590D01*
G75*
G02*
X151875790Y-68673840I248750J0D01*
G01*
G37*
G36*
G01*
X151875790Y-66798840D02*
X152798290Y-66798840D01*
G75*
G02*
X153047040Y-67047590I0J-248750D01*
G01*
X153047040Y-67545090D01*
G75*
G02*
X152798290Y-67793840I-248750J0D01*
G01*
X151875790Y-67793840D01*
G75*
G02*
X151627040Y-67545090I0J248750D01*
G01*
X151627040Y-67047590D01*
G75*
G02*
X151875790Y-66798840I248750J0D01*
G01*
G37*
G36*
G01*
X148734290Y-49912240D02*
X147811790Y-49912240D01*
G75*
G02*
X147563040Y-49663490I0J248750D01*
G01*
X147563040Y-49165990D01*
G75*
G02*
X147811790Y-48917240I248750J0D01*
G01*
X148734290Y-48917240D01*
G75*
G02*
X148983040Y-49165990I0J-248750D01*
G01*
X148983040Y-49663490D01*
G75*
G02*
X148734290Y-49912240I-248750J0D01*
G01*
G37*
G36*
G01*
X148734290Y-51787240D02*
X147811790Y-51787240D01*
G75*
G02*
X147563040Y-51538490I0J248750D01*
G01*
X147563040Y-51040990D01*
G75*
G02*
X147811790Y-50792240I248750J0D01*
G01*
X148734290Y-50792240D01*
G75*
G02*
X148983040Y-51040990I0J-248750D01*
G01*
X148983040Y-51538490D01*
G75*
G02*
X148734290Y-51787240I-248750J0D01*
G01*
G37*
M02*
