0
SECTION
2
HEADER
9
$INSUNITS
70
4
9
$ACADVER
1
AC1014
9
$HANDSEED
5
FFFF
0
ENDSEC
0
SECTION
2
TABLES
0
TABLE
2
VPORT
5
8
100
AcDbSymbolTable
0
ENDTAB
0
TABLE
2
LTYPE
5
5
100
AcDbSymbolTable
0
LTYPE
5
14
100
AcDbSymbolTableRecord
100
AcDbLinetypeTableRecord
2
BYBLOCK
70
0
0
LTYPE
5
15
100
AcDbSymbolTableRecord
100
AcDbLinetypeTableRecord
2
BYLAYER
70
0
0
ENDTAB
0
TABLE
2
LAYER
5
2
100
AcDbSymbolTable
70
2
0
LAYER
5
50
100
AcDbSymbolTableRecord
100
AcDbLayerTableRecord
2
0
70
0
6
CONTINUOUS
0
ENDTAB
0
TABLE
2
STYLE
5
3
100
AcDbSymbolTable
70
1
0
STYLE
5
11
100
AcDbSymbolTableRecord
100
AcDbTextStyleTableRecord
2
STANDARD
70
0
0
ENDTAB
0
TABLE
2
VIEW
5
6
100
AcDbSymbolTable
70
0
0
ENDTAB
0
TABLE
2
UCS
5
7
100
AcDbSymbolTable
70
0
0
ENDTAB
0
TABLE
2
APPID
5
9
100
AcDbSymbolTable
70
2
0
APPID
5
12
100
AcDbSymbolTableRecord
100
AcDbRegAppTableRecord
2
ACAD
70
0
0
ENDTAB
0
TABLE
2
DIMSTYLE
5
A
100
AcDbSymbolTable
70
1
0
ENDTAB
0
TABLE
2
BLOCK_RECORD
5
1
100
AcDbSymbolTable
70
1
0
BLOCK_RECORD
5
1F
100
AcDbSymbolTableRecord
100
AcDbBlockTableRecord
2
*MODEL_SPACE
0
BLOCK_RECORD
5
1B
100
AcDbSymbolTableRecord
100
AcDbBlockTableRecord
2
*PAPER_SPACE
0
ENDTAB
0
ENDSEC
0
SECTION
2
BLOCKS
0
BLOCK
5
20
100
AcDbEntity
100
AcDbBlockBegin
2
*MODEL_SPACE
0
ENDBLK
5
21
100
AcDbEntity
100
AcDbBlockEnd
0
BLOCK
5
1C
100
AcDbEntity
100
AcDbBlockBegin
2
*PAPER_SPACE
0
ENDBLK
5
1D
100
AcDbEntity
100
AcDbBlockEnd
0
ENDSEC
0
SECTION
2
ENTITIES
0
LWPOLYLINE
5
100
100
AcDbEntity
8
0
100
AcDbPolyline
90
4
70
1
43
0.0
10
226.79100000000003
20
48.772900000000007
10
229.22200000000004
20
34.985599999999998
10
215.43400000000005
20
32.5548
10
213.00299999999999
20
46.341900000000003
0
LWPOLYLINE
5
101
100
AcDbEntity
8
0
100
AcDbPolyline
90
4
70
1
43
0.0
10
210.46099999999998
20
31.6784
10
196.67400000000001
20
29.247499999999999
10
194.24300000000002
20
43.033200000000001
10
208.03
20
45.464200000000005
0
LWPOLYLINE
5
102
100
AcDbEntity
8
0
100
AcDbPolyline
90
4
70
1
43
0.0
10
66.241100000000003
20
34.985599999999998
10
68.673100000000005
20
48.772900000000007
10
82.459000000000003
20
46.341900000000003
10
80.028300000000016
20
32.5548
0
LWPOLYLINE
5
103
100
AcDbEntity
8
0
100
AcDbPolyline
90
4
70
1
43
0.0
10
19.000399999999999
20
30.824000000000002
10
5.0009100000000011
20
30.824000000000002
10
5.0009100000000011
20
16.8245
10
19.000399999999999
20
16.8245
0
LWPOLYLINE
5
104
100
AcDbEntity
8
0
100
AcDbPolyline
90
4
70
1
43
0.0
10
326.18200000000002
20
26.061499999999999
10
312.18200000000002
20
26.061499999999999
10
312.18200000000002
20
12.062000000000001
10
326.18200000000002
20
12.062000000000001
0
LWPOLYLINE
5
105
100
AcDbEntity
8
0
100
AcDbPolyline
90
4
70
1
43
0.0
10
326.18200000000002
20
45.111499999999999
10
312.18200000000002
20
45.111499999999999
10
312.18200000000002
20
31.112000000000002
10
326.18200000000002
20
31.112000000000002
0
LWPOLYLINE
5
106
100
AcDbEntity
8
0
100
AcDbPolyline
90
4
70
1
43
0.0
10
159.15299999999999
20
22.631499999999999
10
156.72200000000001
20
36.417299999999997
10
170.50900000000001
20
38.848199999999999
10
172.94
20
25.0624
0
LWPOLYLINE
5
107
100
AcDbEntity
8
0
100
AcDbPolyline
90
4
70
1
43
0.0
10
122.52400000000002
20
25.0624
10
124.955
20
38.848199999999999
10
138.74100000000001
20
36.417299999999997
10
136.31
20
22.631499999999999
0
LWPOLYLINE
5
108
100
AcDbEntity
8
0
100
AcDbPolyline
90
4
70
1
43
0.0
10
331.23199999999997
20
26.061499999999999
10
331.23199999999997
20
12.062000000000001
10
345.23199999999997
20
12.062000000000001
10
345.23199999999997
20
26.061499999999999
0
LWPOLYLINE
5
109
100
AcDbEntity
8
0
100
AcDbPolyline
90
4
70
1
43
0.0
10
28.811999999999998
20
30.824000000000002
10
28.811999999999998
20
16.8245
10
42.81280000000001
20
16.8245
10
42.81280000000001
20
30.824000000000002
0
LWPOLYLINE
5
110
100
AcDbEntity
8
0
100
AcDbPolyline
90
4
70
1
43
0.0
10
83.755799999999994
20
12.552500000000002
10
69.968500000000006
20
14.9848
10
72.399500000000003
20
28.772099999999998
10
86.188199999999995
20
26.341200000000001
0
LWPOLYLINE
5
111
100
AcDbEntity
8
0
100
AcDbPolyline
90
4
70
1
43
0.0
10
177.91300000000001
20
25.938800000000004
10
175.48200000000003
20
39.725999999999999
10
189.27000000000004
20
42.156900000000007
10
191.69999999999999
20
28.369700000000005
0
LWPOLYLINE
5
112
100
AcDbEntity
8
0
100
AcDbPolyline
90
4
70
1
43
0.0
10
85.001499999999993
20
31.6784
10
87.433899999999994
20
45.464200000000005
10
101.22100000000002
20
43.033200000000001
10
98.788700000000006
20
29.247499999999999
0
LWPOLYLINE
5
113
100
AcDbEntity
8
0
100
AcDbPolyline
90
4
70
1
43
0.0
10
106.19300000000001
20
42.156900000000007
10
119.98000000000002
20
39.725999999999999
10
117.54899999999999
20
25.938800000000004
10
103.762
20
28.369700000000005
0
LWPOLYLINE
5
114
100
AcDbEntity
8
0
100
AcDbPolyline
90
4
70
1
43
0.0
10
225.49400000000006
20
14.9848
10
211.708
20
12.552500000000002
10
209.27599999999998
20
26.341200000000001
10
223.06299999999999
20
28.772099999999998
0
LWPOLYLINE
5
115
100
AcDbEntity
8
0
100
AcDbPolyline
90
4
70
1
43
0.0
10
307.13200000000001
20
12.062000000000001
10
307.13200000000001
20
26.061499999999999
10
293.13200000000001
20
26.061499999999999
10
293.13200000000001
20
12.062000000000001
0
LWPOLYLINE
5
116
100
AcDbEntity
8
0
100
AcDbPolyline
90
78
70
1
43
0.0
10
357.99399999999997
20
10
10
357.99399999999997
20
110.02400000000002
42
0.41421356237309503
10
352.99399999999997
20
115.02400000000002
10
314.86986374999998
20
115.02400000000003
42
-0.41421356237309503
10
312.11986374999998
20
117.77400000000002
10
312.11986374999998
20
118.32400000000004
42
0.41421356237309881
10
309.36986374999998
20
121.07400000000004
10
308.86986374999998
20
121.07400000000004
42
0.41421356237309315
10
306.11986375000004
20
118.32400000000005
10
306.11986375000004
20
117.774
42
-0.41421356237309503
10
303.36986375000004
20
115.02400000000002
10
227.12159124999997
20
115.02400000000002
42
-0.41421356237309503
10
224.37159124999997
20
117.774
10
224.37159124999997
20
118.32400000000004
42
0.41421356237308748
10
221.62159125000005
20
121.07400000000007
10
221.12159124999999
20
121.07400000000004
42
0.41421356237309126
10
218.37159125000005
20
118.32400000000007
10
218.37159124999999
20
117.77400000000002
42
-0.41421356237309503
10
215.62159124999999
20
115.02400000000002
10
139.37331875000001
20
115.02400000000002
42
-0.41421356237309503
10
136.62331875000001
20
117.77400000000002
10
136.62331875000001
20
118.32400000000001
42
0.41421356237309692
10
133.87331874999998
20
121.07400000000001
10
133.37331874999998
20
121.07400000000001
42
0.41421356237309503
10
130.62331875000001
20
118.32400000000001
10
130.62331874999998
20
117.77400000000002
42
-0.41421356237309692
10
127.87331874999995
20
115.02400000000002
10
51.625046249999997
20
115.02400000000002
42
-0.41421356237309503
10
48.87504624999999
20
117.77400000000002
10
48.87504624999999
20
118.32400000000001
42
0.41421356237309503
10
46.12504624999999
20
121.07400000000001
10
45.625046249999997
20
121.07400000000001
42
0.41421356237309315
10
42.875046250000004
20
118.32400000000004
10
42.875046249999997
20
117.77400000000003
42
-0.41421356237309598
10
40.125046249999983
20
115.02400000000002
10
2.0009100000000002
20
115.02400000000002
42
0.41421356237309503
10
-2.9990899999999998
20
110.02400000000002
10
-2.9990899999999998
20
9.9999999980983656
42
0.41421356237309509
10
2.0009100000000002
20
4.9999999980983665
10
38.09153162800299
20
4.9999999980983674
42
-0.41421356237309503
10
40.84153162800299
20
2.2499999980983687
10
40.84153162800299
20
1.7000000000000006
42
0.41421356237309509
10
43.591531628002983
20
-1.0499999999999998
10
44.091531628002969
20
-1.0499999999999963
42
0.41421356237309614
10
46.841531628002969
20
1.6999999999999997
10
46.841531628002969
20
2.2499999980981698
42
-0.41421356237309975
10
49.591531628003018
20
4.9999999980981702
10
85.68215325600606
20
4.99999999809837
42
-0.043682561904745433
10
86.898285495824467
20
4.8935493288272793
10
111.04458453279281
20
0.63375639431128283
42
-0.41421356239149532
10
113.27499838987792
20
-2.5521899371690324
10
113.17944514248715
20
-3.0938259556498204
42
0.41421356237309442
10
115.40985899940212
20
-6.2797722871001245
10
115.90225538016263
20
-6.3666388756942478
42
0.41421356237309559
10
119.08820171161294
20
-4.1362250187792693
10
119.1837549587361
20
-3.5945890018154381
42
-0.4142135623730957
10
122.36970129018641
20
-1.3641751449004602
10
146.51600032629386
20
-5.6239680808287718
42
0.087528721222431355
10
148.94817098722609
20
-5.6239846314650688
10
173.09692164106312
20
-1.3640980777384977
42
-0.41421356237309415
10
176.28283761680859
20
-3.5945552944297221
10
176.37838349271402
20
-4.1361926136733338
42
0.41421356237309781
10
179.56429946845952
20
-6.3666498303645387
10
180.05669703140822
20
-6.2797899431777982
42
0.41421356237309798
10
182.2871542480994
20
-3.0938739674323319
10
182.19160837219391
20
-2.5522366481887202
42
-0.41421356237309426
10
184.42206558888512
20
0.63367932755675094
10
208.57081624272223
20
4.8935658812833225
42
-0.043679152987157237
10
209.78685466333673
20
5.0000000000003153
10
275.64042733166832
20
5.0000000000001616
42
-0.41421356237309498
10
278.39042733166832
20
2.2500000000001767
10
278.39042733166832
20
1.7000000000001534
42
0.41421356237309559
10
281.14042733166832
20
-1.0499999999998462
10
281.64042733166832
20
-1.0499999999998502
42
0.41421356237309509
10
284.39042733166832
20
1.7000000000001503
10
284.39042733166832
20
2.2500000000001745
42
-0.41421356237309509
10
287.14042733166832
20
5.0000000000001759
10
352.99399999999991
20
5.0000000000000133
42
0.4142135623731068
0
LWPOLYLINE
5
117
100
AcDbEntity
8
0
100
AcDbPolyline
90
4
70
1
43
0.0
10
266.93700000000001
20
30.824000000000002
10
266.93700000000001
20
16.8245
10
280.93799999999999
20
16.8245
10
280.93799999999999
20
30.824000000000002
0
LWPOLYLINE
5
118
100
AcDbEntity
8
0
100
AcDbPolyline
90
4
70
1
43
0.0
10
243.126
20
16.8245
10
257.125
20
16.8245
10
257.125
20
30.824000000000002
10
243.126
20
30.824000000000002
0
LINE
5
119
100
AcDbEntity
8
0
100
AcDbLine
10
168.785
20
11.5852
30
0
11
168.7881947381299
21
11.585763106979105
31
0
0
LWPOLYLINE
5
120
100
AcDbEntity
8
0
100
AcDbPolyline
90
4
70
1
43
0.0
10
295.22500000000002
20
49.874000000000002
10
281.226
20
49.874000000000002
10
281.226
20
35.874299999999998
10
295.22500000000002
20
35.874299999999998
0
LWPOLYLINE
5
121
100
AcDbEntity
8
0
100
AcDbPolyline
90
4
70
1
43
0.0
10
109.92100000000001
20
22.156099999999999
10
123.70800000000001
20
19.725300000000001
10
121.27700000000002
20
5.9365800000000002
10
107.49000000000001
20
8.3688399999999987
0
LINE
5
122
100
AcDbEntity
8
0
100
AcDbLine
10
177.3339609260787
20
6.7261931233118251
30
0
11
177.334
21
6.7262000000000013
31
0
0
LINE
5
123
100
AcDbEntity
8
0
100
AcDbLine
10
106.80500000000002
20
13.2623
30
0
11
106.8051281394513
21
13.26227729174281
31
0
0
LWPOLYLINE
5
124
100
AcDbEntity
8
0
100
AcDbPolyline
90
4
70
1
43
0.0
10
192.66400000000004
20
9.1956500000000005
10
178.87599999999998
20
6.76342
10
176.44400000000002
20
20.552100000000003
10
190.23300000000003
20
22.982900000000001
0
LINE
5
125
100
AcDbEntity
8
0
100
AcDbLine
10
107.60388045465328
20
17.791744894606353
30
0
11
107.60300000000001
21
17.791899999999998
31
0
0
LWPOLYLINE
5
126
100
AcDbEntity
8
0
100
AcDbPolyline
90
4
70
1
43
0.0
10
255.03200000000004
20
35.874299999999998
10
269.03199999999998
20
35.874299999999998
10
269.03199999999998
20
49.874000000000002
10
255.03200000000004
20
49.874000000000002
0
LWPOLYLINE
5
127
100
AcDbEntity
8
0
100
AcDbPolyline
90
4
70
1
43
0.0
10
181.55500000000001
20
60.14050000000001
10
195.34099999999998
20
62.571100000000008
10
197.77200000000005
20
48.783900000000003
10
183.98599999999999
20
46.353200000000001
0
LWPOLYLINE
5
128
100
AcDbEntity
8
0
100
AcDbPolyline
90
4
70
1
43
0.0
10
162.79300000000003
20
56.831800000000001
10
176.58199999999999
20
59.2624
10
179.01300000000003
20
45.475200000000001
10
165.22400000000002
20
43.044499999999999
0
LWPOLYLINE
5
129
100
AcDbEntity
8
0
100
AcDbPolyline
90
4
70
1
43
0.0
10
249.982
20
49.874000000000002
10
235.98200000000003
20
49.874000000000002
10
235.98200000000003
20
35.874299999999998
10
249.982
20
35.874299999999998
0
LWPOLYLINE
5
130
100
AcDbEntity
8
0
100
AcDbPolyline
90
4
70
1
43
0.0
10
45.482199999999999
20
35.874299999999998
10
59.481499999999997
20
35.874299999999998
10
59.481499999999997
20
49.874000000000002
10
45.482199999999999
20
49.874000000000002
0
LWPOLYLINE
5
131
100
AcDbEntity
8
0
100
AcDbPolyline
90
4
70
1
43
0.0
10
28.525400000000005
20
35.874299999999998
10
14.5259
20
35.874299999999998
10
14.5259
20
49.874000000000002
10
28.525400000000005
20
49.874000000000002
0
LWPOLYLINE
5
132
100
AcDbEntity
8
0
100
AcDbPolyline
90
4
70
1
43
0.0
10
132.66899999999998
20
56.831800000000001
10
130.238
20
43.044499999999999
10
116.45100000000001
20
45.475200000000001
10
118.88200000000001
20
59.2624
0
LWPOLYLINE
5
133
100
AcDbEntity
8
0
100
AcDbPolyline
90
4
70
1
43
0.0
10
335.995
20
68.923999999999992
10
335.995
20
54.924300000000002
10
349.99400000000003
20
54.924300000000002
10
349.99400000000003
20
68.923999999999992
0
LWPOLYLINE
5
134
100
AcDbEntity
8
0
100
AcDbPolyline
90
4
70
1
43
0.0
10
111.47800000000001
20
46.353200000000001
10
97.6905
20
48.783900000000003
10
100.12200000000001
20
62.571100000000008
10
113.90900000000001
20
60.14050000000001
0
LWPOLYLINE
5
135
100
AcDbEntity
8
0
100
AcDbPolyline
90
4
70
1
43
0.0
10
275.69999999999999
20
68.923999999999992
10
261.69900000000001
20
68.923999999999992
10
261.69900000000001
20
54.924300000000002
10
275.69999999999999
20
54.924300000000002
0
LWPOLYLINE
5
136
100
AcDbEntity
8
0
100
AcDbPolyline
90
4
70
1
43
0.0
10
202.74700000000001
20
49.660499999999999
10
200.31400000000005
20
63.447800000000001
10
214.10300000000001
20
65.878399999999999
10
216.53400000000005
20
52.091200000000001
0
LWPOLYLINE
5
137
100
AcDbEntity
8
0
100
AcDbPolyline
90
4
70
1
43
0.0
10
73.956699999999998
20
52.968900000000005
10
60.16940000000001
20
55.399900000000002
10
62.600100000000005
20
69.187100000000015
10
76.387299999999996
20
66.756100000000004
0
LWPOLYLINE
5
138
100
AcDbEntity
8
0
100
AcDbPolyline
90
4
70
1
43
0.0
10
75.005099999999999
20
86.343800000000002
10
72.5745
20
72.5565
10
58.787200000000006
20
74.988600000000005
10
61.217900000000007
20
88.774799999999999
0
LWPOLYLINE
5
139
100
AcDbEntity
8
0
100
AcDbPolyline
90
4
70
1
43
0.0
10
242.649
20
68.923999999999992
10
242.649
20
54.924300000000002
10
256.64999999999998
20
54.924300000000002
10
256.64999999999998
20
68.923999999999992
0
LWPOLYLINE
5
140
100
AcDbEntity
8
0
100
AcDbPolyline
90
4
70
1
43
0.0
10
331.23199999999997
20
87.97399999999999
10
331.23199999999997
20
73.974299999999999
10
345.23199999999997
20
73.974299999999999
10
345.23199999999997
20
87.97399999999999
0
LWPOLYLINE
5
141
100
AcDbEntity
8
0
100
AcDbPolyline
90
4
70
1
43
0.0
10
38.813699999999997
20
54.924300000000002
10
52.814700000000002
20
54.924300000000002
10
52.814700000000002
20
68.923999999999992
10
38.813699999999997
20
68.923999999999992
0
LWPOLYLINE
5
142
100
AcDbEntity
8
0
100
AcDbPolyline
90
4
70
1
43
0.0
10
92.717100000000002
20
49.660499999999999
10
78.9298
20
52.091200000000001
10
81.360799999999998
20
65.878399999999999
10
95.147999999999996
20
63.447800000000001
0
LWPOLYLINE
5
143
100
AcDbEntity
8
0
100
AcDbPolyline
90
4
70
1
43
0.0
10
306.65499999999997
20
54.924300000000002
10
292.65499999999997
20
54.924300000000002
10
292.65499999999997
20
68.923999999999992
10
306.65499999999997
20
68.923999999999992
0
LWPOLYLINE
5
144
100
AcDbEntity
8
0
100
AcDbPolyline
90
4
70
1
43
0.0
10
232.86200000000002
20
69.187100000000015
10
235.29300000000003
20
55.399900000000002
10
221.50599999999997
20
52.968900000000005
10
219.07499999999999
20
66.756100000000004
0
LWPOLYLINE
5
145
100
AcDbEntity
8
0
100
AcDbPolyline
90
4
70
1
43
0.0
10
157.226
20
60.978300000000004
10
154.79499999999999
20
74.765600000000006
10
168.58199999999999
20
77.196200000000005
10
171.01300000000003
20
63.410400000000003
0
LWPOLYLINE
5
146
100
AcDbEntity
8
0
100
AcDbPolyline
90
4
70
1
43
0.0
10
187.34300000000002
20
80.504900000000021
10
189.77500000000003
20
66.717699999999994
10
175.988
20
64.286699999999996
10
173.55700000000002
20
78.074299999999994
0
LWPOLYLINE
5
147
100
AcDbEntity
8
0
100
AcDbPolyline
90
4
70
1
43
0.0
10
211.077
20
84.689899999999994
10
224.86400000000003
20
87.12090000000002
10
227.29500000000002
20
73.333699999999993
10
213.50900000000001
20
70.90270000000001
0
LWPOLYLINE
5
148
100
AcDbEntity
8
0
100
AcDbPolyline
90
4
70
1
43
0.0
10
255.03200000000004
20
73.974299999999999
10
269.03199999999998
20
73.974299999999999
10
269.03199999999998
20
87.97399999999999
10
255.03200000000004
20
87.97399999999999
0
LWPOLYLINE
5
149
100
AcDbEntity
8
0
100
AcDbPolyline
90
4
70
1
43
0.0
10
98.739300000000014
20
82.158799999999999
10
112.52700000000002
20
79.727800000000002
10
110.096
20
65.9405
10
96.308300000000017
20
68.371499999999997
0
LWPOLYLINE
5
150
100
AcDbEntity
8
0
100
AcDbPolyline
90
4
70
1
43
0.0
10
297.89499999999998
20
73.974299999999999
10
311.89400000000001
20
73.974299999999999
10
311.89400000000001
20
87.97399999999999
10
297.89499999999998
20
87.97399999999999
0
LWPOLYLINE
5
151
100
AcDbEntity
8
0
100
AcDbPolyline
90
4
70
1
43
0.0
10
194.74700000000001
20
67.595399999999998
10
192.316
20
81.381600000000006
10
206.10500000000002
20
83.812200000000004
10
208.536
20
70.026399999999995
0
LWPOLYLINE
5
152
100
AcDbEntity
8
0
100
AcDbPolyline
90
4
70
1
43
0.0
10
49.956500000000005
20
87.97399999999999
10
35.9572
20
87.97399999999999
10
35.9572
20
73.974299999999999
10
49.956500000000005
20
73.974299999999999
0
LWPOLYLINE
5
153
100
AcDbEntity
8
0
100
AcDbPolyline
90
4
70
1
43
0.0
10
125.214
20
96.834699999999998
10
122.783
20
83.04740000000001
10
108.99600000000001
20
85.478399999999993
10
111.42800000000001
20
99.265699999999995
0
LWPOLYLINE
5
154
100
AcDbEntity
8
0
100
AcDbPolyline
90
4
70
1
43
0.0
10
91.334900000000005
20
69.249200000000002
10
77.547600000000017
20
71.680199999999999
10
79.9786
20
85.467500000000015
10
93.765900000000002
20
83.036500000000018
0
LWPOLYLINE
5
155
100
AcDbEntity
8
0
100
AcDbPolyline
90
4
70
1
43
0.0
10
131.28700000000003
20
76.420500000000004
10
128.85599999999999
20
62.633200000000002
10
115.06900000000002
20
65.0642
10
117.5
20
78.851500000000001
0
LWPOLYLINE
5
156
100
AcDbEntity
8
0
100
AcDbPolyline
90
4
70
1
43
0.0
10
26.620899999999999
20
68.923999999999992
10
12.620100000000001
20
68.923999999999992
10
12.620100000000001
20
54.924300000000002
10
26.620899999999999
20
54.924300000000002
0
LWPOLYLINE
5
157
100
AcDbEntity
8
0
100
AcDbPolyline
90
4
70
1
43
0.0
10
274.08199999999999
20
87.97399999999999
10
274.08199999999999
20
73.974299999999999
10
288.08199999999999
20
73.974299999999999
10
288.08199999999999
20
87.97399999999999
0
LWPOLYLINE
5
158
100
AcDbEntity
8
0
100
AcDbPolyline
90
4
70
1
43
0.0
10
235.98200000000003
20
87.97399999999999
10
235.98200000000003
20
73.974299999999999
10
249.982
20
73.974299999999999
10
249.982
20
87.97399999999999
0
LWPOLYLINE
5
159
100
AcDbEntity
8
0
100
AcDbPolyline
90
4
70
1
43
0.0
10
127.75800000000001
20
82.16970000000002
10
130.18899999999999
20
95.958400000000012
10
143.976
20
93.5274
10
141.54399999999998
20
79.738699999999994
0
LWPOLYLINE
5
160
100
AcDbEntity
8
0
100
AcDbPolyline
90
4
70
1
43
0.0
10
179.62900000000002
20
98.488500000000002
10
193.416
20
100.91900000000001
10
195.84700000000001
20
87.131900000000002
10
182.05900000000003
20
84.7012
0
LWPOLYLINE
5
161
100
AcDbEntity
8
0
100
AcDbPolyline
90
4
70
1
43
0.0
10
174.65500000000003
20
97.611900000000006
10
177.08600000000001
20
83.8232
10
163.29900000000004
20
81.392500000000013
10
160.86799999999999
20
95.181200000000018
0
LWPOLYLINE
5
162
100
AcDbEntity
8
0
100
AcDbPolyline
90
4
70
1
43
0.0
10
90.235299999999995
20
88.78570000000002
10
92.666300000000007
20
102.57400000000001
10
106.455
20
100.14299999999999
10
104.024
20
86.354699999999994
0
LWPOLYLINE
5
163
100
AcDbEntity
8
0
100
AcDbPolyline
90
4
70
1
43
0.0
10
230.93700000000001
20
107.53500000000001
10
233.36799999999999
20
93.747900000000016
10
219.58100000000002
20
91.3172
10
217.15000000000003
20
105.10400000000001
0
LWPOLYLINE
5
164
100
AcDbEntity
8
0
100
AcDbPolyline
90
4
70
1
43
0.0
10
12.144700000000002
20
73.974299999999999
10
26.144100000000002
20
73.974299999999999
10
26.144100000000002
20
87.97399999999999
10
12.144700000000002
20
87.97399999999999
0
LWPOLYLINE
5
165
100
AcDbEntity
8
0
100
AcDbPolyline
90
4
70
1
43
0.0
10
214.60700000000003
20
90.4392
10
200.81999999999999
20
88.008499999999998
10
198.38900000000001
20
101.79700000000003
10
212.17600000000002
20
104.22800000000001
0
LWPOLYLINE
5
166
100
AcDbEntity
8
0
100
AcDbPolyline
90
4
70
1
43
0.0
10
87.692800000000005
20
103.45100000000002
10
85.262200000000007
20
89.66340000000001
10
71.475999999999999
20
92.094399999999993
10
73.906899999999993
20
105.88200000000001
0
LWPOLYLINE
5
167
100
AcDbEntity
8
0
100
AcDbPolyline
90
4
70
1
43
0.0
10
288.37
20
107.024
10
302.36900000000003
20
107.024
10
302.36900000000003
20
93.024299999999997
10
288.37
20
93.024299999999997
0
LWPOLYLINE
5
168
100
AcDbEntity
8
0
100
AcDbPolyline
90
4
70
1
43
0.0
10
52.714199999999998
20
95.401700000000019
10
55.144799999999996
20
109.19
10
68.933499999999995
20
106.759
10
66.501400000000004
20
92.970699999999994
0
LWPOLYLINE
5
169
100
AcDbEntity
8
0
100
AcDbPolyline
90
4
70
1
43
0.0
10
273.79400000000004
20
107.024
10
259.79500000000002
20
107.024
10
259.79500000000002
20
93.024299999999997
10
273.79400000000004
20
93.024299999999997
0
LWPOLYLINE
5
170
100
AcDbEntity
8
0
100
AcDbPolyline
90
4
70
1
43
0.0
10
340.46899999999999
20
93.024299999999997
10
340.46899999999999
20
107.024
10
326.47000000000003
20
107.024
10
326.47000000000003
20
93.024299999999997
0
LWPOLYLINE
5
171
100
AcDbEntity
8
0
100
AcDbPolyline
90
4
70
1
43
0.0
10
31.194700000000001
20
107.024
10
31.194700000000001
20
93.024299999999997
10
45.194000000000003
20
93.024299999999997
10
45.194000000000003
20
107.024
0
LWPOLYLINE
5
172
100
AcDbEntity
8
0
100
AcDbPolyline
90
4
70
1
43
0.0
10
240.745
20
93.024299999999997
10
254.74400000000003
20
93.024299999999997
10
254.74400000000003
20
107.024
10
240.745
20
107.024
0
LWPOLYLINE
5
173
100
AcDbEntity
8
0
100
AcDbPolyline
90
4
70
1
43
0.0
10
12.144700000000002
20
107.024
10
12.144700000000002
20
93.024299999999997
10
26.144100000000002
20
93.024299999999997
10
26.144100000000002
20
107.024
0
CIRCLE
5
174
100
AcDbEntity
8
0
100
AcDbCircle
10
45.875046249999997
20
118.07400000000001
30
0
40
1.5499999999999936
210
0
220
0
230
1
0
CIRCLE
5
175
100
AcDbEntity
8
0
100
AcDbCircle
10
133.62331874999998
20
118.07400000000001
30
0
40
1.5499999999999936
210
0
220
0
230
1
0
CIRCLE
5
176
100
AcDbEntity
8
0
100
AcDbCircle
10
221.37159124999997
20
118.07400000000001
30
0
40
1.5499999999999936
210
0
220
0
230
1
0
CIRCLE
5
177
100
AcDbEntity
8
0
100
AcDbCircle
10
309.11986374999998
20
118.07400000000001
30
0
40
1.5499999999999936
210
0
220
0
230
1
0
CIRCLE
5
178
100
AcDbEntity
8
0
100
AcDbCircle
10
281.39042733166832
20
1.9500000000001638
30
0
40
1.5500000000000003
210
0
220
0
230
1
0
CIRCLE
5
179
100
AcDbEntity
8
0
100
AcDbCircle
10
179.28933892681334
20
-3.3688345090784728
30
0
40
1.5500000000000014
210
0
220
0
230
1
0
CIRCLE
5
180
100
AcDbEntity
8
0
100
AcDbCircle
10
116.17725672134712
20
-3.368827296834306
30
0
40
1.5500000000000003
210
0
220
0
230
1
0
CIRCLE
5
181
100
AcDbEntity
8
0
100
AcDbCircle
10
43.841531628002969
20
1.9500000000000006
30
0
40
1.5500000000000003
210
0
220
0
230
1
0
LWPOLYLINE
5
182
100
AcDbEntity
8
0
100
AcDbPolyline
90
78
70
1
43
0.0
10
-3.4990900000000069
20
110.02400000000002
42
-0.41421356237309503
10
2.0009100000000002
20
115.52400000000003
10
40.125046249999983
20
115.52400000000003
42
0.4142135623730962
10
42.375046249999997
20
117.77400000000002
10
42.37504624999999
20
118.32400000000004
42
-0.41421356237309348
10
45.625046249999997
20
121.57400000000003
10
46.12504624999999
20
121.57400000000003
42
-0.41421356237309503
10
49.37504624999999
20
118.32400000000001
10
49.37504624999999
20
117.77400000000002
42
0.41421356237309503
10
51.625046249999997
20
115.52400000000003
10
127.87331874999995
20
115.52400000000003
42
0.41421356237309964
10
130.12331874999998
20
117.77400000000003
10
130.12331874999998
20
118.32400000000001
42
-0.41421356237309503
10
133.37331874999998
20
121.57400000000003
10
133.87331874999998
20
121.57400000000003
42
-0.41421356237309664
10
137.12331875000001
20
118.32400000000001
10
137.12331875000001
20
117.77400000000002
42
0.41421356237309503
10
139.37331875000001
20
115.52400000000003
10
215.62159124999999
20
115.52400000000003
42
0.41421356237310425
10
217.87159124999999
20
117.77400000000009
10
217.87159124999994
20
118.32400000000007
42
-0.41421356237308865
10
221.12159124999994
20
121.57400000000004
10
221.62159125000005
20
121.57400000000003
42
-0.41421356237308865
10
224.87159124999999
20
118.32400000000004
10
224.87159124999999
20
117.774
42
0.41421356237309503
10
227.12159124999997
20
115.524
10
303.36986375000004
20
115.52400000000003
42
0.41421356237309964
10
305.61986374999998
20
117.77400000000003
10
305.61986374999998
20
118.32400000000005
42
-0.41421356237309348
10
308.86986374999998
20
121.57400000000004
10
309.36986374999998
20
121.57400000000003
42
-0.41421356237309825
10
312.61986374999998
20
118.32400000000004
10
312.61986374999998
20
117.77400000000002
42
0.41421356237309503
10
314.86986374999998
20
115.52400000000003
10
352.99399999999997
20
115.52399999999999
42
-0.41421356237309503
10
358.49399999999997
20
110.02400000000002
10
358.49399999999997
20
10.000000000000007
42
-0.41421356237310608
10
352.99399999999991
20
4.5000000000000133
10
287.14042733166832
20
4.5000000000001759
42
0.41421356237309509
10
284.89042733166832
20
2.2500000000001745
10
284.89042733166832
20
1.7000000000001507
42
-0.41421356237309509
10
281.64042733166832
20
-1.5499999999998504
10
281.14042733166832
20
-1.5499999999998448
42
-0.41421356237309553
10
277.89042733166832
20
1.7000000000001534
10
277.89042733166832
20
2.2500000000001767
42
0.41421356237309498
10
275.64042733166832
20
4.5000000000001767
10
209.78685466333673
20
4.5000000000003153
42
0.043679152987156335
10
208.65767612990896
20
4.4011683183345349
10
184.50892547607185
20
0.14128176460796338
42
0.41421356237308793
10
182.68400593514272
20
-2.4653767610019228
10
182.77955181104824
20
-3.0070140802455834
42
-0.41421356237309731
10
180.14355691859495
20
-6.7721875061265848
10
179.65115935564626
20
-6.8590473933133307
42
-0.4142135623730957
10
175.88598592976524
20
-4.2230525008600965
10
175.79044005385981
20
-3.6814151816164737
42
0.4142135623730947
10
173.18378152824988
20
-1.8564956406873045
10
149.03503087441283
20
-6.1163821944138554
42
-0.087528721222431702
10
146.42913373769974
20
-6.1163644615892512
10
122.28283470159228
20
-1.8565715256609394
42
0.41421356237309614
10
119.67615133949657
20
-3.6814555904095632
10
119.58059809237342
20
-4.2230916073733917
42
-0.4142135623730957
10
115.81538879156851
20
-6.8590352564547281
10
115.322992410808
20
-6.7721686678606074
42
-0.41421356237309392
10
112.68704876172666
20
-3.006959367055702
10
112.78260200911745
20
-2.4653233485749104
42
0.41421356239149387
10
110.95771794422964
20
0.14136001354534911
10
86.811418907261299
20
4.4011529480613394
42
0.043682561904745801
10
85.682153256006046
20
4.4999999980975423
10
49.591531628003011
20
4.4999999980981702
42
0.41421356237309964
10
47.341531628002969
20
2.2499999980981702
10
47.341531628002969
20
1.7000000000000006
42
-0.41421356237309598
10
44.091531628002969
20
-1.5499999999999963
10
43.591531628002983
20
-1.5499999999999925
42
-0.41421356237309509
10
40.341531628002997
20
1.7000000000000006
10
40.341531628002997
20
2.2499999980983687
42
0.41421356237309503
10
38.09153162800299
20
4.4999999980983683
10
2.000910000000002
20
4.4999999980983656
42
-0.41421356237309509
10
-3.4990899999999998
20
9.9999999980983745
0
LWPOLYLINE
5
183
100
AcDbEntity
8
0
100
AcDbPolyline
90
8
70
1
43
0.0
10
30.050899999999999
20
49.8429
10
30.050899999999999
20
38.343599999999988
42
0.4142135623730937
10
31.050899999999999
20
37.343599999999988
10
36.625900000000001
20
37.343599999999988
42
0.41421356237309764
10
37.625900000000016
20
38.343599999999995
10
37.625900000000001
20
49.8429
42
0.41421356237309631
10
36.625900000000001
20
50.842899999999993
10
31.050900000000006
20
50.842900000000014
42
0.41421356237309631
0
LWPOLYLINE
5
184
100
AcDbEntity
8
0
100
AcDbPolyline
90
8
70
1
43
0.0
10
13.000400000000001
20
49.8429
10
13.000400000000006
20
38.343599999999988
42
-0.41421356237309503
10
12.000399999999999
20
37.343599999999981
10
6.4253300000000007
20
37.343599999999988
42
-0.41421356237309503
10
5.4253300000000007
20
38.343599999999988
10
5.4253300000000042
20
49.842900000000007
42
-0.41421356237309243
10
6.4253300000000007
20
50.842899999999993
10
12.000399999999999
20
50.842899999999993
42
-0.41421356237309503
0
LWPOLYLINE
5
185
100
AcDbEntity
8
0
100
AcDbPolyline
90
8
70
1
43
0.0
10
279.26900000000001
20
95.494299999999953
10
279.26900000000001
20
106.99409999999999
42
-0.41421356237308982
10
280.26900000000006
20
107.99409999999997
10
285.84400000000005
20
107.9941
42
-0.4142135623730846
10
286.84399999999999
20
106.99409999999999
10
286.84399999999994
20
95.494299999999981
42
-0.41421356237310025
10
285.84399999999999
20
94.494299999999953
10
280.26900000000001
20
94.494299999999939
42
-0.4142135623730846
0
LWPOLYLINE
5
186
100
AcDbEntity
8
0
100
AcDbPolyline
90
8
70
1
43
0.0
10
303.8950000000001
20
106.99409999999999
10
303.8950000000001
20
95.494299999999953
42
0.41421356237311585
10
304.89500000000015
20
94.494299999999981
10
310.47000000000003
20
94.494299999999953
42
0.41421356237309503
10
311.47000000000003
20
95.494299999999953
10
311.47000000000014
20
106.99410000000002
42
0.4142135623730846
10
310.47000000000003
20
107.99409999999997
10
304.8950000000001
20
107.99409999999996
42
0.41421356237309503
0
LWPOLYLINE
5
187
100
AcDbEntity
8
0
100
AcDbPolyline
90
8
70
1
43
0.0
10
291.13
20
68.894100000000009
10
291.12999999999994
20
57.394700000000007
42
-0.41421356237309503
10
290.13
20
56.394700000000022
10
284.55599999999998
20
56.394699999999993
42
-0.41421356237309764
10
283.55599999999993
20
57.394700000000014
10
283.55599999999993
20
68.894100000000009
42
-0.41421356237309503
10
284.55599999999998
20
69.894100000000009
10
290.13
20
69.894100000000037
42
-0.41421356237309503
0
LWPOLYLINE
5
188
100
AcDbEntity
8
0
100
AcDbPolyline
90
8
70
1
43
0.0
10
308.17999999999995
20
68.894100000000009
10
308.17999999999995
20
57.394700000000029
42
0.41421356237309503
10
309.18000000000001
20
56.394700000000029
10
314.75400000000002
20
56.394700000000029
42
0.4142135623730846
10
315.75399999999996
20
57.394700000000029
10
315.75399999999996
20
68.894100000000009
42
0.41421356237309503
10
314.75399999999996
20
69.894100000000009
10
309.18000000000006
20
69.894100000000037
42
0.41421356237311585
0
LWPOLYLINE
5
189
100
AcDbEntity
8
0
100
AcDbPolyline
90
8
70
1
43
0.0
10
105.25917861733291
20
10.253990073310117
10
99.767681832287295
20
11.222509335751168
42
-0.41423266243253126
10
98.956578640147029
20
12.381061032561892
10
100.95475875309677
20
23.706409117757442
42
-0.41421356237308965
10
102.11329912150268
20
24.517448090171172
10
107.60375980089968
20
23.548742381704272
42
-0.41418840029411008
10
108.41481369651066
20
22.390286616703584
10
106.41766968920956
20
11.065124977533902
42
-0.4142196247584648
0
LWPOLYLINE
5
190
100
AcDbEntity
8
0
100
AcDbPolyline
90
8
70
1
43
0.0
10
125.20345242287355
20
19.430233647141762
10
123.20703062116777
20
8.104944673835373
42
0.41421962475844509
10
124.01826337778121
20
6.9465221209363417
10
129.50986198786489
20
5.9785803832200433
42
0.41423266243251988
10
130.66827547424478
20
6.7898809545597789
10
132.66378740891386
20
18.115699473908563
42
0.41421356237309365
10
131.85247552011103
20
19.274048738632811
10
126.36178677706411
20
20.241460930306637
42
0.41418840029411519
0
LWPOLYLINE
5
191
100
AcDbEntity
8
0
100
AcDbPolyline
90
8
70
1
43
0.0
10
176.13388191650458
20
7.773221058425702
10
170.64593937154575
20
6.8059057048941245
42
-0.41421913118063064
10
169.48753131765187
20
7.6171570881257793
10
167.49153835376467
20
18.942432846505501
42
-0.41417336119885806
10
168.30265786480174
20
20.100798343283429
10
173.78930571120372
20
21.068554425436552
42
-0.41422323954259016
10
174.9478121189602
20
20.25742620942637
10
176.94509978140434
20
8.9317097224251558
42
-0.41423851840592352
0
LWPOLYLINE
5
192
100
AcDbEntity
8
0
100
AcDbPolyline
90
8
70
1
43
0.0
10
193.73686015278719
20
11.892927374414935
10
191.73957991067962
20
23.218645169988413
42
-0.41422323954260093
10
192.55074716208674
20
24.377124246133199
10
198.03745957927615
20
25.344514175804346
42
-0.41417336119890297
10
199.19588227538867
20
24.533476357671145
10
201.19422836076498
20
13.208615570964163
42
-0.41421913118060222
10
200.38319566100515
20
12.050054400355723
10
194.89541740054682
20
11.081807461818002
42
-0.41423851840592751
0
ENDSEC
0
SECTION
2
OBJECTS
0
DICTIONARY
5
C
100
AcDbDictionary
3
ACAD_GROUP
350
D
3
ACAD_MLINESTYLE
350
17
0
DICTIONARY
5
D
100
AcDbDictionary
0
DICTIONARY
5
1A
330
C
100
AcDbDictionary
0
DICTIONARY
5
17
100
AcDbDictionary
0
ENDSEC
0
EOF
