G04 #@! TF.GenerationSoftware,KiCad,Pcbnew,(5.99.0-1351-gc977addfa)*
G04 #@! TF.CreationDate,2020-07-04T18:22:27-07:00*
G04 #@! TF.ProjectId,trifecta,74726966-6563-4746-912e-6b696361645f,rev?*
G04 #@! TF.SameCoordinates,Original*
G04 #@! TF.FileFunction,Soldermask,Top*
G04 #@! TF.FilePolarity,Negative*
%FSLAX46Y46*%
G04 Gerber Fmt 4.6, Leading zero omitted, Abs format (unit mm)*
G04 Created by KiCad (PCBNEW (5.99.0-1351-gc977addfa)) date 2020-07-04 18:22:27*
%MOMM*%
%LPD*%
G01*
G04 APERTURE LIST*
%ADD10R,2.000000X2.000000*%
%ADD11C,2.000000*%
%ADD12R,2.000000X3.200000*%
%ADD13C,3.987800*%
%ADD14C,1.750000*%
%ADD15C,3.048000*%
%ADD16O,1.200000X2.300000*%
%ADD17C,0.600000*%
G04 APERTURE END LIST*
D10*
X321371290Y-17221250D03*
D11*
X323871290Y-17221250D03*
X326371290Y-17221250D03*
D12*
X318271290Y-9721250D03*
X329471290Y-9721250D03*
D11*
X321371290Y-2721250D03*
X326371290Y-2721250D03*
D10*
X326146490Y-39761210D03*
D11*
X328646490Y-39761210D03*
X331146490Y-39761210D03*
D12*
X323046490Y-32261210D03*
X334246490Y-32261210D03*
D11*
X326146490Y-25261210D03*
X331146490Y-25261210D03*
D10*
X330896200Y-62536200D03*
D11*
X333396200Y-62536200D03*
X335896200Y-62536200D03*
D12*
X327796200Y-55036200D03*
X338996200Y-55036200D03*
D11*
X330896200Y-48036200D03*
X335896200Y-48036200D03*
D13*
X5256250Y-47531250D03*
D14*
X176250Y-47531250D03*
X10336250Y-47531250D03*
D13*
X295306250Y-28484746D03*
D14*
X290226250Y-28484746D03*
X300386250Y-28484746D03*
D13*
X295341920Y-9407640D03*
D14*
X290261920Y-9407640D03*
X300421920Y-9407640D03*
D13*
X285781250Y-9434746D03*
D14*
X280701250Y-9434746D03*
X290861250Y-9434746D03*
D15*
X273875000Y-2449746D03*
X297687500Y-2449746D03*
D13*
X273875000Y-17689746D03*
X297687500Y-17689746D03*
X276383360Y-9417800D03*
D14*
X271303360Y-9417800D03*
X281463360Y-9417800D03*
D13*
X333447000Y-55188600D03*
D14*
X328367000Y-55188600D03*
X338527000Y-55188600D03*
D13*
X328671800Y-32328600D03*
D14*
X323591800Y-32328600D03*
X333751800Y-32328600D03*
D13*
X323947400Y-9468600D03*
D14*
X318867400Y-9468600D03*
X329027400Y-9468600D03*
D13*
X290067500Y-47534746D03*
D14*
X284987500Y-47534746D03*
X295147500Y-47534746D03*
D15*
X278161250Y-54519746D03*
X301973750Y-54519746D03*
D13*
X278161250Y-39279746D03*
X301973750Y-39279746D03*
D16*
X136074000Y-816800D03*
X147224000Y-816800D03*
X136074000Y3783200D03*
X147224000Y3783200D03*
D17*
X137899000Y-896800D03*
X145399000Y-896800D03*
D13*
X207863325Y-88846345D03*
D14*
X202860502Y-89728478D03*
X212866148Y-87964212D03*
D13*
X175018253Y-94701840D03*
D14*
X170015430Y-95583973D03*
X180021076Y-93819707D03*
D15*
X164505818Y-103648221D03*
X187956553Y-99513224D03*
D13*
X161859420Y-88639751D03*
X185310155Y-84504753D03*
X211586121Y-68812758D03*
D14*
X206583298Y-69694891D03*
X216588944Y-67930625D03*
D13*
X192825534Y-72120756D03*
D14*
X187822711Y-73002889D03*
X197828357Y-71238623D03*
D13*
X174064946Y-75428754D03*
D14*
X169062123Y-76310887D03*
X179067769Y-74546621D03*
D13*
X155304358Y-78736751D03*
D14*
X150301535Y-79618884D03*
X160307181Y-77854618D03*
D13*
X217658417Y-48398172D03*
D14*
X212655594Y-49280305D03*
X222661240Y-47516039D03*
D13*
X198897830Y-51706169D03*
D14*
X193895007Y-52588302D03*
X203900653Y-50824036D03*
D13*
X180125000Y-55025000D03*
D14*
X175122177Y-55907133D03*
X185127823Y-54142867D03*
D13*
X161376654Y-58322165D03*
D14*
X156373831Y-59204298D03*
X166379477Y-57440032D03*
D13*
X209660273Y-30464583D03*
D14*
X204657450Y-31346716D03*
X214663096Y-29582450D03*
D13*
X190899685Y-33772581D03*
D14*
X185896862Y-34654714D03*
X195902508Y-32890448D03*
D13*
X172139097Y-37080579D03*
D14*
X167136274Y-37962712D03*
X177141920Y-36198446D03*
D13*
X153378509Y-40388577D03*
D14*
X148375686Y-41270710D03*
X158381332Y-39506444D03*
D13*
X215732569Y-10049997D03*
D14*
X210729746Y-10932130D03*
X220735392Y-9167864D03*
D13*
X196971981Y-13357994D03*
D14*
X191969158Y-14240127D03*
X201974804Y-12475861D03*
D13*
X178211393Y-16665992D03*
D14*
X173208570Y-17548125D03*
X183214216Y-15783859D03*
D13*
X159450806Y-19973990D03*
D14*
X154447983Y-20856123D03*
X164453629Y-19091857D03*
D13*
X106052675Y-95430345D03*
D14*
X101049852Y-94548212D03*
X111055498Y-96312478D03*
D15*
X93114375Y-100241729D03*
X116565110Y-104376726D03*
D13*
X95760773Y-85233258D03*
X119211508Y-89368256D03*
X68568440Y-88914097D03*
D14*
X63565617Y-88031964D03*
X73571263Y-89796230D03*
D13*
X121118554Y-78806004D03*
D14*
X116115731Y-77923871D03*
X126121377Y-79688137D03*
D13*
X102357966Y-75498006D03*
D14*
X97355143Y-74615873D03*
X107360789Y-76380139D03*
D13*
X83597379Y-72190008D03*
D14*
X78594556Y-71307875D03*
X88600202Y-73072141D03*
D13*
X64836791Y-68882010D03*
D14*
X59833968Y-67999877D03*
X69839614Y-69764143D03*
D13*
X115046258Y-58391417D03*
D14*
X110043435Y-57509284D03*
X120049081Y-59273550D03*
D13*
X96285670Y-55083419D03*
D14*
X91282847Y-54201286D03*
X101288493Y-55965552D03*
D13*
X77525083Y-51775422D03*
D14*
X72522260Y-50893289D03*
X82527906Y-52657555D03*
D13*
X58764495Y-48467424D03*
D14*
X53761672Y-47585291D03*
X63767318Y-49349557D03*
D13*
X113664109Y-38803830D03*
D14*
X108661286Y-37921697D03*
X118666932Y-39685963D03*
D13*
X94903521Y-35495832D03*
D14*
X89900698Y-34613699D03*
X99906344Y-36377965D03*
D13*
X76142934Y-32187834D03*
D14*
X71140111Y-31305701D03*
X81145757Y-33069967D03*
D13*
X57382346Y-28879837D03*
D14*
X52379523Y-27997704D03*
X62385169Y-29761970D03*
D13*
X126352401Y-21697241D03*
D14*
X121349578Y-20815108D03*
X131355224Y-22579374D03*
D13*
X107591813Y-18389243D03*
D14*
X102588990Y-17507110D03*
X112594636Y-19271376D03*
D13*
X88831225Y-15081246D03*
D14*
X83828402Y-14199113D03*
X93834048Y-15963379D03*
D13*
X70070638Y-11773248D03*
D14*
X65067815Y-10891115D03*
X75073461Y-12655381D03*
D13*
X51310050Y-8465250D03*
D14*
X46307227Y-7583117D03*
X56312873Y-9347383D03*
D13*
X328643750Y-90397246D03*
D14*
X323563750Y-90397246D03*
X333723750Y-90397246D03*
D13*
X309593750Y-90397246D03*
D14*
X304513750Y-90397246D03*
X314673750Y-90397246D03*
D13*
X290543750Y-90397246D03*
D14*
X285463750Y-90397246D03*
X295623750Y-90397246D03*
D13*
X264350000Y-85634746D03*
D14*
X259270000Y-85634746D03*
X269430000Y-85634746D03*
D13*
X240537500Y-85634746D03*
D14*
X235457500Y-85634746D03*
X245617500Y-85634746D03*
D13*
X26225000Y-85634746D03*
D14*
X21145000Y-85634746D03*
X31305000Y-85634746D03*
D13*
X2412500Y-85634746D03*
D14*
X-2667500Y-85634746D03*
X7492500Y-85634746D03*
D13*
X309593750Y-71347246D03*
D14*
X304513750Y-71347246D03*
X314673750Y-71347246D03*
D13*
X278637500Y-66584746D03*
D14*
X273557500Y-66584746D03*
X283717500Y-66584746D03*
D13*
X252443750Y-66584746D03*
D14*
X247363750Y-66584746D03*
X257523750Y-66584746D03*
D13*
X233393750Y-66584746D03*
D14*
X228313750Y-66584746D03*
X238473750Y-66584746D03*
D13*
X42893750Y-66584746D03*
D14*
X37813750Y-66584746D03*
X47973750Y-66584746D03*
D13*
X11937500Y-66584746D03*
D14*
X6857500Y-66584746D03*
X17017500Y-66584746D03*
D15*
X31250Y-73569746D03*
X23843750Y-73569746D03*
D13*
X31250Y-58329746D03*
X23843750Y-58329746D03*
X259111250Y-47534746D03*
D14*
X254031250Y-47534746D03*
X264191250Y-47534746D03*
D13*
X240061250Y-47534746D03*
D14*
X234981250Y-47534746D03*
X245141250Y-47534746D03*
D13*
X36226250Y-47534746D03*
D14*
X31146250Y-47534746D03*
X41306250Y-47534746D03*
D13*
X10032500Y-47534746D03*
D14*
X4952500Y-47534746D03*
X15112500Y-47534746D03*
D13*
X271493750Y-28484746D03*
D14*
X266413750Y-28484746D03*
X276573750Y-28484746D03*
D13*
X252443750Y-28484746D03*
D14*
X247363750Y-28484746D03*
X257523750Y-28484746D03*
D13*
X233393750Y-28484746D03*
D14*
X228313750Y-28484746D03*
X238473750Y-28484746D03*
D13*
X33368750Y-28484746D03*
D14*
X28288750Y-28484746D03*
X38448750Y-28484746D03*
D13*
X9556250Y-28484746D03*
D14*
X4476250Y-28484746D03*
X14636250Y-28484746D03*
D13*
X257206250Y-9434746D03*
D14*
X252126250Y-9434746D03*
X262286250Y-9434746D03*
D13*
X238156250Y-9434746D03*
D14*
X233076250Y-9434746D03*
X243236250Y-9434746D03*
D13*
X28606250Y-9434746D03*
D14*
X23526250Y-9434746D03*
X33686250Y-9434746D03*
D13*
X9556250Y-9434746D03*
D14*
X4476250Y-9434746D03*
X14636250Y-9434746D03*
M02*
