G04 #@! TF.GenerationSoftware,KiCad,Pcbnew,(5.99.0-1351-gc977addfa)*
G04 #@! TF.CreationDate,2020-07-04T18:22:27-07:00*
G04 #@! TF.ProjectId,trifecta,74726966-6563-4746-912e-6b696361645f,rev?*
G04 #@! TF.SameCoordinates,Original*
G04 #@! TF.FileFunction,Soldermask,Bot*
G04 #@! TF.FilePolarity,Negative*
%FSLAX46Y46*%
G04 Gerber Fmt 4.6, Leading zero omitted, Abs format (unit mm)*
G04 Created by KiCad (PCBNEW (5.99.0-1351-gc977addfa)) date 2020-07-04 18:22:27*
%MOMM*%
%LPD*%
G01*
G04 APERTURE LIST*
%ADD10R,2.000000X2.000000*%
%ADD11C,2.000000*%
%ADD12R,2.000000X3.200000*%
%ADD13C,2.250000*%
%ADD14C,3.987800*%
%ADD15C,1.750000*%
%ADD16C,3.048000*%
%ADD17R,1.000000X1.400000*%
%ADD18R,1.800000X0.820000*%
%ADD19R,0.700000X2.300000*%
%ADD20O,1.200000X2.300000*%
%ADD21C,0.600000*%
%ADD22R,0.550000X1.700000*%
%ADD23R,0.300000X1.700000*%
%ADD24R,1.060000X0.650000*%
G04 APERTURE END LIST*
D10*
X321371290Y-17221250D03*
D11*
X323871290Y-17221250D03*
X326371290Y-17221250D03*
D12*
X318271290Y-9721250D03*
X329471290Y-9721250D03*
D11*
X321371290Y-2721250D03*
X326371290Y-2721250D03*
D10*
X326146490Y-39761210D03*
D11*
X328646490Y-39761210D03*
X331146490Y-39761210D03*
D12*
X323046490Y-32261210D03*
X334246490Y-32261210D03*
D11*
X326146490Y-25261210D03*
X331146490Y-25261210D03*
D10*
X330896200Y-62536200D03*
D11*
X333396200Y-62536200D03*
X335896200Y-62536200D03*
D12*
X327796200Y-55036200D03*
X338996200Y-55036200D03*
D11*
X330896200Y-48036200D03*
X335896200Y-48036200D03*
G36*
G01*
X129568200Y-49163600D02*
X131068200Y-49163600D01*
G75*
G02*
X131268200Y-49363600I0J-200000D01*
G01*
X131268200Y-49863600D01*
G75*
G02*
X131068200Y-50063600I-200000J0D01*
G01*
X129568200Y-50063600D01*
G75*
G02*
X129368200Y-49863600I0J200000D01*
G01*
X129368200Y-49363600D01*
G75*
G02*
X129568200Y-49163600I200000J0D01*
G01*
G37*
G36*
G01*
X129568200Y-49963600D02*
X131068200Y-49963600D01*
G75*
G02*
X131268200Y-50163600I0J-200000D01*
G01*
X131268200Y-50663600D01*
G75*
G02*
X131068200Y-50863600I-200000J0D01*
G01*
X129568200Y-50863600D01*
G75*
G02*
X129368200Y-50663600I0J200000D01*
G01*
X129368200Y-50163600D01*
G75*
G02*
X129568200Y-49963600I200000J0D01*
G01*
G37*
G36*
G01*
X129568200Y-50763600D02*
X131068200Y-50763600D01*
G75*
G02*
X131268200Y-50963600I0J-200000D01*
G01*
X131268200Y-51463600D01*
G75*
G02*
X131068200Y-51663600I-200000J0D01*
G01*
X129568200Y-51663600D01*
G75*
G02*
X129368200Y-51463600I0J200000D01*
G01*
X129368200Y-50963600D01*
G75*
G02*
X129568200Y-50763600I200000J0D01*
G01*
G37*
G36*
G01*
X129568200Y-51563600D02*
X131068200Y-51563600D01*
G75*
G02*
X131268200Y-51763600I0J-200000D01*
G01*
X131268200Y-52263600D01*
G75*
G02*
X131068200Y-52463600I-200000J0D01*
G01*
X129568200Y-52463600D01*
G75*
G02*
X129368200Y-52263600I0J200000D01*
G01*
X129368200Y-51763600D01*
G75*
G02*
X129568200Y-51563600I200000J0D01*
G01*
G37*
G36*
G01*
X129568200Y-52363600D02*
X131068200Y-52363600D01*
G75*
G02*
X131268200Y-52563600I0J-200000D01*
G01*
X131268200Y-53063600D01*
G75*
G02*
X131068200Y-53263600I-200000J0D01*
G01*
X129568200Y-53263600D01*
G75*
G02*
X129368200Y-53063600I0J200000D01*
G01*
X129368200Y-52563600D01*
G75*
G02*
X129568200Y-52363600I200000J0D01*
G01*
G37*
G36*
G01*
X129568200Y-53163600D02*
X131068200Y-53163600D01*
G75*
G02*
X131268200Y-53363600I0J-200000D01*
G01*
X131268200Y-53863600D01*
G75*
G02*
X131068200Y-54063600I-200000J0D01*
G01*
X129568200Y-54063600D01*
G75*
G02*
X129368200Y-53863600I0J200000D01*
G01*
X129368200Y-53363600D01*
G75*
G02*
X129568200Y-53163600I200000J0D01*
G01*
G37*
G36*
G01*
X129568200Y-53963600D02*
X131068200Y-53963600D01*
G75*
G02*
X131268200Y-54163600I0J-200000D01*
G01*
X131268200Y-54663600D01*
G75*
G02*
X131068200Y-54863600I-200000J0D01*
G01*
X129568200Y-54863600D01*
G75*
G02*
X129368200Y-54663600I0J200000D01*
G01*
X129368200Y-54163600D01*
G75*
G02*
X129568200Y-53963600I200000J0D01*
G01*
G37*
G36*
G01*
X129568200Y-54763600D02*
X131068200Y-54763600D01*
G75*
G02*
X131268200Y-54963600I0J-200000D01*
G01*
X131268200Y-55463600D01*
G75*
G02*
X131068200Y-55663600I-200000J0D01*
G01*
X129568200Y-55663600D01*
G75*
G02*
X129368200Y-55463600I0J200000D01*
G01*
X129368200Y-54963600D01*
G75*
G02*
X129568200Y-54763600I200000J0D01*
G01*
G37*
G36*
G01*
X129568200Y-55563600D02*
X131068200Y-55563600D01*
G75*
G02*
X131268200Y-55763600I0J-200000D01*
G01*
X131268200Y-56263600D01*
G75*
G02*
X131068200Y-56463600I-200000J0D01*
G01*
X129568200Y-56463600D01*
G75*
G02*
X129368200Y-56263600I0J200000D01*
G01*
X129368200Y-55763600D01*
G75*
G02*
X129568200Y-55563600I200000J0D01*
G01*
G37*
G36*
G01*
X129568200Y-56363600D02*
X131068200Y-56363600D01*
G75*
G02*
X131268200Y-56563600I0J-200000D01*
G01*
X131268200Y-57063600D01*
G75*
G02*
X131068200Y-57263600I-200000J0D01*
G01*
X129568200Y-57263600D01*
G75*
G02*
X129368200Y-57063600I0J200000D01*
G01*
X129368200Y-56563600D01*
G75*
G02*
X129568200Y-56363600I200000J0D01*
G01*
G37*
G36*
G01*
X129568200Y-57163600D02*
X131068200Y-57163600D01*
G75*
G02*
X131268200Y-57363600I0J-200000D01*
G01*
X131268200Y-57863600D01*
G75*
G02*
X131068200Y-58063600I-200000J0D01*
G01*
X129568200Y-58063600D01*
G75*
G02*
X129368200Y-57863600I0J200000D01*
G01*
X129368200Y-57363600D01*
G75*
G02*
X129568200Y-57163600I200000J0D01*
G01*
G37*
G36*
G01*
X131968200Y-58563600D02*
X132468200Y-58563600D01*
G75*
G02*
X132668200Y-58763600I0J-200000D01*
G01*
X132668200Y-60263600D01*
G75*
G02*
X132468200Y-60463600I-200000J0D01*
G01*
X131968200Y-60463600D01*
G75*
G02*
X131768200Y-60263600I0J200000D01*
G01*
X131768200Y-58763600D01*
G75*
G02*
X131968200Y-58563600I200000J0D01*
G01*
G37*
G36*
G01*
X132768200Y-58563600D02*
X133268200Y-58563600D01*
G75*
G02*
X133468200Y-58763600I0J-200000D01*
G01*
X133468200Y-60263600D01*
G75*
G02*
X133268200Y-60463600I-200000J0D01*
G01*
X132768200Y-60463600D01*
G75*
G02*
X132568200Y-60263600I0J200000D01*
G01*
X132568200Y-58763600D01*
G75*
G02*
X132768200Y-58563600I200000J0D01*
G01*
G37*
G36*
G01*
X133568200Y-58563600D02*
X134068200Y-58563600D01*
G75*
G02*
X134268200Y-58763600I0J-200000D01*
G01*
X134268200Y-60263600D01*
G75*
G02*
X134068200Y-60463600I-200000J0D01*
G01*
X133568200Y-60463600D01*
G75*
G02*
X133368200Y-60263600I0J200000D01*
G01*
X133368200Y-58763600D01*
G75*
G02*
X133568200Y-58563600I200000J0D01*
G01*
G37*
G36*
G01*
X134368200Y-58563600D02*
X134868200Y-58563600D01*
G75*
G02*
X135068200Y-58763600I0J-200000D01*
G01*
X135068200Y-60263600D01*
G75*
G02*
X134868200Y-60463600I-200000J0D01*
G01*
X134368200Y-60463600D01*
G75*
G02*
X134168200Y-60263600I0J200000D01*
G01*
X134168200Y-58763600D01*
G75*
G02*
X134368200Y-58563600I200000J0D01*
G01*
G37*
G36*
G01*
X135168200Y-58563600D02*
X135668200Y-58563600D01*
G75*
G02*
X135868200Y-58763600I0J-200000D01*
G01*
X135868200Y-60263600D01*
G75*
G02*
X135668200Y-60463600I-200000J0D01*
G01*
X135168200Y-60463600D01*
G75*
G02*
X134968200Y-60263600I0J200000D01*
G01*
X134968200Y-58763600D01*
G75*
G02*
X135168200Y-58563600I200000J0D01*
G01*
G37*
G36*
G01*
X135968200Y-58563600D02*
X136468200Y-58563600D01*
G75*
G02*
X136668200Y-58763600I0J-200000D01*
G01*
X136668200Y-60263600D01*
G75*
G02*
X136468200Y-60463600I-200000J0D01*
G01*
X135968200Y-60463600D01*
G75*
G02*
X135768200Y-60263600I0J200000D01*
G01*
X135768200Y-58763600D01*
G75*
G02*
X135968200Y-58563600I200000J0D01*
G01*
G37*
G36*
G01*
X136768200Y-58563600D02*
X137268200Y-58563600D01*
G75*
G02*
X137468200Y-58763600I0J-200000D01*
G01*
X137468200Y-60263600D01*
G75*
G02*
X137268200Y-60463600I-200000J0D01*
G01*
X136768200Y-60463600D01*
G75*
G02*
X136568200Y-60263600I0J200000D01*
G01*
X136568200Y-58763600D01*
G75*
G02*
X136768200Y-58563600I200000J0D01*
G01*
G37*
G36*
G01*
X137568200Y-58563600D02*
X138068200Y-58563600D01*
G75*
G02*
X138268200Y-58763600I0J-200000D01*
G01*
X138268200Y-60263600D01*
G75*
G02*
X138068200Y-60463600I-200000J0D01*
G01*
X137568200Y-60463600D01*
G75*
G02*
X137368200Y-60263600I0J200000D01*
G01*
X137368200Y-58763600D01*
G75*
G02*
X137568200Y-58563600I200000J0D01*
G01*
G37*
G36*
G01*
X138368200Y-58563600D02*
X138868200Y-58563600D01*
G75*
G02*
X139068200Y-58763600I0J-200000D01*
G01*
X139068200Y-60263600D01*
G75*
G02*
X138868200Y-60463600I-200000J0D01*
G01*
X138368200Y-60463600D01*
G75*
G02*
X138168200Y-60263600I0J200000D01*
G01*
X138168200Y-58763600D01*
G75*
G02*
X138368200Y-58563600I200000J0D01*
G01*
G37*
G36*
G01*
X139168200Y-58563600D02*
X139668200Y-58563600D01*
G75*
G02*
X139868200Y-58763600I0J-200000D01*
G01*
X139868200Y-60263600D01*
G75*
G02*
X139668200Y-60463600I-200000J0D01*
G01*
X139168200Y-60463600D01*
G75*
G02*
X138968200Y-60263600I0J200000D01*
G01*
X138968200Y-58763600D01*
G75*
G02*
X139168200Y-58563600I200000J0D01*
G01*
G37*
G36*
G01*
X139968200Y-58563600D02*
X140468200Y-58563600D01*
G75*
G02*
X140668200Y-58763600I0J-200000D01*
G01*
X140668200Y-60263600D01*
G75*
G02*
X140468200Y-60463600I-200000J0D01*
G01*
X139968200Y-60463600D01*
G75*
G02*
X139768200Y-60263600I0J200000D01*
G01*
X139768200Y-58763600D01*
G75*
G02*
X139968200Y-58563600I200000J0D01*
G01*
G37*
G36*
G01*
X141368200Y-57163600D02*
X142868200Y-57163600D01*
G75*
G02*
X143068200Y-57363600I0J-200000D01*
G01*
X143068200Y-57863600D01*
G75*
G02*
X142868200Y-58063600I-200000J0D01*
G01*
X141368200Y-58063600D01*
G75*
G02*
X141168200Y-57863600I0J200000D01*
G01*
X141168200Y-57363600D01*
G75*
G02*
X141368200Y-57163600I200000J0D01*
G01*
G37*
G36*
G01*
X141368200Y-56363600D02*
X142868200Y-56363600D01*
G75*
G02*
X143068200Y-56563600I0J-200000D01*
G01*
X143068200Y-57063600D01*
G75*
G02*
X142868200Y-57263600I-200000J0D01*
G01*
X141368200Y-57263600D01*
G75*
G02*
X141168200Y-57063600I0J200000D01*
G01*
X141168200Y-56563600D01*
G75*
G02*
X141368200Y-56363600I200000J0D01*
G01*
G37*
G36*
G01*
X141368200Y-55563600D02*
X142868200Y-55563600D01*
G75*
G02*
X143068200Y-55763600I0J-200000D01*
G01*
X143068200Y-56263600D01*
G75*
G02*
X142868200Y-56463600I-200000J0D01*
G01*
X141368200Y-56463600D01*
G75*
G02*
X141168200Y-56263600I0J200000D01*
G01*
X141168200Y-55763600D01*
G75*
G02*
X141368200Y-55563600I200000J0D01*
G01*
G37*
G36*
G01*
X141368200Y-54763600D02*
X142868200Y-54763600D01*
G75*
G02*
X143068200Y-54963600I0J-200000D01*
G01*
X143068200Y-55463600D01*
G75*
G02*
X142868200Y-55663600I-200000J0D01*
G01*
X141368200Y-55663600D01*
G75*
G02*
X141168200Y-55463600I0J200000D01*
G01*
X141168200Y-54963600D01*
G75*
G02*
X141368200Y-54763600I200000J0D01*
G01*
G37*
G36*
G01*
X141368200Y-53963600D02*
X142868200Y-53963600D01*
G75*
G02*
X143068200Y-54163600I0J-200000D01*
G01*
X143068200Y-54663600D01*
G75*
G02*
X142868200Y-54863600I-200000J0D01*
G01*
X141368200Y-54863600D01*
G75*
G02*
X141168200Y-54663600I0J200000D01*
G01*
X141168200Y-54163600D01*
G75*
G02*
X141368200Y-53963600I200000J0D01*
G01*
G37*
G36*
G01*
X141368200Y-53163600D02*
X142868200Y-53163600D01*
G75*
G02*
X143068200Y-53363600I0J-200000D01*
G01*
X143068200Y-53863600D01*
G75*
G02*
X142868200Y-54063600I-200000J0D01*
G01*
X141368200Y-54063600D01*
G75*
G02*
X141168200Y-53863600I0J200000D01*
G01*
X141168200Y-53363600D01*
G75*
G02*
X141368200Y-53163600I200000J0D01*
G01*
G37*
G36*
G01*
X141368200Y-52363600D02*
X142868200Y-52363600D01*
G75*
G02*
X143068200Y-52563600I0J-200000D01*
G01*
X143068200Y-53063600D01*
G75*
G02*
X142868200Y-53263600I-200000J0D01*
G01*
X141368200Y-53263600D01*
G75*
G02*
X141168200Y-53063600I0J200000D01*
G01*
X141168200Y-52563600D01*
G75*
G02*
X141368200Y-52363600I200000J0D01*
G01*
G37*
G36*
G01*
X141368200Y-51563600D02*
X142868200Y-51563600D01*
G75*
G02*
X143068200Y-51763600I0J-200000D01*
G01*
X143068200Y-52263600D01*
G75*
G02*
X142868200Y-52463600I-200000J0D01*
G01*
X141368200Y-52463600D01*
G75*
G02*
X141168200Y-52263600I0J200000D01*
G01*
X141168200Y-51763600D01*
G75*
G02*
X141368200Y-51563600I200000J0D01*
G01*
G37*
G36*
G01*
X141368200Y-50763600D02*
X142868200Y-50763600D01*
G75*
G02*
X143068200Y-50963600I0J-200000D01*
G01*
X143068200Y-51463600D01*
G75*
G02*
X142868200Y-51663600I-200000J0D01*
G01*
X141368200Y-51663600D01*
G75*
G02*
X141168200Y-51463600I0J200000D01*
G01*
X141168200Y-50963600D01*
G75*
G02*
X141368200Y-50763600I200000J0D01*
G01*
G37*
G36*
G01*
X141368200Y-49963600D02*
X142868200Y-49963600D01*
G75*
G02*
X143068200Y-50163600I0J-200000D01*
G01*
X143068200Y-50663600D01*
G75*
G02*
X142868200Y-50863600I-200000J0D01*
G01*
X141368200Y-50863600D01*
G75*
G02*
X141168200Y-50663600I0J200000D01*
G01*
X141168200Y-50163600D01*
G75*
G02*
X141368200Y-49963600I200000J0D01*
G01*
G37*
G36*
G01*
X141368200Y-49163600D02*
X142868200Y-49163600D01*
G75*
G02*
X143068200Y-49363600I0J-200000D01*
G01*
X143068200Y-49863600D01*
G75*
G02*
X142868200Y-50063600I-200000J0D01*
G01*
X141368200Y-50063600D01*
G75*
G02*
X141168200Y-49863600I0J200000D01*
G01*
X141168200Y-49363600D01*
G75*
G02*
X141368200Y-49163600I200000J0D01*
G01*
G37*
G36*
G01*
X139968200Y-46763600D02*
X140468200Y-46763600D01*
G75*
G02*
X140668200Y-46963600I0J-200000D01*
G01*
X140668200Y-48463600D01*
G75*
G02*
X140468200Y-48663600I-200000J0D01*
G01*
X139968200Y-48663600D01*
G75*
G02*
X139768200Y-48463600I0J200000D01*
G01*
X139768200Y-46963600D01*
G75*
G02*
X139968200Y-46763600I200000J0D01*
G01*
G37*
G36*
G01*
X139168200Y-46763600D02*
X139668200Y-46763600D01*
G75*
G02*
X139868200Y-46963600I0J-200000D01*
G01*
X139868200Y-48463600D01*
G75*
G02*
X139668200Y-48663600I-200000J0D01*
G01*
X139168200Y-48663600D01*
G75*
G02*
X138968200Y-48463600I0J200000D01*
G01*
X138968200Y-46963600D01*
G75*
G02*
X139168200Y-46763600I200000J0D01*
G01*
G37*
G36*
G01*
X138368200Y-46763600D02*
X138868200Y-46763600D01*
G75*
G02*
X139068200Y-46963600I0J-200000D01*
G01*
X139068200Y-48463600D01*
G75*
G02*
X138868200Y-48663600I-200000J0D01*
G01*
X138368200Y-48663600D01*
G75*
G02*
X138168200Y-48463600I0J200000D01*
G01*
X138168200Y-46963600D01*
G75*
G02*
X138368200Y-46763600I200000J0D01*
G01*
G37*
G36*
G01*
X137568200Y-46763600D02*
X138068200Y-46763600D01*
G75*
G02*
X138268200Y-46963600I0J-200000D01*
G01*
X138268200Y-48463600D01*
G75*
G02*
X138068200Y-48663600I-200000J0D01*
G01*
X137568200Y-48663600D01*
G75*
G02*
X137368200Y-48463600I0J200000D01*
G01*
X137368200Y-46963600D01*
G75*
G02*
X137568200Y-46763600I200000J0D01*
G01*
G37*
G36*
G01*
X136768200Y-46763600D02*
X137268200Y-46763600D01*
G75*
G02*
X137468200Y-46963600I0J-200000D01*
G01*
X137468200Y-48463600D01*
G75*
G02*
X137268200Y-48663600I-200000J0D01*
G01*
X136768200Y-48663600D01*
G75*
G02*
X136568200Y-48463600I0J200000D01*
G01*
X136568200Y-46963600D01*
G75*
G02*
X136768200Y-46763600I200000J0D01*
G01*
G37*
G36*
G01*
X135968200Y-46763600D02*
X136468200Y-46763600D01*
G75*
G02*
X136668200Y-46963600I0J-200000D01*
G01*
X136668200Y-48463600D01*
G75*
G02*
X136468200Y-48663600I-200000J0D01*
G01*
X135968200Y-48663600D01*
G75*
G02*
X135768200Y-48463600I0J200000D01*
G01*
X135768200Y-46963600D01*
G75*
G02*
X135968200Y-46763600I200000J0D01*
G01*
G37*
G36*
G01*
X135168200Y-46763600D02*
X135668200Y-46763600D01*
G75*
G02*
X135868200Y-46963600I0J-200000D01*
G01*
X135868200Y-48463600D01*
G75*
G02*
X135668200Y-48663600I-200000J0D01*
G01*
X135168200Y-48663600D01*
G75*
G02*
X134968200Y-48463600I0J200000D01*
G01*
X134968200Y-46963600D01*
G75*
G02*
X135168200Y-46763600I200000J0D01*
G01*
G37*
G36*
G01*
X134368200Y-46763600D02*
X134868200Y-46763600D01*
G75*
G02*
X135068200Y-46963600I0J-200000D01*
G01*
X135068200Y-48463600D01*
G75*
G02*
X134868200Y-48663600I-200000J0D01*
G01*
X134368200Y-48663600D01*
G75*
G02*
X134168200Y-48463600I0J200000D01*
G01*
X134168200Y-46963600D01*
G75*
G02*
X134368200Y-46763600I200000J0D01*
G01*
G37*
G36*
G01*
X133568200Y-46763600D02*
X134068200Y-46763600D01*
G75*
G02*
X134268200Y-46963600I0J-200000D01*
G01*
X134268200Y-48463600D01*
G75*
G02*
X134068200Y-48663600I-200000J0D01*
G01*
X133568200Y-48663600D01*
G75*
G02*
X133368200Y-48463600I0J200000D01*
G01*
X133368200Y-46963600D01*
G75*
G02*
X133568200Y-46763600I200000J0D01*
G01*
G37*
G36*
G01*
X132768200Y-46763600D02*
X133268200Y-46763600D01*
G75*
G02*
X133468200Y-46963600I0J-200000D01*
G01*
X133468200Y-48463600D01*
G75*
G02*
X133268200Y-48663600I-200000J0D01*
G01*
X132768200Y-48663600D01*
G75*
G02*
X132568200Y-48463600I0J200000D01*
G01*
X132568200Y-46963600D01*
G75*
G02*
X132768200Y-46763600I200000J0D01*
G01*
G37*
G36*
G01*
X131968200Y-46763600D02*
X132468200Y-46763600D01*
G75*
G02*
X132668200Y-46963600I0J-200000D01*
G01*
X132668200Y-48463600D01*
G75*
G02*
X132468200Y-48663600I-200000J0D01*
G01*
X131968200Y-48663600D01*
G75*
G02*
X131768200Y-48463600I0J200000D01*
G01*
X131768200Y-46963600D01*
G75*
G02*
X131968200Y-46763600I200000J0D01*
G01*
G37*
D13*
X7796250Y-42451250D03*
D14*
X5256250Y-47531250D03*
D13*
X1446250Y-44991250D03*
D15*
X176250Y-47531250D03*
X10336250Y-47531250D03*
D13*
X297846250Y-23404746D03*
D14*
X295306250Y-28484746D03*
D13*
X291496250Y-25944746D03*
D15*
X290226250Y-28484746D03*
X300386250Y-28484746D03*
D13*
X297881920Y-4327640D03*
D14*
X295341920Y-9407640D03*
D13*
X291531920Y-6867640D03*
D15*
X290261920Y-9407640D03*
X300421920Y-9407640D03*
D13*
X288321250Y-4354746D03*
D14*
X285781250Y-9434746D03*
D13*
X281971250Y-6894746D03*
D15*
X280701250Y-9434746D03*
X290861250Y-9434746D03*
D16*
X273875000Y-2449746D03*
X297687500Y-2449746D03*
D14*
X273875000Y-17689746D03*
X297687500Y-17689746D03*
D13*
X278923360Y-4337800D03*
D14*
X276383360Y-9417800D03*
D13*
X272573360Y-6877800D03*
D15*
X271303360Y-9417800D03*
X281463360Y-9417800D03*
D17*
X336906480Y-96201520D03*
X336906480Y-92651520D03*
X317813300Y-96089760D03*
X317813300Y-92539760D03*
X298778540Y-96005940D03*
X298778540Y-92455940D03*
X272677500Y-91256140D03*
X272677500Y-87706140D03*
X248882780Y-91390760D03*
X248882780Y-87840760D03*
G36*
X217536804Y-93208395D02*
G01*
X216551996Y-93382044D01*
X216308888Y-92003313D01*
X217293696Y-91829664D01*
X217536804Y-93208395D01*
G37*
G36*
X216920352Y-89712327D02*
G01*
X215935544Y-89885976D01*
X215692436Y-88507245D01*
X216677244Y-88333596D01*
X216920352Y-89712327D01*
G37*
G36*
X193023264Y-97254615D02*
G01*
X192038456Y-97428264D01*
X191795348Y-96049533D01*
X192780156Y-95875884D01*
X193023264Y-97254615D01*
G37*
G36*
X192406812Y-93758547D02*
G01*
X191422004Y-93932196D01*
X191178896Y-92553465D01*
X192163704Y-92379816D01*
X192406812Y-93758547D01*
G37*
G36*
X122626124Y-104791724D02*
G01*
X121641316Y-104618075D01*
X121884424Y-103239344D01*
X122869232Y-103412993D01*
X122626124Y-104791724D01*
G37*
G36*
X123242576Y-101295656D02*
G01*
X122257768Y-101122007D01*
X122500876Y-99743276D01*
X123485684Y-99916925D01*
X123242576Y-101295656D01*
G37*
G36*
X75953624Y-97298724D02*
G01*
X74968816Y-97125075D01*
X75211924Y-95746344D01*
X76196732Y-95919993D01*
X75953624Y-97298724D01*
G37*
G36*
X76570076Y-93802656D02*
G01*
X75585268Y-93629007D01*
X75828376Y-92250276D01*
X76813184Y-92423925D01*
X76570076Y-93802656D01*
G37*
X34425500Y-91469500D03*
X34425500Y-87919500D03*
X10740000Y-91456800D03*
X10740000Y-87906800D03*
X336258690Y-59797050D03*
X336258690Y-56247050D03*
X317899660Y-76966100D03*
X317899660Y-73416100D03*
X286939600Y-72221380D03*
X286939600Y-68671380D03*
X260665840Y-72239160D03*
X260665840Y-68689160D03*
X241709820Y-71863240D03*
X241709820Y-68313240D03*
G36*
X221301084Y-73325275D02*
G01*
X220316276Y-73498924D01*
X220073168Y-72120193D01*
X221057976Y-71946544D01*
X221301084Y-73325275D01*
G37*
G36*
X220684632Y-69829207D02*
G01*
X219699824Y-70002856D01*
X219456716Y-68624125D01*
X220441524Y-68450476D01*
X220684632Y-69829207D01*
G37*
G36*
X202566044Y-76909215D02*
G01*
X201581236Y-77082864D01*
X201338128Y-75704133D01*
X202322936Y-75530484D01*
X202566044Y-76909215D01*
G37*
G36*
X201949592Y-73413147D02*
G01*
X200964784Y-73586796D01*
X200721676Y-72208065D01*
X201706484Y-72034416D01*
X201949592Y-73413147D01*
G37*
G36*
X183554144Y-79276495D02*
G01*
X182569336Y-79450144D01*
X182326228Y-78071413D01*
X183311036Y-77897764D01*
X183554144Y-79276495D01*
G37*
G36*
X182937692Y-75780427D02*
G01*
X181952884Y-75954076D01*
X181709776Y-74575345D01*
X182694584Y-74401696D01*
X182937692Y-75780427D01*
G37*
G36*
X164930864Y-82969655D02*
G01*
X163946056Y-83143304D01*
X163702948Y-81764573D01*
X164687756Y-81590924D01*
X164930864Y-82969655D01*
G37*
G36*
X164314412Y-79473587D02*
G01*
X163329604Y-79647236D01*
X163086496Y-78268505D01*
X164071304Y-78094856D01*
X164314412Y-79473587D01*
G37*
G36*
X128531624Y-87138724D02*
G01*
X127546816Y-86965075D01*
X127789924Y-85586344D01*
X128774732Y-85759993D01*
X128531624Y-87138724D01*
G37*
G36*
X129148076Y-83642656D02*
G01*
X128163268Y-83469007D01*
X128406376Y-82090276D01*
X129391184Y-82263925D01*
X129148076Y-83642656D01*
G37*
G36*
X109905804Y-83316024D02*
G01*
X108920996Y-83142375D01*
X109164104Y-81763644D01*
X110148912Y-81937293D01*
X109905804Y-83316024D01*
G37*
G36*
X110522256Y-79819956D02*
G01*
X109537448Y-79646307D01*
X109780556Y-78267576D01*
X110765364Y-78441225D01*
X110522256Y-79819956D01*
G37*
G36*
X91122504Y-80006404D02*
G01*
X90137696Y-79832755D01*
X90380804Y-78454024D01*
X91365612Y-78627673D01*
X91122504Y-80006404D01*
G37*
G36*
X91738956Y-76510336D02*
G01*
X90754148Y-76336687D01*
X90997256Y-74957956D01*
X91982064Y-75131605D01*
X91738956Y-76510336D01*
G37*
G36*
X72374764Y-76503744D02*
G01*
X71389956Y-76330095D01*
X71633064Y-74951364D01*
X72617872Y-75125013D01*
X72374764Y-76503744D01*
G37*
G36*
X72991216Y-73007676D02*
G01*
X72006408Y-72834027D01*
X72249516Y-71455296D01*
X73234324Y-71628945D01*
X72991216Y-73007676D01*
G37*
X51253000Y-72483000D03*
X51253000Y-68933000D03*
X28520000Y-72466546D03*
X28520000Y-68916546D03*
X331567400Y-36846800D03*
X331567400Y-33296800D03*
X306634760Y-53714940D03*
X306634760Y-50164940D03*
X267429860Y-53148520D03*
X267429860Y-49598520D03*
X248372240Y-52637980D03*
X248372240Y-49087980D03*
G36*
X227295484Y-52395675D02*
G01*
X226310676Y-52569324D01*
X226067568Y-51190593D01*
X227052376Y-51016944D01*
X227295484Y-52395675D01*
G37*
G36*
X226679032Y-48899607D02*
G01*
X225694224Y-49073256D01*
X225451116Y-47694525D01*
X226435924Y-47520876D01*
X226679032Y-48899607D01*
G37*
G36*
X208649344Y-56523175D02*
G01*
X207664536Y-56696824D01*
X207421428Y-55318093D01*
X208406236Y-55144444D01*
X208649344Y-56523175D01*
G37*
G36*
X208032892Y-53027107D02*
G01*
X207048084Y-53200756D01*
X206804976Y-51822025D01*
X207789784Y-51648376D01*
X208032892Y-53027107D01*
G37*
G36*
X189645064Y-58707575D02*
G01*
X188660256Y-58881224D01*
X188417148Y-57502493D01*
X189401956Y-57328844D01*
X189645064Y-58707575D01*
G37*
G36*
X189028612Y-55211507D02*
G01*
X188043804Y-55385156D01*
X187800696Y-54006425D01*
X188785504Y-53832776D01*
X189028612Y-55211507D01*
G37*
G36*
X171049724Y-62728395D02*
G01*
X170064916Y-62902044D01*
X169821808Y-61523313D01*
X170806616Y-61349664D01*
X171049724Y-62728395D01*
G37*
G36*
X170433272Y-59232327D02*
G01*
X169448464Y-59405976D01*
X169205356Y-58027245D01*
X170190164Y-57853596D01*
X170433272Y-59232327D01*
G37*
G36*
X122435624Y-66755224D02*
G01*
X121450816Y-66581575D01*
X121693924Y-65202844D01*
X122678732Y-65376493D01*
X122435624Y-66755224D01*
G37*
G36*
X123052076Y-63259156D02*
G01*
X122067268Y-63085507D01*
X122310376Y-61706776D01*
X123295184Y-61880425D01*
X123052076Y-63259156D01*
G37*
G36*
X103703124Y-63135724D02*
G01*
X102718316Y-62962075D01*
X102961424Y-61583344D01*
X103946232Y-61756993D01*
X103703124Y-63135724D01*
G37*
G36*
X104319576Y-59639656D02*
G01*
X103334768Y-59466007D01*
X103577876Y-58087276D01*
X104562684Y-58260925D01*
X104319576Y-59639656D01*
G37*
G36*
X85163664Y-58911704D02*
G01*
X84178856Y-58738055D01*
X84421964Y-57359324D01*
X85406772Y-57532973D01*
X85163664Y-58911704D01*
G37*
G36*
X85780116Y-55415636D02*
G01*
X84795308Y-55241987D01*
X85038416Y-53863256D01*
X86023224Y-54036905D01*
X85780116Y-55415636D01*
G37*
G36*
X66174624Y-56785724D02*
G01*
X65189816Y-56612075D01*
X65432924Y-55233344D01*
X66417732Y-55406993D01*
X66174624Y-56785724D01*
G37*
G36*
X66791076Y-53289656D02*
G01*
X65806268Y-53116007D01*
X66049376Y-51737276D01*
X67034184Y-51910925D01*
X66791076Y-53289656D01*
G37*
X44461040Y-53143440D03*
X44461040Y-49593440D03*
X18502240Y-52404300D03*
X18502240Y-48854300D03*
X326843000Y-14489720D03*
X326843000Y-10939720D03*
X303637560Y-34113760D03*
X303637560Y-30563760D03*
X279789500Y-33171420D03*
X279789500Y-29621420D03*
X260762360Y-34106140D03*
X260762360Y-30556140D03*
X241730140Y-34103600D03*
X241730140Y-30553600D03*
G36*
X219200504Y-34117835D02*
G01*
X218215696Y-34291484D01*
X217972588Y-32912753D01*
X218957396Y-32739104D01*
X219200504Y-34117835D01*
G37*
G36*
X218584052Y-30621767D02*
G01*
X217599244Y-30795416D01*
X217356136Y-29416685D01*
X218340944Y-29243036D01*
X218584052Y-30621767D01*
G37*
G36*
X200503564Y-37798295D02*
G01*
X199518756Y-37971944D01*
X199275648Y-36593213D01*
X200260456Y-36419564D01*
X200503564Y-37798295D01*
G37*
G36*
X199887112Y-34302227D02*
G01*
X198902304Y-34475876D01*
X198659196Y-33097145D01*
X199644004Y-32923496D01*
X199887112Y-34302227D01*
G37*
G36*
X181814244Y-41499075D02*
G01*
X180829436Y-41672724D01*
X180586328Y-40293993D01*
X181571136Y-40120344D01*
X181814244Y-41499075D01*
G37*
G36*
X181197792Y-38003007D02*
G01*
X180212984Y-38176656D01*
X179969876Y-36797925D01*
X180954684Y-36624276D01*
X181197792Y-38003007D01*
G37*
G36*
X163023324Y-44575015D02*
G01*
X162038516Y-44748664D01*
X161795408Y-43369933D01*
X162780216Y-43196284D01*
X163023324Y-44575015D01*
G37*
G36*
X162406872Y-41078947D02*
G01*
X161422064Y-41252596D01*
X161178956Y-39873865D01*
X162163764Y-39700216D01*
X162406872Y-41078947D01*
G37*
G36*
X121102124Y-46879724D02*
G01*
X120117316Y-46706075D01*
X120360424Y-45327344D01*
X121345232Y-45500993D01*
X121102124Y-46879724D01*
G37*
G36*
X121718576Y-43383656D02*
G01*
X120733768Y-43210007D01*
X120976876Y-41831276D01*
X121961684Y-42004925D01*
X121718576Y-43383656D01*
G37*
G36*
X102448364Y-43186564D02*
G01*
X101463556Y-43012915D01*
X101706664Y-41634184D01*
X102691472Y-41807833D01*
X102448364Y-43186564D01*
G37*
G36*
X103064816Y-39690496D02*
G01*
X102080008Y-39516847D01*
X102323116Y-38138116D01*
X103307924Y-38311765D01*
X103064816Y-39690496D01*
G37*
G36*
X83657444Y-39935364D02*
G01*
X82672636Y-39761715D01*
X82915744Y-38382984D01*
X83900552Y-38556633D01*
X83657444Y-39935364D01*
G37*
G36*
X84273896Y-36439296D02*
G01*
X83289088Y-36265647D01*
X83532196Y-34886916D01*
X84517004Y-35060565D01*
X84273896Y-36439296D01*
G37*
G36*
X64947804Y-36356504D02*
G01*
X63962996Y-36182855D01*
X64206104Y-34804124D01*
X65190912Y-34977773D01*
X64947804Y-36356504D01*
G37*
G36*
X65564256Y-32860436D02*
G01*
X64579448Y-32686787D01*
X64822556Y-31308056D01*
X65807364Y-31481705D01*
X65564256Y-32860436D01*
G37*
X41669580Y-33298420D03*
X41669580Y-29748420D03*
X17852000Y-34383000D03*
X17852000Y-30833000D03*
X304084600Y-15064220D03*
X304084600Y-11514220D03*
X302352320Y-15076460D03*
X302352320Y-11526460D03*
X265509620Y-15061220D03*
X265509620Y-11511220D03*
X246441840Y-14103640D03*
X246441840Y-10553640D03*
G36*
X225278724Y-13769895D02*
G01*
X224293916Y-13943544D01*
X224050808Y-12564813D01*
X225035616Y-12391164D01*
X225278724Y-13769895D01*
G37*
G36*
X224662272Y-10273827D02*
G01*
X223677464Y-10447476D01*
X223434356Y-9068745D01*
X224419164Y-8895096D01*
X224662272Y-10273827D01*
G37*
G36*
X206650364Y-17907555D02*
G01*
X205665556Y-18081204D01*
X205422448Y-16702473D01*
X206407256Y-16528824D01*
X206650364Y-17907555D01*
G37*
G36*
X206033912Y-14411487D02*
G01*
X205049104Y-14585136D01*
X204805996Y-13206405D01*
X205790804Y-13032756D01*
X206033912Y-14411487D01*
G37*
G36*
X187884844Y-21115575D02*
G01*
X186900036Y-21289224D01*
X186656928Y-19910493D01*
X187641736Y-19736844D01*
X187884844Y-21115575D01*
G37*
G36*
X187268392Y-17619507D02*
G01*
X186283584Y-17793156D01*
X186040476Y-16414425D01*
X187025284Y-16240776D01*
X187268392Y-17619507D01*
G37*
G36*
X169121864Y-24315975D02*
G01*
X168137056Y-24489624D01*
X167893948Y-23110893D01*
X168878756Y-22937244D01*
X169121864Y-24315975D01*
G37*
G36*
X168505412Y-20819907D02*
G01*
X167520604Y-20993556D01*
X167277496Y-19614825D01*
X168262304Y-19441176D01*
X168505412Y-20819907D01*
G37*
G36*
X133675124Y-30242724D02*
G01*
X132690316Y-30069075D01*
X132933424Y-28690344D01*
X133918232Y-28863993D01*
X133675124Y-30242724D01*
G37*
G36*
X134291576Y-26746656D02*
G01*
X133306768Y-26573007D01*
X133549876Y-25194276D01*
X134534684Y-25367925D01*
X134291576Y-26746656D01*
G37*
G36*
X114942624Y-26877224D02*
G01*
X113957816Y-26703575D01*
X114200924Y-25324844D01*
X115185732Y-25498493D01*
X114942624Y-26877224D01*
G37*
G36*
X115559076Y-23381156D02*
G01*
X114574268Y-23207507D01*
X114817376Y-21828776D01*
X115802184Y-22002425D01*
X115559076Y-23381156D01*
G37*
G36*
X96326964Y-22980864D02*
G01*
X95342156Y-22807215D01*
X95585264Y-21428484D01*
X96570072Y-21602133D01*
X96326964Y-22980864D01*
G37*
G36*
X96943416Y-19484796D02*
G01*
X95958608Y-19311147D01*
X96201716Y-17932416D01*
X97186524Y-18106065D01*
X96943416Y-19484796D01*
G37*
G36*
X77619864Y-19277544D02*
G01*
X76635056Y-19103895D01*
X76878164Y-17725164D01*
X77862972Y-17898813D01*
X77619864Y-19277544D01*
G37*
G36*
X78236316Y-15781476D02*
G01*
X77251508Y-15607827D01*
X77494616Y-14229096D01*
X78479424Y-14402745D01*
X78236316Y-15781476D01*
G37*
G36*
X59001664Y-16552124D02*
G01*
X58016856Y-16378475D01*
X58259964Y-14999744D01*
X59244772Y-15173393D01*
X59001664Y-16552124D01*
G37*
G36*
X59618116Y-13056056D02*
G01*
X58633308Y-12882407D01*
X58876416Y-11503676D01*
X59861224Y-11677325D01*
X59618116Y-13056056D01*
G37*
X36940100Y-15315220D03*
X36940100Y-11765220D03*
X17994240Y-15071380D03*
X17994240Y-11521380D03*
D13*
X335987000Y-50108600D03*
D14*
X333447000Y-55188600D03*
D13*
X329637000Y-52648600D03*
D15*
X328367000Y-55188600D03*
X338527000Y-55188600D03*
D13*
X331211800Y-27248600D03*
D14*
X328671800Y-32328600D03*
D13*
X324861800Y-29788600D03*
D15*
X323591800Y-32328600D03*
X333751800Y-32328600D03*
D13*
X326487400Y-4388600D03*
D14*
X323947400Y-9468600D03*
D13*
X320137400Y-6928600D03*
D15*
X318867400Y-9468600D03*
X329027400Y-9468600D03*
G36*
G01*
X286145000Y-17951250D02*
X286145000Y-17038750D01*
G75*
G02*
X286388750Y-16795000I243750J0D01*
G01*
X286876250Y-16795000D01*
G75*
G02*
X287120000Y-17038750I0J-243750D01*
G01*
X287120000Y-17951250D01*
G75*
G02*
X286876250Y-18195000I-243750J0D01*
G01*
X286388750Y-18195000D01*
G75*
G02*
X286145000Y-17951250I0J243750D01*
G01*
G37*
G36*
G01*
X284270000Y-17951250D02*
X284270000Y-17038750D01*
G75*
G02*
X284513750Y-16795000I243750J0D01*
G01*
X285001250Y-16795000D01*
G75*
G02*
X285245000Y-17038750I0J-243750D01*
G01*
X285245000Y-17951250D01*
G75*
G02*
X285001250Y-18195000I-243750J0D01*
G01*
X284513750Y-18195000D01*
G75*
G02*
X284270000Y-17951250I0J243750D01*
G01*
G37*
G36*
G01*
X306405210Y-9071940D02*
X305492710Y-9071940D01*
G75*
G02*
X305248960Y-8828190I0J243750D01*
G01*
X305248960Y-8340690D01*
G75*
G02*
X305492710Y-8096940I243750J0D01*
G01*
X306405210Y-8096940D01*
G75*
G02*
X306648960Y-8340690I0J-243750D01*
G01*
X306648960Y-8828190D01*
G75*
G02*
X306405210Y-9071940I-243750J0D01*
G01*
G37*
G36*
G01*
X306405210Y-10946940D02*
X305492710Y-10946940D01*
G75*
G02*
X305248960Y-10703190I0J243750D01*
G01*
X305248960Y-10215690D01*
G75*
G02*
X305492710Y-9971940I243750J0D01*
G01*
X306405210Y-9971940D01*
G75*
G02*
X306648960Y-10215690I0J-243750D01*
G01*
X306648960Y-10703190D01*
G75*
G02*
X306405210Y-10946940I-243750J0D01*
G01*
G37*
G36*
G01*
X148209400Y-55283040D02*
X145609400Y-55283040D01*
G75*
G02*
X145509400Y-55183040I0J100000D01*
G01*
X145509400Y-54983040D01*
G75*
G02*
X145609400Y-54883040I100000J0D01*
G01*
X148209400Y-54883040D01*
G75*
G02*
X148309400Y-54983040I0J-100000D01*
G01*
X148309400Y-55183040D01*
G75*
G02*
X148209400Y-55283040I-100000J0D01*
G01*
G37*
G36*
G01*
X148209400Y-54083040D02*
X145609400Y-54083040D01*
G75*
G02*
X145509400Y-53983040I0J100000D01*
G01*
X145509400Y-53783040D01*
G75*
G02*
X145609400Y-53683040I100000J0D01*
G01*
X148209400Y-53683040D01*
G75*
G02*
X148309400Y-53783040I0J-100000D01*
G01*
X148309400Y-53983040D01*
G75*
G02*
X148209400Y-54083040I-100000J0D01*
G01*
G37*
G36*
G01*
X148209400Y-52883040D02*
X145609400Y-52883040D01*
G75*
G02*
X145509400Y-52783040I0J100000D01*
G01*
X145509400Y-52583040D01*
G75*
G02*
X145609400Y-52483040I100000J0D01*
G01*
X148209400Y-52483040D01*
G75*
G02*
X148309400Y-52583040I0J-100000D01*
G01*
X148309400Y-52783040D01*
G75*
G02*
X148209400Y-52883040I-100000J0D01*
G01*
G37*
D13*
X292607500Y-42454746D03*
D14*
X290067500Y-47534746D03*
D13*
X286257500Y-44994746D03*
D15*
X284987500Y-47534746D03*
X295147500Y-47534746D03*
D16*
X278161250Y-54519746D03*
X301973750Y-54519746D03*
D14*
X278161250Y-39279746D03*
X301973750Y-39279746D03*
G36*
X145455893Y-78611397D02*
G01*
X145646906Y-79694686D01*
X143874253Y-80007253D01*
X143683240Y-78923964D01*
X145455893Y-78611397D01*
G37*
G36*
X138707587Y-76044227D02*
G01*
X138898600Y-77127516D01*
X137125947Y-77440083D01*
X136934934Y-76356794D01*
X138707587Y-76044227D01*
G37*
G36*
X144813395Y-74967608D02*
G01*
X145004408Y-76050897D01*
X143231755Y-76363464D01*
X143040742Y-75280175D01*
X144813395Y-74967608D01*
G37*
G36*
X139350085Y-79688016D02*
G01*
X139541098Y-80771305D01*
X137768445Y-81083872D01*
X137577432Y-80000583D01*
X139350085Y-79688016D01*
G37*
D18*
X326148940Y-95040500D03*
X326148940Y-96540500D03*
X331148940Y-96540500D03*
X331148940Y-95040500D03*
X306977020Y-95022720D03*
X306977020Y-96522720D03*
X311977020Y-96522720D03*
X311977020Y-95022720D03*
X292937180Y-96545580D03*
X292937180Y-95045580D03*
X287937180Y-95045580D03*
X287937180Y-96545580D03*
X261792960Y-90270380D03*
X261792960Y-91770380D03*
X266792960Y-91770380D03*
X266792960Y-90270380D03*
X242856000Y-91752600D03*
X242856000Y-90252600D03*
X237856000Y-90252600D03*
X237856000Y-91752600D03*
G36*
X206907615Y-93254640D02*
G01*
X207050007Y-94062183D01*
X205277353Y-94374750D01*
X205134961Y-93567207D01*
X206907615Y-93254640D01*
G37*
G36*
X207168088Y-94731851D02*
G01*
X207310480Y-95539394D01*
X205537826Y-95851961D01*
X205395434Y-95044418D01*
X207168088Y-94731851D01*
G37*
G36*
X212092127Y-93863610D02*
G01*
X212234519Y-94671153D01*
X210461865Y-94983720D01*
X210319473Y-94176177D01*
X212092127Y-93863610D01*
G37*
G36*
X211831654Y-92386399D02*
G01*
X211974046Y-93193942D01*
X210201392Y-93506509D01*
X210059000Y-92698966D01*
X211831654Y-92386399D01*
G37*
G36*
X174047635Y-99043300D02*
G01*
X174190027Y-99850843D01*
X172417373Y-100163410D01*
X172274981Y-99355867D01*
X174047635Y-99043300D01*
G37*
G36*
X174308108Y-100520511D02*
G01*
X174450500Y-101328054D01*
X172677846Y-101640621D01*
X172535454Y-100833078D01*
X174308108Y-100520511D01*
G37*
G36*
X179232147Y-99652270D02*
G01*
X179374539Y-100459813D01*
X177601885Y-100772380D01*
X177459493Y-99964837D01*
X179232147Y-99652270D01*
G37*
G36*
X178971674Y-98175059D02*
G01*
X179114066Y-98982602D01*
X177341412Y-99295169D01*
X177199020Y-98487626D01*
X178971674Y-98175059D01*
G37*
G36*
X106475260Y-102163714D02*
G01*
X106617652Y-101356171D01*
X108390306Y-101668738D01*
X108247914Y-102476281D01*
X106475260Y-102163714D01*
G37*
G36*
X106735733Y-100686503D02*
G01*
X106878125Y-99878960D01*
X108650779Y-100191527D01*
X108508387Y-100999070D01*
X106735733Y-100686503D01*
G37*
G36*
X101811694Y-99818262D02*
G01*
X101954086Y-99010719D01*
X103726740Y-99323286D01*
X103584348Y-100130829D01*
X101811694Y-99818262D01*
G37*
G36*
X101551221Y-101295473D02*
G01*
X101693613Y-100487930D01*
X103466267Y-100800497D01*
X103323875Y-101608040D01*
X101551221Y-101295473D01*
G37*
G36*
X64086221Y-94691473D02*
G01*
X64228613Y-93883930D01*
X66001267Y-94196497D01*
X65858875Y-95004040D01*
X64086221Y-94691473D01*
G37*
G36*
X64346694Y-93214262D02*
G01*
X64489086Y-92406719D01*
X66261740Y-92719286D01*
X66119348Y-93526829D01*
X64346694Y-93214262D01*
G37*
G36*
X69270733Y-94082503D02*
G01*
X69413125Y-93274960D01*
X71185779Y-93587527D01*
X71043387Y-94395070D01*
X69270733Y-94082503D01*
G37*
G36*
X69010260Y-95559714D02*
G01*
X69152652Y-94752171D01*
X70925306Y-95064738D01*
X70782914Y-95872281D01*
X69010260Y-95559714D01*
G37*
X23543500Y-90278000D03*
X23543500Y-91778000D03*
X28543500Y-91778000D03*
X28543500Y-90278000D03*
X4858000Y-91778000D03*
X4858000Y-90278000D03*
X-142000Y-90278000D03*
X-142000Y-91778000D03*
X306997340Y-75995580D03*
X306997340Y-77495580D03*
X311997340Y-77495580D03*
X311997340Y-75995580D03*
X280762960Y-72748320D03*
X280762960Y-71248320D03*
X275762960Y-71248320D03*
X275762960Y-72748320D03*
X249981960Y-71212760D03*
X249981960Y-72712760D03*
X254981960Y-72712760D03*
X254981960Y-71212760D03*
X235632240Y-72717840D03*
X235632240Y-71217840D03*
X230632240Y-71217840D03*
X230632240Y-72717840D03*
G36*
X210659195Y-73234360D02*
G01*
X210801587Y-74041903D01*
X209028933Y-74354470D01*
X208886541Y-73546927D01*
X210659195Y-73234360D01*
G37*
G36*
X210919668Y-74711571D02*
G01*
X211062060Y-75519114D01*
X209289406Y-75831681D01*
X209147014Y-75024138D01*
X210919668Y-74711571D01*
G37*
G36*
X215843707Y-73843330D02*
G01*
X215986099Y-74650873D01*
X214213445Y-74963440D01*
X214071053Y-74155897D01*
X215843707Y-73843330D01*
G37*
G36*
X215583234Y-72366119D02*
G01*
X215725626Y-73173662D01*
X213952972Y-73486229D01*
X213810580Y-72678686D01*
X215583234Y-72366119D01*
G37*
G36*
X195539365Y-78270520D02*
G01*
X195396973Y-77462977D01*
X197169627Y-77150410D01*
X197312019Y-77957953D01*
X195539365Y-78270520D01*
G37*
G36*
X195278892Y-76793309D02*
G01*
X195136500Y-75985766D01*
X196909154Y-75673199D01*
X197051546Y-76480742D01*
X195278892Y-76793309D01*
G37*
G36*
X190354853Y-77661550D02*
G01*
X190212461Y-76854007D01*
X191985115Y-76541440D01*
X192127507Y-77348983D01*
X190354853Y-77661550D01*
G37*
G36*
X190615326Y-79138761D02*
G01*
X190472934Y-78331218D01*
X192245588Y-78018651D01*
X192387980Y-78826194D01*
X190615326Y-79138761D01*
G37*
G36*
X173123075Y-79848520D02*
G01*
X173265467Y-80656063D01*
X171492813Y-80968630D01*
X171350421Y-80161087D01*
X173123075Y-79848520D01*
G37*
G36*
X173383548Y-81325731D02*
G01*
X173525940Y-82133274D01*
X171753286Y-82445841D01*
X171610894Y-81638298D01*
X173383548Y-81325731D01*
G37*
G36*
X178307587Y-80457490D02*
G01*
X178449979Y-81265033D01*
X176677325Y-81577600D01*
X176534933Y-80770057D01*
X178307587Y-80457490D01*
G37*
G36*
X178047114Y-78980279D02*
G01*
X178189506Y-79787822D01*
X176416852Y-80100389D01*
X176274460Y-79292846D01*
X178047114Y-78980279D01*
G37*
G36*
X158079445Y-84877060D02*
G01*
X157937053Y-84069517D01*
X159709707Y-83756950D01*
X159852099Y-84564493D01*
X158079445Y-84877060D01*
G37*
G36*
X157818972Y-83399849D02*
G01*
X157676580Y-82592306D01*
X159449234Y-82279739D01*
X159591626Y-83087282D01*
X157818972Y-83399849D01*
G37*
G36*
X152894933Y-84268090D02*
G01*
X152752541Y-83460547D01*
X154525195Y-83147980D01*
X154667587Y-83955523D01*
X152894933Y-84268090D01*
G37*
G36*
X153155406Y-85745301D02*
G01*
X153013014Y-84937758D01*
X154785668Y-84625191D01*
X154928060Y-85432734D01*
X153155406Y-85745301D01*
G37*
G36*
X118649240Y-82559286D02*
G01*
X118506848Y-83366829D01*
X116734194Y-83054262D01*
X116876586Y-82246719D01*
X118649240Y-82559286D01*
G37*
G36*
X118388767Y-84036497D02*
G01*
X118246375Y-84844040D01*
X116473721Y-84531473D01*
X116616113Y-83723930D01*
X118388767Y-84036497D01*
G37*
G36*
X123312806Y-84904738D02*
G01*
X123170414Y-85712281D01*
X121397760Y-85399714D01*
X121540152Y-84592171D01*
X123312806Y-84904738D01*
G37*
G36*
X123573279Y-83427527D02*
G01*
X123430887Y-84235070D01*
X121658233Y-83922503D01*
X121800625Y-83114960D01*
X123573279Y-83427527D01*
G37*
G36*
X102792260Y-82161214D02*
G01*
X102934652Y-81353671D01*
X104707306Y-81666238D01*
X104564914Y-82473781D01*
X102792260Y-82161214D01*
G37*
G36*
X103052733Y-80684003D02*
G01*
X103195125Y-79876460D01*
X104967779Y-80189027D01*
X104825387Y-80996570D01*
X103052733Y-80684003D01*
G37*
G36*
X98128694Y-79815762D02*
G01*
X98271086Y-79008219D01*
X100043740Y-79320786D01*
X99901348Y-80128329D01*
X98128694Y-79815762D01*
G37*
G36*
X97868221Y-81292973D02*
G01*
X98010613Y-80485430D01*
X99783267Y-80797997D01*
X99640875Y-81605540D01*
X97868221Y-81292973D01*
G37*
G36*
X81374740Y-76018786D02*
G01*
X81232348Y-76826329D01*
X79459694Y-76513762D01*
X79602086Y-75706219D01*
X81374740Y-76018786D01*
G37*
G36*
X81114267Y-77495997D02*
G01*
X80971875Y-78303540D01*
X79199221Y-77990973D01*
X79341613Y-77183430D01*
X81114267Y-77495997D01*
G37*
G36*
X86038306Y-78364238D02*
G01*
X85895914Y-79171781D01*
X84123260Y-78859214D01*
X84265652Y-78051671D01*
X86038306Y-78364238D01*
G37*
G36*
X86298779Y-76887027D02*
G01*
X86156387Y-77694570D01*
X84383733Y-77382003D01*
X84526125Y-76574460D01*
X86298779Y-76887027D01*
G37*
G36*
X65263760Y-75557214D02*
G01*
X65406152Y-74749671D01*
X67178806Y-75062238D01*
X67036414Y-75869781D01*
X65263760Y-75557214D01*
G37*
G36*
X65524233Y-74080003D02*
G01*
X65666625Y-73272460D01*
X67439279Y-73585027D01*
X67296887Y-74392570D01*
X65524233Y-74080003D01*
G37*
G36*
X60600194Y-73211762D02*
G01*
X60742586Y-72404219D01*
X62515240Y-72716786D01*
X62372848Y-73524329D01*
X60600194Y-73211762D01*
G37*
G36*
X60339721Y-74688973D02*
G01*
X60482113Y-73881430D01*
X62254767Y-74193997D01*
X62112375Y-75001540D01*
X60339721Y-74688973D01*
G37*
X40371000Y-71228000D03*
X40371000Y-72728000D03*
X45371000Y-72728000D03*
X45371000Y-71228000D03*
X14446500Y-72728000D03*
X14446500Y-71228000D03*
X9446500Y-71228000D03*
X9446500Y-72728000D03*
X287510460Y-52160220D03*
X287510460Y-53660220D03*
X292510460Y-53660220D03*
X292510460Y-52160220D03*
X256573260Y-52178000D03*
X256573260Y-53678000D03*
X261573260Y-53678000D03*
X261573260Y-52178000D03*
X242342920Y-53650060D03*
X242342920Y-52150060D03*
X237342920Y-52150060D03*
X237342920Y-53650060D03*
G36*
X216678995Y-52822920D02*
G01*
X216821387Y-53630463D01*
X215048733Y-53943030D01*
X214906341Y-53135487D01*
X216678995Y-52822920D01*
G37*
G36*
X216939468Y-54300131D02*
G01*
X217081860Y-55107674D01*
X215309206Y-55420241D01*
X215166814Y-54612698D01*
X216939468Y-54300131D01*
G37*
G36*
X221863507Y-53431890D02*
G01*
X222005899Y-54239433D01*
X220233245Y-54552000D01*
X220090853Y-53744457D01*
X221863507Y-53431890D01*
G37*
G36*
X221603034Y-51954679D02*
G01*
X221745426Y-52762222D01*
X219972772Y-53074789D01*
X219830380Y-52267246D01*
X221603034Y-51954679D01*
G37*
G36*
X201452485Y-57884480D02*
G01*
X201310093Y-57076937D01*
X203082747Y-56764370D01*
X203225139Y-57571913D01*
X201452485Y-57884480D01*
G37*
G36*
X201192012Y-56407269D02*
G01*
X201049620Y-55599726D01*
X202822274Y-55287159D01*
X202964666Y-56094702D01*
X201192012Y-56407269D01*
G37*
G36*
X196267973Y-57275510D02*
G01*
X196125581Y-56467967D01*
X197898235Y-56155400D01*
X198040627Y-56962943D01*
X196267973Y-57275510D01*
G37*
G36*
X196528446Y-58752721D02*
G01*
X196386054Y-57945178D01*
X198158708Y-57632611D01*
X198301100Y-58440154D01*
X196528446Y-58752721D01*
G37*
G36*
X179219075Y-59437080D02*
G01*
X179361467Y-60244623D01*
X177588813Y-60557190D01*
X177446421Y-59749647D01*
X179219075Y-59437080D01*
G37*
G36*
X179479548Y-60914291D02*
G01*
X179621940Y-61721834D01*
X177849286Y-62034401D01*
X177706894Y-61226858D01*
X179479548Y-60914291D01*
G37*
G36*
X184403587Y-60046050D02*
G01*
X184545979Y-60853593D01*
X182773325Y-61166160D01*
X182630933Y-60358617D01*
X184403587Y-60046050D01*
G37*
G36*
X184143114Y-58568839D02*
G01*
X184285506Y-59376382D01*
X182512852Y-59688949D01*
X182370460Y-58881406D01*
X184143114Y-58568839D01*
G37*
G36*
X163939225Y-64478320D02*
G01*
X163796833Y-63670777D01*
X165569487Y-63358210D01*
X165711879Y-64165753D01*
X163939225Y-64478320D01*
G37*
G36*
X163678752Y-63001109D02*
G01*
X163536360Y-62193566D01*
X165309014Y-61880999D01*
X165451406Y-62688542D01*
X163678752Y-63001109D01*
G37*
G36*
X158754713Y-63869350D02*
G01*
X158612321Y-63061807D01*
X160384975Y-62749240D01*
X160527367Y-63556783D01*
X158754713Y-63869350D01*
G37*
G36*
X159015186Y-65346561D02*
G01*
X158872794Y-64539018D01*
X160645448Y-64226451D01*
X160787840Y-65033994D01*
X159015186Y-65346561D01*
G37*
G36*
X112743740Y-62239286D02*
G01*
X112601348Y-63046829D01*
X110828694Y-62734262D01*
X110971086Y-61926719D01*
X112743740Y-62239286D01*
G37*
G36*
X112483267Y-63716497D02*
G01*
X112340875Y-64524040D01*
X110568221Y-64211473D01*
X110710613Y-63403930D01*
X112483267Y-63716497D01*
G37*
G36*
X117407306Y-64584738D02*
G01*
X117264914Y-65392281D01*
X115492260Y-65079714D01*
X115634652Y-64272171D01*
X117407306Y-64584738D01*
G37*
G36*
X117667779Y-63107527D02*
G01*
X117525387Y-63915070D01*
X115752733Y-63602503D01*
X115895125Y-62794960D01*
X117667779Y-63107527D01*
G37*
G36*
X96696260Y-61714214D02*
G01*
X96838652Y-60906671D01*
X98611306Y-61219238D01*
X98468914Y-62026781D01*
X96696260Y-61714214D01*
G37*
G36*
X96956733Y-60237003D02*
G01*
X97099125Y-59429460D01*
X98871779Y-59742027D01*
X98729387Y-60549570D01*
X96956733Y-60237003D01*
G37*
G36*
X92032694Y-59368762D02*
G01*
X92175086Y-58561219D01*
X93947740Y-58873786D01*
X93805348Y-59681329D01*
X92032694Y-59368762D01*
G37*
G36*
X91772221Y-60845973D02*
G01*
X91914613Y-60038430D01*
X93687267Y-60350997D01*
X93544875Y-61158540D01*
X91772221Y-60845973D01*
G37*
G36*
X75278740Y-55571786D02*
G01*
X75136348Y-56379329D01*
X73363694Y-56066762D01*
X73506086Y-55259219D01*
X75278740Y-55571786D01*
G37*
G36*
X75018267Y-57048997D02*
G01*
X74875875Y-57856540D01*
X73103221Y-57543973D01*
X73245613Y-56736430D01*
X75018267Y-57048997D01*
G37*
G36*
X79942306Y-57917238D02*
G01*
X79799914Y-58724781D01*
X78027260Y-58412214D01*
X78169652Y-57604671D01*
X79942306Y-57917238D01*
G37*
G36*
X80202779Y-56440027D02*
G01*
X80060387Y-57247570D01*
X78287733Y-56935003D01*
X78430125Y-56127460D01*
X80202779Y-56440027D01*
G37*
G36*
X58659760Y-55046714D02*
G01*
X58802152Y-54239171D01*
X60574806Y-54551738D01*
X60432414Y-55359281D01*
X58659760Y-55046714D01*
G37*
G36*
X58920233Y-53569503D02*
G01*
X59062625Y-52761960D01*
X60835279Y-53074527D01*
X60692887Y-53882070D01*
X58920233Y-53569503D01*
G37*
G36*
X53996194Y-52701262D02*
G01*
X54138586Y-51893719D01*
X55911240Y-52206286D01*
X55768848Y-53013829D01*
X53996194Y-52701262D01*
G37*
G36*
X53735721Y-54178473D02*
G01*
X53878113Y-53370930D01*
X55650767Y-53683497D01*
X55508375Y-54491040D01*
X53735721Y-54178473D01*
G37*
X33703500Y-52178000D03*
X33703500Y-53678000D03*
X38703500Y-53678000D03*
X38703500Y-52178000D03*
X12478000Y-53741500D03*
X12478000Y-52241500D03*
X7478000Y-52241500D03*
X7478000Y-53741500D03*
X292816520Y-33128000D03*
X292816520Y-34628000D03*
X297816520Y-34628000D03*
X297816520Y-33128000D03*
X273887180Y-34615300D03*
X273887180Y-33115300D03*
X268887180Y-33115300D03*
X268887180Y-34615300D03*
X249854960Y-33105140D03*
X249854960Y-34605140D03*
X254854960Y-34605140D03*
X254854960Y-33105140D03*
X235822740Y-34610220D03*
X235822740Y-33110220D03*
X230822740Y-33110220D03*
X230822740Y-34610220D03*
G36*
X208741495Y-34870200D02*
G01*
X208883887Y-35677743D01*
X207111233Y-35990310D01*
X206968841Y-35182767D01*
X208741495Y-34870200D01*
G37*
G36*
X209001968Y-36347411D02*
G01*
X209144360Y-37154954D01*
X207371706Y-37467521D01*
X207229314Y-36659978D01*
X209001968Y-36347411D01*
G37*
G36*
X213926007Y-35479170D02*
G01*
X214068399Y-36286713D01*
X212295745Y-36599280D01*
X212153353Y-35791737D01*
X213926007Y-35479170D01*
G37*
G36*
X213665534Y-34001959D02*
G01*
X213807926Y-34809502D01*
X212035272Y-35122069D01*
X211892880Y-34314526D01*
X213665534Y-34001959D01*
G37*
G36*
X193454025Y-39941920D02*
G01*
X193311633Y-39134377D01*
X195084287Y-38821810D01*
X195226679Y-39629353D01*
X193454025Y-39941920D01*
G37*
G36*
X193193552Y-38464709D02*
G01*
X193051160Y-37657166D01*
X194823814Y-37344599D01*
X194966206Y-38152142D01*
X193193552Y-38464709D01*
G37*
G36*
X188269513Y-39332950D02*
G01*
X188127121Y-38525407D01*
X189899775Y-38212840D01*
X190042167Y-39020383D01*
X188269513Y-39332950D01*
G37*
G36*
X188529986Y-40810161D02*
G01*
X188387594Y-40002618D01*
X190160248Y-39690051D01*
X190302640Y-40497594D01*
X188529986Y-40810161D01*
G37*
G36*
X171317135Y-41484360D02*
G01*
X171459527Y-42291903D01*
X169686873Y-42604470D01*
X169544481Y-41796927D01*
X171317135Y-41484360D01*
G37*
G36*
X171577608Y-42961571D02*
G01*
X171720000Y-43769114D01*
X169947346Y-44081681D01*
X169804954Y-43274138D01*
X171577608Y-42961571D01*
G37*
G36*
X176501647Y-42093330D02*
G01*
X176644039Y-42900873D01*
X174871385Y-43213440D01*
X174728993Y-42405897D01*
X176501647Y-42093330D01*
G37*
G36*
X176241174Y-40616119D02*
G01*
X176383566Y-41423662D01*
X174610912Y-41736229D01*
X174468520Y-40928686D01*
X176241174Y-40616119D01*
G37*
G36*
X156098245Y-46517980D02*
G01*
X155955853Y-45710437D01*
X157728507Y-45397870D01*
X157870899Y-46205413D01*
X156098245Y-46517980D01*
G37*
G36*
X155837772Y-45040769D02*
G01*
X155695380Y-44233226D01*
X157468034Y-43920659D01*
X157610426Y-44728202D01*
X155837772Y-45040769D01*
G37*
G36*
X150913733Y-45909010D02*
G01*
X150771341Y-45101467D01*
X152543995Y-44788900D01*
X152686387Y-45596443D01*
X150913733Y-45909010D01*
G37*
G36*
X151174206Y-47386221D02*
G01*
X151031814Y-46578678D01*
X152804468Y-46266111D01*
X152946860Y-47073654D01*
X151174206Y-47386221D01*
G37*
G36*
X111156240Y-42617786D02*
G01*
X111013848Y-43425329D01*
X109241194Y-43112762D01*
X109383586Y-42305219D01*
X111156240Y-42617786D01*
G37*
G36*
X110895767Y-44094997D02*
G01*
X110753375Y-44902540D01*
X108980721Y-44589973D01*
X109123113Y-43782430D01*
X110895767Y-44094997D01*
G37*
G36*
X115819806Y-44963238D02*
G01*
X115677414Y-45770781D01*
X113904760Y-45458214D01*
X114047152Y-44650671D01*
X115819806Y-44963238D01*
G37*
G36*
X116080279Y-43486027D02*
G01*
X115937887Y-44293570D01*
X114165233Y-43981003D01*
X114307625Y-43173460D01*
X116080279Y-43486027D01*
G37*
G36*
X95362760Y-42156214D02*
G01*
X95505152Y-41348671D01*
X97277806Y-41661238D01*
X97135414Y-42468781D01*
X95362760Y-42156214D01*
G37*
G36*
X95623233Y-40679003D02*
G01*
X95765625Y-39871460D01*
X97538279Y-40184027D01*
X97395887Y-40991570D01*
X95623233Y-40679003D01*
G37*
G36*
X90699194Y-39810762D02*
G01*
X90841586Y-39003219D01*
X92614240Y-39315786D01*
X92471848Y-40123329D01*
X90699194Y-39810762D01*
G37*
G36*
X90438721Y-41287973D02*
G01*
X90581113Y-40480430D01*
X92353767Y-40792997D01*
X92211375Y-41600540D01*
X90438721Y-41287973D01*
G37*
G36*
X73691240Y-35950286D02*
G01*
X73548848Y-36757829D01*
X71776194Y-36445262D01*
X71918586Y-35637719D01*
X73691240Y-35950286D01*
G37*
G36*
X73430767Y-37427497D02*
G01*
X73288375Y-38235040D01*
X71515721Y-37922473D01*
X71658113Y-37114930D01*
X73430767Y-37427497D01*
G37*
G36*
X78354806Y-38295738D02*
G01*
X78212414Y-39103281D01*
X76439760Y-38790714D01*
X76582152Y-37983171D01*
X78354806Y-38295738D01*
G37*
G36*
X78615279Y-36818527D02*
G01*
X78472887Y-37626070D01*
X76700233Y-37313503D01*
X76842625Y-36505960D01*
X78615279Y-36818527D01*
G37*
G36*
X57770760Y-35552214D02*
G01*
X57913152Y-34744671D01*
X59685806Y-35057238D01*
X59543414Y-35864781D01*
X57770760Y-35552214D01*
G37*
G36*
X58031233Y-34075003D02*
G01*
X58173625Y-33267460D01*
X59946279Y-33580027D01*
X59803887Y-34387570D01*
X58031233Y-34075003D01*
G37*
G36*
X53107194Y-33206762D02*
G01*
X53249586Y-32399219D01*
X55022240Y-32711786D01*
X54879848Y-33519329D01*
X53107194Y-33206762D01*
G37*
G36*
X52846721Y-34683973D02*
G01*
X52989113Y-33876430D01*
X54761767Y-34188997D01*
X54619375Y-34996540D01*
X52846721Y-34683973D01*
G37*
X30846000Y-33128000D03*
X30846000Y-34628000D03*
X35846000Y-34628000D03*
X35846000Y-33128000D03*
X11970000Y-34628000D03*
X11970000Y-33128000D03*
X6970000Y-33128000D03*
X6970000Y-34628000D03*
X283205160Y-14083080D03*
X283205160Y-15583080D03*
X288205160Y-15583080D03*
X288205160Y-14083080D03*
X259645400Y-15557680D03*
X259645400Y-14057680D03*
X254645400Y-14057680D03*
X254645400Y-15557680D03*
X235374420Y-14060220D03*
X235374420Y-15560220D03*
X240374420Y-15560220D03*
X240374420Y-14060220D03*
G36*
X218279985Y-16236100D02*
G01*
X218137593Y-15428557D01*
X219910247Y-15115990D01*
X220052639Y-15923533D01*
X218279985Y-16236100D01*
G37*
G36*
X218019512Y-14758889D02*
G01*
X217877120Y-13951346D01*
X219649774Y-13638779D01*
X219792166Y-14446322D01*
X218019512Y-14758889D01*
G37*
G36*
X213095473Y-15627130D02*
G01*
X212953081Y-14819587D01*
X214725735Y-14507020D01*
X214868127Y-15314563D01*
X213095473Y-15627130D01*
G37*
G36*
X213355946Y-17104341D02*
G01*
X213213554Y-16296798D01*
X214986208Y-15984231D01*
X215128600Y-16791774D01*
X213355946Y-17104341D01*
G37*
G36*
X195983075Y-17811560D02*
G01*
X196125467Y-18619103D01*
X194352813Y-18931670D01*
X194210421Y-18124127D01*
X195983075Y-17811560D01*
G37*
G36*
X196243548Y-19288771D02*
G01*
X196385940Y-20096314D01*
X194613286Y-20408881D01*
X194470894Y-19601338D01*
X196243548Y-19288771D01*
G37*
G36*
X201167587Y-18420530D02*
G01*
X201309979Y-19228073D01*
X199537325Y-19540640D01*
X199394933Y-18733097D01*
X201167587Y-18420530D01*
G37*
G36*
X200907114Y-16943319D02*
G01*
X201049506Y-17750862D01*
X199276852Y-18063429D01*
X199134460Y-17255886D01*
X200907114Y-16943319D01*
G37*
G36*
X180731165Y-22840100D02*
G01*
X180588773Y-22032557D01*
X182361427Y-21719990D01*
X182503819Y-22527533D01*
X180731165Y-22840100D01*
G37*
G36*
X180470692Y-21362889D02*
G01*
X180328300Y-20555346D01*
X182100954Y-20242779D01*
X182243346Y-21050322D01*
X180470692Y-21362889D01*
G37*
G36*
X175546653Y-22231130D02*
G01*
X175404261Y-21423587D01*
X177176915Y-21111020D01*
X177319307Y-21918563D01*
X175546653Y-22231130D01*
G37*
G36*
X175807126Y-23708341D02*
G01*
X175664734Y-22900798D01*
X177437388Y-22588231D01*
X177579780Y-23395774D01*
X175807126Y-23708341D01*
G37*
G36*
X158441875Y-24413020D02*
G01*
X158584267Y-25220563D01*
X156811613Y-25533130D01*
X156669221Y-24725587D01*
X158441875Y-24413020D01*
G37*
G36*
X158702348Y-25890231D02*
G01*
X158844740Y-26697774D01*
X157072086Y-27010341D01*
X156929694Y-26202798D01*
X158702348Y-25890231D01*
G37*
G36*
X163626387Y-25021990D02*
G01*
X163768779Y-25829533D01*
X161996125Y-26142100D01*
X161853733Y-25334557D01*
X163626387Y-25021990D01*
G37*
G36*
X163365914Y-23544779D02*
G01*
X163508306Y-24352322D01*
X161735652Y-24664889D01*
X161593260Y-23857346D01*
X163365914Y-23544779D01*
G37*
G36*
X126858760Y-28376714D02*
G01*
X127001152Y-27569171D01*
X128773806Y-27881738D01*
X128631414Y-28689281D01*
X126858760Y-28376714D01*
G37*
G36*
X127119233Y-26899503D02*
G01*
X127261625Y-26091960D01*
X129034279Y-26404527D01*
X128891887Y-27212070D01*
X127119233Y-26899503D01*
G37*
G36*
X122195194Y-26031262D02*
G01*
X122337586Y-25223719D01*
X124110240Y-25536286D01*
X123967848Y-26343829D01*
X122195194Y-26031262D01*
G37*
G36*
X121934721Y-27508473D02*
G01*
X122077113Y-26700930D01*
X123849767Y-27013497D01*
X123707375Y-27821040D01*
X121934721Y-27508473D01*
G37*
G36*
X105187240Y-22170786D02*
G01*
X105044848Y-22978329D01*
X103272194Y-22665762D01*
X103414586Y-21858219D01*
X105187240Y-22170786D01*
G37*
G36*
X104926767Y-23647997D02*
G01*
X104784375Y-24455540D01*
X103011721Y-24142973D01*
X103154113Y-23335430D01*
X104926767Y-23647997D01*
G37*
G36*
X109850806Y-24516238D02*
G01*
X109708414Y-25323781D01*
X107935760Y-25011214D01*
X108078152Y-24203671D01*
X109850806Y-24516238D01*
G37*
G36*
X110111279Y-23039027D02*
G01*
X109968887Y-23846570D01*
X108196233Y-23534003D01*
X108338625Y-22726460D01*
X110111279Y-23039027D01*
G37*
G36*
X89330260Y-21772714D02*
G01*
X89472652Y-20965171D01*
X91245306Y-21277738D01*
X91102914Y-22085281D01*
X89330260Y-21772714D01*
G37*
G36*
X89590733Y-20295503D02*
G01*
X89733125Y-19487960D01*
X91505779Y-19800527D01*
X91363387Y-20608070D01*
X89590733Y-20295503D01*
G37*
G36*
X84666694Y-19427262D02*
G01*
X84809086Y-18619719D01*
X86581740Y-18932286D01*
X86439348Y-19739829D01*
X84666694Y-19427262D01*
G37*
G36*
X84406221Y-20904473D02*
G01*
X84548613Y-20096930D01*
X86321267Y-20409497D01*
X86178875Y-21217040D01*
X84406221Y-20904473D01*
G37*
G36*
X67785740Y-15566786D02*
G01*
X67643348Y-16374329D01*
X65870694Y-16061762D01*
X66013086Y-15254219D01*
X67785740Y-15566786D01*
G37*
G36*
X67525267Y-17043997D02*
G01*
X67382875Y-17851540D01*
X65610221Y-17538973D01*
X65752613Y-16731430D01*
X67525267Y-17043997D01*
G37*
G36*
X72449306Y-17912238D02*
G01*
X72306914Y-18719781D01*
X70534260Y-18407214D01*
X70676652Y-17599671D01*
X72449306Y-17912238D01*
G37*
G36*
X72709779Y-16435027D02*
G01*
X72567387Y-17242570D01*
X70794733Y-16930003D01*
X70937125Y-16122460D01*
X72709779Y-16435027D01*
G37*
G36*
X51928760Y-15168714D02*
G01*
X52071152Y-14361171D01*
X53843806Y-14673738D01*
X53701414Y-15481281D01*
X51928760Y-15168714D01*
G37*
G36*
X52189233Y-13691503D02*
G01*
X52331625Y-12883960D01*
X54104279Y-13196527D01*
X53961887Y-14004070D01*
X52189233Y-13691503D01*
G37*
G36*
X47265194Y-12823262D02*
G01*
X47407586Y-12015719D01*
X49180240Y-12328286D01*
X49037848Y-13135829D01*
X47265194Y-12823262D01*
G37*
G36*
X47004721Y-14300473D02*
G01*
X47147113Y-13492930D01*
X48919767Y-13805497D01*
X48777375Y-14613040D01*
X47004721Y-14300473D01*
G37*
X26210500Y-14065300D03*
X26210500Y-15565300D03*
X31210500Y-15565300D03*
X31210500Y-14065300D03*
X12033500Y-15578000D03*
X12033500Y-14078000D03*
X7033500Y-14078000D03*
X7033500Y-15578000D03*
G36*
G01*
X329078620Y-99022970D02*
X329078620Y-98110470D01*
G75*
G02*
X329322370Y-97866720I243750J0D01*
G01*
X329809870Y-97866720D01*
G75*
G02*
X330053620Y-98110470I0J-243750D01*
G01*
X330053620Y-99022970D01*
G75*
G02*
X329809870Y-99266720I-243750J0D01*
G01*
X329322370Y-99266720D01*
G75*
G02*
X329078620Y-99022970I0J243750D01*
G01*
G37*
G36*
G01*
X327203620Y-99022970D02*
X327203620Y-98110470D01*
G75*
G02*
X327447370Y-97866720I243750J0D01*
G01*
X327934870Y-97866720D01*
G75*
G02*
X328178620Y-98110470I0J-243750D01*
G01*
X328178620Y-99022970D01*
G75*
G02*
X327934870Y-99266720I-243750J0D01*
G01*
X327447370Y-99266720D01*
G75*
G02*
X327203620Y-99022970I0J243750D01*
G01*
G37*
G36*
G01*
X309947340Y-99005190D02*
X309947340Y-98092690D01*
G75*
G02*
X310191090Y-97848940I243750J0D01*
G01*
X310678590Y-97848940D01*
G75*
G02*
X310922340Y-98092690I0J-243750D01*
G01*
X310922340Y-99005190D01*
G75*
G02*
X310678590Y-99248940I-243750J0D01*
G01*
X310191090Y-99248940D01*
G75*
G02*
X309947340Y-99005190I0J243750D01*
G01*
G37*
G36*
G01*
X308072340Y-99005190D02*
X308072340Y-98092690D01*
G75*
G02*
X308316090Y-97848940I243750J0D01*
G01*
X308803590Y-97848940D01*
G75*
G02*
X309047340Y-98092690I0J-243750D01*
G01*
X309047340Y-99005190D01*
G75*
G02*
X308803590Y-99248940I-243750J0D01*
G01*
X308316090Y-99248940D01*
G75*
G02*
X308072340Y-99005190I0J243750D01*
G01*
G37*
G36*
G01*
X309965120Y-79899310D02*
X309965120Y-78986810D01*
G75*
G02*
X310208870Y-78743060I243750J0D01*
G01*
X310696370Y-78743060D01*
G75*
G02*
X310940120Y-78986810I0J-243750D01*
G01*
X310940120Y-79899310D01*
G75*
G02*
X310696370Y-80143060I-243750J0D01*
G01*
X310208870Y-80143060D01*
G75*
G02*
X309965120Y-79899310I0J243750D01*
G01*
G37*
G36*
G01*
X308090120Y-79899310D02*
X308090120Y-78986810D01*
G75*
G02*
X308333870Y-78743060I243750J0D01*
G01*
X308821370Y-78743060D01*
G75*
G02*
X309065120Y-78986810I0J-243750D01*
G01*
X309065120Y-79899310D01*
G75*
G02*
X308821370Y-80143060I-243750J0D01*
G01*
X308333870Y-80143060D01*
G75*
G02*
X308090120Y-79899310I0J243750D01*
G01*
G37*
G36*
G01*
X290445220Y-56086810D02*
X290445220Y-55174310D01*
G75*
G02*
X290688970Y-54930560I243750J0D01*
G01*
X291176470Y-54930560D01*
G75*
G02*
X291420220Y-55174310I0J-243750D01*
G01*
X291420220Y-56086810D01*
G75*
G02*
X291176470Y-56330560I-243750J0D01*
G01*
X290688970Y-56330560D01*
G75*
G02*
X290445220Y-56086810I0J243750D01*
G01*
G37*
G36*
G01*
X288570220Y-56086810D02*
X288570220Y-55174310D01*
G75*
G02*
X288813970Y-54930560I243750J0D01*
G01*
X289301470Y-54930560D01*
G75*
G02*
X289545220Y-55174310I0J-243750D01*
G01*
X289545220Y-56086810D01*
G75*
G02*
X289301470Y-56330560I-243750J0D01*
G01*
X288813970Y-56330560D01*
G75*
G02*
X288570220Y-56086810I0J243750D01*
G01*
G37*
G36*
G01*
X296020520Y-37219690D02*
X296020520Y-36307190D01*
G75*
G02*
X296264270Y-36063440I243750J0D01*
G01*
X296751770Y-36063440D01*
G75*
G02*
X296995520Y-36307190I0J-243750D01*
G01*
X296995520Y-37219690D01*
G75*
G02*
X296751770Y-37463440I-243750J0D01*
G01*
X296264270Y-37463440D01*
G75*
G02*
X296020520Y-37219690I0J243750D01*
G01*
G37*
G36*
G01*
X294145520Y-37219690D02*
X294145520Y-36307190D01*
G75*
G02*
X294389270Y-36063440I243750J0D01*
G01*
X294876770Y-36063440D01*
G75*
G02*
X295120520Y-36307190I0J-243750D01*
G01*
X295120520Y-37219690D01*
G75*
G02*
X294876770Y-37463440I-243750J0D01*
G01*
X294389270Y-37463440D01*
G75*
G02*
X294145520Y-37219690I0J243750D01*
G01*
G37*
G36*
G01*
X264725180Y-94214750D02*
X264725180Y-93302250D01*
G75*
G02*
X264968930Y-93058500I243750J0D01*
G01*
X265456430Y-93058500D01*
G75*
G02*
X265700180Y-93302250I0J-243750D01*
G01*
X265700180Y-94214750D01*
G75*
G02*
X265456430Y-94458500I-243750J0D01*
G01*
X264968930Y-94458500D01*
G75*
G02*
X264725180Y-94214750I0J243750D01*
G01*
G37*
G36*
G01*
X262850180Y-94214750D02*
X262850180Y-93302250D01*
G75*
G02*
X263093930Y-93058500I243750J0D01*
G01*
X263581430Y-93058500D01*
G75*
G02*
X263825180Y-93302250I0J-243750D01*
G01*
X263825180Y-94214750D01*
G75*
G02*
X263581430Y-94458500I-243750J0D01*
G01*
X263093930Y-94458500D01*
G75*
G02*
X262850180Y-94214750I0J243750D01*
G01*
G37*
G36*
G01*
X252947200Y-75139350D02*
X252947200Y-74226850D01*
G75*
G02*
X253190950Y-73983100I243750J0D01*
G01*
X253678450Y-73983100D01*
G75*
G02*
X253922200Y-74226850I0J-243750D01*
G01*
X253922200Y-75139350D01*
G75*
G02*
X253678450Y-75383100I-243750J0D01*
G01*
X253190950Y-75383100D01*
G75*
G02*
X252947200Y-75139350I0J243750D01*
G01*
G37*
G36*
G01*
X251072200Y-75139350D02*
X251072200Y-74226850D01*
G75*
G02*
X251315950Y-73983100I243750J0D01*
G01*
X251803450Y-73983100D01*
G75*
G02*
X252047200Y-74226850I0J-243750D01*
G01*
X252047200Y-75139350D01*
G75*
G02*
X251803450Y-75383100I-243750J0D01*
G01*
X251315950Y-75383100D01*
G75*
G02*
X251072200Y-75139350I0J243750D01*
G01*
G37*
G36*
G01*
X259543580Y-56094430D02*
X259543580Y-55181930D01*
G75*
G02*
X259787330Y-54938180I243750J0D01*
G01*
X260274830Y-54938180D01*
G75*
G02*
X260518580Y-55181930I0J-243750D01*
G01*
X260518580Y-56094430D01*
G75*
G02*
X260274830Y-56338180I-243750J0D01*
G01*
X259787330Y-56338180D01*
G75*
G02*
X259543580Y-56094430I0J243750D01*
G01*
G37*
G36*
G01*
X257668580Y-56094430D02*
X257668580Y-55181930D01*
G75*
G02*
X257912330Y-54938180I243750J0D01*
G01*
X258399830Y-54938180D01*
G75*
G02*
X258643580Y-55181930I0J-243750D01*
G01*
X258643580Y-56094430D01*
G75*
G02*
X258399830Y-56338180I-243750J0D01*
G01*
X257912330Y-56338180D01*
G75*
G02*
X257668580Y-56094430I0J243750D01*
G01*
G37*
G36*
G01*
X252766860Y-37041890D02*
X252766860Y-36129390D01*
G75*
G02*
X253010610Y-35885640I243750J0D01*
G01*
X253498110Y-35885640D01*
G75*
G02*
X253741860Y-36129390I0J-243750D01*
G01*
X253741860Y-37041890D01*
G75*
G02*
X253498110Y-37285640I-243750J0D01*
G01*
X253010610Y-37285640D01*
G75*
G02*
X252766860Y-37041890I0J243750D01*
G01*
G37*
G36*
G01*
X250891860Y-37041890D02*
X250891860Y-36129390D01*
G75*
G02*
X251135610Y-35885640I243750J0D01*
G01*
X251623110Y-35885640D01*
G75*
G02*
X251866860Y-36129390I0J-243750D01*
G01*
X251866860Y-37041890D01*
G75*
G02*
X251623110Y-37285640I-243750J0D01*
G01*
X251135610Y-37285640D01*
G75*
G02*
X250891860Y-37041890I0J243750D01*
G01*
G37*
G36*
G01*
X238314260Y-17994430D02*
X238314260Y-17081930D01*
G75*
G02*
X238558010Y-16838180I243750J0D01*
G01*
X239045510Y-16838180D01*
G75*
G02*
X239289260Y-17081930I0J-243750D01*
G01*
X239289260Y-17994430D01*
G75*
G02*
X239045510Y-18238180I-243750J0D01*
G01*
X238558010Y-18238180D01*
G75*
G02*
X238314260Y-17994430I0J243750D01*
G01*
G37*
G36*
G01*
X236439260Y-17994430D02*
X236439260Y-17081930D01*
G75*
G02*
X236683010Y-16838180I243750J0D01*
G01*
X237170510Y-16838180D01*
G75*
G02*
X237414260Y-17081930I0J-243750D01*
G01*
X237414260Y-17994430D01*
G75*
G02*
X237170510Y-18238180I-243750J0D01*
G01*
X236683010Y-18238180D01*
G75*
G02*
X236439260Y-17994430I0J243750D01*
G01*
G37*
G36*
G01*
X209684650Y-97162437D02*
X209526196Y-96263800D01*
G75*
G02*
X209723916Y-95981426I240047J42327D01*
G01*
X210204010Y-95896773D01*
G75*
G02*
X210486384Y-96094493I42327J-240047D01*
G01*
X210644838Y-96993130D01*
G75*
G02*
X210447118Y-97275504I-240047J-42327D01*
G01*
X209967024Y-97360157D01*
G75*
G02*
X209684650Y-97162437I-42327J240047D01*
G01*
G37*
G36*
G01*
X207838136Y-97488027D02*
X207679682Y-96589390D01*
G75*
G02*
X207877402Y-96307016I240047J42327D01*
G01*
X208357496Y-96222363D01*
G75*
G02*
X208639870Y-96420083I42327J-240047D01*
G01*
X208798324Y-97318720D01*
G75*
G02*
X208600604Y-97601094I-240047J-42327D01*
G01*
X208120510Y-97685747D01*
G75*
G02*
X207838136Y-97488027I-42327J240047D01*
G01*
G37*
G36*
G01*
X213471790Y-77147237D02*
X213313336Y-76248600D01*
G75*
G02*
X213511056Y-75966226I240047J42327D01*
G01*
X213991150Y-75881573D01*
G75*
G02*
X214273524Y-76079293I42327J-240047D01*
G01*
X214431978Y-76977930D01*
G75*
G02*
X214234258Y-77260304I-240047J-42327D01*
G01*
X213754164Y-77344957D01*
G75*
G02*
X213471790Y-77147237I-42327J240047D01*
G01*
G37*
G36*
G01*
X211625276Y-77472827D02*
X211466822Y-76574190D01*
G75*
G02*
X211664542Y-76291816I240047J42327D01*
G01*
X212144636Y-76207163D01*
G75*
G02*
X212427010Y-76404883I42327J-240047D01*
G01*
X212585464Y-77303520D01*
G75*
G02*
X212387744Y-77585894I-240047J-42327D01*
G01*
X211907650Y-77670547D01*
G75*
G02*
X211625276Y-77472827I-42327J240047D01*
G01*
G37*
G36*
G01*
X219532230Y-56718017D02*
X219373776Y-55819380D01*
G75*
G02*
X219571496Y-55537006I240047J42327D01*
G01*
X220051590Y-55452353D01*
G75*
G02*
X220333964Y-55650073I42327J-240047D01*
G01*
X220492418Y-56548710D01*
G75*
G02*
X220294698Y-56831084I-240047J-42327D01*
G01*
X219814604Y-56915737D01*
G75*
G02*
X219532230Y-56718017I-42327J240047D01*
G01*
G37*
G36*
G01*
X217685716Y-57043607D02*
X217527262Y-56144970D01*
G75*
G02*
X217724982Y-55862596I240047J42327D01*
G01*
X218205076Y-55777943D01*
G75*
G02*
X218487450Y-55975663I42327J-240047D01*
G01*
X218645904Y-56874300D01*
G75*
G02*
X218448184Y-57156674I-240047J-42327D01*
G01*
X217968090Y-57241327D01*
G75*
G02*
X217685716Y-57043607I-42327J240047D01*
G01*
G37*
G36*
G01*
X211582030Y-38788157D02*
X211423576Y-37889520D01*
G75*
G02*
X211621296Y-37607146I240047J42327D01*
G01*
X212101390Y-37522493D01*
G75*
G02*
X212383764Y-37720213I42327J-240047D01*
G01*
X212542218Y-38618850D01*
G75*
G02*
X212344498Y-38901224I-240047J-42327D01*
G01*
X211864404Y-38985877D01*
G75*
G02*
X211582030Y-38788157I-42327J240047D01*
G01*
G37*
G36*
G01*
X209735516Y-39113747D02*
X209577062Y-38215110D01*
G75*
G02*
X209774782Y-37932736I240047J42327D01*
G01*
X210254876Y-37848083D01*
G75*
G02*
X210537250Y-38045803I42327J-240047D01*
G01*
X210695704Y-38944440D01*
G75*
G02*
X210497984Y-39226814I-240047J-42327D01*
G01*
X210017890Y-39311467D01*
G75*
G02*
X209735516Y-39113747I-42327J240047D01*
G01*
G37*
G36*
G01*
X198775350Y-21699037D02*
X198616896Y-20800400D01*
G75*
G02*
X198814616Y-20518026I240047J42327D01*
G01*
X199294710Y-20433373D01*
G75*
G02*
X199577084Y-20631093I42327J-240047D01*
G01*
X199735538Y-21529730D01*
G75*
G02*
X199537818Y-21812104I-240047J-42327D01*
G01*
X199057724Y-21896757D01*
G75*
G02*
X198775350Y-21699037I-42327J240047D01*
G01*
G37*
G36*
G01*
X196928836Y-22024627D02*
X196770382Y-21125990D01*
G75*
G02*
X196968102Y-20843616I240047J42327D01*
G01*
X197448196Y-20758963D01*
G75*
G02*
X197730570Y-20956683I42327J-240047D01*
G01*
X197889024Y-21855320D01*
G75*
G02*
X197691304Y-22137694I-240047J-42327D01*
G01*
X197211210Y-22222347D01*
G75*
G02*
X196928836Y-22024627I-42327J240047D01*
G01*
G37*
G36*
G01*
X176865310Y-102940937D02*
X176706856Y-102042300D01*
G75*
G02*
X176904576Y-101759926I240047J42327D01*
G01*
X177384670Y-101675273D01*
G75*
G02*
X177667044Y-101872993I42327J-240047D01*
G01*
X177825498Y-102771630D01*
G75*
G02*
X177627778Y-103054004I-240047J-42327D01*
G01*
X177147684Y-103138657D01*
G75*
G02*
X176865310Y-102940937I-42327J240047D01*
G01*
G37*
G36*
G01*
X175018796Y-103266527D02*
X174860342Y-102367890D01*
G75*
G02*
X175058062Y-102085516I240047J42327D01*
G01*
X175538156Y-102000863D01*
G75*
G02*
X175820530Y-102198583I42327J-240047D01*
G01*
X175978984Y-103097220D01*
G75*
G02*
X175781264Y-103379594I-240047J-42327D01*
G01*
X175301170Y-103464247D01*
G75*
G02*
X175018796Y-103266527I-42327J240047D01*
G01*
G37*
G36*
G01*
X175910270Y-83769017D02*
X175751816Y-82870380D01*
G75*
G02*
X175949536Y-82588006I240047J42327D01*
G01*
X176429630Y-82503353D01*
G75*
G02*
X176712004Y-82701073I42327J-240047D01*
G01*
X176870458Y-83599710D01*
G75*
G02*
X176672738Y-83882084I-240047J-42327D01*
G01*
X176192644Y-83966737D01*
G75*
G02*
X175910270Y-83769017I-42327J240047D01*
G01*
G37*
G36*
G01*
X174063756Y-84094607D02*
X173905302Y-83195970D01*
G75*
G02*
X174103022Y-82913596I240047J42327D01*
G01*
X174583116Y-82828943D01*
G75*
G02*
X174865490Y-83026663I42327J-240047D01*
G01*
X175023944Y-83925300D01*
G75*
G02*
X174826224Y-84207674I-240047J-42327D01*
G01*
X174346130Y-84292327D01*
G75*
G02*
X174063756Y-84094607I-42327J240047D01*
G01*
G37*
G36*
G01*
X182049450Y-63347417D02*
X181890996Y-62448780D01*
G75*
G02*
X182088716Y-62166406I240047J42327D01*
G01*
X182568810Y-62081753D01*
G75*
G02*
X182851184Y-62279473I42327J-240047D01*
G01*
X183009638Y-63178110D01*
G75*
G02*
X182811918Y-63460484I-240047J-42327D01*
G01*
X182331824Y-63545137D01*
G75*
G02*
X182049450Y-63347417I-42327J240047D01*
G01*
G37*
G36*
G01*
X180202936Y-63673007D02*
X180044482Y-62774370D01*
G75*
G02*
X180242202Y-62491996I240047J42327D01*
G01*
X180722296Y-62407343D01*
G75*
G02*
X181004670Y-62605063I42327J-240047D01*
G01*
X181163124Y-63503700D01*
G75*
G02*
X180965404Y-63786074I-240047J-42327D01*
G01*
X180485310Y-63870727D01*
G75*
G02*
X180202936Y-63673007I-42327J240047D01*
G01*
G37*
G36*
G01*
X174124650Y-45392157D02*
X173966196Y-44493520D01*
G75*
G02*
X174163916Y-44211146I240047J42327D01*
G01*
X174644010Y-44126493D01*
G75*
G02*
X174926384Y-44324213I42327J-240047D01*
G01*
X175084838Y-45222850D01*
G75*
G02*
X174887118Y-45505224I-240047J-42327D01*
G01*
X174407024Y-45589877D01*
G75*
G02*
X174124650Y-45392157I-42327J240047D01*
G01*
G37*
G36*
G01*
X172278136Y-45717747D02*
X172119682Y-44819110D01*
G75*
G02*
X172317402Y-44536736I240047J42327D01*
G01*
X172797496Y-44452083D01*
G75*
G02*
X173079870Y-44649803I42327J-240047D01*
G01*
X173238324Y-45548440D01*
G75*
G02*
X173040604Y-45830814I-240047J-42327D01*
G01*
X172560510Y-45915467D01*
G75*
G02*
X172278136Y-45717747I-42327J240047D01*
G01*
G37*
G36*
G01*
X161236690Y-28323357D02*
X161078236Y-27424720D01*
G75*
G02*
X161275956Y-27142346I240047J42327D01*
G01*
X161756050Y-27057693D01*
G75*
G02*
X162038424Y-27255413I42327J-240047D01*
G01*
X162196878Y-28154050D01*
G75*
G02*
X161999158Y-28436424I-240047J-42327D01*
G01*
X161519064Y-28521077D01*
G75*
G02*
X161236690Y-28323357I-42327J240047D01*
G01*
G37*
G36*
G01*
X159390176Y-28648947D02*
X159231722Y-27750310D01*
G75*
G02*
X159429442Y-27467936I240047J42327D01*
G01*
X159909536Y-27383283D01*
G75*
G02*
X160191910Y-27581003I42327J-240047D01*
G01*
X160350364Y-28479640D01*
G75*
G02*
X160152644Y-28762014I-240047J-42327D01*
G01*
X159672550Y-28846667D01*
G75*
G02*
X159390176Y-28648947I-42327J240047D01*
G01*
G37*
G36*
G01*
X114799436Y-86348460D02*
X114957890Y-85449823D01*
G75*
G02*
X115240264Y-85252103I240047J-42327D01*
G01*
X115720358Y-85336756D01*
G75*
G02*
X115918078Y-85619130I-42327J-240047D01*
G01*
X115759624Y-86517767D01*
G75*
G02*
X115477250Y-86715487I-240047J42327D01*
G01*
X114997156Y-86630834D01*
G75*
G02*
X114799436Y-86348460I42327J240047D01*
G01*
G37*
G36*
G01*
X112952922Y-86022870D02*
X113111376Y-85124233D01*
G75*
G02*
X113393750Y-84926513I240047J-42327D01*
G01*
X113873844Y-85011166D01*
G75*
G02*
X114071564Y-85293540I-42327J-240047D01*
G01*
X113913110Y-86192177D01*
G75*
G02*
X113630736Y-86389897I-240047J42327D01*
G01*
X113150642Y-86305244D01*
G75*
G02*
X112952922Y-86022870I42327J240047D01*
G01*
G37*
G36*
G01*
X114037436Y-66790460D02*
X114195890Y-65891823D01*
G75*
G02*
X114478264Y-65694103I240047J-42327D01*
G01*
X114958358Y-65778756D01*
G75*
G02*
X115156078Y-66061130I-42327J-240047D01*
G01*
X114997624Y-66959767D01*
G75*
G02*
X114715250Y-67157487I-240047J42327D01*
G01*
X114235156Y-67072834D01*
G75*
G02*
X114037436Y-66790460I42327J240047D01*
G01*
G37*
G36*
G01*
X112190922Y-66464870D02*
X112349376Y-65566233D01*
G75*
G02*
X112631750Y-65368513I240047J-42327D01*
G01*
X113111844Y-65453166D01*
G75*
G02*
X113309564Y-65735540I-42327J-240047D01*
G01*
X113151110Y-66634177D01*
G75*
G02*
X112868736Y-66831897I-240047J42327D01*
G01*
X112388642Y-66747244D01*
G75*
G02*
X112190922Y-66464870I42327J240047D01*
G01*
G37*
G36*
G01*
X112449936Y-47168960D02*
X112608390Y-46270323D01*
G75*
G02*
X112890764Y-46072603I240047J-42327D01*
G01*
X113370858Y-46157256D01*
G75*
G02*
X113568578Y-46439630I-42327J-240047D01*
G01*
X113410124Y-47338267D01*
G75*
G02*
X113127750Y-47535987I-240047J42327D01*
G01*
X112647656Y-47451334D01*
G75*
G02*
X112449936Y-47168960I42327J240047D01*
G01*
G37*
G36*
G01*
X110603422Y-46843370D02*
X110761876Y-45944733D01*
G75*
G02*
X111044250Y-45747013I240047J-42327D01*
G01*
X111524344Y-45831666D01*
G75*
G02*
X111722064Y-46114040I-42327J-240047D01*
G01*
X111563610Y-47012677D01*
G75*
G02*
X111281236Y-47210397I-240047J42327D01*
G01*
X110801142Y-47125744D01*
G75*
G02*
X110603422Y-46843370I42327J240047D01*
G01*
G37*
G36*
G01*
X106417436Y-26785460D02*
X106575890Y-25886823D01*
G75*
G02*
X106858264Y-25689103I240047J-42327D01*
G01*
X107338358Y-25773756D01*
G75*
G02*
X107536078Y-26056130I-42327J-240047D01*
G01*
X107377624Y-26954767D01*
G75*
G02*
X107095250Y-27152487I-240047J42327D01*
G01*
X106615156Y-27067834D01*
G75*
G02*
X106417436Y-26785460I42327J240047D01*
G01*
G37*
G36*
G01*
X104570922Y-26459870D02*
X104729376Y-25561233D01*
G75*
G02*
X105011750Y-25363513I240047J-42327D01*
G01*
X105491844Y-25448166D01*
G75*
G02*
X105689564Y-25730540I-42327J-240047D01*
G01*
X105531110Y-26629177D01*
G75*
G02*
X105248736Y-26826897I-240047J42327D01*
G01*
X104768642Y-26742244D01*
G75*
G02*
X104570922Y-26459870I42327J240047D01*
G01*
G37*
G36*
G01*
X82668436Y-80633460D02*
X82826890Y-79734823D01*
G75*
G02*
X83109264Y-79537103I240047J-42327D01*
G01*
X83589358Y-79621756D01*
G75*
G02*
X83787078Y-79904130I-42327J-240047D01*
G01*
X83628624Y-80802767D01*
G75*
G02*
X83346250Y-81000487I-240047J42327D01*
G01*
X82866156Y-80915834D01*
G75*
G02*
X82668436Y-80633460I42327J240047D01*
G01*
G37*
G36*
G01*
X80821922Y-80307870D02*
X80980376Y-79409233D01*
G75*
G02*
X81262750Y-79211513I240047J-42327D01*
G01*
X81742844Y-79296166D01*
G75*
G02*
X81940564Y-79578540I-42327J-240047D01*
G01*
X81782110Y-80477177D01*
G75*
G02*
X81499736Y-80674897I-240047J42327D01*
G01*
X81019642Y-80590244D01*
G75*
G02*
X80821922Y-80307870I42327J240047D01*
G01*
G37*
G36*
G01*
X76508936Y-60186460D02*
X76667390Y-59287823D01*
G75*
G02*
X76949764Y-59090103I240047J-42327D01*
G01*
X77429858Y-59174756D01*
G75*
G02*
X77627578Y-59457130I-42327J-240047D01*
G01*
X77469124Y-60355767D01*
G75*
G02*
X77186750Y-60553487I-240047J42327D01*
G01*
X76706656Y-60468834D01*
G75*
G02*
X76508936Y-60186460I42327J240047D01*
G01*
G37*
G36*
G01*
X74662422Y-59860870D02*
X74820876Y-58962233D01*
G75*
G02*
X75103250Y-58764513I240047J-42327D01*
G01*
X75583344Y-58849166D01*
G75*
G02*
X75781064Y-59131540I-42327J-240047D01*
G01*
X75622610Y-60030177D01*
G75*
G02*
X75340236Y-60227897I-240047J42327D01*
G01*
X74860142Y-60143244D01*
G75*
G02*
X74662422Y-59860870I42327J240047D01*
G01*
G37*
G36*
G01*
X74921436Y-40564960D02*
X75079890Y-39666323D01*
G75*
G02*
X75362264Y-39468603I240047J-42327D01*
G01*
X75842358Y-39553256D01*
G75*
G02*
X76040078Y-39835630I-42327J-240047D01*
G01*
X75881624Y-40734267D01*
G75*
G02*
X75599250Y-40931987I-240047J42327D01*
G01*
X75119156Y-40847334D01*
G75*
G02*
X74921436Y-40564960I42327J240047D01*
G01*
G37*
G36*
G01*
X73074922Y-40239370D02*
X73233376Y-39340733D01*
G75*
G02*
X73515750Y-39143013I240047J-42327D01*
G01*
X73995844Y-39227666D01*
G75*
G02*
X74193564Y-39510040I-42327J-240047D01*
G01*
X74035110Y-40408677D01*
G75*
G02*
X73752736Y-40606397I-240047J42327D01*
G01*
X73272642Y-40521744D01*
G75*
G02*
X73074922Y-40239370I42327J240047D01*
G01*
G37*
G36*
G01*
X69015936Y-20181460D02*
X69174390Y-19282823D01*
G75*
G02*
X69456764Y-19085103I240047J-42327D01*
G01*
X69936858Y-19169756D01*
G75*
G02*
X70134578Y-19452130I-42327J-240047D01*
G01*
X69976124Y-20350767D01*
G75*
G02*
X69693750Y-20548487I-240047J42327D01*
G01*
X69213656Y-20463834D01*
G75*
G02*
X69015936Y-20181460I42327J240047D01*
G01*
G37*
G36*
G01*
X67169422Y-19855870D02*
X67327876Y-18957233D01*
G75*
G02*
X67610250Y-18759513I240047J-42327D01*
G01*
X68090344Y-18844166D01*
G75*
G02*
X68288064Y-19126540I-42327J-240047D01*
G01*
X68129610Y-20025177D01*
G75*
G02*
X67847236Y-20222897I-240047J42327D01*
G01*
X67367142Y-20138244D01*
G75*
G02*
X67169422Y-19855870I42327J240047D01*
G01*
G37*
G36*
G01*
X26493500Y-94151250D02*
X26493500Y-93238750D01*
G75*
G02*
X26737250Y-92995000I243750J0D01*
G01*
X27224750Y-92995000D01*
G75*
G02*
X27468500Y-93238750I0J-243750D01*
G01*
X27468500Y-94151250D01*
G75*
G02*
X27224750Y-94395000I-243750J0D01*
G01*
X26737250Y-94395000D01*
G75*
G02*
X26493500Y-94151250I0J243750D01*
G01*
G37*
G36*
G01*
X24618500Y-94151250D02*
X24618500Y-93238750D01*
G75*
G02*
X24862250Y-92995000I243750J0D01*
G01*
X25349750Y-92995000D01*
G75*
G02*
X25593500Y-93238750I0J-243750D01*
G01*
X25593500Y-94151250D01*
G75*
G02*
X25349750Y-94395000I-243750J0D01*
G01*
X24862250Y-94395000D01*
G75*
G02*
X24618500Y-94151250I0J243750D01*
G01*
G37*
G36*
G01*
X43257500Y-75141890D02*
X43257500Y-74229390D01*
G75*
G02*
X43501250Y-73985640I243750J0D01*
G01*
X43988750Y-73985640D01*
G75*
G02*
X44232500Y-74229390I0J-243750D01*
G01*
X44232500Y-75141890D01*
G75*
G02*
X43988750Y-75385640I-243750J0D01*
G01*
X43501250Y-75385640D01*
G75*
G02*
X43257500Y-75141890I0J243750D01*
G01*
G37*
G36*
G01*
X41382500Y-75141890D02*
X41382500Y-74229390D01*
G75*
G02*
X41626250Y-73985640I243750J0D01*
G01*
X42113750Y-73985640D01*
G75*
G02*
X42357500Y-74229390I0J-243750D01*
G01*
X42357500Y-75141890D01*
G75*
G02*
X42113750Y-75385640I-243750J0D01*
G01*
X41626250Y-75385640D01*
G75*
G02*
X41382500Y-75141890I0J243750D01*
G01*
G37*
G36*
G01*
X36653500Y-56051250D02*
X36653500Y-55138750D01*
G75*
G02*
X36897250Y-54895000I243750J0D01*
G01*
X37384750Y-54895000D01*
G75*
G02*
X37628500Y-55138750I0J-243750D01*
G01*
X37628500Y-56051250D01*
G75*
G02*
X37384750Y-56295000I-243750J0D01*
G01*
X36897250Y-56295000D01*
G75*
G02*
X36653500Y-56051250I0J243750D01*
G01*
G37*
G36*
G01*
X34778500Y-56051250D02*
X34778500Y-55138750D01*
G75*
G02*
X35022250Y-54895000I243750J0D01*
G01*
X35509750Y-54895000D01*
G75*
G02*
X35753500Y-55138750I0J-243750D01*
G01*
X35753500Y-56051250D01*
G75*
G02*
X35509750Y-56295000I-243750J0D01*
G01*
X35022250Y-56295000D01*
G75*
G02*
X34778500Y-56051250I0J243750D01*
G01*
G37*
G36*
G01*
X33781000Y-37001250D02*
X33781000Y-36088750D01*
G75*
G02*
X34024750Y-35845000I243750J0D01*
G01*
X34512250Y-35845000D01*
G75*
G02*
X34756000Y-36088750I0J-243750D01*
G01*
X34756000Y-37001250D01*
G75*
G02*
X34512250Y-37245000I-243750J0D01*
G01*
X34024750Y-37245000D01*
G75*
G02*
X33781000Y-37001250I0J243750D01*
G01*
G37*
G36*
G01*
X31906000Y-37001250D02*
X31906000Y-36088750D01*
G75*
G02*
X32149750Y-35845000I243750J0D01*
G01*
X32637250Y-35845000D01*
G75*
G02*
X32881000Y-36088750I0J-243750D01*
G01*
X32881000Y-37001250D01*
G75*
G02*
X32637250Y-37245000I-243750J0D01*
G01*
X32149750Y-37245000D01*
G75*
G02*
X31906000Y-37001250I0J243750D01*
G01*
G37*
G36*
G01*
X29097000Y-18014750D02*
X29097000Y-17102250D01*
G75*
G02*
X29340750Y-16858500I243750J0D01*
G01*
X29828250Y-16858500D01*
G75*
G02*
X30072000Y-17102250I0J-243750D01*
G01*
X30072000Y-18014750D01*
G75*
G02*
X29828250Y-18258500I-243750J0D01*
G01*
X29340750Y-18258500D01*
G75*
G02*
X29097000Y-18014750I0J243750D01*
G01*
G37*
G36*
G01*
X27222000Y-18014750D02*
X27222000Y-17102250D01*
G75*
G02*
X27465750Y-16858500I243750J0D01*
G01*
X27953250Y-16858500D01*
G75*
G02*
X28197000Y-17102250I0J-243750D01*
G01*
X28197000Y-18014750D01*
G75*
G02*
X27953250Y-18258500I-243750J0D01*
G01*
X27465750Y-18258500D01*
G75*
G02*
X27222000Y-18014750I0J243750D01*
G01*
G37*
D19*
X136449000Y3783200D03*
X146849000Y3783200D03*
D20*
X136074000Y-816800D03*
X147224000Y-816800D03*
X136074000Y3783200D03*
X147224000Y3783200D03*
D21*
X137899000Y-896800D03*
X145399000Y-896800D03*
D22*
X138449000Y-2396800D03*
X144849000Y-2396800D03*
X139199000Y-2396800D03*
D23*
X139899000Y-2396800D03*
X140399000Y-2396800D03*
X140899000Y-2396800D03*
D22*
X144099000Y-2396800D03*
D23*
X143399000Y-2396800D03*
X142899000Y-2396800D03*
X142399000Y-2396800D03*
X141899000Y-2396800D03*
X141399000Y-2396800D03*
D24*
X142749000Y-8690800D03*
X142749000Y-9640800D03*
X142749000Y-7740800D03*
X140549000Y-7740800D03*
X140549000Y-8690800D03*
X140549000Y-9640800D03*
G36*
G01*
X132051650Y-61977400D02*
X131139150Y-61977400D01*
G75*
G02*
X130895400Y-61733650I0J243750D01*
G01*
X130895400Y-61246150D01*
G75*
G02*
X131139150Y-61002400I243750J0D01*
G01*
X132051650Y-61002400D01*
G75*
G02*
X132295400Y-61246150I0J-243750D01*
G01*
X132295400Y-61733650D01*
G75*
G02*
X132051650Y-61977400I-243750J0D01*
G01*
G37*
G36*
G01*
X132051650Y-63852400D02*
X131139150Y-63852400D01*
G75*
G02*
X130895400Y-63608650I0J243750D01*
G01*
X130895400Y-63121150D01*
G75*
G02*
X131139150Y-62877400I243750J0D01*
G01*
X132051650Y-62877400D01*
G75*
G02*
X132295400Y-63121150I0J-243750D01*
G01*
X132295400Y-63608650D01*
G75*
G02*
X132051650Y-63852400I-243750J0D01*
G01*
G37*
G36*
G01*
X133668450Y-40273100D02*
X132755950Y-40273100D01*
G75*
G02*
X132512200Y-40029350I0J243750D01*
G01*
X132512200Y-39541850D01*
G75*
G02*
X132755950Y-39298100I243750J0D01*
G01*
X133668450Y-39298100D01*
G75*
G02*
X133912200Y-39541850I0J-243750D01*
G01*
X133912200Y-40029350D01*
G75*
G02*
X133668450Y-40273100I-243750J0D01*
G01*
G37*
G36*
G01*
X133668450Y-42148100D02*
X132755950Y-42148100D01*
G75*
G02*
X132512200Y-41904350I0J243750D01*
G01*
X132512200Y-41416850D01*
G75*
G02*
X132755950Y-41173100I243750J0D01*
G01*
X133668450Y-41173100D01*
G75*
G02*
X133912200Y-41416850I0J-243750D01*
G01*
X133912200Y-41904350D01*
G75*
G02*
X133668450Y-42148100I-243750J0D01*
G01*
G37*
G36*
G01*
X135649650Y-40273100D02*
X134737150Y-40273100D01*
G75*
G02*
X134493400Y-40029350I0J243750D01*
G01*
X134493400Y-39541850D01*
G75*
G02*
X134737150Y-39298100I243750J0D01*
G01*
X135649650Y-39298100D01*
G75*
G02*
X135893400Y-39541850I0J-243750D01*
G01*
X135893400Y-40029350D01*
G75*
G02*
X135649650Y-40273100I-243750J0D01*
G01*
G37*
G36*
G01*
X135649650Y-42148100D02*
X134737150Y-42148100D01*
G75*
G02*
X134493400Y-41904350I0J243750D01*
G01*
X134493400Y-41416850D01*
G75*
G02*
X134737150Y-41173100I243750J0D01*
G01*
X135649650Y-41173100D01*
G75*
G02*
X135893400Y-41416850I0J-243750D01*
G01*
X135893400Y-41904350D01*
G75*
G02*
X135649650Y-42148100I-243750J0D01*
G01*
G37*
G36*
G01*
X147549000Y-4500750D02*
X147549000Y-5413250D01*
G75*
G02*
X147305250Y-5657000I-243750J0D01*
G01*
X146817750Y-5657000D01*
G75*
G02*
X146574000Y-5413250I0J243750D01*
G01*
X146574000Y-4500750D01*
G75*
G02*
X146817750Y-4257000I243750J0D01*
G01*
X147305250Y-4257000D01*
G75*
G02*
X147549000Y-4500750I0J-243750D01*
G01*
G37*
G36*
G01*
X149424000Y-4500750D02*
X149424000Y-5413250D01*
G75*
G02*
X149180250Y-5657000I-243750J0D01*
G01*
X148692750Y-5657000D01*
G75*
G02*
X148449000Y-5413250I0J243750D01*
G01*
X148449000Y-4500750D01*
G75*
G02*
X148692750Y-4257000I243750J0D01*
G01*
X149180250Y-4257000D01*
G75*
G02*
X149424000Y-4500750I0J-243750D01*
G01*
G37*
G36*
G01*
X135749000Y-5413250D02*
X135749000Y-4500750D01*
G75*
G02*
X135992750Y-4257000I243750J0D01*
G01*
X136480250Y-4257000D01*
G75*
G02*
X136724000Y-4500750I0J-243750D01*
G01*
X136724000Y-5413250D01*
G75*
G02*
X136480250Y-5657000I-243750J0D01*
G01*
X135992750Y-5657000D01*
G75*
G02*
X135749000Y-5413250I0J243750D01*
G01*
G37*
G36*
G01*
X133874000Y-5413250D02*
X133874000Y-4500750D01*
G75*
G02*
X134117750Y-4257000I243750J0D01*
G01*
X134605250Y-4257000D01*
G75*
G02*
X134849000Y-4500750I0J-243750D01*
G01*
X134849000Y-5413250D01*
G75*
G02*
X134605250Y-5657000I-243750J0D01*
G01*
X134117750Y-5657000D01*
G75*
G02*
X133874000Y-5413250I0J243750D01*
G01*
G37*
G36*
G01*
X145107250Y-47651800D02*
X144194750Y-47651800D01*
G75*
G02*
X143951000Y-47408050I0J243750D01*
G01*
X143951000Y-46920550D01*
G75*
G02*
X144194750Y-46676800I243750J0D01*
G01*
X145107250Y-46676800D01*
G75*
G02*
X145351000Y-46920550I0J-243750D01*
G01*
X145351000Y-47408050D01*
G75*
G02*
X145107250Y-47651800I-243750J0D01*
G01*
G37*
G36*
G01*
X145107250Y-49526800D02*
X144194750Y-49526800D01*
G75*
G02*
X143951000Y-49283050I0J243750D01*
G01*
X143951000Y-48795550D01*
G75*
G02*
X144194750Y-48551800I243750J0D01*
G01*
X145107250Y-48551800D01*
G75*
G02*
X145351000Y-48795550I0J-243750D01*
G01*
X145351000Y-49283050D01*
G75*
G02*
X145107250Y-49526800I-243750J0D01*
G01*
G37*
G36*
G01*
X142487500Y-6217000D02*
X142487500Y-4967000D01*
G75*
G02*
X142737500Y-4717000I250000J0D01*
G01*
X143487500Y-4717000D01*
G75*
G02*
X143737500Y-4967000I0J-250000D01*
G01*
X143737500Y-6217000D01*
G75*
G02*
X143487500Y-6467000I-250000J0D01*
G01*
X142737500Y-6467000D01*
G75*
G02*
X142487500Y-6217000I0J250000D01*
G01*
G37*
G36*
G01*
X139687500Y-6217000D02*
X139687500Y-4967000D01*
G75*
G02*
X139937500Y-4717000I250000J0D01*
G01*
X140687500Y-4717000D01*
G75*
G02*
X140937500Y-4967000I0J-250000D01*
G01*
X140937500Y-6217000D01*
G75*
G02*
X140687500Y-6467000I-250000J0D01*
G01*
X139937500Y-6467000D01*
G75*
G02*
X139687500Y-6217000I0J250000D01*
G01*
G37*
G36*
G01*
X130934050Y-44349800D02*
X130021550Y-44349800D01*
G75*
G02*
X129777800Y-44106050I0J243750D01*
G01*
X129777800Y-43618550D01*
G75*
G02*
X130021550Y-43374800I243750J0D01*
G01*
X130934050Y-43374800D01*
G75*
G02*
X131177800Y-43618550I0J-243750D01*
G01*
X131177800Y-44106050D01*
G75*
G02*
X130934050Y-44349800I-243750J0D01*
G01*
G37*
G36*
G01*
X130934050Y-46224800D02*
X130021550Y-46224800D01*
G75*
G02*
X129777800Y-45981050I0J243750D01*
G01*
X129777800Y-45493550D01*
G75*
G02*
X130021550Y-45249800I243750J0D01*
G01*
X130934050Y-45249800D01*
G75*
G02*
X131177800Y-45493550I0J-243750D01*
G01*
X131177800Y-45981050D01*
G75*
G02*
X130934050Y-46224800I-243750J0D01*
G01*
G37*
G36*
G01*
X126522600Y-56840350D02*
X126522600Y-57752850D01*
G75*
G02*
X126278850Y-57996600I-243750J0D01*
G01*
X125791350Y-57996600D01*
G75*
G02*
X125547600Y-57752850I0J243750D01*
G01*
X125547600Y-56840350D01*
G75*
G02*
X125791350Y-56596600I243750J0D01*
G01*
X126278850Y-56596600D01*
G75*
G02*
X126522600Y-56840350I0J-243750D01*
G01*
G37*
G36*
G01*
X128397600Y-56840350D02*
X128397600Y-57752850D01*
G75*
G02*
X128153850Y-57996600I-243750J0D01*
G01*
X127666350Y-57996600D01*
G75*
G02*
X127422600Y-57752850I0J243750D01*
G01*
X127422600Y-56840350D01*
G75*
G02*
X127666350Y-56596600I243750J0D01*
G01*
X128153850Y-56596600D01*
G75*
G02*
X128397600Y-56840350I0J-243750D01*
G01*
G37*
G36*
G01*
X145863000Y-51453650D02*
X145863000Y-50541150D01*
G75*
G02*
X146106750Y-50297400I243750J0D01*
G01*
X146594250Y-50297400D01*
G75*
G02*
X146838000Y-50541150I0J-243750D01*
G01*
X146838000Y-51453650D01*
G75*
G02*
X146594250Y-51697400I-243750J0D01*
G01*
X146106750Y-51697400D01*
G75*
G02*
X145863000Y-51453650I0J243750D01*
G01*
G37*
G36*
G01*
X143988000Y-51453650D02*
X143988000Y-50541150D01*
G75*
G02*
X144231750Y-50297400I243750J0D01*
G01*
X144719250Y-50297400D01*
G75*
G02*
X144963000Y-50541150I0J-243750D01*
G01*
X144963000Y-51453650D01*
G75*
G02*
X144719250Y-51697400I-243750J0D01*
G01*
X144231750Y-51697400D01*
G75*
G02*
X143988000Y-51453650I0J243750D01*
G01*
G37*
G36*
G01*
X139317950Y-63131400D02*
X140230450Y-63131400D01*
G75*
G02*
X140474200Y-63375150I0J-243750D01*
G01*
X140474200Y-63862650D01*
G75*
G02*
X140230450Y-64106400I-243750J0D01*
G01*
X139317950Y-64106400D01*
G75*
G02*
X139074200Y-63862650I0J243750D01*
G01*
X139074200Y-63375150D01*
G75*
G02*
X139317950Y-63131400I243750J0D01*
G01*
G37*
G36*
G01*
X139317950Y-61256400D02*
X140230450Y-61256400D01*
G75*
G02*
X140474200Y-61500150I0J-243750D01*
G01*
X140474200Y-61987650D01*
G75*
G02*
X140230450Y-62231400I-243750J0D01*
G01*
X139317950Y-62231400D01*
G75*
G02*
X139074200Y-61987650I0J243750D01*
G01*
X139074200Y-61500150D01*
G75*
G02*
X139317950Y-61256400I243750J0D01*
G01*
G37*
G36*
G01*
X136166450Y-44349800D02*
X135253950Y-44349800D01*
G75*
G02*
X135010200Y-44106050I0J243750D01*
G01*
X135010200Y-43618550D01*
G75*
G02*
X135253950Y-43374800I243750J0D01*
G01*
X136166450Y-43374800D01*
G75*
G02*
X136410200Y-43618550I0J-243750D01*
G01*
X136410200Y-44106050D01*
G75*
G02*
X136166450Y-44349800I-243750J0D01*
G01*
G37*
G36*
G01*
X136166450Y-46224800D02*
X135253950Y-46224800D01*
G75*
G02*
X135010200Y-45981050I0J243750D01*
G01*
X135010200Y-45493550D01*
G75*
G02*
X135253950Y-45249800I243750J0D01*
G01*
X136166450Y-45249800D01*
G75*
G02*
X136410200Y-45493550I0J-243750D01*
G01*
X136410200Y-45981050D01*
G75*
G02*
X136166450Y-46224800I-243750J0D01*
G01*
G37*
D13*
X209482604Y-83402455D03*
D14*
X207863325Y-88846345D03*
D13*
X203670141Y-87006533D03*
D15*
X202860502Y-89728478D03*
X212866148Y-87964212D03*
D13*
X176637532Y-89257950D03*
D14*
X175018253Y-94701840D03*
D13*
X170825069Y-92862028D03*
D15*
X170015430Y-95583973D03*
X180021076Y-93819707D03*
D16*
X164505818Y-103648221D03*
X187956553Y-99513224D03*
D14*
X161859420Y-88639751D03*
X185310155Y-84504753D03*
D13*
X213205400Y-63368868D03*
D14*
X211586121Y-68812758D03*
D13*
X207392937Y-66972946D03*
D15*
X206583298Y-69694891D03*
X216588944Y-67930625D03*
D13*
X194444813Y-66676866D03*
D14*
X192825534Y-72120756D03*
D13*
X188632350Y-70280944D03*
D15*
X187822711Y-73002889D03*
X197828357Y-71238623D03*
D13*
X175684225Y-69984864D03*
D14*
X174064946Y-75428754D03*
D13*
X169871762Y-73588942D03*
D15*
X169062123Y-76310887D03*
X179067769Y-74546621D03*
D13*
X156923637Y-73292861D03*
D14*
X155304358Y-78736751D03*
D13*
X151111174Y-76896939D03*
D15*
X150301535Y-79618884D03*
X160307181Y-77854618D03*
D13*
X219277696Y-42954282D03*
D14*
X217658417Y-48398172D03*
D13*
X213465233Y-46558360D03*
D15*
X212655594Y-49280305D03*
X222661240Y-47516039D03*
D13*
X200517109Y-46262279D03*
D14*
X198897830Y-51706169D03*
D13*
X194704646Y-49866357D03*
D15*
X193895007Y-52588302D03*
X203900653Y-50824036D03*
D13*
X181744279Y-49581110D03*
D14*
X180125000Y-55025000D03*
D13*
X175931816Y-53185188D03*
D15*
X175122177Y-55907133D03*
X185127823Y-54142867D03*
D13*
X162995933Y-52878275D03*
D14*
X161376654Y-58322165D03*
D13*
X157183470Y-56482353D03*
D15*
X156373831Y-59204298D03*
X166379477Y-57440032D03*
D13*
X211279552Y-25020693D03*
D14*
X209660273Y-30464583D03*
D13*
X205467089Y-28624771D03*
D15*
X204657450Y-31346716D03*
X214663096Y-29582450D03*
D13*
X192518964Y-28328691D03*
D14*
X190899685Y-33772581D03*
D13*
X186706501Y-31932769D03*
D15*
X185896862Y-34654714D03*
X195902508Y-32890448D03*
D13*
X173758376Y-31636689D03*
D14*
X172139097Y-37080579D03*
D13*
X167945913Y-35240767D03*
D15*
X167136274Y-37962712D03*
X177141920Y-36198446D03*
D13*
X154997788Y-34944687D03*
D14*
X153378509Y-40388577D03*
D13*
X149185325Y-38548765D03*
D15*
X148375686Y-41270710D03*
X158381332Y-39506444D03*
D13*
X217351848Y-4606107D03*
D14*
X215732569Y-10049997D03*
D13*
X211539385Y-8210185D03*
D15*
X210729746Y-10932130D03*
X220735392Y-9167864D03*
D13*
X198591260Y-7914104D03*
D14*
X196971981Y-13357994D03*
D13*
X192778797Y-11518182D03*
D15*
X191969158Y-14240127D03*
X201974804Y-12475861D03*
D13*
X179830672Y-11222102D03*
D14*
X178211393Y-16665992D03*
D13*
X174018209Y-14826180D03*
D15*
X173208570Y-17548125D03*
X183214216Y-15783859D03*
D13*
X161070085Y-14530100D03*
D14*
X159450806Y-19973990D03*
D13*
X155257622Y-18134178D03*
D15*
X154447983Y-20856123D03*
X164453629Y-19091857D03*
D13*
X109436219Y-90868588D03*
D14*
X106052675Y-95430345D03*
D13*
X102741624Y-92267334D03*
D15*
X101049852Y-94548212D03*
X111055498Y-96312478D03*
D16*
X93114375Y-100241729D03*
X116565110Y-104376726D03*
D14*
X95760773Y-85233258D03*
X119211508Y-89368256D03*
D13*
X71951984Y-84352340D03*
D14*
X68568440Y-88914097D03*
D13*
X65257389Y-85751086D03*
D15*
X63565617Y-88031964D03*
X73571263Y-89796230D03*
D13*
X124502098Y-74244247D03*
D14*
X121118554Y-78806004D03*
D13*
X117807503Y-75642993D03*
D15*
X116115731Y-77923871D03*
X126121377Y-79688137D03*
D13*
X105741510Y-70936249D03*
D14*
X102357966Y-75498006D03*
D13*
X99046915Y-72334995D03*
D15*
X97355143Y-74615873D03*
X107360789Y-76380139D03*
D13*
X86980923Y-67628251D03*
D14*
X83597379Y-72190008D03*
D13*
X80286328Y-69026997D03*
D15*
X78594556Y-71307875D03*
X88600202Y-73072141D03*
D13*
X68220335Y-64320253D03*
D14*
X64836791Y-68882010D03*
D13*
X61525740Y-65718999D03*
D15*
X59833968Y-67999877D03*
X69839614Y-69764143D03*
D13*
X118429802Y-53829660D03*
D14*
X115046258Y-58391417D03*
D13*
X111735207Y-55228406D03*
D15*
X110043435Y-57509284D03*
X120049081Y-59273550D03*
D13*
X99669214Y-50521662D03*
D14*
X96285670Y-55083419D03*
D13*
X92974619Y-51920408D03*
D15*
X91282847Y-54201286D03*
X101288493Y-55965552D03*
D13*
X80908627Y-47213665D03*
D14*
X77525083Y-51775422D03*
D13*
X74214032Y-48612411D03*
D15*
X72522260Y-50893289D03*
X82527906Y-52657555D03*
D13*
X62148039Y-43905667D03*
D14*
X58764495Y-48467424D03*
D13*
X55453444Y-45304413D03*
D15*
X53761672Y-47585291D03*
X63767318Y-49349557D03*
D13*
X117047653Y-34242073D03*
D14*
X113664109Y-38803830D03*
D13*
X110353058Y-35640819D03*
D15*
X108661286Y-37921697D03*
X118666932Y-39685963D03*
D13*
X98287065Y-30934075D03*
D14*
X94903521Y-35495832D03*
D13*
X91592470Y-32332821D03*
D15*
X89900698Y-34613699D03*
X99906344Y-36377965D03*
D13*
X79526478Y-27626077D03*
D14*
X76142934Y-32187834D03*
D13*
X72831883Y-29024823D03*
D15*
X71140111Y-31305701D03*
X81145757Y-33069967D03*
D13*
X60765890Y-24318080D03*
D14*
X57382346Y-28879837D03*
D13*
X54071295Y-25716826D03*
D15*
X52379523Y-27997704D03*
X62385169Y-29761970D03*
D13*
X129735945Y-17135484D03*
D14*
X126352401Y-21697241D03*
D13*
X123041350Y-18534230D03*
D15*
X121349578Y-20815108D03*
X131355224Y-22579374D03*
D13*
X110975357Y-13827486D03*
D14*
X107591813Y-18389243D03*
D13*
X104280762Y-15226232D03*
D15*
X102588990Y-17507110D03*
X112594636Y-19271376D03*
D13*
X92214769Y-10519489D03*
D14*
X88831225Y-15081246D03*
D13*
X85520174Y-11918235D03*
D15*
X83828402Y-14199113D03*
X93834048Y-15963379D03*
D13*
X73454182Y-7211491D03*
D14*
X70070638Y-11773248D03*
D13*
X66759587Y-8610237D03*
D15*
X65067815Y-10891115D03*
X75073461Y-12655381D03*
D13*
X54693594Y-3903493D03*
D14*
X51310050Y-8465250D03*
D13*
X47998999Y-5302239D03*
D15*
X46307227Y-7583117D03*
X56312873Y-9347383D03*
D13*
X331183750Y-85317246D03*
D14*
X328643750Y-90397246D03*
D13*
X324833750Y-87857246D03*
D15*
X323563750Y-90397246D03*
X333723750Y-90397246D03*
D13*
X312133750Y-85317246D03*
D14*
X309593750Y-90397246D03*
D13*
X305783750Y-87857246D03*
D15*
X304513750Y-90397246D03*
X314673750Y-90397246D03*
D13*
X293083750Y-85317246D03*
D14*
X290543750Y-90397246D03*
D13*
X286733750Y-87857246D03*
D15*
X285463750Y-90397246D03*
X295623750Y-90397246D03*
D13*
X266890000Y-80554746D03*
D14*
X264350000Y-85634746D03*
D13*
X260540000Y-83094746D03*
D15*
X259270000Y-85634746D03*
X269430000Y-85634746D03*
D13*
X243077500Y-80554746D03*
D14*
X240537500Y-85634746D03*
D13*
X236727500Y-83094746D03*
D15*
X235457500Y-85634746D03*
X245617500Y-85634746D03*
D13*
X28765000Y-80554746D03*
D14*
X26225000Y-85634746D03*
D13*
X22415000Y-83094746D03*
D15*
X21145000Y-85634746D03*
X31305000Y-85634746D03*
D13*
X4952500Y-80554746D03*
D14*
X2412500Y-85634746D03*
D13*
X-1397500Y-83094746D03*
D15*
X-2667500Y-85634746D03*
X7492500Y-85634746D03*
D13*
X312133750Y-66267246D03*
D14*
X309593750Y-71347246D03*
D13*
X305783750Y-68807246D03*
D15*
X304513750Y-71347246D03*
X314673750Y-71347246D03*
D13*
X281177500Y-61504746D03*
D14*
X278637500Y-66584746D03*
D13*
X274827500Y-64044746D03*
D15*
X273557500Y-66584746D03*
X283717500Y-66584746D03*
D13*
X254983750Y-61504746D03*
D14*
X252443750Y-66584746D03*
D13*
X248633750Y-64044746D03*
D15*
X247363750Y-66584746D03*
X257523750Y-66584746D03*
D13*
X235933750Y-61504746D03*
D14*
X233393750Y-66584746D03*
D13*
X229583750Y-64044746D03*
D15*
X228313750Y-66584746D03*
X238473750Y-66584746D03*
D13*
X45433750Y-61504746D03*
D14*
X42893750Y-66584746D03*
D13*
X39083750Y-64044746D03*
D15*
X37813750Y-66584746D03*
X47973750Y-66584746D03*
D13*
X14477500Y-61504746D03*
D14*
X11937500Y-66584746D03*
D13*
X8127500Y-64044746D03*
D15*
X6857500Y-66584746D03*
X17017500Y-66584746D03*
D16*
X31250Y-73569746D03*
X23843750Y-73569746D03*
D14*
X31250Y-58329746D03*
X23843750Y-58329746D03*
D13*
X261651250Y-42454746D03*
D14*
X259111250Y-47534746D03*
D13*
X255301250Y-44994746D03*
D15*
X254031250Y-47534746D03*
X264191250Y-47534746D03*
D13*
X242601250Y-42454746D03*
D14*
X240061250Y-47534746D03*
D13*
X236251250Y-44994746D03*
D15*
X234981250Y-47534746D03*
X245141250Y-47534746D03*
D13*
X38766250Y-42454746D03*
D14*
X36226250Y-47534746D03*
D13*
X32416250Y-44994746D03*
D15*
X31146250Y-47534746D03*
X41306250Y-47534746D03*
D13*
X12572500Y-42454746D03*
D14*
X10032500Y-47534746D03*
D13*
X6222500Y-44994746D03*
D15*
X4952500Y-47534746D03*
X15112500Y-47534746D03*
D13*
X274033750Y-23404746D03*
D14*
X271493750Y-28484746D03*
D13*
X267683750Y-25944746D03*
D15*
X266413750Y-28484746D03*
X276573750Y-28484746D03*
D13*
X254983750Y-23404746D03*
D14*
X252443750Y-28484746D03*
D13*
X248633750Y-25944746D03*
D15*
X247363750Y-28484746D03*
X257523750Y-28484746D03*
D13*
X235933750Y-23404746D03*
D14*
X233393750Y-28484746D03*
D13*
X229583750Y-25944746D03*
D15*
X228313750Y-28484746D03*
X238473750Y-28484746D03*
D13*
X35908750Y-23404746D03*
D14*
X33368750Y-28484746D03*
D13*
X29558750Y-25944746D03*
D15*
X28288750Y-28484746D03*
X38448750Y-28484746D03*
D13*
X12096250Y-23404746D03*
D14*
X9556250Y-28484746D03*
D13*
X5746250Y-25944746D03*
D15*
X4476250Y-28484746D03*
X14636250Y-28484746D03*
D13*
X259746250Y-4354746D03*
D14*
X257206250Y-9434746D03*
D13*
X253396250Y-6894746D03*
D15*
X252126250Y-9434746D03*
X262286250Y-9434746D03*
D13*
X240696250Y-4354746D03*
D14*
X238156250Y-9434746D03*
D13*
X234346250Y-6894746D03*
D15*
X233076250Y-9434746D03*
X243236250Y-9434746D03*
D13*
X31146250Y-4354746D03*
D14*
X28606250Y-9434746D03*
D13*
X24796250Y-6894746D03*
D15*
X23526250Y-9434746D03*
X33686250Y-9434746D03*
D13*
X12096250Y-4354746D03*
D14*
X9556250Y-9434746D03*
D13*
X5746250Y-6894746D03*
D15*
X4476250Y-9434746D03*
X14636250Y-9434746D03*
M02*
