M48
; DRILL file {KiCad (5.1.4)-1} date 8/15/2020 9:00:02 PM
; FORMAT={3:3/ absolute / metric / suppress leading zeros}
; #@! TF.CreationDate,2020-08-15T21:00:02-07:00
; #@! TF.GenerationSoftware,Kicad,Pcbnew,(5.1.4)-1
FMAT,2
METRIC,TZ
T1C0.400
T2C0.500
T3C1.000
T4C1.470
T5C0.400
T6C1.500
T7C1.750
T8C3.048
T9C3.988
%
G90
G05
T1
X-5402Y-90278
X-5389Y-33192
X-5389Y-52242
X-5389Y-71191
X-5084Y-14091
X-2443Y-91765
X-505Y-6129
X338Y-15403
X3744Y-35700
X4619Y-15666
X4619Y-34767
X5054Y-14091
X5330Y-53766
X6808Y-20401
X6955Y-72816
X7514Y-90342
X14321Y-34462
X14470Y-53886
X15388Y-32786
X15757Y-37752
X15795Y-52699
X16557Y-92527
X17166Y-71191
X19503Y-71241
X20519Y-16733
X21332Y-91815
X23125Y-64775
X23725Y-15666
X26310Y-71241
X26945Y-36672
X28444Y-53055
X28799Y-34615
X30176Y-42885
X30628Y-90241
X31847Y-53817
X32098Y-40279
X33117Y-14142
X36446Y-91595
X37038Y-97564
X38655Y-72765
X39163Y-33903
X41449Y-53106
X41778Y-81971
X42160Y-13228
X44023Y-33675
X44359Y-36017
X45919Y-13888
X47422Y-37805
X47646Y-55036
X48053Y-72410
X48459Y-21965
X48459Y-34005
X49500Y-54800
X51710Y-34310
X51826Y-83398
X52675Y-42388
X53835Y-72512
X53945Y-77457
X55368Y-13888
X56079Y-15666
X56905Y-74073
X57501Y-42448
X59127Y-74201
X60016Y-93123
X61159Y-15920
X61311Y-35986
X61718Y-34564
X61800Y-94500
X62531Y-54935
X63673Y-56114
X64410Y-17089
X64588Y-45989
X65921Y-59558
X68263Y-41337
X68308Y-36799
X68322Y-57271
X69135Y-75255
X69926Y-45504
X70303Y-37561
X71209Y-41542
X71764Y-57055
X72716Y-94521
X73288Y-96489
X74214Y-43150
X74431Y-17813
X75770Y-77763
X77986Y-77503
X80514Y-38526
X80780Y-20289
X82139Y-58084
X82876Y-20352
X87067Y-30563
X87067Y-40736
X87067Y-45094
X87067Y-60040
X87173Y-79746
X87575Y-78328
X89226Y-40863
X89497Y-44501
X90687Y-60485
X91512Y-81440
X92466Y-106213
X92730Y-45415
X93163Y-22004
X93290Y-20607
X93510Y-24117
X95387Y-49154
X98176Y-38265
X98688Y-42641
X98688Y-82519
X99132Y-41308
X99323Y-98584
X99832Y-22196
X99894Y-25043
X100546Y-41631
X100593Y-100871
X100719Y-61374
X101863Y-23781
X103353Y-66205
X105796Y-62344
X106054Y-42705
X106498Y-81948
X107887Y-1494
X107959Y-49959
X107959Y-62453
X108022Y-44102
X108422Y-3084
X109483Y-63659
X110498Y-101061
X110753Y-102839
X111006Y-23845
X111735Y-52680
X111896Y-81630
X112276Y-25623
X115261Y-84043
X116988Y-45587
X117142Y-12385
X117191Y-50363
X117357Y-44165
X118182Y-25814
X118499Y-22575
X119198Y-64866
X119262Y-27147
X119452Y-23718
X123368Y-52299
X124075Y-65916
X124155Y-102235
X124193Y-47193
X124786Y-84742
X124866Y-63683
X125738Y-67089
X126022Y-59576
X126035Y-61265
X126136Y-37173
X126236Y-85948
X126238Y-51562
X126453Y-35748
X126937Y-54674
X127025Y-64021
X127326Y-41396
X127326Y-43848
X127390Y-49055
X127508Y-61062
X127806Y-100628
X128080Y-55880
X128342Y-65819
X128409Y-42644
X128533Y-46007
X128614Y-49161
X128829Y-72987
X129064Y-57614
X130073Y-66650
X130120Y-27147
X130518Y-48568
X130564Y-28544
X131403Y-32897
X132972Y-43352
X133261Y-74079
X133792Y-108118
X133893Y-62306
X133999Y-31751
X134391Y-80962
X134531Y-102235
X134618Y-63041
X135899Y-9652
X136725Y-42325
X137100Y-46111
X137477Y-21311
X137998Y-44420
X138225Y-24417
X138400Y-18000
X138565Y-19266
X138624Y-4231
X139025Y-8725
X139125Y-6425
X139217Y-44348
X139418Y-60718
X139868Y-13244
X140115Y-25841
X140788Y-82964
X141550Y-65609
X141745Y-68263
X141923Y-64211
X141935Y-62802
X142564Y-109995
X143027Y-33947
X143226Y-108163
X143414Y-51214
X143982Y-27061
X144095Y-73725
X144225Y-5625
X144750Y-25841
X145112Y-39588
X145187Y-4170
X145303Y-13457
X146152Y-58141
X147013Y-18213
X147142Y-19373
X147591Y-51650
X148386Y-98632
X148916Y-45625
X148952Y-8742
X149615Y-47150
X150072Y-52572
X150948Y-84107
X150965Y-22301
X151583Y-85567
X151770Y-23830
X152253Y-35245
X152542Y-9809
X153869Y-25496
X153919Y-5624
X156092Y-26576
X156917Y-65120
X158547Y-45898
X159901Y-44673
X160085Y-7253
X161489Y-82964
X162372Y-5603
X162759Y-45880
X163387Y-1838
X165680Y-23845
X166238Y-25573
X166561Y-63589
X166950Y-83599
X167395Y-62453
X168284Y-44228
X168919Y-67279
X169109Y-13997
X170379Y-82392
X170624Y-14097
X170936Y-48190
X171382Y-100349
X171522Y-101379
X172626Y-63571
X174062Y-23718
X176009Y-1029
X176284Y-62136
X177872Y-40736
X178200Y-43000
X180285Y-79408
X180770Y-81018
X180900Y-300
X181746Y-98458
X182596Y-4468
X182889Y-100045
X183528Y-22085
X184603Y-20924
X184603Y-69938
X185746Y-38958
X186126Y-4176
X186127Y-78709
X186693Y-60606
X186699Y-59278
X188252Y-22149
X189048Y-78963
X189281Y-13246
X189807Y-4293
X189837Y-44999
X190318Y-20416
X190699Y-41752
X192492Y-57739
X193366Y-20289
X194069Y-58942
X195336Y-4293
X195415Y-58458
X197138Y-63738
X197176Y-37815
X197320Y-39459
X199335Y-76423
X200986Y-78582
X200986Y-93441
X203018Y-36164
X203577Y-17144
X203907Y-55214
X204128Y-95900
X204796Y-56103
X204796Y-62199
X205812Y-37434
X206711Y-18981
X207399Y-75852
X208531Y-8616
X210638Y-54706
X210845Y-15639
X213432Y-55341
X214224Y-20990
X214321Y-92997
X216099Y-34386
X217750Y-72931
X218021Y-74460
X219621Y-82390
X220163Y-28671
X222225Y-14307
X223465Y-52039
X223596Y-17069
X225108Y-39980
X225108Y-53380
X225746Y-56346
X225746Y-61460
X225746Y-71280
X225985Y-33060
X227500Y-11422
X227823Y-84277
X228436Y-34541
X229865Y-80965
X230352Y-14060
X230593Y-52150
X230646Y-74983
X231898Y-91495
X232217Y-78527
X232530Y-61501
X233292Y-15562
X233795Y-53649
X234039Y-91742
X238796Y-71315
X239023Y-33045
X239416Y-63682
X239561Y-34602
X240917Y-73592
X244119Y-92926
X245100Y-60000
X245489Y-52707
X245616Y-90337
X245860Y-72715
X246253Y-33105
X247336Y-71163
X247770Y-34432
X249216Y-38909
X250163Y-14119
X250163Y-18389
X250327Y970
X250995Y2475
X251379Y-52178
X253137Y-16644
X253521Y-53571
X254717Y-17541
X255426Y-91226
X257313Y-91742
X257467Y-73774
X257565Y-33164
X257862Y-71219
X258682Y-34582
X259224Y-90270
X260513Y2474
X262863Y-14290
X263097Y-15801
X263440Y-33940
X264273Y-52143
X265530Y-54304
X265530Y-67812
X266940Y-35466
X267411Y-56185
X268240Y-73693
X269322Y-90388
X270294Y-40437
X270773Y-91790
X272042Y-72740
X272357Y-85694
X275959Y-32720
X277305Y-34086
X279195Y-14051
X281199Y-15582
X282216Y-83576
X282965Y-52166
X283149Y-80416
X283310Y-33070
X283727Y-71470
X283996Y-96546
X284861Y-72720
X285187Y-53627
X289497Y-34787
X289750Y-60158
X290388Y-14013
X291913Y-15676
X295224Y-97803
X296173Y-95029
X296713Y-99398
X296998Y-53627
X298690Y-52334
X300046Y-75979
X300046Y-80110
X300484Y-34644
X300514Y-97850
X300841Y-33238
X302977Y-96558
X303132Y-77518
X303342Y-95023
X303830Y-8059
X304118Y-100772
X306088Y-21306
X307134Y-26566
X308273Y-36768
X314016Y-76296
X315159Y-94965
X315384Y-22776
X315761Y-97035
X318000Y-32300
X318059Y-15227
X319627Y-40673
X320686Y-62710
X320686Y-67335
X320686Y-79474
X321125Y-53396
X321915Y-54122
X322700Y-48800
X322700Y-52900
X323475Y-96537
X331036Y-69314
X333183Y-96553
X336114Y-8514
X336302Y-79474
X336995Y-65126
X338724Y-79271
X338745Y-73035
X343656Y-6579
X344348Y-4717
T3
X326146Y-25261
X326146Y-39761
X328646Y-39761
X331146Y-25261
X331146Y-39761
X154925Y1981
X154925Y-559
X154925Y-3099
X157465Y1981
X157465Y-559
X157465Y-3099
X330896Y-48036
X330896Y-62536
X333396Y-62536
X335896Y-48036
X335896Y-62536
X321371Y-2600
X321371Y-17100
X323871Y-17100
X326371Y-2600
X326371Y-17100
T4
X211539Y-8210
X217352Y-4606
X248634Y-25945
X254984Y-23405
X85520Y-11918
X92215Y-10519
X72832Y-29025
X79526Y-27626
X205467Y-28625
X211280Y-25021
X8127Y-64045
X14477Y-61505
X169872Y-73589
X175684Y-69985
X5746Y-25945
X12096Y-23405
X24796Y-6895
X31146Y-4355
X213465Y-46558
X219278Y-42954
X92975Y-51920
X99669Y-50522
X236251Y-44995
X242601Y-42455
X253396Y-6895
X259746Y-4355
X291496Y-25945
X297846Y-23405
X102742Y-92267
X109436Y-90869
X305784Y-87857
X312134Y-85317
X203670Y-87007
X209483Y-83402
X248634Y-64045
X254984Y-61505
X194705Y-49866
X200517Y-46262
X80286Y-69027
X86981Y-67628
X207393Y-66973
X213205Y-63369
X274827Y-64045
X281178Y-61505
X1446Y-44991
X7796Y-42451
X155258Y-18134
X161070Y-14530
X229584Y-64045
X235934Y-61505
X281971Y-6895
X288321Y-4355
X324834Y-87857
X331184Y-85317
X324862Y-29789
X331212Y-27249
X260540Y-83095
X266890Y-80555
X286258Y-44995
X292608Y-42455
X22415Y-83095
X28765Y-80555
X272573Y-6878
X278923Y-4338
X286734Y-87857
X293084Y-85317
X186707Y-31933
X192519Y-28329
X111735Y-55228
X118430Y-53830
X236728Y-83095
X243077Y-80555
X174018Y-14826
X179831Y-11222
X110353Y-35641
X117048Y-34242
X167946Y-35241
X173758Y-31637
X54071Y-25717
X60766Y-24318
X91592Y-32333
X98287Y-30934
X65257Y-85751
X71952Y-84352
X305784Y-68807
X312134Y-66267
X39084Y-64045
X45434Y-61505
X74214Y-48612
X80909Y-47214
X151111Y-76897
X156924Y-73293
X32416Y-44995
X38766Y-42455
X291532Y-6868
X297882Y-4328
X157183Y-56482
X162996Y-52878
X6223Y-44995
X12573Y-42455
X229584Y-25945
X235934Y-23405
X61526Y-65719
X68220Y-64320
X329637Y-52649
X335987Y-50109
X5746Y-6895
X12096Y-4355
X188632Y-70281
X194445Y-66677
X123041Y-18534
X129736Y-17135
X170825Y-92862
X176638Y-89258
X29559Y-25945
X35909Y-23405
X104281Y-15226
X110975Y-13827
X320137Y-6929
X326487Y-4389
X192779Y-11518
X198591Y-7914
X55453Y-45304
X62148Y-43906
X149107Y-38560
X154919Y-34956
X66760Y-8610
X73454Y-7211
X117808Y-75643
X124502Y-74244
X47999Y-5302
X54694Y-3903
X234346Y-6895
X240696Y-4355
X255301Y-44995
X261651Y-42455
X99047Y-72335
X105742Y-70936
X-1398Y-83095
X4953Y-80555
X175932Y-53185
X181744Y-49581
X267684Y-25945
X274034Y-23405
T5
X137899Y-897
X145399Y-897
T7
X206583Y-69695
X216589Y-67931
X273558Y-66585
X283717Y-66585
X176Y-47531
X10336Y-47531
X154448Y-20856
X164454Y-19092
X228314Y-66585
X238474Y-66585
X280701Y-9435
X290861Y-9435
X323564Y-90397
X333724Y-90397
X323592Y-32329
X333752Y-32329
X259270Y-85635
X269430Y-85635
X284988Y-47535
X295148Y-47535
X21145Y-85635
X31305Y-85635
X271303Y-9418
X281463Y-9418
X285464Y-90397
X295624Y-90397
X185897Y-34655
X195903Y-32890
X110043Y-57509
X120049Y-59274
X235458Y-85635
X245617Y-85635
X173209Y-17548
X183214Y-15784
X108661Y-37922
X118667Y-39686
X167136Y-37963
X177142Y-36198
X52380Y-27998
X62385Y-29762
X89901Y-34614
X99906Y-36378
X63566Y-88032
X73571Y-89796
X304514Y-71347
X314674Y-71347
X37814Y-66585
X47974Y-66585
X72522Y-50893
X82528Y-52658
X150302Y-79619
X160307Y-77855
X31146Y-47535
X41306Y-47535
X290262Y-9408
X300422Y-9408
X156374Y-59204
X166379Y-57440
X4953Y-47535
X15113Y-47535
X228314Y-28485
X238474Y-28485
X59834Y-68000
X69840Y-69764
X328367Y-55189
X338527Y-55189
X4476Y-9435
X14636Y-9435
X187823Y-73003
X197828Y-71239
X121350Y-20815
X131355Y-22579
X170015Y-95584
X180021Y-93820
X28289Y-28485
X38449Y-28485
X102589Y-17507
X112595Y-19271
X318867Y-9469
X329027Y-9469
X191969Y-14240
X201975Y-12476
X53762Y-47585
X63767Y-49350
X148297Y-41282
X158303Y-39518
X65068Y-10891
X75073Y-12655
X116116Y-77924
X126121Y-79688
X46307Y-7583
X56313Y-9347
X233076Y-9435
X243236Y-9435
X254031Y-47535
X264191Y-47535
X97355Y-74616
X107361Y-76380
X-2668Y-85635
X7493Y-85635
X175122Y-55907
X185128Y-54143
X266414Y-28485
X276574Y-28485
X210730Y-10932
X220735Y-9168
X247364Y-28485
X257524Y-28485
X83828Y-14199
X93834Y-15963
X71140Y-31306
X81146Y-33070
X204657Y-31347
X214663Y-29582
X6858Y-66585
X17017Y-66585
X169062Y-76311
X179068Y-74547
X4476Y-28485
X14636Y-28485
X23526Y-9435
X33686Y-9435
X212656Y-49280
X222661Y-47516
X91283Y-54201
X101288Y-55966
X234981Y-47535
X245141Y-47535
X252126Y-9435
X262286Y-9435
X290226Y-28485
X300386Y-28485
X101050Y-94548
X111055Y-96312
X304514Y-90397
X314674Y-90397
X202861Y-89728
X212866Y-87964
X247364Y-66585
X257524Y-66585
X193895Y-52588
X203901Y-50824
X78595Y-71308
X88600Y-73072
T8
X31Y-73570
X23844Y-73570
X93114Y-100242
X116565Y-104377
X273875Y-16420
X297688Y-16420
X278161Y-54520
X301974Y-54520
X164506Y-103648
X187957Y-99513
T9
X276383Y-9418
X290544Y-90397
X190900Y-33773
X115046Y-58391
X240538Y-85635
X178211Y-16666
X113664Y-38804
X172139Y-37081
X57382Y-28880
X94904Y-35496
X68568Y-88914
X309594Y-71347
X42894Y-66585
X77525Y-51775
X155304Y-78737
X36226Y-47535
X295342Y-9408
X161377Y-58322
X10032Y-47535
X233394Y-28485
X64837Y-68882
X333447Y-55189
X9556Y-9435
X192826Y-72121
X126352Y-21697
X161859Y-88640
X175018Y-94702
X185310Y-84505
X33369Y-28485
X107592Y-18389
X323947Y-9469
X196972Y-13358
X58764Y-48467
X153300Y-40400
X70071Y-11773
X121119Y-78806
X51310Y-8465
X238156Y-9435
X259111Y-47535
X102358Y-75498
X2413Y-85635
X180125Y-55025
X271494Y-28485
X215733Y-10050
X252444Y-28485
X88831Y-15081
X76143Y-32188
X209660Y-30465
X31Y-58330
X11938Y-66585
X23844Y-58330
X174065Y-75429
X9556Y-28485
X28606Y-9435
X217658Y-48398
X96286Y-55083
X240061Y-47535
X257206Y-9435
X295306Y-28485
X95761Y-85233
X106053Y-95430
X119212Y-89368
X309594Y-90397
X207863Y-88846
X252444Y-66585
X198898Y-51706
X83597Y-72190
X211586Y-68813
X278638Y-66585
X5256Y-47531
X159451Y-19974
X233394Y-66585
X273875Y-1180
X285781Y-9435
X297688Y-1180
X328644Y-90397
X328672Y-32329
X264350Y-85635
X278161Y-39280
X290068Y-47535
X301974Y-39280
X26225Y-85635
T2
G00X136074Y4358
M15
G01X136074Y3208
M16
G05
G00X136074Y-242
M15
G01X136074Y-1392
M16
G05
G00X147224Y4358
M15
G01X147224Y3208
M16
G05
G00X147224Y-242
M15
G01X147224Y-1392
M16
G05
T6
G00X323046Y-32911
M15
G01X323046Y-31611
M16
G05
G00X334246Y-32911
M15
G01X334246Y-31611
M16
G05
G00X327796Y-55686
M15
G01X327796Y-54386
M16
G05
G00X338996Y-55686
M15
G01X338996Y-54386
M16
G05
G00X318271Y-10250
M15
G01X318271Y-8950
M16
G05
G00X329471Y-10250
M15
G01X329471Y-8950
M16
G05
T0
M30
