M48
; DRILL file {KiCad (5.99.0-1131-g93b7eacfb)} date 05/05/20 10:31:14
; FORMAT={-:-/ absolute / inch / decimal}
; #@! TF.CreationDate,2020-05-05T10:31:14+09:00
; #@! TF.GenerationSoftware,Kicad,Pcbnew,(5.99.0-1131-g93b7eacfb)
; #@! TF.FileFunction,Plated,1,2,PTH
FMAT,2
INCH
T1C0.0157
T2C0.0197
T3C0.0394
T4C0.0579
%
G90
G05
T1
X5.0895Y-9.4155
X5.09Y-7.168
X5.09Y-7.918
X5.09Y-8.664
X5.102Y-6.416
X5.206Y-9.474
X5.484Y-6.478
X5.484Y-7.23
X5.512Y-7.978
X5.576Y-8.728
X5.598Y-9.418
X5.866Y-7.218
X5.908Y-7.152
X5.9225Y-7.3475
X5.924Y-7.936
X5.954Y-9.504
X5.978Y-8.664
X6.07Y-8.666
X6.11Y-6.52
X6.142Y-9.476
X6.236Y-6.478
X6.338Y-8.666
X6.363Y-7.305
X6.422Y-7.95
X6.436Y-7.224
X6.508Y-9.414
X6.556Y-7.98
X6.606Y-6.418
X6.824Y-8.726
X6.844Y-7.196
X6.934Y-7.952
X6.962Y-6.382
X7.11Y-6.408
X7.17Y-7.522
X7.178Y-8.028
X7.194Y-8.712
X7.21Y-6.726
X7.21Y-7.2
X7.338Y-7.212
X7.37Y-7.974
X7.482Y-6.408
X7.485Y-7.335
X7.51Y-6.478
X7.5425Y-8.463
X7.5425Y-8.7775
X7.57Y-6.76
X7.6Y-7.508
X7.63Y-8.7825
X7.665Y-9.5275
X7.71Y-6.488
X7.716Y-7.278
X7.7275Y-9.5625
X7.732Y-7.222
X7.7535Y-8.2105
X7.764Y-8.024
X7.838Y-6.534
X7.9915Y-7.31
X7.992Y-7.598
X7.992Y-8.116
X8.024Y-8.824
X8.07Y-7.34
X8.1275Y-8.1075
X8.165Y-9.5825
X8.1875Y-9.66
X8.22Y-7.54
X8.2325Y-6.5625
X8.2852Y-8.9228
X8.3725Y-8.9125
X8.472Y-7.378
X8.4825Y-6.66
X8.536Y-8.148
X8.56Y-7.5625
X8.565Y-6.6625
X8.73Y-7.0645
X8.73Y-7.465
X8.73Y-7.9108
X8.73Y-8.225
X8.75Y-8.945
X8.815Y-7.47
X8.8725Y-8.2425
X8.905Y-8.6126
X8.905Y-9.0675
X8.97Y-6.7275
X8.97Y-7.655
X8.975Y-6.6725
X8.984Y-6.9325
X9.0802Y-7.7902
X9.1875Y-7.54
X9.1875Y-9.11
X9.205Y-7.4875
X9.2125Y-9.7425
X9.235Y-6.7375
X9.2516Y-8.4884
X9.2625Y-9.8325
X9.2675Y-8.2775
X9.3125Y-6.7975
X9.4775Y-7.5425
X9.495Y-9.0875
X9.5525Y-7.9045
X9.5525Y-8.32
X9.555Y-7.5975
X9.6125Y-8.3675
X9.6525Y-9.84
X9.6625Y-9.91
X9.6725Y-6.8
X9.7075Y-9.075
X9.7225Y-6.87
X9.84Y-9.17
X9.908Y-7.656
X9.916Y-7.844
X9.9225Y-7.6
X9.955Y-6.8775
X9.9675Y-6.75
X9.9685Y-7.626
X9.995Y-8.415
X9.9975Y-6.93
X10.005Y-6.795
X10.215Y-9.1975
X10.2181Y-8.3684
X10.2525Y-8.5025
X10.265Y-8.215
X10.27Y-9.245
X10.295Y-8.3875
X10.315Y-7.5875
X10.3175Y-7.7925
X10.355Y-8.4525
X10.3576Y-7.5401
X10.3625Y-7.6725
X10.3834Y-8.1295
X10.406Y-7.4734
X10.425Y-6.93
X10.4407Y-7.7734
X10.4425Y-6.985
X10.4528Y-8.8428
X10.4825Y-9.2025
X10.5373Y-7.568
X10.5777Y-7.1113
X10.685Y-7.5276
X10.689Y-6.9528
X10.6971Y-7.7057
X10.7075Y-6.8225
X10.7598Y-6.0278
X10.7756Y-6.2047
X10.7795Y-6.1142
X10.7911Y-8.2517
X10.8185Y-6.8786
X10.845Y-9.1275
X10.8475Y-9.2
X10.8609Y-8.9331
X10.875Y-8.4443
X10.8895Y-8.3979
X10.9305Y-8.5488
X10.9484Y-7.8775
X10.9534Y-7.4455
X10.9752Y-8.7515
X10.9803Y-6.0827
X11.001Y-6.8786
X11.0182Y-6.0254
X11.0692Y-6.9539
X11.0988Y-7.2477
X11.1128Y-7.8947
X11.1339Y-7.622
X11.165Y-7.6575
X11.1664Y-6.2054
X11.1925Y-7.7175
X11.1975Y-8.6709
X11.2105Y-7.931
X11.245Y-9.1725
X11.27Y-9.23
X11.3586Y-8.7887
X11.36Y-6.865
X11.4475Y-6.9075
X11.48Y-8.425
X11.5975Y-7.62
X11.66Y-9.1275
X11.71Y-7.6675
X11.825Y-6.8
X11.847Y-6.868
X11.875Y-9.1525
X11.8925Y-8.32
X11.9275Y-7.6025
X11.9525Y-8.51
X12.01Y-9.105
X12.0495Y-9.812
X12.055Y-9.8525
X12.1375Y-8.3075
X12.155Y-6.795
X12.2425Y-8.3075
X12.305Y-7.465
X12.325Y-7.515
X12.4Y-8.9875
X12.4191Y-9.0509
X12.44Y-7.255
X12.4575Y-9.7375
X12.5025Y-9.8
X12.533Y-7.0628
X12.57Y-6.685
X12.57Y-8.6147
X12.615Y-7.395
X12.63Y-8.96
X12.6523Y-8.2473
X12.6525Y-8.195
X12.7438Y-6.9968
X12.745Y-8.97
X12.795Y-6.665
X12.81Y-7.505
X12.8806Y-8.1344
X12.915Y-6.66
X12.96Y-8.175
X13.0635Y-8.4364
X13.065Y-7.35
X13.15Y-8.87
X13.215Y-8.955
X13.215Y-9.54
X13.295Y-7.285
X13.317Y-6.5362
X13.33Y-8.035
X13.3387Y-9.6368
X13.365Y-8.07
X13.365Y-8.31
X13.365Y-8.31
X13.405Y-7.335
X13.4675Y-8.8475
X13.5595Y-8.3627
X13.595Y-8.015
X13.705Y-8.04
X13.7362Y-6.6876
X13.74Y-9.5225
X13.81Y-7.215
X13.875Y-8.7325
X13.97Y-6.99
X14.0512Y-6.4245
X14.1Y-7.91
X14.1647Y-7.3923
X14.1647Y-7.9628
X14.1898Y-8.2809
X14.1898Y-8.6675
X14.1992Y-7.1628
X14.2957Y-7.2211
X14.3189Y-6.467
X14.3591Y-7.3886
X14.3827Y-8.8133
X14.432Y-9.4634
X14.4569Y-8.2825
X14.4869Y-6.4739
X14.5067Y-7.9734
X14.5163Y-9.4731
X14.6691Y-7.4926
X14.7036Y-8.6689
X14.7125Y-7.1622
X14.728Y-8.3684
X14.7337Y-7.2235
X14.944Y-8.3006
X14.9671Y-7.9363
X14.9721Y-9.4178
X14.9817Y-8.724
X14.9972Y-7.1646
X15.0027Y-8.387
X15.0398Y-8.6629
X15.0569Y-7.2168
X15.1511Y-6.4171
X15.1511Y-6.5852
X15.199Y-7.9155
X15.2682Y-6.5165
X15.2833Y-7.9703
X15.3304Y-6.5518
X15.4242Y-8.3679
X15.4326Y-9.4731
X15.4425Y-7.1669
X15.4542Y-8.6651
X15.4865Y-7.2227
X15.5078Y-9.4152
X15.6511Y-6.4238
X15.6603Y-6.4833
X15.6738Y-6.7853
X15.7066Y-7.9141
X15.7561Y-7.9702
X15.7561Y-8.531
X15.7865Y-7.1808
X15.8116Y-7.2575
X15.8628Y-8.7625
X15.9054Y-9.4198
X15.926Y-7.4522
X15.9322Y-6.7463
X15.9625Y-9.475
X16.0125Y-8.725
X16.1667Y-7.1494
X16.2197Y-7.2032
X16.2941Y-6.4144
X16.373Y-6.4747
X16.4425Y-7.915
X16.4561Y-7.1632
X16.4725Y-8.675
X16.4831Y-9.6622
X16.5277Y-7.3123
X16.53Y-7.9725
X16.6997Y-7.2308
X16.7096Y-8.2296
X16.7897Y-6.4244
X16.7948Y-6.4784
X16.9625Y-9.6025
X16.995Y-7.9725
X17.0616Y-7.9216
X17.115Y-8.8525
X17.1463Y-7.1698
X17.2304Y-9.6627
X17.2365Y-8.9131
X17.2448Y-9.6023
X17.2753Y-9.8252
X17.3498Y-6.3836
X17.665Y-8.865
X17.71Y-9.6
X17.7337Y-9.6815
X17.8859Y-7.399
X17.9276Y-8.3301
X17.9276Y-8.9901
X17.9449Y-7.9634
X18.0374Y-9.6619
X18.0624Y-7.9634
X18.1228Y-7.6825
X18.4196Y-9.6625
X18.5424Y-8.9901
T3
X17.9595Y-5.9684
X17.9595Y-6.5392
X18.0579Y-6.5392
X18.1563Y-5.9684
X18.1563Y-6.5392
X18.3345Y-7.4709
X18.3345Y-8.0417
X18.4329Y-8.0417
X18.5313Y-7.4709
X18.5313Y-8.0417
X18.1495Y-6.7209
X18.1495Y-7.2917
X18.2479Y-7.2917
X18.3463Y-6.7209
X18.3463Y-7.2917
T4
X16.5909Y-9.3202
X16.8409Y-9.2202
X15.3534Y-7.6327
X15.6034Y-7.5327
X12.6528Y-7.1184
X12.8817Y-6.9765
X14.3409Y-8.3827
X14.5909Y-8.2827
X5.2471Y-9.1327
X5.4971Y-9.0327
X8.9626Y-7.9053
X9.2262Y-7.8503
X12.7286Y-8.6282
X12.9575Y-8.4863
X14.6034Y-7.6327
X14.8534Y-7.5327
X8.224Y-7.7751
X8.4875Y-7.72
X16.4034Y-6.1327
X16.6534Y-6.0327
X12.2286Y-7.9551
X12.4575Y-7.8132
X9.3471Y-9.4938
X9.6107Y-9.4387
X13.6305Y-6.1845
X13.8593Y-6.0426
X6.8409Y-8.3827
X7.0909Y-8.2827
X9.4077Y-6.4607
X9.6713Y-6.4056
X9.9403Y-8.8393
X10.2038Y-8.7842
X12.8919Y-6.3147
X13.1207Y-6.1728
X6.5784Y-7.6327
X6.8284Y-7.5327
X7.431Y-6.8737
X7.6945Y-6.8186
X8.463Y-8.5788
X8.7266Y-8.5238
X12.1533Y-6.4449
X12.3821Y-6.303
X15.0909Y-8.3827
X15.3409Y-8.2827
X7.1919Y-6.07
X7.4555Y-6.0149
X16.5721Y-7.6327
X16.8221Y-7.5327
X11.4905Y-8.0849
X11.7193Y-7.943
X9.6468Y-7.2644
X9.9103Y-7.2093
X5.5471Y-7.6327
X5.7971Y-7.5327
X7.8714Y-9.2372
X8.1349Y-9.1822
X13.3914Y-6.9882
X13.6203Y-6.8463
X9.2017Y-8.7091
X9.4652Y-8.654
X16.7784Y-6.8827
X17.0284Y-6.7827
X5.5284Y-6.1327
X5.7784Y-6.0327
X14.6221Y-9.1327
X14.8721Y-9.0327
X11.9142Y-7.2487
X12.143Y-7.1068
X8.1696Y-7.0039
X8.4331Y-6.9489
X15.8409Y-6.8827
X16.0909Y-6.7827
X15.2784Y-6.1327
X15.5284Y-6.0327
X11.99Y-8.7584
X12.2189Y-8.6165
X6.1846Y-9.1327
X6.4346Y-9.0327
X11.1756Y-7.3789
X11.4044Y-7.237
X7.7244Y-8.4486
X7.988Y-8.3935
X5.6221Y-8.3827
X5.8721Y-8.2827
X11.2514Y-8.8887
X11.4803Y-8.7468
X15.0909Y-6.8827
X15.3409Y-6.7827
X13.3207Y-9.2867
X13.5495Y-9.1448
X7.9305Y-6.2002
X8.1941Y-6.1451
X14.3409Y-6.8827
X14.5909Y-6.7827
X11.4147Y-6.5752
X11.6435Y-6.4333
X6.4659Y-6.8827
X6.7159Y-6.7827
X9.7012Y-8.0356
X9.9648Y-7.9805
X5.5284Y-6.8827
X5.7784Y-6.7827
X14.5284Y-6.1327
X14.7784Y-6.0327
X10.1463Y-6.5909
X10.4099Y-6.5358
X13.4672Y-8.498
X13.6961Y-8.3561
X15.5596Y-9.1327
X15.8096Y-9.0327
X5.3591Y-7.6325
X5.6091Y-7.5325
X8.6691Y-6.3304
X8.9327Y-6.2754
X6.2784Y-6.1327
X6.5284Y-6.0327
X18.0909Y-9.3202
X18.3409Y-9.2202
X12.9677Y-7.8245
X13.1965Y-7.6826
X7.4854Y-7.6449
X7.7489Y-7.5898
X12.0276Y-9.5172
X12.2564Y-9.3753
X17.3409Y-9.3202
X17.5909Y-9.2202
X8.9082Y-7.1342
X9.1717Y-7.0791
X17.3409Y-8.5702
X17.5909Y-8.4702
X13.7063Y-7.6942
X13.9351Y-7.5523
X16.1221Y-8.3827
X16.3721Y-8.2827
T2
G00X10.6594Y-5.6896
M15
G01X10.6594Y-5.7349
M16
G05
G00X10.6594Y-5.8707
M15
G01X10.6594Y-5.916
M16
G05
G00X11.0984Y-5.6896
M15
G01X11.0984Y-5.7349
M16
G05
G00X11.0984Y-5.8707
M15
G01X11.0984Y-5.916
M16
G05
T0
M30
