G04 #@! TF.GenerationSoftware,KiCad,Pcbnew,(5.1.6)-1*
G04 #@! TF.CreationDate,2020-08-21T21:37:27+09:00*
G04 #@! TF.ProjectId,trifecta,74726966-6563-4746-912e-6b696361645f,rev?*
G04 #@! TF.SameCoordinates,Original*
G04 #@! TF.FileFunction,Soldermask,Top*
G04 #@! TF.FilePolarity,Negative*
%FSLAX46Y46*%
G04 Gerber Fmt 4.6, Leading zero omitted, Abs format (unit mm)*
G04 Created by KiCad (PCBNEW (5.1.6)-1) date 2020-08-21 21:37:27*
%MOMM*%
%LPD*%
G01*
G04 APERTURE LIST*
%ADD10C,2.270000*%
%ADD11C,4.007800*%
%ADD12C,1.770000*%
%ADD13C,3.068000*%
%ADD14O,2.020000X2.020000*%
%ADD15C,2.020000*%
%ADD16R,2.020000X3.220000*%
%ADD17O,1.720000X1.720000*%
%ADD18R,1.720000X1.720000*%
%ADD19O,1.220000X2.320000*%
%ADD20C,0.620000*%
G04 APERTURE END LIST*
D10*
X12096250Y-4354746D03*
D11*
X9556250Y-9434746D03*
D10*
X5746250Y-6894746D03*
D12*
X4476250Y-9434746D03*
X14636250Y-9434746D03*
D10*
X154919279Y-34956110D03*
D11*
X153300000Y-40400000D03*
D10*
X149106816Y-38560188D03*
D12*
X148297177Y-41282133D03*
X158302823Y-39517867D03*
D10*
X242601250Y-42454746D03*
D11*
X240061250Y-47534746D03*
D10*
X236251250Y-44994746D03*
D12*
X234981250Y-47534746D03*
X245141250Y-47534746D03*
D10*
X297846250Y-23404746D03*
D11*
X295306250Y-28484746D03*
D10*
X291496250Y-25944746D03*
D12*
X290226250Y-28484746D03*
X300386250Y-28484746D03*
D10*
X297881920Y-4327640D03*
D11*
X295341920Y-9407640D03*
D10*
X291531920Y-6867640D03*
D12*
X290261920Y-9407640D03*
X300421920Y-9407640D03*
D10*
X278923360Y-4337800D03*
D11*
X276383360Y-9417800D03*
D10*
X272573360Y-6877800D03*
D12*
X271303360Y-9417800D03*
X281463360Y-9417800D03*
D10*
X335987000Y-50108600D03*
D11*
X333447000Y-55188600D03*
D10*
X329637000Y-52648600D03*
D12*
X328367000Y-55188600D03*
X338527000Y-55188600D03*
D10*
X331211800Y-27248600D03*
D11*
X328671800Y-32328600D03*
D10*
X324861800Y-29788600D03*
D12*
X323591800Y-32328600D03*
X333751800Y-32328600D03*
D10*
X326487400Y-4388600D03*
D11*
X323947400Y-9468600D03*
D10*
X320137400Y-6928600D03*
D12*
X318867400Y-9468600D03*
X329027400Y-9468600D03*
D10*
X213205400Y-63368868D03*
D11*
X211586121Y-68812758D03*
D10*
X207392937Y-66972946D03*
D12*
X206583298Y-69694891D03*
X216588944Y-67930625D03*
D10*
X194444813Y-66676866D03*
D11*
X192825534Y-72120756D03*
D10*
X188632350Y-70280944D03*
D12*
X187822711Y-73002889D03*
X197828357Y-71238623D03*
D10*
X175684225Y-69984864D03*
D11*
X174064946Y-75428754D03*
D10*
X169871762Y-73588942D03*
D12*
X169062123Y-76310887D03*
X179067769Y-74546621D03*
D10*
X156923637Y-73292861D03*
D11*
X155304358Y-78736751D03*
D10*
X151111174Y-76896939D03*
D12*
X150301535Y-79618884D03*
X160307181Y-77854618D03*
D10*
X219277696Y-42954282D03*
D11*
X217658417Y-48398172D03*
D10*
X213465233Y-46558360D03*
D12*
X212655594Y-49280305D03*
X222661240Y-47516039D03*
D10*
X200517109Y-46262279D03*
D11*
X198897830Y-51706169D03*
D10*
X194704646Y-49866357D03*
D12*
X193895007Y-52588302D03*
X203900653Y-50824036D03*
D10*
X181744279Y-49581110D03*
D11*
X180125000Y-55025000D03*
D10*
X175931816Y-53185188D03*
D12*
X175122177Y-55907133D03*
X185127823Y-54142867D03*
D10*
X162995933Y-52878275D03*
D11*
X161376654Y-58322165D03*
D10*
X157183470Y-56482353D03*
D12*
X156373831Y-59204298D03*
X166379477Y-57440032D03*
D10*
X211279552Y-25020693D03*
D11*
X209660273Y-30464583D03*
D10*
X205467089Y-28624771D03*
D12*
X204657450Y-31346716D03*
X214663096Y-29582450D03*
D10*
X192518964Y-28328691D03*
D11*
X190899685Y-33772581D03*
D10*
X186706501Y-31932769D03*
D12*
X185896862Y-34654714D03*
X195902508Y-32890448D03*
D10*
X173758376Y-31636689D03*
D11*
X172139097Y-37080579D03*
D10*
X167945913Y-35240767D03*
D12*
X167136274Y-37962712D03*
X177141920Y-36198446D03*
D10*
X217351848Y-4606107D03*
D11*
X215732569Y-10049997D03*
D10*
X211539385Y-8210185D03*
D12*
X210729746Y-10932130D03*
X220735392Y-9167864D03*
D10*
X198591260Y-7914104D03*
D11*
X196971981Y-13357994D03*
D10*
X192778797Y-11518182D03*
D12*
X191969158Y-14240127D03*
X201974804Y-12475861D03*
D10*
X179830672Y-11222102D03*
D11*
X178211393Y-16665992D03*
D10*
X174018209Y-14826180D03*
D12*
X173208570Y-17548125D03*
X183214216Y-15783859D03*
D10*
X161070085Y-14530100D03*
D11*
X159450806Y-19973990D03*
D10*
X155257622Y-18134178D03*
D12*
X154447983Y-20856123D03*
X164453629Y-19091857D03*
D10*
X124502098Y-74244247D03*
D11*
X121118554Y-78806004D03*
D10*
X117807503Y-75642993D03*
D12*
X116115731Y-77923871D03*
X126121377Y-79688137D03*
D10*
X105741510Y-70936249D03*
D11*
X102357966Y-75498006D03*
D10*
X99046915Y-72334995D03*
D12*
X97355143Y-74615873D03*
X107360789Y-76380139D03*
D10*
X86980923Y-67628251D03*
D11*
X83597379Y-72190008D03*
D10*
X80286328Y-69026997D03*
D12*
X78594556Y-71307875D03*
X88600202Y-73072141D03*
D10*
X68220335Y-64320253D03*
D11*
X64836791Y-68882010D03*
D10*
X61525740Y-65718999D03*
D12*
X59833968Y-67999877D03*
X69839614Y-69764143D03*
D10*
X118429802Y-53829660D03*
D11*
X115046258Y-58391417D03*
D10*
X111735207Y-55228406D03*
D12*
X110043435Y-57509284D03*
X120049081Y-59273550D03*
D10*
X99669214Y-50521662D03*
D11*
X96285670Y-55083419D03*
D10*
X92974619Y-51920408D03*
D12*
X91282847Y-54201286D03*
X101288493Y-55965552D03*
D10*
X80908627Y-47213665D03*
D11*
X77525083Y-51775422D03*
D10*
X74214032Y-48612411D03*
D12*
X72522260Y-50893289D03*
X82527906Y-52657555D03*
D10*
X62148039Y-43905667D03*
D11*
X58764495Y-48467424D03*
D10*
X55453444Y-45304413D03*
D12*
X53761672Y-47585291D03*
X63767318Y-49349557D03*
D10*
X117047653Y-34242073D03*
D11*
X113664109Y-38803830D03*
D10*
X110353058Y-35640819D03*
D12*
X108661286Y-37921697D03*
X118666932Y-39685963D03*
D10*
X98287065Y-30934075D03*
D11*
X94903521Y-35495832D03*
D10*
X91592470Y-32332821D03*
D12*
X89900698Y-34613699D03*
X99906344Y-36377965D03*
D10*
X79526478Y-27626077D03*
D11*
X76142934Y-32187834D03*
D10*
X72831883Y-29024823D03*
D12*
X71140111Y-31305701D03*
X81145757Y-33069967D03*
D10*
X60765890Y-24318080D03*
D11*
X57382346Y-28879837D03*
D10*
X54071295Y-25716826D03*
D12*
X52379523Y-27997704D03*
X62385169Y-29761970D03*
D10*
X129735945Y-17135484D03*
D11*
X126352401Y-21697241D03*
D10*
X123041350Y-18534230D03*
D12*
X121349578Y-20815108D03*
X131355224Y-22579374D03*
D10*
X110975357Y-13827486D03*
D11*
X107591813Y-18389243D03*
D10*
X104280762Y-15226232D03*
D12*
X102588990Y-17507110D03*
X112594636Y-19271376D03*
D10*
X92214769Y-10519489D03*
D11*
X88831225Y-15081246D03*
D10*
X85520174Y-11918235D03*
D12*
X83828402Y-14199113D03*
X93834048Y-15963379D03*
D10*
X73454182Y-7211491D03*
D11*
X70070638Y-11773248D03*
D10*
X66759587Y-8610237D03*
D12*
X65067815Y-10891115D03*
X75073461Y-12655381D03*
D10*
X54693594Y-3903493D03*
D11*
X51310050Y-8465250D03*
D10*
X47998999Y-5302239D03*
D12*
X46307227Y-7583117D03*
X56312873Y-9347383D03*
D10*
X331183750Y-85317246D03*
D11*
X328643750Y-90397246D03*
D10*
X324833750Y-87857246D03*
D12*
X323563750Y-90397246D03*
X333723750Y-90397246D03*
D10*
X312133750Y-85317246D03*
D11*
X309593750Y-90397246D03*
D10*
X305783750Y-87857246D03*
D12*
X304513750Y-90397246D03*
X314673750Y-90397246D03*
D10*
X293083750Y-85317246D03*
D11*
X290543750Y-90397246D03*
D10*
X286733750Y-87857246D03*
D12*
X285463750Y-90397246D03*
X295623750Y-90397246D03*
D10*
X312133750Y-66267246D03*
D11*
X309593750Y-71347246D03*
D10*
X305783750Y-68807246D03*
D12*
X304513750Y-71347246D03*
X314673750Y-71347246D03*
D10*
X254983750Y-61504746D03*
D11*
X252443750Y-66584746D03*
D10*
X248633750Y-64044746D03*
D12*
X247363750Y-66584746D03*
X257523750Y-66584746D03*
D10*
X235933750Y-61504746D03*
D11*
X233393750Y-66584746D03*
D10*
X229583750Y-64044746D03*
D12*
X228313750Y-66584746D03*
X238473750Y-66584746D03*
D10*
X45433750Y-61504746D03*
D11*
X42893750Y-66584746D03*
D10*
X39083750Y-64044746D03*
D12*
X37813750Y-66584746D03*
X47973750Y-66584746D03*
D10*
X261651250Y-42454746D03*
D11*
X259111250Y-47534746D03*
D10*
X255301250Y-44994746D03*
D12*
X254031250Y-47534746D03*
X264191250Y-47534746D03*
D10*
X38766250Y-42454746D03*
D11*
X36226250Y-47534746D03*
D10*
X32416250Y-44994746D03*
D12*
X31146250Y-47534746D03*
X41306250Y-47534746D03*
D10*
X274033750Y-23404746D03*
D11*
X271493750Y-28484746D03*
D10*
X267683750Y-25944746D03*
D12*
X266413750Y-28484746D03*
X276573750Y-28484746D03*
D10*
X254983750Y-23404746D03*
D11*
X252443750Y-28484746D03*
D10*
X248633750Y-25944746D03*
D12*
X247363750Y-28484746D03*
X257523750Y-28484746D03*
D10*
X235933750Y-23404746D03*
D11*
X233393750Y-28484746D03*
D10*
X229583750Y-25944746D03*
D12*
X228313750Y-28484746D03*
X238473750Y-28484746D03*
D10*
X35908750Y-23404746D03*
D11*
X33368750Y-28484746D03*
D10*
X29558750Y-25944746D03*
D12*
X28288750Y-28484746D03*
X38448750Y-28484746D03*
D10*
X259746250Y-4354746D03*
D11*
X257206250Y-9434746D03*
D10*
X253396250Y-6894746D03*
D12*
X252126250Y-9434746D03*
X262286250Y-9434746D03*
D10*
X240696250Y-4354746D03*
D11*
X238156250Y-9434746D03*
D10*
X234346250Y-6894746D03*
D12*
X233076250Y-9434746D03*
X243236250Y-9434746D03*
D10*
X31146250Y-4354746D03*
D11*
X28606250Y-9434746D03*
D10*
X24796250Y-6894746D03*
D12*
X23526250Y-9434746D03*
X33686250Y-9434746D03*
D10*
X176637532Y-89257950D03*
D11*
X175018253Y-94701840D03*
D10*
X170825069Y-92862028D03*
D12*
X170015430Y-95583973D03*
X180021076Y-93819707D03*
D13*
X164505818Y-103648221D03*
X187956553Y-99513224D03*
D11*
X161859420Y-88639751D03*
X185310155Y-84504753D03*
D14*
X330896200Y-62536200D03*
D15*
X333396200Y-62536200D03*
X335896200Y-62536200D03*
D16*
X327796200Y-55036200D03*
X338996200Y-55036200D03*
D15*
X330896200Y-48036200D03*
X335896200Y-48036200D03*
D14*
X326146490Y-39761210D03*
D15*
X328646490Y-39761210D03*
X331146490Y-39761210D03*
D16*
X323046490Y-32261210D03*
X334246490Y-32261210D03*
D15*
X326146490Y-25261210D03*
X331146490Y-25261210D03*
D14*
X321371290Y-17100000D03*
D15*
X323871290Y-17100000D03*
X326371290Y-17100000D03*
D16*
X318271290Y-9600000D03*
X329471290Y-9600000D03*
D15*
X321371290Y-2600000D03*
X326371290Y-2600000D03*
D17*
X154924760Y-3098800D03*
X157464760Y-3098800D03*
X154924760Y-558800D03*
X157464760Y-558800D03*
X154924760Y1981200D03*
D18*
X157464760Y1981200D03*
D19*
X136074000Y6415200D03*
X147224000Y6415200D03*
X136074000Y11015200D03*
X147224000Y11015200D03*
D20*
X137899000Y6335200D03*
X145399000Y6335200D03*
D11*
X285781250Y-9434746D03*
D12*
X280701250Y-9434746D03*
X290861250Y-9434746D03*
D13*
X273875000Y-16419746D03*
X297687500Y-16419746D03*
D11*
X273875000Y-1179746D03*
X297687500Y-1179746D03*
D10*
X243077500Y-80554746D03*
D11*
X240537500Y-85634746D03*
D10*
X236727500Y-83094746D03*
D12*
X235457500Y-85634746D03*
X245617500Y-85634746D03*
D10*
X7796250Y-42451250D03*
D11*
X5256250Y-47531250D03*
D10*
X1446250Y-44991250D03*
D12*
X176250Y-47531250D03*
X10336250Y-47531250D03*
D10*
X292607500Y-42454746D03*
D11*
X290067500Y-47534746D03*
D10*
X286257500Y-44994746D03*
D12*
X284987500Y-47534746D03*
X295147500Y-47534746D03*
D13*
X278161250Y-54519746D03*
X301973750Y-54519746D03*
D11*
X278161250Y-39279746D03*
X301973750Y-39279746D03*
D10*
X209482604Y-83402455D03*
D11*
X207863325Y-88846345D03*
D10*
X203670141Y-87006533D03*
D12*
X202860502Y-89728478D03*
X212866148Y-87964212D03*
D10*
X109436219Y-90868588D03*
D11*
X106052675Y-95430345D03*
D10*
X102741624Y-92267334D03*
D12*
X101049852Y-94548212D03*
X111055498Y-96312478D03*
D13*
X93114375Y-100241729D03*
X116565110Y-104376726D03*
D11*
X95760773Y-85233258D03*
X119211508Y-89368256D03*
D10*
X71951984Y-84352340D03*
D11*
X68568440Y-88914097D03*
D10*
X65257389Y-85751086D03*
D12*
X63565617Y-88031964D03*
X73571263Y-89796230D03*
D10*
X266890000Y-80554746D03*
D11*
X264350000Y-85634746D03*
D10*
X260540000Y-83094746D03*
D12*
X259270000Y-85634746D03*
X269430000Y-85634746D03*
D10*
X28765000Y-80554746D03*
D11*
X26225000Y-85634746D03*
D10*
X22415000Y-83094746D03*
D12*
X21145000Y-85634746D03*
X31305000Y-85634746D03*
D10*
X4952500Y-80554746D03*
D11*
X2412500Y-85634746D03*
D10*
X-1397500Y-83094746D03*
D12*
X-2667500Y-85634746D03*
X7492500Y-85634746D03*
D10*
X281177500Y-61504746D03*
D11*
X278637500Y-66584746D03*
D10*
X274827500Y-64044746D03*
D12*
X273557500Y-66584746D03*
X283717500Y-66584746D03*
D10*
X14477500Y-61504746D03*
D11*
X11937500Y-66584746D03*
D10*
X8127500Y-64044746D03*
D12*
X6857500Y-66584746D03*
X17017500Y-66584746D03*
D13*
X31250Y-73569746D03*
X23843750Y-73569746D03*
D11*
X31250Y-58329746D03*
X23843750Y-58329746D03*
D10*
X12572500Y-42454746D03*
D11*
X10032500Y-47534746D03*
D10*
X6222500Y-44994746D03*
D12*
X4952500Y-47534746D03*
X15112500Y-47534746D03*
D10*
X12096250Y-23404746D03*
D11*
X9556250Y-28484746D03*
D10*
X5746250Y-25944746D03*
D12*
X4476250Y-28484746D03*
X14636250Y-28484746D03*
M02*
