0
SECTION
2
HEADER
9
$INSUNITS
70
4
9
$ACADVER
1
AC1014
9
$HANDSEED
5
FFFF
0
ENDSEC
0
SECTION
2
TABLES
0
TABLE
2
VPORT
5
8
100
AcDbSymbolTable
0
ENDTAB
0
TABLE
2
LTYPE
5
5
100
AcDbSymbolTable
0
LTYPE
5
14
100
AcDbSymbolTableRecord
100
AcDbLinetypeTableRecord
2
BYBLOCK
70
0
0
LTYPE
5
15
100
AcDbSymbolTableRecord
100
AcDbLinetypeTableRecord
2
BYLAYER
70
0
0
ENDTAB
0
TABLE
2
LAYER
5
2
100
AcDbSymbolTable
70
2
0
LAYER
5
50
100
AcDbSymbolTableRecord
100
AcDbLayerTableRecord
2
0
70
0
6
CONTINUOUS
0
ENDTAB
0
TABLE
2
STYLE
5
3
100
AcDbSymbolTable
70
1
0
STYLE
5
11
100
AcDbSymbolTableRecord
100
AcDbTextStyleTableRecord
2
STANDARD
70
0
0
ENDTAB
0
TABLE
2
VIEW
5
6
100
AcDbSymbolTable
70
0
0
ENDTAB
0
TABLE
2
UCS
5
7
100
AcDbSymbolTable
70
0
0
ENDTAB
0
TABLE
2
APPID
5
9
100
AcDbSymbolTable
70
2
0
APPID
5
12
100
AcDbSymbolTableRecord
100
AcDbRegAppTableRecord
2
ACAD
70
0
0
ENDTAB
0
TABLE
2
DIMSTYLE
5
A
100
AcDbSymbolTable
70
1
0
ENDTAB
0
TABLE
2
BLOCK_RECORD
5
1
100
AcDbSymbolTable
70
1
0
BLOCK_RECORD
5
1F
100
AcDbSymbolTableRecord
100
AcDbBlockTableRecord
2
*MODEL_SPACE
0
BLOCK_RECORD
5
1B
100
AcDbSymbolTableRecord
100
AcDbBlockTableRecord
2
*PAPER_SPACE
0
ENDTAB
0
ENDSEC
0
SECTION
2
BLOCKS
0
BLOCK
5
20
100
AcDbEntity
100
AcDbBlockBegin
2
*MODEL_SPACE
0
ENDBLK
5
21
100
AcDbEntity
100
AcDbBlockEnd
0
BLOCK
5
1C
100
AcDbEntity
100
AcDbBlockBegin
2
*PAPER_SPACE
0
ENDBLK
5
1D
100
AcDbEntity
100
AcDbBlockEnd
0
ENDSEC
0
SECTION
2
ENTITIES
0
LWPOLYLINE
5
100
100
AcDbEntity
8
0
100
AcDbPolyline
90
6
70
1
43
0.0
10
-113.50274338640301
20
10.61615608153839
10
-116.06131003322358
20
11.067528116313987
10
-117.73149300530739
20
9.0774304202796241
10
-116.84310933057064
20
6.6359606894696599
10
-114.28454268375008
20
6.1845886546940676
10
-112.61435971166627
20
8.174686350728436
0
LWPOLYLINE
5
101
100
AcDbEntity
8
0
100
AcDbPolyline
90
6
70
1
43
0.0
10
-360.69989840072128
20
-116.59148485737012
10
-363.29797461207454
20
-116.59148485737009
10
-364.59701271775123
20
-118.84148485737008
10
-363.29797461207465
20
-121.09148485737008
10
-360.69989840072134
20
-121.09148485737011
10
-359.40086029504465
20
-118.84148485737013
0
LWPOLYLINE
5
102
100
AcDbEntity
8
0
100
AcDbPolyline
90
6
70
1
43
0.0
10
8.6779679101292739
20
1.8172914553817345
10
6.0798916987759561
20
1.8172914553817334
10
4.7808535930993008
20
-0.43270854461826713
10
6.0798916987759597
20
-2.6827085446182659
10
8.6779679101292757
20
-2.6827085446182641
10
9.9770060158059319
20
-0.43270854461826463
0
LWPOLYLINE
5
103
100
AcDbEntity
8
0
100
AcDbPolyline
90
6
70
1
43
0.0
10
-363.29797461207426
20
1.8172914534802589
10
-364.59701271775094
20
-0.43270854651975554
10
-363.29797461207431
20
-2.6827085465198053
10
-360.69989840072094
20
-2.6827085465198053
10
-359.40086029504425
20
-0.43270854651979107
10
-360.69989840072094
20
1.8172914534802231
0
LWPOLYLINE
5
104
100
AcDbEntity
8
0
100
AcDbPolyline
90
6
70
1
43
0.0
10
-81.762920245295859
20
-120.39909670194503
10
-84.360996456649161
20
-120.39909670194504
10
-85.660034562325805
20
-122.64909670194501
10
-84.360996456649161
20
-124.899096701945
10
-81.762920245295859
20
-124.899096701945
10
-80.463882139619201
20
-122.64909670194501
0
LWPOLYLINE
5
105
100
AcDbEntity
8
0
100
AcDbPolyline
90
6
70
1
43
0.0
10
-179.03028601762028
20
11.06753375726794
10
-181.58885880727144
20
10.616196544026479
10
-182.47727570975667
20
8.1747389041362251
10
-180.80711982259072
20
6.1846184774874136
10
-178.24854703293954
20
6.6359556907288653
10
-177.36013013045434
20
9.0774133306191196
0
LWPOLYLINE
5
106
100
AcDbEntity
8
0
100
AcDbPolyline
90
6
70
1
43
0.0
10
8.6779679101292828
20
-116.59148485737013
10
6.0798916987759668
20
-116.59148485737013
10
4.7808535930993115
20
-118.84148485737013
10
6.0798916987759677
20
-121.09148485737012
10
8.677967910129281
20
-121.09148485737012
10
9.9770060158059373
20
-118.84148485737013
0
LWPOLYLINE
5
107
100
AcDbEntity
8
0
100
AcDbPolyline
90
6
70
1
43
0.0
10
-270.25901024529605
20
-120.39909670194501
10
-272.85708645664931
20
-120.39909670194501
10
-274.156124562326
20
-122.649096701945
10
-272.85708645664931
20
-124.899096701945
10
-270.25901024529605
20
-124.899096701945
10
-268.95997213961937
20
-122.649096701945
0
LWPOLYLINE
5
108
100
AcDbEntity
8
0
100
AcDbPolyline
90
30
70
1
43
0.0
10
-142.40399999999983
20
-117.14909670194501
10
-1.8134583509725388
20
-117.14909670194503
42
0.41421356237309309
10
5.6865416490274949
20
-109.64909670194503
10
5.6865416490274949
20
-9.6250967000433878
42
0.41421356237309548
10
-1.8134583509725033
20
-2.1250967000433789
10
-85.494701606978538
20
-2.1250967000433825
42
-0.043682561896008325
10
-86.27650090382636
20
-2.0566641269698884
10
-145.89421573429581
20
8.4608532826861769
42
0.087528721222429884
10
-149.19501877413236
20
8.4608757442640012
10
-208.81766402962847
20
-2.0566747684843976
42
-0.043679152987161018
10
-209.59940301430925
20
-2.1250967019453224
10
-352.80654835097238
20
-2.125096701944984
42
0.41421356237309293
10
-360.30654835097266
20
-9.6250967019450151
10
-360.30654835097266
20
-109.649096701945
42
0.41421356237311102
10
-352.80654835097266
20
-117.14909670194498
10
-159.7439999999998
20
-117.14909670194501
10
-159.7439999999998
20
-129.14909670194501
10
-352.80654835097289
20
-129.14909670194501
42
-0.41421356237309587
10
-372.30654835097266
20
-109.64909670194514
10
-372.30654835097266
20
-9.6250967019452016
42
-0.41421356237309592
10
-352.80654835097243
20
9.8749032980549583
10
-210.25584270967488
20
9.8749032980546758
10
-151.27965606661436
20
20.278417255034892
42
-0.087528721222430578
10
-143.80941760803691
20
20.278366420937701
10
-84.838210483956047
20
9.8749032999566548
10
-1.813458350972514
20
9.8749032999566229
42
-0.41421356237309537
10
17.686541649027497
20
-9.6250967000433896
10
17.686541649027493
20
-109.649096701945
42
-0.41421356237309481
10
-1.8134583509725388
20
-129.14909670194504
10
-142.40399999999983
20
-129.14909670194501
0
ENDSEC
0
SECTION
2
OBJECTS
0
DICTIONARY
5
C
100
AcDbDictionary
3
ACAD_GROUP
350
D
3
ACAD_MLINESTYLE
350
17
0
DICTIONARY
5
D
100
AcDbDictionary
0
DICTIONARY
5
1A
330
C
100
AcDbDictionary
0
DICTIONARY
5
17
100
AcDbDictionary
0
ENDSEC
0
EOF
