0
SECTION
2
HEADER
9
$INSUNITS
70
4
9
$ACADVER
1
AC1014
9
$HANDSEED
5
FFFF
0
ENDSEC
0
SECTION
2
TABLES
0
TABLE
2
VPORT
5
8
100
AcDbSymbolTable
0
ENDTAB
0
TABLE
2
LTYPE
5
5
100
AcDbSymbolTable
0
LTYPE
5
14
100
AcDbSymbolTableRecord
100
AcDbLinetypeTableRecord
2
BYBLOCK
70
0
0
LTYPE
5
15
100
AcDbSymbolTableRecord
100
AcDbLinetypeTableRecord
2
BYLAYER
70
0
0
ENDTAB
0
TABLE
2
LAYER
5
2
100
AcDbSymbolTable
70
2
0
LAYER
5
50
100
AcDbSymbolTableRecord
100
AcDbLayerTableRecord
2
0
70
0
6
CONTINUOUS
0
ENDTAB
0
TABLE
2
STYLE
5
3
100
AcDbSymbolTable
70
1
0
STYLE
5
11
100
AcDbSymbolTableRecord
100
AcDbTextStyleTableRecord
2
STANDARD
70
0
0
ENDTAB
0
TABLE
2
VIEW
5
6
100
AcDbSymbolTable
70
0
0
ENDTAB
0
TABLE
2
UCS
5
7
100
AcDbSymbolTable
70
0
0
ENDTAB
0
TABLE
2
APPID
5
9
100
AcDbSymbolTable
70
2
0
APPID
5
12
100
AcDbSymbolTableRecord
100
AcDbRegAppTableRecord
2
ACAD
70
0
0
ENDTAB
0
TABLE
2
DIMSTYLE
5
A
100
AcDbSymbolTable
70
1
0
ENDTAB
0
TABLE
2
BLOCK_RECORD
5
1
100
AcDbSymbolTable
70
1
0
BLOCK_RECORD
5
1F
100
AcDbSymbolTableRecord
100
AcDbBlockTableRecord
2
*MODEL_SPACE
0
BLOCK_RECORD
5
1B
100
AcDbSymbolTableRecord
100
AcDbBlockTableRecord
2
*PAPER_SPACE
0
ENDTAB
0
ENDSEC
0
SECTION
2
BLOCKS
0
BLOCK
5
20
100
AcDbEntity
100
AcDbBlockBegin
2
*MODEL_SPACE
0
ENDBLK
5
21
100
AcDbEntity
100
AcDbBlockEnd
0
BLOCK
5
1C
100
AcDbEntity
100
AcDbBlockBegin
2
*PAPER_SPACE
0
ENDBLK
5
1D
100
AcDbEntity
100
AcDbBlockEnd
0
ENDSEC
0
SECTION
2
ENTITIES
0
CIRCLE
5
100
100
AcDbEntity
8
0
100
AcDbCircle
10
7.378929804452623
20
-118.84148485737013
30
0
40
1.5500000000000003
210
0
220
0
230
1
0
CIRCLE
5
101
100
AcDbEntity
8
0
100
AcDbCircle
10
-361.99893650639797
20
-118.84148485737012
30
0
40
1.5500000000000114
210
0
220
0
230
1
0
CIRCLE
5
102
100
AcDbEntity
8
0
100
AcDbCircle
10
-271.55804835097268
20
-122.649096701945
30
0
40
1.5500000000000114
210
0
220
0
230
1
0
CIRCLE
5
103
100
AcDbEntity
8
0
100
AcDbCircle
10
-361.99893650639763
20
-0.43270854651980356
30
0
40
1.5500000000000114
210
0
220
0
230
1
0
CIRCLE
5
104
100
AcDbEntity
8
0
100
AcDbCircle
10
7.3789298044526159
20
-0.43270854461826547
30
0
40
1.5500000000000003
210
0
220
0
230
1
0
LWPOLYLINE
5
105
100
AcDbEntity
8
0
100
AcDbPolyline
90
8
70
1
43
0.0
10
-340.25228309406214
20
-106.64909670194503
10
-340.25228309406214
20
-106.66701274717794
10
-326.25328309406228
20
-106.66701274717794
10
-326.25328309406228
20
-92.667312747177917
10
-326.28254835097266
20
-92.667312747177917
10
-326.28254835097266
20
-92.649396701945008
10
-340.28154835097257
20
-92.649396701945008
10
-340.28154835097257
20
-106.64909670194503
0
LWPOLYLINE
5
106
100
AcDbEntity
8
0
100
AcDbPolyline
90
14
70
1
43
0.0
10
-291.55387879892459
20
-8.6750922040931933
10
-346.37338741238455
20
-8.6716766689608704
42
0.41421356237307944
10
-348.04015791765437
20
-10.338239490554404
10
-348.04120043569361
20
-27.070705827212418
42
0.41424332043306233
10
-346.37446828192913
20
-28.737476334430578
10
-329.00456233303487
20
-28.73679379787637
10
-329.06762252616915
20
-46.01744420464135
42
0.41505482531833143
10
-327.40226323362197
20
-47.690192292345792
10
-310.58061802577686
20
-47.703275604773062
42
0.41482754071522748
10
-308.91265652964427
20
-46.034412723366493
10
-308.93552349609058
20
-28.685092937377679
10
-291.58040847440185
20
-28.691783266985929
42
0.41387386011313165
10
-289.91310130458925
20
-27.027692475552563
10
-289.88731796444586
20
-10.344334618918829
42
0.41464803262905131
0
LWPOLYLINE
5
107
100
AcDbEntity
8
0
100
AcDbPolyline
90
8
70
1
43
0.0
10
-349.77728309406223
20
-68.549096701945004
10
-349.77728309406223
20
-68.567012747177913
10
-335.77828309406215
20
-68.567012747177913
10
-335.77828309406215
20
-54.567312747177922
10
-335.80754835097252
20
-54.567312747177922
10
-335.80754835097252
20
-54.549396701945021
10
-349.80654835097261
20
-54.549396701945021
10
-349.80654835097261
20
-68.549096701945004
0
CIRCLE
5
108
100
AcDbEntity
8
0
100
AcDbCircle
10
-115.17292635848683
20
8.6260583855040309
30
0
40
1.5499999999999934
210
0
220
0
230
1
0
LWPOLYLINE
5
109
100
AcDbEntity
8
0
100
AcDbPolyline
90
8
70
1
43
0.0
10
-345.01528309406228
20
-87.617012747177881
10
-331.01528309406228
20
-87.617012747177881
10
-331.01528309406228
20
-73.61731274717792
10
-331.04454835097266
20
-73.61731274717792
10
-331.04454835097266
20
-73.599396701945011
10
-345.0445483509726
20
-73.599396701945011
10
-345.0445483509726
20
-87.599096701944973
10
-345.01528309406228
20
-87.599096701944973
0
CIRCLE
5
110
100
AcDbEntity
8
0
100
AcDbCircle
10
-179.91870292010549
20
8.6260761173776679
30
0
40
1.5500000000000114
210
0
220
0
230
1
0
LWPOLYLINE
5
111
100
AcDbEntity
8
0
100
AcDbPolyline
90
44
70
1
43
0.0
10
-157.44364561304462
20
-95.653639713845223
10
-160.4684073569141
20
-78.460854724444417
10
-152.72549034931546
20
-77.103517265386373
42
0.41450371448525569
10
-151.37192185000532
20
-75.172478459369074
10
-154.27937812609977
20
-58.68297952255439
42
0.41380763129527892
10
-156.20785566440378
20
-57.330637407434814
10
-159.25959667149249
20
-57.864364959602312
10
-162.39262731206179
20
-40.095531824793049
10
-154.65536619396894
20
-38.741062115037316
42
0.41457809268536766
10
-153.30141683212054
20
-36.809925106560954
10
-156.19311424404901
20
-20.411586076793611
42
0.41422370086917548
10
-158.1239491574155
20
-19.059689483967226
10
-161.34926812339774
20
-19.628560160875264
10
-164.3675561252935
20
-2.5158104051265506
42
0.41429612028963719
10
-166.29884363682061
20
-1.1640522891605443
10
-229.44247327410358
20
-12.319461097864895
42
0.41407230020071489
10
-230.79390843337421
20
-14.249875300048878
10
-228.07135403157858
20
-29.704018167563234
42
-0.42119888353465568
10
-229.46270821926493
20
-31.64098620595826
42
-0.017365973566672258
10
-235.70067901648082
20
-32.366979915580032
42
-0.43818161245630866
10
-237.5024195406649
20
-30.705795750355342
10
-237.5024195406649
20
-15.109179413844579
42
0.41421356237309775
10
-239.16908620733159
20
-13.442512747177915
10
-284.4608621737475
20
-13.442512747177894
42
0.41421356237310047
10
-286.12752884041419
20
-15.109179413844576
10
-286.12752884041419
20
-32.557940511521238
10
-303.51161327764055
20
-32.571027485070481
42
0.41399308562882781
10
-305.17702525548657
20
-34.237693679463902
10
-305.17702525548657
20
-51.59511596085602
10
-319.70380949774113
20
-51.603357962083301
42
0.41404739454380879
10
-321.36953055481717
20
-53.270024360496691
10
-321.36953055481712
20
-69.980677320836989
42
0.41431910140933942
10
-319.70226335589126
20
-71.647343879311947
10
-319.46478268737155
20
-71.647258310424974
10
-319.46478268737155
20
-89.027557753350749
42
0.41433807737286293
10
-317.79740751725097
20
-90.694224269424254
10
-314.70228215646711
20
-90.692908525100222
10
-314.70228215646705
20
-108.00890232292863
42
0.41414937474415159
10
-313.03598074854159
20
-109.6755689495711
10
-238.19029670931118
20
-109.69197177416957
42
-0.043051759401537833
10
-237.9048813547434
20
-109.71665569114835
10
-233.05543236281378
20
-110.56068315804441
42
0.086877167086311685
10
-232.48059024069204
20
-110.56010875282561
10
-158.79604110081129
20
-97.583832896977398
42
0.41416420203308935
0
LWPOLYLINE
5
112
100
AcDbEntity
8
0
100
AcDbPolyline
90
41
70
1
43
0.0
10
-140.44377391991819
20
-38.829657720390493
42
-0.41502930356297746
10
-141.79637028079611
20
-36.895360169475055
10
-138.73884250537398
20
-19.757910899725548
10
-141.5186525380029
20
-19.26821973739489
42
-0.41421356237308887
10
-142.87089794942989
20
-17.337678905702866
10
-139.96970114426097
20
-0.86857224007349576
42
-0.41425575378360113
10
-138.03892387562001
20
0.48363150307745739
10
-65.577577489667291
20
-12.291916889270055
42
-0.41421356237309126
10
-64.225610183465292
20
-14.222652489634967
10
-66.929150831655434
20
-29.55680405485106
42
0.43530586860101478
10
-65.459232268888144
20
-31.504014652990353
42
0.021345169960037588
10
-49.735710210016883
20
-32.45421110368472
42
0.41868324478458524
10
-48.039592921625697
20
-30.79186801928936
10
-48.001324492661894
20
-15.095031882224657
42
-0.41359623120715527
10
-46.334113102982656
20
-13.432428578878284
10
-1.0103944151632498
20
-13.447376597976957
42
-0.41557627991855395
10
0.65570190704509645
20
-15.122343425964203
10
0.47759551519309895
20
-50.885149970479432
42
-0.4116122214555894
10
-1.1825346279878377
20
-52.543503648223407
10
-2.2258469993582497
20
-52.547582522738153
10
-2.212712958291613
20
-69.921704048638574
42
-0.41489417645773807
10
-3.8819912283796092
20
-71.589628591811646
10
-4.1271168106604526
20
-71.589244418813692
10
-4.1141801183572024
20
-88.976018671763057
42
-0.41421356237310558
10
-5.7796062346560522
20
-90.643924966104876
10
-8.9030107563069443
20
-90.646248946542428
10
-8.9030107563069407
20
-108.10087904647099
42
-0.41481272036515543
10
-10.573086120457917
20
-109.76754222736845
10
-47.010515448825828
20
-109.69301956729552
42
0.11228722279424271
10
-47.731700136658574
20
-109.85549678713063
10
-52.326332091693942
20
-112.04798932939774
42
-0.15662137913159058
10
-53.336268812221768
20
-112.18466286430656
10
-145.52349067400138
20
-95.770407945786374
42
-0.4132470650004042
10
-146.87314490800838
20
-93.842805705963755
10
-144.02421602204711
20
-77.530574002909617
42
-0.41471959477584042
10
-142.09282268266423
20
-76.175999549386802
10
-134.49419535580353
20
-77.516628989300187
10
-131.33160069967505
20
-59.828544692995045
10
-134.34526767960878
20
-59.303086947880729
42
-0.41493400490858662
10
-135.70017661862346
20
-57.370876018560452
10
-132.66199970397298
20
-40.195674642010317
0
CIRCLE
5
113
100
AcDbEntity
8
0
100
AcDbCircle
10
-83.061958350972503
20
-122.64909670194501
30
0
40
1.5499999999999934
210
0
220
0
230
1
0
LWPOLYLINE
5
114
100
AcDbEntity
8
0
100
AcDbPolyline
90
12
70
1
43
0.0
10
-84.925742633687776
20
8.8749032999566246
10
-1.8134583509725082
20
8.8749032999566211
42
-0.41421356237309548
10
16.686541649027497
20
-9.6250967000434073
10
16.686541649027507
20
-109.64909670194501
42
-0.4142135623730942
10
-1.8134583509724678
20
-128.14909670194504
10
-352.80654835097278
20
-128.14909670194498
42
-0.41421356237309898
10
-371.30654835097266
20
-109.64909670194486
10
-371.30654835097266
20
-9.6250967019450115
42
-0.41421356237309737
10
-352.80654835097221
20
8.8749032980549991
10
-210.16831741695688
20
8.8749032980546794
10
-151.10593629224081
20
19.293622129137333
42
-0.087528721222430356
10
-143.98315078522512
20
19.29357365941673
0
ENDSEC
0
SECTION
2
OBJECTS
0
DICTIONARY
5
C
100
AcDbDictionary
3
ACAD_GROUP
350
D
3
ACAD_MLINESTYLE
350
17
0
DICTIONARY
5
D
100
AcDbDictionary
0
DICTIONARY
5
1A
330
C
100
AcDbDictionary
0
DICTIONARY
5
17
100
AcDbDictionary
0
ENDSEC
0
EOF
