0
SECTION
2
HEADER
9
$INSUNITS
70
4
9
$ACADVER
1
AC1014
9
$HANDSEED
5
FFFF
0
ENDSEC
0
SECTION
2
TABLES
0
TABLE
2
VPORT
5
8
100
AcDbSymbolTable
0
ENDTAB
0
TABLE
2
LTYPE
5
5
100
AcDbSymbolTable
0
LTYPE
5
14
100
AcDbSymbolTableRecord
100
AcDbLinetypeTableRecord
2
BYBLOCK
70
0
0
LTYPE
5
15
100
AcDbSymbolTableRecord
100
AcDbLinetypeTableRecord
2
BYLAYER
70
0
0
ENDTAB
0
TABLE
2
LAYER
5
2
100
AcDbSymbolTable
70
2
0
LAYER
5
50
100
AcDbSymbolTableRecord
100
AcDbLayerTableRecord
2
0
70
0
6
CONTINUOUS
0
ENDTAB
0
TABLE
2
STYLE
5
3
100
AcDbSymbolTable
70
1
0
STYLE
5
11
100
AcDbSymbolTableRecord
100
AcDbTextStyleTableRecord
2
STANDARD
70
0
0
ENDTAB
0
TABLE
2
VIEW
5
6
100
AcDbSymbolTable
70
0
0
ENDTAB
0
TABLE
2
UCS
5
7
100
AcDbSymbolTable
70
0
0
ENDTAB
0
TABLE
2
APPID
5
9
100
AcDbSymbolTable
70
2
0
APPID
5
12
100
AcDbSymbolTableRecord
100
AcDbRegAppTableRecord
2
ACAD
70
0
0
ENDTAB
0
TABLE
2
DIMSTYLE
5
A
100
AcDbSymbolTable
70
1
0
ENDTAB
0
TABLE
2
BLOCK_RECORD
5
1
100
AcDbSymbolTable
70
1
0
BLOCK_RECORD
5
1F
100
AcDbSymbolTableRecord
100
AcDbBlockTableRecord
2
*MODEL_SPACE
0
BLOCK_RECORD
5
1B
100
AcDbSymbolTableRecord
100
AcDbBlockTableRecord
2
*PAPER_SPACE
0
ENDTAB
0
ENDSEC
0
SECTION
2
BLOCKS
0
BLOCK
5
20
100
AcDbEntity
100
AcDbBlockBegin
2
*MODEL_SPACE
0
ENDBLK
5
21
100
AcDbEntity
100
AcDbBlockEnd
0
BLOCK
5
1C
100
AcDbEntity
100
AcDbBlockBegin
2
*PAPER_SPACE
0
ENDBLK
5
1D
100
AcDbEntity
100
AcDbBlockEnd
0
ENDSEC
0
SECTION
2
ENTITIES
0
CIRCLE
5
100
100
AcDbEntity
8
0
100
AcDbCircle
10
-107.01221020265254
20
113.33810990095071
30
0
40
1.5499999999999934
210
0
220
0
230
1
0
CIRCLE
5
101
100
AcDbEntity
8
0
100
AcDbCircle
10
-170.29828111791727
20
-9.9902705204130111
30
0
40
1.5500000000000114
210
0
220
0
230
1
0
CIRCLE
5
102
100
AcDbEntity
8
0
100
AcDbCircle
10
-107.36204188802802
20
-9.9902705204130129
30
0
40
1.5499999999999934
210
0
220
0
230
1
0
CIRCLE
5
103
100
AcDbEntity
8
0
100
AcDbCircle
10
-170.58366443495601
20
113.31531204711527
30
0
40
1.5500000000000114
210
0
220
0
230
1
0
CIRCLE
5
104
100
AcDbEntity
8
0
100
AcDbCircle
10
-34.972829852584873
20
108.03372948129845
30
0
40
1.5499999999999934
210
0
220
0
230
1
0
CIRCLE
5
105
100
AcDbEntity
8
0
100
AcDbCircle
10
-272.33507643622556
20
-9.9902705204130093
30
0
40
1.5500000000000114
210
0
220
0
230
1
0
CIRCLE
5
106
100
AcDbEntity
8
0
100
AcDbCircle
10
-34.963283530953504
20
-9.9902705204129933
30
0
40
1.5500000000000025
210
0
220
0
230
1
0
CIRCLE
5
107
100
AcDbEntity
8
0
100
AcDbCircle
10
-272.25913939259624
20
108.03372947958752
30
0
40
1.5500000000000114
210
0
220
0
230
1
0
LWPOLYLINE
5
108
100
AcDbEntity
8
0
100
AcDbPolyline
90
14
70
1
43
0.0
10
-282.77241570486234
20
99.987379502258719
42
-0.41464803262902472
10
-281.10585487038372
20
98.318137087433087
10
-281.13163821052706
20
81.634779230799353
42
-0.41387386011312849
10
-282.79894538033972
20
79.970688439365972
10
-300.15406040202845
20
79.977378768974219
10
-300.13119343558208
20
62.628058982985394
42
-0.41482754071525091
10
-301.79915493171472
20
60.959196101578826
10
-318.62080013955983
20
60.972279414006117
42
-0.41505482531833926
10
-320.28615943210701
20
62.645027501710551
10
-320.22309923897274
20
79.925677908475535
10
-337.59300518786699
20
79.924995371921327
42
-0.41424332043304596
10
-339.25973734163153
20
81.591765879139473
10
-339.25869482359224
20
98.32423221579748
42
-0.41421356237307633
10
-337.59192431832241
20
99.990795037391024
0
LWPOLYLINE
5
109
100
AcDbEntity
8
0
100
AcDbPolyline
90
44
70
1
43
0.0
10
-309.01594442318878
20
17.968247436927651
10
-305.92081906240492
20
17.969563181251687
10
-305.92081906240492
20
0.65356938342327819
42
0.4141493747441557
10
-304.25451765447946
20
-1.0130972432191854
10
-229.40883361524902
20
-1.0295000678176618
42
-0.043051759401537833
10
-229.12341826068126
20
-1.0541839847964418
10
-224.27396926875161
20
-1.898211451692511
42
0.086877167086311019
10
-223.69912714662988
20
-1.897637046473708
10
-150.01457800674913
20
11.078638809374528
42
0.41416420203307674
10
-148.66218251898246
20
13.0088319925067
10
-151.68694426285197
20
30.201616981907513
10
-143.94402725525333
20
31.558954440965536
42
0.41450371448525569
10
-142.59045875594319
20
33.489993246982834
10
-145.49791503203764
20
49.979492183797518
42
0.41380763129527892
10
-147.42639257034165
20
51.33183429891708
10
-150.47813357743038
20
50.798106746749603
10
-153.61116421799963
20
68.566939881558852
10
-145.87390309990681
20
69.9214095913146
42
0.41457809268536716
10
-144.5199537380584
20
71.852546599790969
10
-147.41165114998688
20
88.250885629558297
42
0.41422370086917754
10
-149.34248606335333
20
89.602782222384704
10
-152.5678050293356
20
89.033911545476641
10
-155.58609303123134
20
106.14666130122536
42
0.41429612028963325
10
-157.51738054275845
20
107.49841941719139
10
-220.66101018004144
20
96.343010608487006
42
0.41407230020072006
10
-222.01244533931205
20
94.412596406303038
10
-219.28989093751642
20
78.958453538788675
42
-0.42119888353466184
10
-220.68124512520259
20
77.021485500393666
42
-0.017365973566672702
10
-226.91921592241866
20
76.295491790771905
42
-0.43818161245631504
10
-228.72095644660271
20
77.956675955996559
10
-228.72095644660274
20
93.553292292507336
42
0.41421356237309193
10
-230.3876231132694
20
95.219958959173994
10
-275.67939907968537
20
95.219958959174008
42
0.41421356237312623
10
-277.346065746352
20
93.553292292507336
10
-277.34606574635211
20
76.10453119483067
10
-294.73015018357836
20
76.091444221281421
42
0.41399308562882159
10
-296.39556216142438
20
74.424778026888006
10
-296.39556216142438
20
57.067355745495874
10
-310.922346403679
20
57.059113744268586
42
0.41404739454381034
10
-312.58806746075498
20
55.392447345855196
10
-312.58806746075498
20
38.681794385514905
42
0.41431910140935424
10
-310.92080026182913
20
37.015127827039919
10
-310.68331959330942
20
37.015213395926921
10
-310.68331959330942
20
19.634913953001156
42
0.41433807737286255
0
LWPOLYLINE
5
110
100
AcDbEntity
8
0
100
AcDbPolyline
90
41
70
1
43
0.0
10
-40.954247115954665
20
76.208260602667167
42
-0.021345169960037574
10
-56.677769174825812
20
77.158457053361559
42
-0.43530586860104609
10
-58.147687737593294
20
79.10566765150088
10
-55.44414708940316
20
94.439819216716955
42
0.41421356237309198
10
-56.796114395605137
20
96.370554817081867
10
-129.25746078155785
20
109.14610320942938
42
0.41425575378359558
10
-131.18823805019878
20
107.79389946627842
10
-134.08943485536776
20
91.32479280064905
42
0.41421356237308271
10
-132.73718944394076
20
89.394251968957036
10
-129.95737941131185
20
88.904560806626378
10
-133.01490718673395
20
71.767111536876854
42
0.41502930356297824
10
-131.66231082585603
20
69.832813985961423
10
-123.88053660991083
20
68.466797064341606
10
-126.91871352456133
20
51.291595687791457
42
0.41493400490858506
10
-125.56380458554663
20
49.359384758471201
10
-122.5501376056129
20
48.833927013356877
10
-125.71273226174135
20
31.145842717051728
10
-133.3113595886021
20
32.486472156965121
42
0.41471959477583753
10
-135.24275292798495
20
31.131897703442306
10
-138.09168181394625
20
14.819666000388169
42
0.41324706500039421
10
-136.74202757993925
20
12.892063760565513
10
-44.554805718159578
20
-3.5221911579546372
42
0.15662137913159255
10
-43.544868997631774
20
-3.3855176230458284
10
-38.950237042596392
20
-1.1930250807787139
42
-0.11228722279424169
10
-38.22905235476366
20
-1.0305478609436136
10
-1.7916230263957458
20
-1.1050705210165115
42
0.41481272036515393
10
-0.12154766224476532
20
0.56159265988094731
10
-0.12154766224476532
20
18.016222759809519
10
3.001856859406109
20
18.018546740247068
42
0.4142135623731007
10
4.6672829757049783
20
19.686453034588887
10
4.6543462834016935
20
37.073227287538245
10
4.8994718656825489
20
37.072843114540284
42
0.41489417645773891
10
6.5687501357705358
20
38.740767657713356
10
6.5556160947038933
20
56.114889183613784
10
7.5989284660743275
20
56.118968058128516
42
0.41161222145559362
10
9.2590586092552485
20
57.777321735872505
10
9.4371650011072461
20
93.540128280387734
42
0.4155762799185585
10
7.7710686788989136
20
95.215095108374967
10
-37.552650008920523
20
95.230043127473635
42
0.41359623120715105
10
-39.219861398599747
20
93.567439824127291
10
-39.258129827563543
20
77.87060368706257
42
-0.41868324478457669
0
LWPOLYLINE
5
111
100
AcDbEntity
8
0
100
AcDbPolyline
90
8
70
1
43
0.0
10
-319.71726507624567
20
24.005952529750161
42
-0.41421356237309892
10
-321.38426507624564
20
22.338952529750159
10
-337.10026507624553
20
22.338952529750134
42
-0.41421356237310203
10
-338.76726507624551
20
24.005952529750161
10
-338.76726507624551
20
39.721952529750112
42
-0.41421356237310203
10
-337.10026507624553
20
41.388952529750114
10
-321.38426507624564
20
41.388952529750114
42
-0.41421356237309814
10
-319.71726507624567
20
39.721952529750112
0
LWPOLYLINE
5
112
100
AcDbEntity
8
0
100
AcDbPolyline
90
8
70
1
43
0.0
10
-343.54343054354757
20
62.581750833080612
42
-0.4142135623730997
10
-341.8764305435476
20
64.248750833080607
10
-326.16043054354776
20
64.248750833080635
42
-0.41421356237310125
10
-324.49343054354767
20
62.581750833080612
10
-324.49343054354767
20
46.865750833080604
42
-0.41421356237310125
10
-326.1604305435477
20
45.198750833080609
10
-341.8764305435476
20
45.198750833080688
42
-0.41421356237309503
10
-343.54343054354752
20
46.865750833080604
0
LWPOLYLINE
5
113
100
AcDbEntity
8
0
100
AcDbPolyline
90
8
70
1
43
0.0
10
-314.99189960889822
20
1.1461520809272971
42
-0.41421356237309809
10
-316.6588996088982
20
-0.52084791907270245
10
-332.37489960889809
20
-0.52084791907277939
42
-0.41421356237309825
10
-334.04189960889818
20
1.1461520809272985
10
-334.04189960889812
20
16.862152080927277
42
-0.41421356237306578
10
-332.3748996088982
20
18.529152080927282
10
-316.6588996088982
20
18.529152080927251
42
-0.41421356237310442
10
-314.99189960889822
20
16.862152080927281
0
LWPOLYLINE
5
114
100
AcDbEntity
8
0
100
AcDbPolyline
90
14
70
1
43
0.0
10
-343.99400000000014
20
-12.990270520413008
42
-0.41421356237309098
10
-355.99400000000003
20
-0.99027052041300578
10
-355.99400000000003
20
99.033729479586725
42
-0.41421356237311585
10
-343.99400000000003
20
111.03372947958702
10
-200.78685466333712
20
111.03372947958806
10
-141.16420940784076
20
121.55127999233517
42
-0.087528721222431924
10
-136.29986808597621
20
121.55124689106262
10
-112.1535690490114
20
117.29145395498304
10
-100.82845229290832
20
115.29352241599896
10
-76.682153256010665
20
111.03372948110933
10
6.9990899999999536
20
111.03372948148873
42
-0.41421356237309515
10
18.999089999999939
20
99.03372948148872
10
18.999090000000006
20
-0.99027052041288077
42
-0.41421356237309798
10
6.9990899999999812
20
-12.990270520413016
0
ENDSEC
0
SECTION
2
OBJECTS
0
DICTIONARY
5
C
100
AcDbDictionary
3
ACAD_GROUP
350
D
3
ACAD_MLINESTYLE
350
17
0
DICTIONARY
5
D
100
AcDbDictionary
0
DICTIONARY
5
1A
330
C
100
AcDbDictionary
0
DICTIONARY
5
17
100
AcDbDictionary
0
ENDSEC
0
EOF
