0
SECTION
2
HEADER
9
$INSUNITS
70
4
9
$ACADVER
1
AC1014
9
$HANDSEED
5
FFFF
0
ENDSEC
0
SECTION
2
TABLES
0
TABLE
2
VPORT
5
8
100
AcDbSymbolTable
0
ENDTAB
0
TABLE
2
LTYPE
5
5
100
AcDbSymbolTable
0
LTYPE
5
14
100
AcDbSymbolTableRecord
100
AcDbLinetypeTableRecord
2
BYBLOCK
70
0
0
LTYPE
5
15
100
AcDbSymbolTableRecord
100
AcDbLinetypeTableRecord
2
BYLAYER
70
0
0
ENDTAB
0
TABLE
2
LAYER
5
2
100
AcDbSymbolTable
70
2
0
LAYER
5
50
100
AcDbSymbolTableRecord
100
AcDbLayerTableRecord
2
0
70
0
6
CONTINUOUS
0
ENDTAB
0
TABLE
2
STYLE
5
3
100
AcDbSymbolTable
70
1
0
STYLE
5
11
100
AcDbSymbolTableRecord
100
AcDbTextStyleTableRecord
2
STANDARD
70
0
0
ENDTAB
0
TABLE
2
VIEW
5
6
100
AcDbSymbolTable
70
0
0
ENDTAB
0
TABLE
2
UCS
5
7
100
AcDbSymbolTable
70
0
0
ENDTAB
0
TABLE
2
APPID
5
9
100
AcDbSymbolTable
70
2
0
APPID
5
12
100
AcDbSymbolTableRecord
100
AcDbRegAppTableRecord
2
ACAD
70
0
0
ENDTAB
0
TABLE
2
DIMSTYLE
5
A
100
AcDbSymbolTable
70
1
0
ENDTAB
0
TABLE
2
BLOCK_RECORD
5
1
100
AcDbSymbolTable
70
1
0
BLOCK_RECORD
5
1F
100
AcDbSymbolTableRecord
100
AcDbBlockTableRecord
2
*MODEL_SPACE
0
BLOCK_RECORD
5
1B
100
AcDbSymbolTableRecord
100
AcDbBlockTableRecord
2
*PAPER_SPACE
0
ENDTAB
0
ENDSEC
0
SECTION
2
BLOCKS
0
BLOCK
5
20
100
AcDbEntity
100
AcDbBlockBegin
2
*MODEL_SPACE
0
ENDBLK
5
21
100
AcDbEntity
100
AcDbBlockEnd
0
BLOCK
5
1C
100
AcDbEntity
100
AcDbBlockBegin
2
*PAPER_SPACE
0
ENDBLK
5
1D
100
AcDbEntity
100
AcDbBlockEnd
0
ENDSEC
0
SECTION
2
ENTITIES
0
LWPOLYLINE
5
100
100
AcDbEntity
8
0
100
AcDbPolyline
90
32
70
1
43
0.0
10
-146.98999699800993
20
-6.9902705204130111
10
-146.98999699800993
20
-12.990270520413016
10
-343.99400000000014
20
-12.990270520412992
42
-0.41421356237308926
10
-355.99399999999997
20
-0.99027052041298802
10
-355.99400000000003
20
99.033729479586725
42
-0.41421356237311285
10
-343.99400000000003
20
111.03372947958705
10
-200.78685466333712
20
111.03372947958806
10
-141.16420940784076
20
121.55127999233517
42
-0.087528721222429912
10
-136.29986808597624
20
121.55124689106262
10
-112.1535690490114
20
117.29145395498304
10
-100.82845229290832
20
115.29352241599896
10
-76.682153256010679
20
111.03372948110933
10
6.9990899999999465
20
111.03372948148875
42
-0.41421356237309548
10
18.99908999999996
20
99.03372948148872
10
18.999089999999992
20
-0.99027052041287644
42
-0.41421356237309809
10
6.9990899999999812
20
-12.990270520413002
10
-137.48999699800993
20
-12.990270520413015
10
-137.48999699800993
20
-6.9902705204130093
10
6.9990899999999776
20
-6.9902705204130013
42
0.41421356237310114
10
12.999089999999992
20
-0.99027052041288144
10
12.999089999999962
20
99.03372948148872
42
0.41421356237176843
10
6.9990900000271417
20
105.03372948148876
10
-77.207346154245599
20
105.03372948110696
10
-101.87085135682922
20
109.38476584701283
10
-113.19596811214085
20
111.38269738585727
10
-137.34226714910562
20
115.64249032193685
42
0.087528721222434866
10
-140.12189076159987
20
115.64250923694971
10
-200.26170290704709
20
105.03372947958808
10
-343.99400000000014
20
105.03372947958704
42
0.41421356237312362
10
-349.99400000000003
20
99.033729479586725
10
-349.99400000000003
20
-0.99027052041297825
42
0.41421356237308388
10
-343.99400000000014
20
-6.9902705204130244
0
LWPOLYLINE
5
101
100
AcDbEntity
8
0
100
AcDbPolyline
90
6
70
1
43
0.0
10
-273.61591252519185
20
105.68372947958748
10
-270.90236626000058
20
105.68372947958753
10
-269.54559312740503
20
108.03372947958758
10
-270.90236626000069
20
110.38372947958756
10
-273.61591252519196
20
110.38372947958752
10
-274.97268565778757
20
108.03372947958746
0
LWPOLYLINE
5
102
100
AcDbEntity
8
0
100
AcDbPolyline
90
6
70
1
43
0.0
10
-36.320056663549678
20
-12.340270520413085
10
-33.606510398358083
20
-12.340270520413519
10
-32.249737265761908
20
-9.9902705204134303
10
-33.606510398357329
20
-7.6402705204129013
10
-36.320056663548925
20
-7.6402705204124697
10
-37.6768297961451
20
-9.9902705204125599
0
LWPOLYLINE
5
103
100
AcDbEntity
8
0
100
AcDbPolyline
90
6
70
1
43
0.0
10
-273.69184956882117
20
-12.340270520413
10
-270.97830330362996
20
-12.340270520413
10
-269.62153017103441
20
-9.9902705204130076
10
-270.97830330363001
20
-7.6402705204130186
10
-273.69184956882123
20
-7.6402705204130195
10
-275.04862270141678
20
-9.9902705204130111
0
LWPOLYLINE
5
104
100
AcDbEntity
8
0
100
AcDbPolyline
90
6
70
1
43
0.0
10
-33.616056719978573
20
105.68372948130454
10
-32.259283587393568
20
108.03372948131073
10
-33.616056719999861
20
110.38372948130464
10
-36.329602985191173
20
110.38372948129235
10
-37.686376117776177
20
108.03372948128613
10
-36.329602985169885
20
105.68372948129223
0
LWPOLYLINE
5
105
100
AcDbEntity
8
0
100
AcDbPolyline
90
6
70
1
43
0.0
10
-171.51156653310721
20
110.76534517878555
10
-168.83927939724938
20
111.23674182372653
10
-167.91137729909818
20
113.78670869205628
10
-169.6557623368048
20
115.86527891544505
10
-172.32804947266263
20
115.39388227050406
10
-173.25595157081383
20
112.8439154021743
0
LWPOLYLINE
5
106
100
AcDbEntity
8
0
100
AcDbPolyline
90
6
70
1
43
0.0
10
-108.71881502062364
20
-12.340270520413007
10
-106.00526875543238
20
-12.340270520413005
10
-104.64849562283678
20
-9.9902705204130111
10
-106.00526875543238
20
-7.6402705204130168
10
-108.71881502062364
20
-7.6402705204130168
10
-110.07558815321923
20
-9.9902705204130111
0
LWPOLYLINE
5
107
100
AcDbEntity
8
0
100
AcDbPolyline
90
6
70
1
43
0.0
10
-171.65505425051288
20
-12.340270520413004
10
-168.94150798532164
20
-12.340270520413
10
-167.58473485272603
20
-9.9902705204130058
10
-168.94150798532166
20
-7.6402705204130168
10
-171.6550542505129
20
-7.6402705204130195
10
-173.01182738310848
20
-9.9902705204130147
0
LWPOLYLINE
5
108
100
AcDbEntity
8
0
100
AcDbPolyline
90
6
70
1
43
0.0
10
-106.08434280938016
20
110.78813040420258
10
-104.33992948270301
20
112.86667688649375
10
-105.26779687597541
20
115.41665638324191
10
-107.94007759592492
20
115.88808939769883
10
-109.68449092260208
20
113.80954291540766
10
-108.75662352932969
20
111.2595634186595
0
ENDSEC
0
SECTION
2
OBJECTS
0
DICTIONARY
5
C
100
AcDbDictionary
3
ACAD_GROUP
350
D
3
ACAD_MLINESTYLE
350
17
0
DICTIONARY
5
D
100
AcDbDictionary
0
DICTIONARY
5
1A
330
C
100
AcDbDictionary
0
DICTIONARY
5
17
100
AcDbDictionary
0
ENDSEC
0
EOF
