0
SECTION
2
HEADER
9
$INSUNITS
70
4
9
$ACADVER
1
AC1014
9
$HANDSEED
5
FFFF
0
ENDSEC
0
SECTION
2
TABLES
0
TABLE
2
VPORT
5
8
100
AcDbSymbolTable
0
ENDTAB
0
TABLE
2
LTYPE
5
5
100
AcDbSymbolTable
0
LTYPE
5
14
100
AcDbSymbolTableRecord
100
AcDbLinetypeTableRecord
2
BYBLOCK
70
0
0
LTYPE
5
15
100
AcDbSymbolTableRecord
100
AcDbLinetypeTableRecord
2
BYLAYER
70
0
0
ENDTAB
0
TABLE
2
LAYER
5
2
100
AcDbSymbolTable
70
2
0
LAYER
5
50
100
AcDbSymbolTableRecord
100
AcDbLayerTableRecord
2
0
70
0
6
CONTINUOUS
0
ENDTAB
0
TABLE
2
STYLE
5
3
100
AcDbSymbolTable
70
1
0
STYLE
5
11
100
AcDbSymbolTableRecord
100
AcDbTextStyleTableRecord
2
STANDARD
70
0
0
ENDTAB
0
TABLE
2
VIEW
5
6
100
AcDbSymbolTable
70
0
0
ENDTAB
0
TABLE
2
UCS
5
7
100
AcDbSymbolTable
70
0
0
ENDTAB
0
TABLE
2
APPID
5
9
100
AcDbSymbolTable
70
2
0
APPID
5
12
100
AcDbSymbolTableRecord
100
AcDbRegAppTableRecord
2
ACAD
70
0
0
ENDTAB
0
TABLE
2
DIMSTYLE
5
A
100
AcDbSymbolTable
70
1
0
ENDTAB
0
TABLE
2
BLOCK_RECORD
5
1
100
AcDbSymbolTable
70
1
0
BLOCK_RECORD
5
1F
100
AcDbSymbolTableRecord
100
AcDbBlockTableRecord
2
*MODEL_SPACE
0
BLOCK_RECORD
5
1B
100
AcDbSymbolTableRecord
100
AcDbBlockTableRecord
2
*PAPER_SPACE
0
ENDTAB
0
ENDSEC
0
SECTION
2
BLOCKS
0
BLOCK
5
20
100
AcDbEntity
100
AcDbBlockBegin
2
*MODEL_SPACE
0
ENDBLK
5
21
100
AcDbEntity
100
AcDbBlockEnd
0
BLOCK
5
1C
100
AcDbEntity
100
AcDbBlockBegin
2
*PAPER_SPACE
0
ENDBLK
5
1D
100
AcDbEntity
100
AcDbBlockEnd
0
ENDSEC
0
SECTION
2
ENTITIES
0
CIRCLE
5
100
100
AcDbEntity
8
0
100
AcDbCircle
10
-107.01221020265254
20
113.33810990095071
30
0
40
1.5499999999999934
210
0
220
0
230
1
0
CIRCLE
5
101
100
AcDbEntity
8
0
100
AcDbCircle
10
-170.29828111791727
20
-9.9902705204130111
30
0
40
1.5500000000000114
210
0
220
0
230
1
0
CIRCLE
5
102
100
AcDbEntity
8
0
100
AcDbCircle
10
-107.36204188802802
20
-9.9902705204130129
30
0
40
1.5499999999999934
210
0
220
0
230
1
0
CIRCLE
5
103
100
AcDbEntity
8
0
100
AcDbCircle
10
-170.58366443495601
20
113.31531204711527
30
0
40
1.5500000000000114
210
0
220
0
230
1
0
CIRCLE
5
104
100
AcDbEntity
8
0
100
AcDbCircle
10
-34.972829852584873
20
108.03372948129845
30
0
40
1.5499999999999934
210
0
220
0
230
1
0
CIRCLE
5
105
100
AcDbEntity
8
0
100
AcDbCircle
10
-272.33507643622556
20
-9.9902705204130093
30
0
40
1.5500000000000114
210
0
220
0
230
1
0
CIRCLE
5
106
100
AcDbEntity
8
0
100
AcDbCircle
10
-34.963283530953504
20
-9.9902705204129933
30
0
40
1.5500000000000025
210
0
220
0
230
1
0
CIRCLE
5
107
100
AcDbEntity
8
0
100
AcDbCircle
10
-272.25913939259624
20
108.03372947958752
30
0
40
1.5500000000000114
210
0
220
0
230
1
0
LWPOLYLINE
5
108
100
AcDbEntity
8
0
100
AcDbPolyline
90
4
70
1
43
0.0
10
-156.22400000000013
20
65.989229479587095
10
-170.01300000000012
20
63.558529479587087
10
-167.58200000000005
20
49.771329479587038
10
-153.79300000000006
20
52.201929479587022
0
LWPOLYLINE
5
109
100
AcDbEntity
8
0
100
AcDbPolyline
90
4
70
1
43
0.0
10
-246.0320000000001
20
73.159429479587075
10
-260.03200000000004
20
73.159429479587047
10
-260.03200000000004
20
59.159729479587
10
-246.0320000000001
20
59.159729479587028
0
LWPOLYLINE
5
110
100
AcDbEntity
8
0
100
AcDbPolyline
90
4
70
1
43
0.0
10
-26.957200000000043
20
21.059729479587112
10
-26.957200000000043
20
35.059429479587095
10
-40.956500000000055
20
35.059429479587081
10
-40.956500000000055
20
21.059729479587112
0
LWPOLYLINE
5
111
100
AcDbEntity
8
0
100
AcDbPolyline
90
4
70
1
43
0.0
10
-3.1447000000000647
20
21.059729479587119
10
-3.1447000000000647
20
35.059429479587095
10
-17.144100000000037
20
35.059429479587095
10
-17.144100000000019
20
21.059729479587112
0
LWPOLYLINE
5
112
100
AcDbEntity
8
0
100
AcDbPolyline
90
4
70
1
43
0.0
10
-283.65500000000009
20
40.109729479587024
10
-283.65500000000009
20
54.109429479587021
10
-297.65500000000009
20
54.109429479587021
10
-297.65500000000009
20
40.109729479587024
0
LWPOLYLINE
5
113
100
AcDbEntity
8
0
100
AcDbPolyline
90
4
70
1
43
0.0
10
-288.89500000000004
20
35.05942947958701
10
-302.89400000000006
20
35.059429479587003
10
-302.89400000000006
20
21.059729479587013
10
-288.89500000000004
20
21.059729479587041
0
LWPOLYLINE
5
114
100
AcDbEntity
8
0
100
AcDbPolyline
90
4
70
1
43
0.0
10
-101.09600000000007
20
43.093229479587066
10
-103.52700000000006
20
29.305929479587071
10
-89.739300000000071
20
26.874929479587053
10
-87.308300000000045
20
40.662229479587076
0
LWPOLYLINE
5
115
100
AcDbEntity
8
0
100
AcDbPolyline
90
4
70
1
43
0.0
10
-221.9370000000001
20
1.4987294795870021
10
-208.15000000000009
20
3.9297294795870386
10
-210.58100000000007
20
17.716529479587059
10
-224.36800000000008
20
15.285829479586992
0
LWPOLYLINE
5
116
100
AcDbEntity
8
0
100
AcDbPolyline
90
4
70
1
43
0.0
10
-95.024000000000029
20
22.679029479587093
10
-97.455000000000069
20
8.8907294795870495
10
-83.666300000000064
20
6.4597294795870663
10
-81.235300000000009
20
20.248029479587029
0
LWPOLYLINE
5
117
100
AcDbEntity
8
0
100
AcDbPolyline
90
4
70
1
43
0.0
10
-83.717100000000087
20
59.373229479587067
10
-86.14800000000001
20
45.585929479587072
10
-72.36080000000004
20
43.155329479587053
10
-69.929800000000014
20
56.942529479587101
0
LWPOLYLINE
5
118
100
AcDbEntity
8
0
100
AcDbPolyline
90
4
70
1
43
0.0
10
-210.07499999999999
20
42.277629479587056
10
-212.50600000000006
20
56.064829479587019
10
-226.29300000000006
20
53.633829479587057
10
-223.86200000000008
20
39.846629479587008
0
LWPOLYLINE
5
119
100
AcDbEntity
8
0
100
AcDbPolyline
90
4
70
1
43
0.0
10
-207.53400000000011
20
56.942529479587037
10
-205.10300000000007
20
43.155329479587039
10
-191.31400000000011
20
45.585929479587023
10
-193.74700000000013
20
59.373229479587067
0
LWPOLYLINE
5
120
100
AcDbEntity
8
0
100
AcDbPolyline
90
4
70
1
43
0.0
10
-226.98200000000011
20
35.059429479587024
10
-240.98200000000003
20
35.05942947958701
10
-240.98200000000003
20
21.059729479587041
10
-226.98200000000011
20
21.059729479587048
0
LWPOLYLINE
5
121
100
AcDbEntity
8
0
100
AcDbPolyline
90
4
70
1
43
0.0
10
-162.01300000000009
20
45.623329479587071
10
-159.58200000000008
20
31.837529479587054
10
-145.79500000000007
20
34.268129479587053
10
-148.22600000000006
20
48.055429479587076
0
LWPOLYLINE
5
122
100
AcDbEntity
8
0
100
AcDbPolyline
90
4
70
1
43
0.0
10
-266.7000000000001
20
40.109729479587024
10
-252.6990000000001
20
40.109729479587024
10
-252.6990000000001
20
54.109429479587035
10
-266.7000000000001
20
54.109429479587021
0
LWPOLYLINE
5
123
100
AcDbEntity
8
0
100
AcDbPolyline
90
4
70
1
43
0.0
10
-186.84700000000007
20
21.901829479587029
10
-184.41600000000005
20
8.1147294795870106
10
-170.62900000000008
20
10.545229479587022
10
-173.05900000000005
20
24.332529479587084
0
LWPOLYLINE
5
124
100
AcDbEntity
8
0
100
AcDbPolyline
90
4
70
1
43
0.0
10
-36.194000000000052
20
16.009429479587087
10
-36.194000000000031
20
2.0097294795870546
10
-22.194700000000005
20
2.0097294795870813
10
-22.194700000000005
20
16.009429479587098
0
LWPOLYLINE
5
125
100
AcDbEntity
8
0
100
AcDbPolyline
90
4
70
1
43
0.0
10
-247.65000000000009
20
54.109429479587028
10
-247.65000000000009
20
40.109729479587024
10
-233.64900000000011
20
40.10972947958706
10
-233.64900000000011
20
54.109429479587035
0
LWPOLYLINE
5
126
100
AcDbEntity
8
0
100
AcDbPolyline
90
4
70
1
43
0.0
10
-63.574500000000043
20
36.477229479587081
10
-66.005100000000027
20
22.689929479587072
10
-52.21790000000005
20
20.258929479587088
10
-49.787200000000055
20
34.045129479587075
0
LWPOLYLINE
5
127
100
AcDbEntity
8
0
100
AcDbPolyline
90
4
70
1
43
0.0
10
-29.813700000000047
20
54.109429479587085
10
-43.814700000000066
20
54.109429479587085
10
-43.814700000000066
20
40.109729479587095
10
-29.813700000000026
20
40.109729479587102
0
LWPOLYLINE
5
128
100
AcDbEntity
8
0
100
AcDbPolyline
90
8
70
1
43
0.0
10
-90.767681832287337
20
97.811220143835911
10
-96.259178617333006
20
98.77973940627696
42
0.41421962475846974
10
-97.417669689209674
20
97.968604502053182
10
-99.414813696510734
20
86.643442862883532
42
0.41418840029412746
10
-98.60375980089978
20
85.484987097882822
10
-93.113299121502777
20
84.516281389415937
42
0.41421356237306345
10
-91.954758753096883
20
85.327320361829663
10
-89.956578640147114
20
96.652668447025178
42
0.41423266243254692
0
LWPOLYLINE
5
129
100
AcDbEntity
8
0
100
AcDbPolyline
90
4
70
1
43
0.0
10
-186.34100000000012
20
46.462629479587029
10
-172.55500000000006
20
48.893229479587035
10
-174.98599999999999
20
62.680529479587065
10
-188.77200000000011
20
60.249829479587092
0
LWPOLYLINE
5
130
100
AcDbEntity
8
0
100
AcDbPolyline
90
4
70
1
43
0.0
10
-286.22500000000008
20
73.159429479587047
10
-286.22500000000008
20
59.159729479587007
10
-272.22600000000006
20
59.159729479587007
10
-272.22600000000006
20
73.159429479587047
0
LWPOLYLINE
5
131
100
AcDbEntity
8
0
100
AcDbPolyline
90
4
70
1
43
0.0
10
-5.5259000000000498
20
59.159729479587099
10
-5.5259000000000498
20
73.159429479587146
10
-19.525400000000054
20
73.159429479587146
10
-19.525400000000054
20
59.159729479587106
0
LWPOLYLINE
5
132
100
AcDbEntity
8
0
100
AcDbPolyline
90
8
70
1
43
0.0
10
-158.49153835376481
20
90.091296633081583
42
-0.41417336119880727
10
-159.3026578648018
20
88.932931136303651
10
-164.78930571120375
20
87.965175054150507
42
-0.41422323954260165
10
-165.94781211896023
20
88.77630327016071
10
-167.94509978140445
20
100.10201975716194
42
-0.41423851840589437
10
-167.13388191650469
20
101.26050842116138
10
-161.64593937154586
20
102.22782377469295
42
-0.41421913118063858
10
-160.48753131765187
20
101.41657239146129
0
LWPOLYLINE
5
133
100
AcDbEntity
8
0
100
AcDbPolyline
90
4
70
1
43
0.0
10
-59.933500000000038
20
2.2747294795870676
10
-46.144799999999996
20
-0.15627052041295997
10
-43.714200000000012
20
13.632029479587029
10
-57.501400000000046
20
16.063029479587094
0
LWPOLYLINE
5
134
100
AcDbEntity
8
0
100
AcDbPolyline
90
4
70
1
43
0.0
10
-234.12600000000003
20
92.209229479587066
10
-248.12500000000006
20
92.209229479587094
10
-248.12500000000006
20
78.209729479587068
10
-234.12600000000003
20
78.209729479587068
0
LWPOLYLINE
5
135
100
AcDbEntity
8
0
100
AcDbPolyline
90
4
70
1
43
0.0
10
-98.490000000000052
20
100.66488947958712
10
-112.27700000000007
20
103.09714947958712
10
-114.70800000000006
20
89.308429479587105
10
-100.92100000000009
20
86.8776294795871
0
LWPOLYLINE
5
136
100
AcDbEntity
8
0
100
AcDbPolyline
90
4
70
1
43
0.0
10
-298.13200000000006
20
96.971729479587054
10
-298.13200000000006
20
82.972229479587043
10
-284.13200000000012
20
82.972229479587043
10
-284.13200000000012
20
96.971729479587054
0
LWPOLYLINE
5
137
100
AcDbEntity
8
0
100
AcDbPolyline
90
4
70
1
43
0.0
10
-204.0030000000001
20
62.691829479587057
10
-206.43400000000011
20
76.478929479587038
10
-220.22200000000009
20
74.048129479587047
10
-217.79100000000011
20
60.260829479587059
0
LWPOLYLINE
5
138
100
AcDbEntity
8
0
100
AcDbPolyline
90
8
70
1
43
0.0
10
-282.13
20
51.639029479587009
10
-282.13
20
40.139629479587001
42
0.41421356237314705
10
-281.13000000000005
20
39.139629479587001
10
-275.55600000000015
20
39.139629479587022
42
0.41421356237308721
10
-274.55600000000004
20
40.139629479587022
10
-274.55599999999998
20
51.639029479587023
42
0.41421356237307683
10
-275.55600000000015
20
52.639029479587052
10
-281.13000000000005
20
52.639029479587037
42
0.41421356237307161
0
LWPOLYLINE
5
139
100
AcDbEntity
8
0
100
AcDbPolyline
90
8
70
1
43
0.0
10
-185.89541740054693
20
97.951922017769107
10
-191.38319566100529
20
96.983675079231389
42
0.41421913118062209
10
-192.19422836076495
20
95.825113908622953
10
-190.19588227538873
20
84.500253121915918
42
0.41417336119894321
10
-189.03745957927617
20
83.689215303782746
10
-183.55074716208685
20
84.656605233453845
42
0.41422323954258905
10
-182.73957991067962
20
85.815084309598689
10
-184.73686015278724
20
97.140802105172156
42
0.41423851840595571
0
LWPOLYLINE
5
140
100
AcDbEntity
8
0
100
AcDbPolyline
90
4
70
1
43
0.0
10
-202.07700000000003
20
24.343829479587047
10
-204.50900000000001
20
38.131029479587035
10
-218.29500000000002
20
35.700029479587045
10
-215.86400000000003
20
21.912829479586993
0
LWPOLYLINE
5
141
100
AcDbEntity
8
0
100
AcDbPolyline
90
12
70
1
43
0.0
10
-269.84500000000014
20
16.009429479587016
10
-302.89400000000006
20
16.009429479587016
10
-302.89400000000006
20
2.0097294795869924
10
-302.46955289504888
20
2.0097294795869658
42
0.40548162729137421
10
-301.47000000000014
20
1.0396294795870542
10
-295.8950000000001
20
1.0396294795870364
42
0.40548162729141807
10
-294.8954471049517
20
2.0097294795869924
10
-277.84355289504867
20
2.0097294795869658
42
0.40548162729139997
10
-276.84400000000005
20
1.039629479586992
10
-271.26900000000012
20
1.039629479586992
42
0.40548162729135523
10
-270.2694471049515
20
2.0097294795869924
10
-269.84500000000014
20
2.0097294795869924
0
LWPOLYLINE
5
142
100
AcDbEntity
8
0
100
AcDbPolyline
90
4
70
1
43
0.0
10
-77.188200000000037
20
82.692529479587122
10
-63.399500000000046
20
80.261629479587114
10
-60.968500000000077
20
94.04892947958713
10
-74.755799999999994
20
96.481229479587114
0
LWPOLYLINE
5
143
100
AcDbEntity
8
0
100
AcDbPolyline
90
8
70
1
43
0.0
10
-116.20345242287362
20
89.603495832445333
10
-114.20703062116786
20
100.92878480575173
42
0.41421962475845281
10
-115.0182633777813
20
102.08720735865074
10
-120.50986198786497
20
103.05514909636706
42
0.41423266243250734
10
-121.66827547424487
20
102.24384852502735
10
-123.66378740891393
20
90.918030005678531
42
0.41421356237308388
10
-122.85247552011114
20
89.759680740954309
10
-117.36178677706422
20
88.792268549280479
42
0.41418840029411924
0
LWPOLYLINE
5
144
100
AcDbEntity
8
0
100
AcDbPolyline
90
8
70
1
43
0.0
10
-4.0004000000000346
20
70.690129479587142
10
-4.0004000000000346
20
59.190829479587123
42
0.41421356237307455
10
-3.0004000000000568
20
58.190829479587151
10
2.5746699999999629
20
58.190829479587151
42
0.41421356237308626
10
3.5746699999999687
20
59.190829479587102
10
3.5746699999999585
20
70.690129479587156
42
0.41421356237309243
10
2.5746699999999545
20
71.690129479587142
10
-3.0004000000000475
20
71.690129479587142
42
0.41421356237309243
0
LWPOLYLINE
5
145
100
AcDbEntity
8
0
100
AcDbPolyline
90
4
70
1
43
0.0
10
-187.67400000000006
20
79.786229479587064
10
-201.46100000000013
20
77.355329479587056
10
-199.03000000000006
20
63.569529479587018
10
-185.24300000000008
20
66.000529479587073
0
LWPOLYLINE
5
146
100
AcDbEntity
8
0
100
AcDbPolyline
90
4
70
1
43
0.0
10
3.9990899999999452
20
78.209729479587139
10
3.9990899999999452
20
92.209229479587137
10
-10.000400000000049
20
92.209229479587137
10
-10.000400000000049
20
78.209729479587139
0
LWPOLYLINE
5
147
100
AcDbEntity
8
0
100
AcDbPolyline
90
4
70
1
43
0.0
10
1.142399999999959
20
54.109429479587106
10
-17.620900000000034
20
54.109429479587106
10
-17.620900000000034
20
40.109729479587102
10
1.142399999999959
20
40.109729479587124
0
LWPOLYLINE
5
148
100
AcDbEntity
8
0
100
AcDbPolyline
90
4
70
1
43
0.0
10
-264.7940000000001
20
16.009429479587027
10
-264.7940000000001
20
2.0097294795869924
10
-250.7950000000001
20
2.0097294795869924
10
-250.7950000000001
20
16.009429479587016
0
LWPOLYLINE
5
149
100
AcDbEntity
8
0
100
AcDbPolyline
90
4
70
1
43
0.0
10
-257.93700000000007
20
92.209229479587052
10
-271.93800000000005
20
92.209229479587052
10
-271.93800000000005
20
78.209729479587054
10
-257.93700000000007
20
78.20972947958704
0
LWPOLYLINE
5
150
100
AcDbEntity
8
0
100
AcDbPolyline
90
4
70
1
43
0.0
10
-109.88200000000006
20
49.771329479587067
10
-107.45100000000005
20
63.558529479587101
10
-121.23800000000008
20
65.989229479587109
10
-123.66900000000007
20
52.201929479587065
0
LWPOLYLINE
5
151
100
AcDbEntity
8
0
100
AcDbPolyline
90
4
70
1
43
0.0
10
-164.5570000000001
20
30.959429479587097
10
-166.98800000000008
20
44.747029479587056
10
-180.77500000000009
20
42.316029479587058
10
-178.34300000000002
20
28.528829479587046
0
LWPOLYLINE
5
152
100
AcDbEntity
8
0
100
AcDbPolyline
90
4
70
1
43
0.0
10
-36.482200000000049
20
59.159729479587071
10
-36.482200000000049
20
73.159429479587118
10
-50.481500000000061
20
73.159429479587118
10
-50.481500000000061
20
59.159729479587078
0
LWPOLYLINE
5
153
100
AcDbEntity
8
0
100
AcDbPolyline
90
4
70
1
43
0.0
10
-169.87600000000003
20
102.27030947958708
10
-183.6640000000001
20
99.83807947958708
10
-181.23300000000012
20
86.050829479587094
10
-167.4440000000001
20
88.481629479587099
0
LWPOLYLINE
5
154
100
AcDbEntity
8
0
100
AcDbPolyline
90
4
70
1
43
0.0
10
-108.50000000000007
20
30.18222947958705
10
-106.06900000000007
20
43.969529479587067
10
-119.85600000000007
20
46.40052947958705
10
-122.28700000000009
20
32.613229479587048
0
LWPOLYLINE
5
155
100
AcDbEntity
8
0
100
AcDbPolyline
90
4
70
1
43
0.0
10
-17.144100000000019
20
16.009429479587098
10
-17.144100000000002
20
2.0097294795870546
10
-3.1447000000000291
20
2.0097294795870813
10
-3.1447000000000291
20
16.009429479587105
0
LWPOLYLINE
5
156
100
AcDbEntity
8
0
100
AcDbPolyline
90
4
70
1
43
0.0
10
-189.38900000000004
20
7.2367294795870141
10
-191.82000000000002
20
21.025229479587033
10
-205.60700000000011
20
18.594529479587028
10
-203.17600000000004
20
4.8057294795870131
0
LWPOLYLINE
5
157
100
AcDbEntity
8
0
100
AcDbPolyline
90
4
70
1
43
0.0
10
-165.65500000000011
20
11.421829479586991
10
-151.86800000000002
20
13.852529479587048
10
-154.29900000000006
20
27.641229479587004
10
-168.08600000000001
20
25.210529479587027
0
LWPOLYLINE
5
158
100
AcDbEntity
8
0
100
AcDbPolyline
90
4
70
1
43
0.0
10
-102.42800000000005
20
9.7680294795870548
10
-99.996000000000066
20
23.555329479587066
10
-113.78300000000003
20
25.986329479587027
10
-116.21400000000001
20
12.199029479587056
0
LWPOLYLINE
5
159
100
AcDbEntity
8
0
100
AcDbPolyline
90
4
70
1
43
0.0
10
-68.547600000000031
20
37.353529479587088
10
-82.334900000000033
20
39.78452947958705
10
-84.765900000000073
20
25.997229479587052
10
-70.978600000000014
20
23.566229479587086
0
LWPOLYLINE
5
160
100
AcDbEntity
8
0
100
AcDbPolyline
90
4
70
1
43
0.0
10
-246.0320000000001
20
21.059729479587041
10
-246.0320000000001
20
35.05942947958701
10
-260.03199999999998
20
35.059429479587024
10
-260.03199999999998
20
21.059729479587048
0
LWPOLYLINE
5
161
100
AcDbEntity
8
0
100
AcDbPolyline
90
4
70
1
43
0.0
10
-183.31600000000003
20
27.652129479587018
10
-185.7470000000001
20
41.43832947958704
10
-199.53600000000006
20
39.007329479587057
10
-197.10500000000002
20
25.221529479587012
0
LWPOLYLINE
5
162
100
AcDbEntity
8
0
100
AcDbPolyline
90
4
70
1
43
0.0
10
-62.476000000000013
20
16.939329479587101
10
-76.262199999999993
20
19.370329479587056
10
-78.692799999999991
20
5.5827294795870142
10
-64.906899999999993
20
3.1517294795870932
0
LWPOLYLINE
5
163
100
AcDbEntity
8
0
100
AcDbPolyline
90
4
70
1
43
0.0
10
-245.74400000000011
20
2.0097294795869924
10
-231.74500000000006
20
2.0097294795869924
10
-231.74500000000006
20
16.009429479587034
10
-245.74400000000011
20
16.009429479587016
0
LWPOLYLINE
5
164
100
AcDbEntity
8
0
100
AcDbPolyline
90
4
70
1
43
0.0
10
-134.97600000000006
20
15.506329479587038
10
-121.18900000000002
20
13.075329479587046
10
-118.75800000000005
20
26.864029479587053
10
-132.54399999999998
20
29.295029479587093
0
LWPOLYLINE
5
165
100
AcDbEntity
8
0
100
AcDbPolyline
90
4
70
1
43
0.0
10
-202.70800000000011
20
96.481229479587043
10
-216.49400000000014
20
94.048929479587073
10
-214.0630000000001
20
80.261629479587043
10
-200.2760000000001
20
82.692529479587051
0
LWPOLYLINE
5
166
100
AcDbEntity
8
0
100
AcDbPolyline
90
4
70
1
43
0.0
10
-115.95500000000007
20
70.185529479587117
10
-113.5240000000001
20
83.971329479587098
10
-127.31000000000009
20
86.402229479587106
10
-129.74100000000007
20
72.616429479587097
0
LWPOLYLINE
5
167
100
AcDbEntity
8
0
100
AcDbPolyline
90
4
70
1
43
0.0
10
-163.94000000000005
20
83.971329479587084
10
-161.50900000000001
20
70.185529479587089
10
-147.72200000000012
20
72.616429479587069
10
-150.15300000000008
20
86.402229479587078
0
LWPOLYLINE
5
168
100
AcDbEntity
8
0
100
AcDbPolyline
90
4
70
1
43
0.0
10
-322.23200000000008
20
96.971729479587026
10
-336.23200000000003
20
96.97172947958704
10
-336.23200000000003
20
82.972229479587028
10
-322.23200000000008
20
82.972229479587014
0
LWPOLYLINE
5
169
100
AcDbEntity
8
0
100
AcDbPolyline
90
4
70
1
43
0.0
10
-240.98200000000006
20
59.159729479587028
10
-226.98200000000011
20
59.159729479587028
10
-226.98200000000011
20
73.159429479587061
10
-240.98200000000006
20
73.159429479587061
0
LWPOLYLINE
5
170
100
AcDbEntity
8
0
100
AcDbPolyline
90
4
70
1
43
0.0
10
-108.54900000000009
20
83.094929479587108
10
-110.98000000000006
20
69.307729479587067
10
-97.193000000000055
20
66.876829479587087
10
-94.762000000000057
20
80.664029479587086
0
LWPOLYLINE
5
171
100
AcDbEntity
8
0
100
AcDbPolyline
90
4
70
1
43
0.0
10
-73.45900000000006
20
62.691829479587128
10
-59.673100000000041
20
60.26082947958713
10
-57.24110000000006
20
74.048129479587118
10
-71.02830000000003
20
76.478929479587109
0
LWPOLYLINE
5
172
100
AcDbEntity
8
0
100
AcDbPolyline
90
8
70
1
43
0.0
10
-299.18000000000012
20
40.139629479587001
10
-299.18000000000001
20
51.639029479587023
42
0.41421356237311324
10
-300.18000000000006
20
52.639029479586995
10
-305.75400000000008
20
52.639029479587037
42
0.41421356237313928
10
-306.75400000000013
20
51.639029479587023
10
-306.75400000000013
20
40.139629479587022
42
0.41421356237312362
10
-305.75400000000013
20
39.139629479587022
10
-300.18000000000006
20
39.139629479587015
42
0.41421356237313406
0
LWPOLYLINE
5
173
100
AcDbEntity
8
0
100
AcDbPolyline
90
4
70
1
43
0.0
10
-168.91300000000007
20
83.094929479587094
10
-182.69999999999999
20
80.664029479587086
10
-180.2700000000001
20
66.876829479587073
10
-166.48200000000008
20
69.307729479587039
0
LWPOLYLINE
5
174
100
AcDbEntity
8
0
100
AcDbPolyline
90
4
70
1
43
0.0
10
-33.812800000000067
20
92.209229479587123
10
-33.812800000000067
20
78.209729479587111
10
-19.81200000000004
20
78.209729479587139
10
-19.81200000000004
20
92.209229479587151
0
LWPOLYLINE
5
175
100
AcDbEntity
8
0
100
AcDbPolyline
90
4
70
1
43
0.0
10
-317.18200000000013
20
82.972229479587014
10
-303.18200000000013
20
82.972229479587043
10
-303.18200000000013
20
96.971729479587054
10
-317.18200000000013
20
96.971729479587026
0
LWPOLYLINE
5
176
100
AcDbEntity
8
0
100
AcDbPolyline
90
4
70
1
43
0.0
10
-317.18200000000002
20
63.922229479586989
10
-303.18200000000013
20
63.922229479587017
10
-303.18200000000013
20
77.921729479587086
10
-317.18200000000013
20
77.921729479587057
0
LWPOLYLINE
5
177
100
AcDbEntity
8
0
100
AcDbPolyline
90
4
70
1
43
0.0
10
-76.001500000000021
20
77.355329479587141
10
-89.788700000000077
20
79.786229479587092
10
-92.221000000000089
20
66.000529479587087
10
-78.433900000000023
20
63.569529479587089
0
LWPOLYLINE
5
178
100
AcDbEntity
8
0
100
AcDbPolyline
90
4
70
1
43
0.0
10
-279.08199999999999
20
21.059729479587041
10
-265.08199999999999
20
21.059729479587048
10
-265.08199999999999
20
35.059429479587024
10
-279.08199999999999
20
35.05942947958701
0
LWPOLYLINE
5
179
100
AcDbEntity
8
0
100
AcDbPolyline
90
8
70
1
43
0.0
10
-21.050900000000034
20
59.190829479587073
10
-21.050900000000048
20
70.690129479587114
42
0.41421356237310153
10
-22.050900000000048
20
71.690129479587114
10
-27.625900000000051
20
71.690129479587128
42
0.41421356237310153
10
-28.625900000000051
20
70.690129479587128
10
-28.625900000000037
20
59.19082947958708
42
0.41421356237309115
10
-27.625900000000058
20
58.190829479587094
10
-22.050900000000048
20
58.190829479587066
42
0.41421356237310025
0
LWPOLYLINE
5
180
100
AcDbEntity
8
0
100
AcDbPolyline
90
4
70
1
43
0.0
10
-102.47800000000005
20
62.680529479587079
10
-104.90900000000005
20
48.893229479587063
10
-91.122000000000014
20
46.462629479587051
10
-88.690500000000071
20
60.249829479587106
0
LWPOLYLINE
5
181
100
AcDbEntity
8
0
100
AcDbPolyline
90
8
70
1
43
0.0
10
-336.23174478399369
20
24.817407899134729
10
-336.23200000000003
20
24.317407899134764
10
-322.22434387711439
20
24.317407899134764
10
-322.22434387711439
20
39.316707899134748
10
-336.22434387711439
20
39.316707899134741
10
-336.22651692830595
20
35.059429479586996
10
-336.23200000000003
20
35.059429479586996
10
-336.23200000000003
20
24.817407899134718
0
LWPOLYLINE
5
182
100
AcDbEntity
8
0
100
AcDbPolyline
90
4
70
1
43
0.0
10
-331.46899999999994
20
1.5097294795869676
10
-317.47000000000014
20
1.5097294795869942
10
-317.47000000000014
20
16.509429479587006
10
-331.46899999999994
20
16.509429479586988
0
LWPOLYLINE
5
183
100
AcDbEntity
8
0
100
AcDbPolyline
90
8
70
1
43
0.0
10
-340.98634387711434
20
62.17700789913475
10
-340.99046182740335
20
54.109429479586993
10
-340.99400000000003
20
54.109429479586993
10
-340.99400000000003
20
47.677707899134717
10
-340.99374478399386
20
47.677707899134717
10
-340.99400000000003
20
47.177707899134745
10
-326.98734387711431
20
47.177707899134766
10
-326.98734387711431
20
62.177007899134729
0
LWPOLYLINE
5
184
100
AcDbEntity
8
0
100
AcDbPolyline
90
4
70
1
43
0.0
10
-51.16940000000006
20
53.633829479587106
10
-64.956700000000012
20
56.064829479587075
10
-67.387300000000025
20
42.277629479587084
10
-53.600100000000054
20
39.846629479587072
0
LWPOLYLINE
5
185
100
AcDbEntity
8
0
100
AcDbPolyline
90
14
70
1
43
0.0
10
6.9990899999999812
20
-12.990270520413008
10
-343.99400000000014
20
-12.990270520413008
42
-0.41421356237309093
10
-355.99400000000003
20
-0.99027052041300578
10
-355.99400000000003
20
99.033729479586725
42
-0.41421356237311585
10
-343.99400000000003
20
111.03372947958702
10
-200.78685466333712
20
111.03372947958806
10
-141.16420940784076
20
121.55127999233517
42
-0.087528721222431369
10
-136.29986808597624
20
121.55124689106262
10
-112.1535690490114
20
117.29145395498304
10
-100.82845229290832
20
115.29352241599896
10
-76.682153256010679
20
111.03372948110933
10
6.9990899999999492
20
111.03372948148873
42
-0.41421356237309531
10
18.999089999999946
20
99.03372948148872
10
18.999089999999995
20
-0.99027052041287811
42
-0.41421356237309803
0
ENDSEC
0
SECTION
2
OBJECTS
0
DICTIONARY
5
C
100
AcDbDictionary
3
ACAD_GROUP
350
D
3
ACAD_MLINESTYLE
350
17
0
DICTIONARY
5
D
100
AcDbDictionary
0
DICTIONARY
5
1A
330
C
100
AcDbDictionary
0
DICTIONARY
5
17
100
AcDbDictionary
0
ENDSEC
0
EOF
