0
SECTION
2
HEADER
9
$INSUNITS
70
4
9
$ACADVER
1
AC1014
9
$HANDSEED
5
FFFF
0
ENDSEC
0
SECTION
2
TABLES
0
TABLE
2
VPORT
5
8
100
AcDbSymbolTable
0
ENDTAB
0
TABLE
2
LTYPE
5
5
100
AcDbSymbolTable
0
LTYPE
5
14
100
AcDbSymbolTableRecord
100
AcDbLinetypeTableRecord
2
BYBLOCK
70
0
0
LTYPE
5
15
100
AcDbSymbolTableRecord
100
AcDbLinetypeTableRecord
2
BYLAYER
70
0
0
ENDTAB
0
TABLE
2
LAYER
5
2
100
AcDbSymbolTable
70
2
0
LAYER
5
50
100
AcDbSymbolTableRecord
100
AcDbLayerTableRecord
2
0
70
0
6
CONTINUOUS
0
ENDTAB
0
TABLE
2
STYLE
5
3
100
AcDbSymbolTable
70
1
0
STYLE
5
11
100
AcDbSymbolTableRecord
100
AcDbTextStyleTableRecord
2
STANDARD
70
0
0
ENDTAB
0
TABLE
2
VIEW
5
6
100
AcDbSymbolTable
70
0
0
ENDTAB
0
TABLE
2
UCS
5
7
100
AcDbSymbolTable
70
0
0
ENDTAB
0
TABLE
2
APPID
5
9
100
AcDbSymbolTable
70
2
0
APPID
5
12
100
AcDbSymbolTableRecord
100
AcDbRegAppTableRecord
2
ACAD
70
0
0
ENDTAB
0
TABLE
2
DIMSTYLE
5
A
100
AcDbSymbolTable
70
1
0
ENDTAB
0
TABLE
2
BLOCK_RECORD
5
1
100
AcDbSymbolTable
70
1
0
BLOCK_RECORD
5
1F
100
AcDbSymbolTableRecord
100
AcDbBlockTableRecord
2
*MODEL_SPACE
0
BLOCK_RECORD
5
1B
100
AcDbSymbolTableRecord
100
AcDbBlockTableRecord
2
*PAPER_SPACE
0
ENDTAB
0
ENDSEC
0
SECTION
2
BLOCKS
0
BLOCK
5
20
100
AcDbEntity
100
AcDbBlockBegin
2
*MODEL_SPACE
0
ENDBLK
5
21
100
AcDbEntity
100
AcDbBlockEnd
0
BLOCK
5
1C
100
AcDbEntity
100
AcDbBlockBegin
2
*PAPER_SPACE
0
ENDBLK
5
1D
100
AcDbEntity
100
AcDbBlockEnd
0
ENDSEC
0
SECTION
2
ENTITIES
0
LWPOLYLINE
5
100
100
AcDbEntity
8
0
100
AcDbPolyline
90
31
70
1
43
0.0
10
-139.4195813772057
20
-125.83301727490846
10
-139.41958886842309
20
-125.75853698875778
10
-139.40401286710892
20
-117.63493010846085
10
-1.7367119704719087
20
-117.8988899592116
42
0.45401150738744184
10
4.8859418062455156
20
-110.35322455051892
10
5.1594611707567601
20
-9.7391894410762276
42
0.42573365842428817
10
-1.5026654373144765
20
-2.9260365014200671
10
-85.159175519892187
20
-2.7656355945102029
10
-146.04228775834244
20
9.3322649857045619
42
0.081694006416587195
10
-149.14920121650778
20
9.4352222617462296
10
-209.46091206138505
20
-0.65015720193129534
10
-352.40585081789311
20
-0.37607813991582861
42
0.41478214011165127
10
-360.26186003902779
20
-8.2172230156216663
10
-360.53721262159257
20
-109.50560694335302
42
0.42852192450373838
10
-353.02264452739911
20
-117.22534306953889
10
-162.74398713288977
20
-117.59017862365948
10
-162.75965344070113
20
-125.76088452937945
10
-162.75965068671584
20
-125.78826560787266
10
-354.93427586874247
20
-125.4197947723825
42
-0.35453403887347418
10
-368.77773783635917
20
-111.22269528873798
10
-368.49768007874587
20
-8.2035138052466507
42
-0.41452877789641474
10
-352.39005967998713
20
7.8597324480751665
10
-210.42905023515249
20
7.5875399475929655
10
-150.25429831275164
20
17.650017014957037
42
-0.082140347001645242
10
-144.42683684487446
20
17.462078801602129
10
-85.129220432863917
20
5.67922734048447
42
-0.024740362090101116
10
-84.361760335149199
20
5.4868371366013893
10
-1.1567694434196218
20
5.327301961331572
42
-0.40960444778605365
10
13.418433808175273
20
-9.5919025084921294
10
13.14201793611468
20
-111.27141725147843
42
-0.41397893872761071
10
-1.7524307778773895
20
-126.09697683748253
0
CIRCLE
5
101
100
AcDbEntity
8
0
100
AcDbCircle
10
-361.52216854205972
20
-117.96898215008952
30
0
40
1.5500000000000114
210
0
220
0
230
1
0
CIRCLE
5
102
100
AcDbEntity
8
0
100
AcDbCircle
10
-115.38918882602232
20
7.6138904266957024
30
0
40
1.5499999999999934
210
0
220
0
230
1
0
CIRCLE
5
103
100
AcDbEntity
8
0
100
AcDbCircle
10
-360.94991988080324
20
0.33308869262198193
30
0
40
1.5500000000000114
210
0
220
0
230
1
0
CIRCLE
5
104
100
AcDbEntity
8
0
100
AcDbCircle
10
-85.135847032347954
20
-121.93709220122265
30
0
40
1.5499999999999934
210
0
220
0
230
1
0
CIRCLE
5
105
100
AcDbEntity
8
0
100
AcDbCircle
10
6.3351344754597561
20
-1.9528023065576883
30
0
40
1.5499999999999998
210
0
220
0
230
1
0
CIRCLE
5
106
100
AcDbEntity
8
0
100
AcDbCircle
10
-270.55703540956915
20
-121.58157023710163
30
0
40
1.5500000000000114
210
0
220
0
230
1
0
CIRCLE
5
107
100
AcDbEntity
8
0
100
AcDbCircle
10
5.9416648646875245
20
-118.93221545353495
30
0
40
1.5500000000000003
210
0
220
0
230
1
0
CIRCLE
5
108
100
AcDbEntity
8
0
100
AcDbCircle
10
-179.8833247335254
20
8.6398840295966632
30
0
40
1.5500000000000114
210
0
220
0
230
1
0
ENDSEC
0
SECTION
2
OBJECTS
0
DICTIONARY
5
C
100
AcDbDictionary
3
ACAD_GROUP
350
D
3
ACAD_MLINESTYLE
350
17
0
DICTIONARY
5
D
100
AcDbDictionary
0
DICTIONARY
5
1A
330
C
100
AcDbDictionary
0
DICTIONARY
5
17
100
AcDbDictionary
0
ENDSEC
0
EOF
