G04 #@! TF.GenerationSoftware,KiCad,Pcbnew,(5.99.0-1131-g93b7eacfb)*
G04 #@! TF.CreationDate,2020-05-05T10:31:04+09:00*
G04 #@! TF.ProjectId,unnamed,756e6e61-6d65-4642-9e6b-696361645f70,rev?*
G04 #@! TF.SameCoordinates,Original*
G04 #@! TF.FileFunction,Soldermask,Bot*
G04 #@! TF.FilePolarity,Negative*
%FSLAX46Y46*%
G04 Gerber Fmt 4.6, Leading zero omitted, Abs format (unit mm)*
G04 Created by KiCad (PCBNEW (5.99.0-1131-g93b7eacfb)) date 2020-05-05 10:31:04*
%MOMM*%
%LPD*%
G01*
G04 APERTURE LIST*
%ADD10R,1.000000X2.000000*%
%ADD11C,2.250000*%
%ADD12C,3.987800*%
%ADD13C,1.750000*%
%ADD14C,3.048000*%
%ADD15R,1.800000X0.820000*%
%ADD16R,2.000000X2.000000*%
%ADD17C,2.000000*%
%ADD18R,2.000000X3.200000*%
%ADD19R,0.700000X2.300000*%
%ADD20O,1.200000X2.300000*%
%ADD21C,0.600000*%
%ADD22R,0.550000X1.700000*%
%ADD23R,0.300000X1.700000*%
%ADD24R,1.060000X0.650000*%
%ADD25R,1.500000X0.550000*%
%ADD26R,0.550000X1.500000*%
G04 APERTURE END LIST*
D10*
X471581480Y-245076520D03*
X471581480Y-241526520D03*
X452488300Y-244964760D03*
X452488300Y-241414760D03*
X433453540Y-244880940D03*
X433453540Y-241330940D03*
X407352500Y-240131140D03*
X407352500Y-236581140D03*
X383557780Y-240265760D03*
X383557780Y-236715760D03*
G36*
X352263898Y-242378838D02*
G01*
X351279090Y-242552486D01*
X350931794Y-240582870D01*
X351916602Y-240409222D01*
X352263898Y-242378838D01*
G37*
G36*
X351647446Y-238882770D02*
G01*
X350662638Y-239056418D01*
X350315342Y-237086802D01*
X351300150Y-236913154D01*
X351647446Y-238882770D01*
G37*
G36*
X327750358Y-246425058D02*
G01*
X326765550Y-246598706D01*
X326418254Y-244629090D01*
X327403062Y-244455442D01*
X327750358Y-246425058D01*
G37*
G36*
X327133906Y-242928990D02*
G01*
X326149098Y-243102638D01*
X325801802Y-241133022D01*
X326786610Y-240959374D01*
X327133906Y-242928990D01*
G37*
G36*
X257249030Y-253962166D02*
G01*
X256264222Y-253788518D01*
X256611518Y-251818902D01*
X257596326Y-251992550D01*
X257249030Y-253962166D01*
G37*
G36*
X257865482Y-250466098D02*
G01*
X256880674Y-250292450D01*
X257227970Y-248322834D01*
X258212778Y-248496482D01*
X257865482Y-250466098D01*
G37*
G36*
X210576530Y-246469166D02*
G01*
X209591722Y-246295518D01*
X209939018Y-244325902D01*
X210923826Y-244499550D01*
X210576530Y-246469166D01*
G37*
G36*
X211192982Y-242973098D02*
G01*
X210208174Y-242799450D01*
X210555470Y-240829834D01*
X211540278Y-241003482D01*
X211192982Y-242973098D01*
G37*
X169100500Y-240344500D03*
X169100500Y-236794500D03*
X145415000Y-240331800D03*
X145415000Y-236781800D03*
X452574660Y-225841100D03*
X452574660Y-222291100D03*
X421614600Y-221096380D03*
X421614600Y-217546380D03*
X395340840Y-221114160D03*
X395340840Y-217564160D03*
X376384820Y-220738240D03*
X376384820Y-217188240D03*
G36*
X356028178Y-222495718D02*
G01*
X355043370Y-222669366D01*
X354696074Y-220699750D01*
X355680882Y-220526102D01*
X356028178Y-222495718D01*
G37*
G36*
X355411726Y-218999650D02*
G01*
X354426918Y-219173298D01*
X354079622Y-217203682D01*
X355064430Y-217030034D01*
X355411726Y-218999650D01*
G37*
G36*
X337293138Y-226079658D02*
G01*
X336308330Y-226253306D01*
X335961034Y-224283690D01*
X336945842Y-224110042D01*
X337293138Y-226079658D01*
G37*
G36*
X336676686Y-222583590D02*
G01*
X335691878Y-222757238D01*
X335344582Y-220787622D01*
X336329390Y-220613974D01*
X336676686Y-222583590D01*
G37*
G36*
X318281238Y-228446938D02*
G01*
X317296430Y-228620586D01*
X316949134Y-226650970D01*
X317933942Y-226477322D01*
X318281238Y-228446938D01*
G37*
G36*
X317664786Y-224950870D02*
G01*
X316679978Y-225124518D01*
X316332682Y-223154902D01*
X317317490Y-222981254D01*
X317664786Y-224950870D01*
G37*
G36*
X299657958Y-232140098D02*
G01*
X298673150Y-232313746D01*
X298325854Y-230344130D01*
X299310662Y-230170482D01*
X299657958Y-232140098D01*
G37*
G36*
X299041506Y-228644030D02*
G01*
X298056698Y-228817678D01*
X297709402Y-226848062D01*
X298694210Y-226674414D01*
X299041506Y-228644030D01*
G37*
G36*
X263154530Y-236309166D02*
G01*
X262169722Y-236135518D01*
X262517018Y-234165902D01*
X263501826Y-234339550D01*
X263154530Y-236309166D01*
G37*
G36*
X263770982Y-232813098D02*
G01*
X262786174Y-232639450D01*
X263133470Y-230669834D01*
X264118278Y-230843482D01*
X263770982Y-232813098D01*
G37*
G36*
X244528710Y-232486466D02*
G01*
X243543902Y-232312818D01*
X243891198Y-230343202D01*
X244876006Y-230516850D01*
X244528710Y-232486466D01*
G37*
G36*
X245145162Y-228990398D02*
G01*
X244160354Y-228816750D01*
X244507650Y-226847134D01*
X245492458Y-227020782D01*
X245145162Y-228990398D01*
G37*
G36*
X225745410Y-229176846D02*
G01*
X224760602Y-229003198D01*
X225107898Y-227033582D01*
X226092706Y-227207230D01*
X225745410Y-229176846D01*
G37*
G36*
X226361862Y-225680778D02*
G01*
X225377054Y-225507130D01*
X225724350Y-223537514D01*
X226709158Y-223711162D01*
X226361862Y-225680778D01*
G37*
G36*
X206997670Y-225674186D02*
G01*
X206012862Y-225500538D01*
X206360158Y-223530922D01*
X207344966Y-223704570D01*
X206997670Y-225674186D01*
G37*
G36*
X207614122Y-222178118D02*
G01*
X206629314Y-222004470D01*
X206976610Y-220034854D01*
X207961418Y-220208502D01*
X207614122Y-222178118D01*
G37*
X185928000Y-221358000D03*
X185928000Y-217808000D03*
X163195000Y-221341546D03*
X163195000Y-217791546D03*
X471058240Y-201520600D03*
X471058240Y-197970600D03*
X441309760Y-202589940D03*
X441309760Y-199039940D03*
X402104860Y-202023520D03*
X402104860Y-198473520D03*
X383047240Y-201512980D03*
X383047240Y-197962980D03*
G36*
X362022578Y-201566118D02*
G01*
X361037770Y-201739766D01*
X360690474Y-199770150D01*
X361675282Y-199596502D01*
X362022578Y-201566118D01*
G37*
G36*
X361406126Y-198070050D02*
G01*
X360421318Y-198243698D01*
X360074022Y-196274082D01*
X361058830Y-196100434D01*
X361406126Y-198070050D01*
G37*
G36*
X343376438Y-205693618D02*
G01*
X342391630Y-205867266D01*
X342044334Y-203897650D01*
X343029142Y-203724002D01*
X343376438Y-205693618D01*
G37*
G36*
X342759986Y-202197550D02*
G01*
X341775178Y-202371198D01*
X341427882Y-200401582D01*
X342412690Y-200227934D01*
X342759986Y-202197550D01*
G37*
G36*
X324372158Y-207878018D02*
G01*
X323387350Y-208051666D01*
X323040054Y-206082050D01*
X324024862Y-205908402D01*
X324372158Y-207878018D01*
G37*
G36*
X323755706Y-204381950D02*
G01*
X322770898Y-204555598D01*
X322423602Y-202585982D01*
X323408410Y-202412334D01*
X323755706Y-204381950D01*
G37*
G36*
X305776818Y-211898838D02*
G01*
X304792010Y-212072486D01*
X304444714Y-210102870D01*
X305429522Y-209929222D01*
X305776818Y-211898838D01*
G37*
G36*
X305160366Y-208402770D02*
G01*
X304175558Y-208576418D01*
X303828262Y-206606802D01*
X304813070Y-206433154D01*
X305160366Y-208402770D01*
G37*
G36*
X257058530Y-215925666D02*
G01*
X256073722Y-215752018D01*
X256421018Y-213782402D01*
X257405826Y-213956050D01*
X257058530Y-215925666D01*
G37*
G36*
X257674982Y-212429598D02*
G01*
X256690174Y-212255950D01*
X257037470Y-210286334D01*
X258022278Y-210459982D01*
X257674982Y-212429598D01*
G37*
G36*
X238326030Y-212306166D02*
G01*
X237341222Y-212132518D01*
X237688518Y-210162902D01*
X238673326Y-210336550D01*
X238326030Y-212306166D01*
G37*
G36*
X238942482Y-208810098D02*
G01*
X237957674Y-208636450D01*
X238304970Y-206666834D01*
X239289778Y-206840482D01*
X238942482Y-208810098D01*
G37*
G36*
X219786570Y-208082146D02*
G01*
X218801762Y-207908498D01*
X219149058Y-205938882D01*
X220133866Y-206112530D01*
X219786570Y-208082146D01*
G37*
G36*
X220403022Y-204586078D02*
G01*
X219418214Y-204412430D01*
X219765510Y-202442814D01*
X220750318Y-202616462D01*
X220403022Y-204586078D01*
G37*
G36*
X200797530Y-205956166D02*
G01*
X199812722Y-205782518D01*
X200160018Y-203812902D01*
X201144826Y-203986550D01*
X200797530Y-205956166D01*
G37*
G36*
X201413982Y-202460098D02*
G01*
X200429174Y-202286450D01*
X200776470Y-200316834D01*
X201761278Y-200490482D01*
X201413982Y-202460098D01*
G37*
X179136040Y-202018440D03*
X179136040Y-198468440D03*
X153177240Y-201279300D03*
X153177240Y-197729300D03*
X466417660Y-182295340D03*
X466417660Y-178745340D03*
X438312560Y-182988760D03*
X438312560Y-179438760D03*
X414464500Y-182046420D03*
X414464500Y-178496420D03*
X395437360Y-182981140D03*
X395437360Y-179431140D03*
X376405140Y-182978600D03*
X376405140Y-179428600D03*
G36*
X353927598Y-183288278D02*
G01*
X352942790Y-183461926D01*
X352595494Y-181492310D01*
X353580302Y-181318662D01*
X353927598Y-183288278D01*
G37*
G36*
X353311146Y-179792210D02*
G01*
X352326338Y-179965858D01*
X351979042Y-177996242D01*
X352963850Y-177822594D01*
X353311146Y-179792210D01*
G37*
G36*
X335230658Y-186968738D02*
G01*
X334245850Y-187142386D01*
X333898554Y-185172770D01*
X334883362Y-184999122D01*
X335230658Y-186968738D01*
G37*
G36*
X334614206Y-183472670D02*
G01*
X333629398Y-183646318D01*
X333282102Y-181676702D01*
X334266910Y-181503054D01*
X334614206Y-183472670D01*
G37*
G36*
X316541338Y-190669518D02*
G01*
X315556530Y-190843166D01*
X315209234Y-188873550D01*
X316194042Y-188699902D01*
X316541338Y-190669518D01*
G37*
G36*
X315924886Y-187173450D02*
G01*
X314940078Y-187347098D01*
X314592782Y-185377482D01*
X315577590Y-185203834D01*
X315924886Y-187173450D01*
G37*
G36*
X297750418Y-193745458D02*
G01*
X296765610Y-193919106D01*
X296418314Y-191949490D01*
X297403122Y-191775842D01*
X297750418Y-193745458D01*
G37*
G36*
X297133966Y-190249390D02*
G01*
X296149158Y-190423038D01*
X295801862Y-188453422D01*
X296786670Y-188279774D01*
X297133966Y-190249390D01*
G37*
G36*
X255725030Y-196050166D02*
G01*
X254740222Y-195876518D01*
X255087518Y-193906902D01*
X256072326Y-194080550D01*
X255725030Y-196050166D01*
G37*
G36*
X256341482Y-192554098D02*
G01*
X255356674Y-192380450D01*
X255703970Y-190410834D01*
X256688778Y-190584482D01*
X256341482Y-192554098D01*
G37*
G36*
X237071270Y-192357006D02*
G01*
X236086462Y-192183358D01*
X236433758Y-190213742D01*
X237418566Y-190387390D01*
X237071270Y-192357006D01*
G37*
G36*
X237687722Y-188860938D02*
G01*
X236702914Y-188687290D01*
X237050210Y-186717674D01*
X238035018Y-186891322D01*
X237687722Y-188860938D01*
G37*
G36*
X218280350Y-189105806D02*
G01*
X217295542Y-188932158D01*
X217642838Y-186962542D01*
X218627646Y-187136190D01*
X218280350Y-189105806D01*
G37*
G36*
X218896802Y-185609738D02*
G01*
X217911994Y-185436090D01*
X218259290Y-183466474D01*
X219244098Y-183640122D01*
X218896802Y-185609738D01*
G37*
G36*
X199570710Y-185526946D02*
G01*
X198585902Y-185353298D01*
X198933198Y-183383682D01*
X199918006Y-183557330D01*
X199570710Y-185526946D01*
G37*
G36*
X200187162Y-182030878D02*
G01*
X199202354Y-181857230D01*
X199549650Y-179887614D01*
X200534458Y-180061262D01*
X200187162Y-182030878D01*
G37*
X176344580Y-182173420D03*
X176344580Y-178623420D03*
X152527000Y-183258000D03*
X152527000Y-179708000D03*
X461642460Y-163364720D03*
X461642460Y-159814720D03*
X437027320Y-163951460D03*
X437027320Y-160401460D03*
X400184620Y-163936220D03*
X400184620Y-160386220D03*
X381116840Y-162978640D03*
X381116840Y-159428640D03*
G36*
X360005818Y-162940338D02*
G01*
X359021010Y-163113986D01*
X358673714Y-161144370D01*
X359658522Y-160970722D01*
X360005818Y-162940338D01*
G37*
G36*
X359389366Y-159444270D02*
G01*
X358404558Y-159617918D01*
X358057262Y-157648302D01*
X359042070Y-157474654D01*
X359389366Y-159444270D01*
G37*
G36*
X341377458Y-167077998D02*
G01*
X340392650Y-167251646D01*
X340045354Y-165282030D01*
X341030162Y-165108382D01*
X341377458Y-167077998D01*
G37*
G36*
X340761006Y-163581930D02*
G01*
X339776198Y-163755578D01*
X339428902Y-161785962D01*
X340413710Y-161612314D01*
X340761006Y-163581930D01*
G37*
G36*
X322611938Y-170286018D02*
G01*
X321627130Y-170459666D01*
X321279834Y-168490050D01*
X322264642Y-168316402D01*
X322611938Y-170286018D01*
G37*
G36*
X321995486Y-166789950D02*
G01*
X321010678Y-166963598D01*
X320663382Y-164993982D01*
X321648190Y-164820334D01*
X321995486Y-166789950D01*
G37*
G36*
X303848958Y-173486418D02*
G01*
X302864150Y-173660066D01*
X302516854Y-171690450D01*
X303501662Y-171516802D01*
X303848958Y-173486418D01*
G37*
G36*
X303232506Y-169990350D02*
G01*
X302247698Y-170163998D01*
X301900402Y-168194382D01*
X302885210Y-168020734D01*
X303232506Y-169990350D01*
G37*
G36*
X268298030Y-179413166D02*
G01*
X267313222Y-179239518D01*
X267660518Y-177269902D01*
X268645326Y-177443550D01*
X268298030Y-179413166D01*
G37*
G36*
X268914482Y-175917098D02*
G01*
X267929674Y-175743450D01*
X268276970Y-173773834D01*
X269261778Y-173947482D01*
X268914482Y-175917098D01*
G37*
G36*
X249565530Y-176047666D02*
G01*
X248580722Y-175874018D01*
X248928018Y-173904402D01*
X249912826Y-174078050D01*
X249565530Y-176047666D01*
G37*
G36*
X250181982Y-172551598D02*
G01*
X249197174Y-172377950D01*
X249544470Y-170408334D01*
X250529278Y-170581982D01*
X250181982Y-172551598D01*
G37*
G36*
X230949870Y-172151306D02*
G01*
X229965062Y-171977658D01*
X230312358Y-170008042D01*
X231297166Y-170181690D01*
X230949870Y-172151306D01*
G37*
G36*
X231566322Y-168655238D02*
G01*
X230581514Y-168481590D01*
X230928810Y-166511974D01*
X231913618Y-166685622D01*
X231566322Y-168655238D01*
G37*
G36*
X212242770Y-168447986D02*
G01*
X211257962Y-168274338D01*
X211605258Y-166304722D01*
X212590066Y-166478370D01*
X212242770Y-168447986D01*
G37*
G36*
X212859222Y-164951918D02*
G01*
X211874414Y-164778270D01*
X212221710Y-162808654D01*
X213206518Y-162982302D01*
X212859222Y-164951918D01*
G37*
G36*
X193624570Y-165722566D02*
G01*
X192639762Y-165548918D01*
X192987058Y-163579302D01*
X193971866Y-163752950D01*
X193624570Y-165722566D01*
G37*
G36*
X194241022Y-162226498D02*
G01*
X193256214Y-162052850D01*
X193603510Y-160083234D01*
X194588318Y-160256882D01*
X194241022Y-162226498D01*
G37*
X171615100Y-164190220D03*
X171615100Y-160640220D03*
X152669240Y-163946380D03*
X152669240Y-160396380D03*
G36*
G01*
X420820000Y-166826250D02*
X420820000Y-165913750D01*
G75*
G02*
X421063750Y-165670000I243750J0D01*
G01*
X421551250Y-165670000D01*
G75*
G02*
X421795000Y-165913750I0J-243750D01*
G01*
X421795000Y-166826250D01*
G75*
G02*
X421551250Y-167070000I-243750J0D01*
G01*
X421063750Y-167070000D01*
G75*
G02*
X420820000Y-166826250I0J243750D01*
G01*
G37*
G36*
G01*
X418945000Y-166826250D02*
X418945000Y-165913750D01*
G75*
G02*
X419188750Y-165670000I243750J0D01*
G01*
X419676250Y-165670000D01*
G75*
G02*
X419920000Y-165913750I0J-243750D01*
G01*
X419920000Y-166826250D01*
G75*
G02*
X419676250Y-167070000I-243750J0D01*
G01*
X419188750Y-167070000D01*
G75*
G02*
X418945000Y-166826250I0J243750D01*
G01*
G37*
G36*
G01*
X441080210Y-157946940D02*
X440167710Y-157946940D01*
G75*
G02*
X439923960Y-157703190I0J243750D01*
G01*
X439923960Y-157215690D01*
G75*
G02*
X440167710Y-156971940I243750J0D01*
G01*
X441080210Y-156971940D01*
G75*
G02*
X441323960Y-157215690I0J-243750D01*
G01*
X441323960Y-157703190D01*
G75*
G02*
X441080210Y-157946940I-243750J0D01*
G01*
G37*
G36*
G01*
X441080210Y-159821940D02*
X440167710Y-159821940D01*
G75*
G02*
X439923960Y-159578190I0J243750D01*
G01*
X439923960Y-159090690D01*
G75*
G02*
X440167710Y-158846940I243750J0D01*
G01*
X441080210Y-158846940D01*
G75*
G02*
X441323960Y-159090690I0J-243750D01*
G01*
X441323960Y-159578190D01*
G75*
G02*
X441080210Y-159821940I-243750J0D01*
G01*
G37*
D11*
X422996250Y-153229746D03*
D12*
X420456250Y-158309746D03*
D11*
X416646250Y-155769746D03*
D13*
X415376250Y-158309746D03*
X425536250Y-158309746D03*
D14*
X408550000Y-165294746D03*
X432362500Y-165294746D03*
D12*
X408550000Y-150054746D03*
X432362500Y-150054746D03*
G36*
G01*
X282884400Y-204158040D02*
X280284400Y-204158040D01*
G75*
G02*
X280184400Y-204058040I0J100000D01*
G01*
X280184400Y-203858040D01*
G75*
G02*
X280284400Y-203758040I100000J0D01*
G01*
X282884400Y-203758040D01*
G75*
G02*
X282984400Y-203858040I0J-100000D01*
G01*
X282984400Y-204058040D01*
G75*
G02*
X282884400Y-204158040I-100000J0D01*
G01*
G37*
G36*
G01*
X282884400Y-202958040D02*
X280284400Y-202958040D01*
G75*
G02*
X280184400Y-202858040I0J100000D01*
G01*
X280184400Y-202658040D01*
G75*
G02*
X280284400Y-202558040I100000J0D01*
G01*
X282884400Y-202558040D01*
G75*
G02*
X282984400Y-202658040I0J-100000D01*
G01*
X282984400Y-202858040D01*
G75*
G02*
X282884400Y-202958040I-100000J0D01*
G01*
G37*
G36*
G01*
X282884400Y-201758040D02*
X280284400Y-201758040D01*
G75*
G02*
X280184400Y-201658040I0J100000D01*
G01*
X280184400Y-201458040D01*
G75*
G02*
X280284400Y-201358040I100000J0D01*
G01*
X282884400Y-201358040D01*
G75*
G02*
X282984400Y-201458040I0J-100000D01*
G01*
X282984400Y-201658040D01*
G75*
G02*
X282884400Y-201758040I-100000J0D01*
G01*
G37*
D11*
X427282500Y-191329746D03*
D12*
X424742500Y-196409746D03*
D11*
X420932500Y-193869746D03*
D13*
X419662500Y-196409746D03*
X429822500Y-196409746D03*
D14*
X412836250Y-203394746D03*
X436648750Y-203394746D03*
D12*
X412836250Y-188154746D03*
X436648750Y-188154746D03*
G36*
X280130893Y-227486397D02*
G01*
X280321906Y-228569686D01*
X278549253Y-228882253D01*
X278358240Y-227798964D01*
X280130893Y-227486397D01*
G37*
G36*
X273382587Y-224919227D02*
G01*
X273573600Y-226002516D01*
X271800947Y-226315083D01*
X271609934Y-225231794D01*
X273382587Y-224919227D01*
G37*
G36*
X279488395Y-223842608D02*
G01*
X279679408Y-224925897D01*
X277906755Y-225238464D01*
X277715742Y-224155175D01*
X279488395Y-223842608D01*
G37*
G36*
X274025085Y-228563016D02*
G01*
X274216098Y-229646305D01*
X272443445Y-229958872D01*
X272252432Y-228875583D01*
X274025085Y-228563016D01*
G37*
D15*
X460823940Y-243915500D03*
X460823940Y-245415500D03*
X465823940Y-245415500D03*
X465823940Y-243915500D03*
X441652020Y-243897720D03*
X441652020Y-245397720D03*
X446652020Y-245397720D03*
X446652020Y-243897720D03*
X427612180Y-245420580D03*
X427612180Y-243920580D03*
X422612180Y-243920580D03*
X422612180Y-245420580D03*
X396467960Y-239145380D03*
X396467960Y-240645380D03*
X401467960Y-240645380D03*
X401467960Y-239145380D03*
X377531000Y-240627600D03*
X377531000Y-239127600D03*
X372531000Y-239127600D03*
X372531000Y-240627600D03*
G36*
X341582615Y-242129640D02*
G01*
X341725007Y-242937183D01*
X339952353Y-243249750D01*
X339809961Y-242442207D01*
X341582615Y-242129640D01*
G37*
G36*
X341843088Y-243606851D02*
G01*
X341985480Y-244414394D01*
X340212826Y-244726961D01*
X340070434Y-243919418D01*
X341843088Y-243606851D01*
G37*
G36*
X346767127Y-242738610D02*
G01*
X346909519Y-243546153D01*
X345136865Y-243858720D01*
X344994473Y-243051177D01*
X346767127Y-242738610D01*
G37*
G36*
X346506654Y-241261399D02*
G01*
X346649046Y-242068942D01*
X344876392Y-242381509D01*
X344734000Y-241573966D01*
X346506654Y-241261399D01*
G37*
G36*
X308722635Y-247918300D02*
G01*
X308865027Y-248725843D01*
X307092373Y-249038410D01*
X306949981Y-248230867D01*
X308722635Y-247918300D01*
G37*
G36*
X308983108Y-249395511D02*
G01*
X309125500Y-250203054D01*
X307352846Y-250515621D01*
X307210454Y-249708078D01*
X308983108Y-249395511D01*
G37*
G36*
X313907147Y-248527270D02*
G01*
X314049539Y-249334813D01*
X312276885Y-249647380D01*
X312134493Y-248839837D01*
X313907147Y-248527270D01*
G37*
G36*
X313646674Y-247050059D02*
G01*
X313789066Y-247857602D01*
X312016412Y-248170169D01*
X311874020Y-247362626D01*
X313646674Y-247050059D01*
G37*
G36*
X241150260Y-251038714D02*
G01*
X241292652Y-250231171D01*
X243065306Y-250543738D01*
X242922914Y-251351281D01*
X241150260Y-251038714D01*
G37*
G36*
X241410733Y-249561503D02*
G01*
X241553125Y-248753960D01*
X243325779Y-249066527D01*
X243183387Y-249874070D01*
X241410733Y-249561503D01*
G37*
G36*
X236486694Y-248693262D02*
G01*
X236629086Y-247885719D01*
X238401740Y-248198286D01*
X238259348Y-249005829D01*
X236486694Y-248693262D01*
G37*
G36*
X236226221Y-250170473D02*
G01*
X236368613Y-249362930D01*
X238141267Y-249675497D01*
X237998875Y-250483040D01*
X236226221Y-250170473D01*
G37*
G36*
X198761221Y-243566473D02*
G01*
X198903613Y-242758930D01*
X200676267Y-243071497D01*
X200533875Y-243879040D01*
X198761221Y-243566473D01*
G37*
G36*
X199021694Y-242089262D02*
G01*
X199164086Y-241281719D01*
X200936740Y-241594286D01*
X200794348Y-242401829D01*
X199021694Y-242089262D01*
G37*
G36*
X203945733Y-242957503D02*
G01*
X204088125Y-242149960D01*
X205860779Y-242462527D01*
X205718387Y-243270070D01*
X203945733Y-242957503D01*
G37*
G36*
X203685260Y-244434714D02*
G01*
X203827652Y-243627171D01*
X205600306Y-243939738D01*
X205457914Y-244747281D01*
X203685260Y-244434714D01*
G37*
X158218500Y-239153000D03*
X158218500Y-240653000D03*
X163218500Y-240653000D03*
X163218500Y-239153000D03*
X139533000Y-240653000D03*
X139533000Y-239153000D03*
X134533000Y-239153000D03*
X134533000Y-240653000D03*
X441672340Y-224870580D03*
X441672340Y-226370580D03*
X446672340Y-226370580D03*
X446672340Y-224870580D03*
X415437960Y-221623320D03*
X415437960Y-220123320D03*
X410437960Y-220123320D03*
X410437960Y-221623320D03*
X384656960Y-220087760D03*
X384656960Y-221587760D03*
X389656960Y-221587760D03*
X389656960Y-220087760D03*
X370307240Y-221592840D03*
X370307240Y-220092840D03*
X365307240Y-220092840D03*
X365307240Y-221592840D03*
G36*
X345334195Y-222109360D02*
G01*
X345476587Y-222916903D01*
X343703933Y-223229470D01*
X343561541Y-222421927D01*
X345334195Y-222109360D01*
G37*
G36*
X345594668Y-223586571D02*
G01*
X345737060Y-224394114D01*
X343964406Y-224706681D01*
X343822014Y-223899138D01*
X345594668Y-223586571D01*
G37*
G36*
X350518707Y-222718330D02*
G01*
X350661099Y-223525873D01*
X348888445Y-223838440D01*
X348746053Y-223030897D01*
X350518707Y-222718330D01*
G37*
G36*
X350258234Y-221241119D02*
G01*
X350400626Y-222048662D01*
X348627972Y-222361229D01*
X348485580Y-221553686D01*
X350258234Y-221241119D01*
G37*
G36*
X330214365Y-227145520D02*
G01*
X330071973Y-226337977D01*
X331844627Y-226025410D01*
X331987019Y-226832953D01*
X330214365Y-227145520D01*
G37*
G36*
X329953892Y-225668309D02*
G01*
X329811500Y-224860766D01*
X331584154Y-224548199D01*
X331726546Y-225355742D01*
X329953892Y-225668309D01*
G37*
G36*
X325029853Y-226536550D02*
G01*
X324887461Y-225729007D01*
X326660115Y-225416440D01*
X326802507Y-226223983D01*
X325029853Y-226536550D01*
G37*
G36*
X325290326Y-228013761D02*
G01*
X325147934Y-227206218D01*
X326920588Y-226893651D01*
X327062980Y-227701194D01*
X325290326Y-228013761D01*
G37*
G36*
X307798075Y-228723520D02*
G01*
X307940467Y-229531063D01*
X306167813Y-229843630D01*
X306025421Y-229036087D01*
X307798075Y-228723520D01*
G37*
G36*
X308058548Y-230200731D02*
G01*
X308200940Y-231008274D01*
X306428286Y-231320841D01*
X306285894Y-230513298D01*
X308058548Y-230200731D01*
G37*
G36*
X312982587Y-229332490D02*
G01*
X313124979Y-230140033D01*
X311352325Y-230452600D01*
X311209933Y-229645057D01*
X312982587Y-229332490D01*
G37*
G36*
X312722114Y-227855279D02*
G01*
X312864506Y-228662822D01*
X311091852Y-228975389D01*
X310949460Y-228167846D01*
X312722114Y-227855279D01*
G37*
G36*
X292754445Y-233752060D02*
G01*
X292612053Y-232944517D01*
X294384707Y-232631950D01*
X294527099Y-233439493D01*
X292754445Y-233752060D01*
G37*
G36*
X292493972Y-232274849D02*
G01*
X292351580Y-231467306D01*
X294124234Y-231154739D01*
X294266626Y-231962282D01*
X292493972Y-232274849D01*
G37*
G36*
X287569933Y-233143090D02*
G01*
X287427541Y-232335547D01*
X289200195Y-232022980D01*
X289342587Y-232830523D01*
X287569933Y-233143090D01*
G37*
G36*
X287830406Y-234620301D02*
G01*
X287688014Y-233812758D01*
X289460668Y-233500191D01*
X289603060Y-234307734D01*
X287830406Y-234620301D01*
G37*
G36*
X253324240Y-231434286D02*
G01*
X253181848Y-232241829D01*
X251409194Y-231929262D01*
X251551586Y-231121719D01*
X253324240Y-231434286D01*
G37*
G36*
X253063767Y-232911497D02*
G01*
X252921375Y-233719040D01*
X251148721Y-233406473D01*
X251291113Y-232598930D01*
X253063767Y-232911497D01*
G37*
G36*
X257987806Y-233779738D02*
G01*
X257845414Y-234587281D01*
X256072760Y-234274714D01*
X256215152Y-233467171D01*
X257987806Y-233779738D01*
G37*
G36*
X258248279Y-232302527D02*
G01*
X258105887Y-233110070D01*
X256333233Y-232797503D01*
X256475625Y-231989960D01*
X258248279Y-232302527D01*
G37*
G36*
X237467260Y-231036214D02*
G01*
X237609652Y-230228671D01*
X239382306Y-230541238D01*
X239239914Y-231348781D01*
X237467260Y-231036214D01*
G37*
G36*
X237727733Y-229559003D02*
G01*
X237870125Y-228751460D01*
X239642779Y-229064027D01*
X239500387Y-229871570D01*
X237727733Y-229559003D01*
G37*
G36*
X232803694Y-228690762D02*
G01*
X232946086Y-227883219D01*
X234718740Y-228195786D01*
X234576348Y-229003329D01*
X232803694Y-228690762D01*
G37*
G36*
X232543221Y-230167973D02*
G01*
X232685613Y-229360430D01*
X234458267Y-229672997D01*
X234315875Y-230480540D01*
X232543221Y-230167973D01*
G37*
G36*
X216049740Y-224893786D02*
G01*
X215907348Y-225701329D01*
X214134694Y-225388762D01*
X214277086Y-224581219D01*
X216049740Y-224893786D01*
G37*
G36*
X215789267Y-226370997D02*
G01*
X215646875Y-227178540D01*
X213874221Y-226865973D01*
X214016613Y-226058430D01*
X215789267Y-226370997D01*
G37*
G36*
X220713306Y-227239238D02*
G01*
X220570914Y-228046781D01*
X218798260Y-227734214D01*
X218940652Y-226926671D01*
X220713306Y-227239238D01*
G37*
G36*
X220973779Y-225762027D02*
G01*
X220831387Y-226569570D01*
X219058733Y-226257003D01*
X219201125Y-225449460D01*
X220973779Y-225762027D01*
G37*
G36*
X199938760Y-224432214D02*
G01*
X200081152Y-223624671D01*
X201853806Y-223937238D01*
X201711414Y-224744781D01*
X199938760Y-224432214D01*
G37*
G36*
X200199233Y-222955003D02*
G01*
X200341625Y-222147460D01*
X202114279Y-222460027D01*
X201971887Y-223267570D01*
X200199233Y-222955003D01*
G37*
G36*
X195275194Y-222086762D02*
G01*
X195417586Y-221279219D01*
X197190240Y-221591786D01*
X197047848Y-222399329D01*
X195275194Y-222086762D01*
G37*
G36*
X195014721Y-223563973D02*
G01*
X195157113Y-222756430D01*
X196929767Y-223068997D01*
X196787375Y-223876540D01*
X195014721Y-223563973D01*
G37*
X175046000Y-220103000D03*
X175046000Y-221603000D03*
X180046000Y-221603000D03*
X180046000Y-220103000D03*
X149121500Y-221603000D03*
X149121500Y-220103000D03*
X144121500Y-220103000D03*
X144121500Y-221603000D03*
X422185460Y-201035220D03*
X422185460Y-202535220D03*
X427185460Y-202535220D03*
X427185460Y-201035220D03*
X391248260Y-201053000D03*
X391248260Y-202553000D03*
X396248260Y-202553000D03*
X396248260Y-201053000D03*
X377017920Y-202525060D03*
X377017920Y-201025060D03*
X372017920Y-201025060D03*
X372017920Y-202525060D03*
G36*
X351353995Y-201697920D02*
G01*
X351496387Y-202505463D01*
X349723733Y-202818030D01*
X349581341Y-202010487D01*
X351353995Y-201697920D01*
G37*
G36*
X351614468Y-203175131D02*
G01*
X351756860Y-203982674D01*
X349984206Y-204295241D01*
X349841814Y-203487698D01*
X351614468Y-203175131D01*
G37*
G36*
X356538507Y-202306890D02*
G01*
X356680899Y-203114433D01*
X354908245Y-203427000D01*
X354765853Y-202619457D01*
X356538507Y-202306890D01*
G37*
G36*
X356278034Y-200829679D02*
G01*
X356420426Y-201637222D01*
X354647772Y-201949789D01*
X354505380Y-201142246D01*
X356278034Y-200829679D01*
G37*
G36*
X336127485Y-206759480D02*
G01*
X335985093Y-205951937D01*
X337757747Y-205639370D01*
X337900139Y-206446913D01*
X336127485Y-206759480D01*
G37*
G36*
X335867012Y-205282269D02*
G01*
X335724620Y-204474726D01*
X337497274Y-204162159D01*
X337639666Y-204969702D01*
X335867012Y-205282269D01*
G37*
G36*
X330942973Y-206150510D02*
G01*
X330800581Y-205342967D01*
X332573235Y-205030400D01*
X332715627Y-205837943D01*
X330942973Y-206150510D01*
G37*
G36*
X331203446Y-207627721D02*
G01*
X331061054Y-206820178D01*
X332833708Y-206507611D01*
X332976100Y-207315154D01*
X331203446Y-207627721D01*
G37*
G36*
X313894075Y-208312080D02*
G01*
X314036467Y-209119623D01*
X312263813Y-209432190D01*
X312121421Y-208624647D01*
X313894075Y-208312080D01*
G37*
G36*
X314154548Y-209789291D02*
G01*
X314296940Y-210596834D01*
X312524286Y-210909401D01*
X312381894Y-210101858D01*
X314154548Y-209789291D01*
G37*
G36*
X319078587Y-208921050D02*
G01*
X319220979Y-209728593D01*
X317448325Y-210041160D01*
X317305933Y-209233617D01*
X319078587Y-208921050D01*
G37*
G36*
X318818114Y-207443839D02*
G01*
X318960506Y-208251382D01*
X317187852Y-208563949D01*
X317045460Y-207756406D01*
X318818114Y-207443839D01*
G37*
G36*
X298614225Y-213353320D02*
G01*
X298471833Y-212545777D01*
X300244487Y-212233210D01*
X300386879Y-213040753D01*
X298614225Y-213353320D01*
G37*
G36*
X298353752Y-211876109D02*
G01*
X298211360Y-211068566D01*
X299984014Y-210755999D01*
X300126406Y-211563542D01*
X298353752Y-211876109D01*
G37*
G36*
X293429713Y-212744350D02*
G01*
X293287321Y-211936807D01*
X295059975Y-211624240D01*
X295202367Y-212431783D01*
X293429713Y-212744350D01*
G37*
G36*
X293690186Y-214221561D02*
G01*
X293547794Y-213414018D01*
X295320448Y-213101451D01*
X295462840Y-213908994D01*
X293690186Y-214221561D01*
G37*
G36*
X247418740Y-211114286D02*
G01*
X247276348Y-211921829D01*
X245503694Y-211609262D01*
X245646086Y-210801719D01*
X247418740Y-211114286D01*
G37*
G36*
X247158267Y-212591497D02*
G01*
X247015875Y-213399040D01*
X245243221Y-213086473D01*
X245385613Y-212278930D01*
X247158267Y-212591497D01*
G37*
G36*
X252082306Y-213459738D02*
G01*
X251939914Y-214267281D01*
X250167260Y-213954714D01*
X250309652Y-213147171D01*
X252082306Y-213459738D01*
G37*
G36*
X252342779Y-211982527D02*
G01*
X252200387Y-212790070D01*
X250427733Y-212477503D01*
X250570125Y-211669960D01*
X252342779Y-211982527D01*
G37*
G36*
X231371260Y-210589214D02*
G01*
X231513652Y-209781671D01*
X233286306Y-210094238D01*
X233143914Y-210901781D01*
X231371260Y-210589214D01*
G37*
G36*
X231631733Y-209112003D02*
G01*
X231774125Y-208304460D01*
X233546779Y-208617027D01*
X233404387Y-209424570D01*
X231631733Y-209112003D01*
G37*
G36*
X226707694Y-208243762D02*
G01*
X226850086Y-207436219D01*
X228622740Y-207748786D01*
X228480348Y-208556329D01*
X226707694Y-208243762D01*
G37*
G36*
X226447221Y-209720973D02*
G01*
X226589613Y-208913430D01*
X228362267Y-209225997D01*
X228219875Y-210033540D01*
X226447221Y-209720973D01*
G37*
G36*
X209953740Y-204446786D02*
G01*
X209811348Y-205254329D01*
X208038694Y-204941762D01*
X208181086Y-204134219D01*
X209953740Y-204446786D01*
G37*
G36*
X209693267Y-205923997D02*
G01*
X209550875Y-206731540D01*
X207778221Y-206418973D01*
X207920613Y-205611430D01*
X209693267Y-205923997D01*
G37*
G36*
X214617306Y-206792238D02*
G01*
X214474914Y-207599781D01*
X212702260Y-207287214D01*
X212844652Y-206479671D01*
X214617306Y-206792238D01*
G37*
G36*
X214877779Y-205315027D02*
G01*
X214735387Y-206122570D01*
X212962733Y-205810003D01*
X213105125Y-205002460D01*
X214877779Y-205315027D01*
G37*
G36*
X193334760Y-203921714D02*
G01*
X193477152Y-203114171D01*
X195249806Y-203426738D01*
X195107414Y-204234281D01*
X193334760Y-203921714D01*
G37*
G36*
X193595233Y-202444503D02*
G01*
X193737625Y-201636960D01*
X195510279Y-201949527D01*
X195367887Y-202757070D01*
X193595233Y-202444503D01*
G37*
G36*
X188671194Y-201576262D02*
G01*
X188813586Y-200768719D01*
X190586240Y-201081286D01*
X190443848Y-201888829D01*
X188671194Y-201576262D01*
G37*
G36*
X188410721Y-203053473D02*
G01*
X188553113Y-202245930D01*
X190325767Y-202558497D01*
X190183375Y-203366040D01*
X188410721Y-203053473D01*
G37*
X168378500Y-201053000D03*
X168378500Y-202553000D03*
X173378500Y-202553000D03*
X173378500Y-201053000D03*
X147153000Y-202616500D03*
X147153000Y-201116500D03*
X142153000Y-201116500D03*
X142153000Y-202616500D03*
X427491520Y-182003000D03*
X427491520Y-183503000D03*
X432491520Y-183503000D03*
X432491520Y-182003000D03*
X408562180Y-183490300D03*
X408562180Y-181990300D03*
X403562180Y-181990300D03*
X403562180Y-183490300D03*
X384529960Y-181980140D03*
X384529960Y-183480140D03*
X389529960Y-183480140D03*
X389529960Y-181980140D03*
X370497740Y-183485220D03*
X370497740Y-181985220D03*
X365497740Y-181985220D03*
X365497740Y-183485220D03*
G36*
X343416495Y-183745200D02*
G01*
X343558887Y-184552743D01*
X341786233Y-184865310D01*
X341643841Y-184057767D01*
X343416495Y-183745200D01*
G37*
G36*
X343676968Y-185222411D02*
G01*
X343819360Y-186029954D01*
X342046706Y-186342521D01*
X341904314Y-185534978D01*
X343676968Y-185222411D01*
G37*
G36*
X348601007Y-184354170D02*
G01*
X348743399Y-185161713D01*
X346970745Y-185474280D01*
X346828353Y-184666737D01*
X348601007Y-184354170D01*
G37*
G36*
X348340534Y-182876959D02*
G01*
X348482926Y-183684502D01*
X346710272Y-183997069D01*
X346567880Y-183189526D01*
X348340534Y-182876959D01*
G37*
G36*
X328129025Y-188816920D02*
G01*
X327986633Y-188009377D01*
X329759287Y-187696810D01*
X329901679Y-188504353D01*
X328129025Y-188816920D01*
G37*
G36*
X327868552Y-187339709D02*
G01*
X327726160Y-186532166D01*
X329498814Y-186219599D01*
X329641206Y-187027142D01*
X327868552Y-187339709D01*
G37*
G36*
X322944513Y-188207950D02*
G01*
X322802121Y-187400407D01*
X324574775Y-187087840D01*
X324717167Y-187895383D01*
X322944513Y-188207950D01*
G37*
G36*
X323204986Y-189685161D02*
G01*
X323062594Y-188877618D01*
X324835248Y-188565051D01*
X324977640Y-189372594D01*
X323204986Y-189685161D01*
G37*
G36*
X305992135Y-190359360D02*
G01*
X306134527Y-191166903D01*
X304361873Y-191479470D01*
X304219481Y-190671927D01*
X305992135Y-190359360D01*
G37*
G36*
X306252608Y-191836571D02*
G01*
X306395000Y-192644114D01*
X304622346Y-192956681D01*
X304479954Y-192149138D01*
X306252608Y-191836571D01*
G37*
G36*
X311176647Y-190968330D02*
G01*
X311319039Y-191775873D01*
X309546385Y-192088440D01*
X309403993Y-191280897D01*
X311176647Y-190968330D01*
G37*
G36*
X310916174Y-189491119D02*
G01*
X311058566Y-190298662D01*
X309285912Y-190611229D01*
X309143520Y-189803686D01*
X310916174Y-189491119D01*
G37*
G36*
X290773245Y-195392980D02*
G01*
X290630853Y-194585437D01*
X292403507Y-194272870D01*
X292545899Y-195080413D01*
X290773245Y-195392980D01*
G37*
G36*
X290512772Y-193915769D02*
G01*
X290370380Y-193108226D01*
X292143034Y-192795659D01*
X292285426Y-193603202D01*
X290512772Y-193915769D01*
G37*
G36*
X285588733Y-194784010D02*
G01*
X285446341Y-193976467D01*
X287218995Y-193663900D01*
X287361387Y-194471443D01*
X285588733Y-194784010D01*
G37*
G36*
X285849206Y-196261221D02*
G01*
X285706814Y-195453678D01*
X287479468Y-195141111D01*
X287621860Y-195948654D01*
X285849206Y-196261221D01*
G37*
G36*
X245831240Y-191492786D02*
G01*
X245688848Y-192300329D01*
X243916194Y-191987762D01*
X244058586Y-191180219D01*
X245831240Y-191492786D01*
G37*
G36*
X245570767Y-192969997D02*
G01*
X245428375Y-193777540D01*
X243655721Y-193464973D01*
X243798113Y-192657430D01*
X245570767Y-192969997D01*
G37*
G36*
X250494806Y-193838238D02*
G01*
X250352414Y-194645781D01*
X248579760Y-194333214D01*
X248722152Y-193525671D01*
X250494806Y-193838238D01*
G37*
G36*
X250755279Y-192361027D02*
G01*
X250612887Y-193168570D01*
X248840233Y-192856003D01*
X248982625Y-192048460D01*
X250755279Y-192361027D01*
G37*
G36*
X230037760Y-191031214D02*
G01*
X230180152Y-190223671D01*
X231952806Y-190536238D01*
X231810414Y-191343781D01*
X230037760Y-191031214D01*
G37*
G36*
X230298233Y-189554003D02*
G01*
X230440625Y-188746460D01*
X232213279Y-189059027D01*
X232070887Y-189866570D01*
X230298233Y-189554003D01*
G37*
G36*
X225374194Y-188685762D02*
G01*
X225516586Y-187878219D01*
X227289240Y-188190786D01*
X227146848Y-188998329D01*
X225374194Y-188685762D01*
G37*
G36*
X225113721Y-190162973D02*
G01*
X225256113Y-189355430D01*
X227028767Y-189667997D01*
X226886375Y-190475540D01*
X225113721Y-190162973D01*
G37*
G36*
X208366240Y-184825286D02*
G01*
X208223848Y-185632829D01*
X206451194Y-185320262D01*
X206593586Y-184512719D01*
X208366240Y-184825286D01*
G37*
G36*
X208105767Y-186302497D02*
G01*
X207963375Y-187110040D01*
X206190721Y-186797473D01*
X206333113Y-185989930D01*
X208105767Y-186302497D01*
G37*
G36*
X213029806Y-187170738D02*
G01*
X212887414Y-187978281D01*
X211114760Y-187665714D01*
X211257152Y-186858171D01*
X213029806Y-187170738D01*
G37*
G36*
X213290279Y-185693527D02*
G01*
X213147887Y-186501070D01*
X211375233Y-186188503D01*
X211517625Y-185380960D01*
X213290279Y-185693527D01*
G37*
G36*
X192445760Y-184427214D02*
G01*
X192588152Y-183619671D01*
X194360806Y-183932238D01*
X194218414Y-184739781D01*
X192445760Y-184427214D01*
G37*
G36*
X192706233Y-182950003D02*
G01*
X192848625Y-182142460D01*
X194621279Y-182455027D01*
X194478887Y-183262570D01*
X192706233Y-182950003D01*
G37*
G36*
X187782194Y-182081762D02*
G01*
X187924586Y-181274219D01*
X189697240Y-181586786D01*
X189554848Y-182394329D01*
X187782194Y-182081762D01*
G37*
G36*
X187521721Y-183558973D02*
G01*
X187664113Y-182751430D01*
X189436767Y-183063997D01*
X189294375Y-183871540D01*
X187521721Y-183558973D01*
G37*
X165521000Y-182003000D03*
X165521000Y-183503000D03*
X170521000Y-183503000D03*
X170521000Y-182003000D03*
X146645000Y-183503000D03*
X146645000Y-182003000D03*
X141645000Y-182003000D03*
X141645000Y-183503000D03*
X417880160Y-162958080D03*
X417880160Y-164458080D03*
X422880160Y-164458080D03*
X422880160Y-162958080D03*
X394320400Y-164432680D03*
X394320400Y-162932680D03*
X389320400Y-162932680D03*
X389320400Y-164432680D03*
X370049420Y-162935220D03*
X370049420Y-164435220D03*
X375049420Y-164435220D03*
X375049420Y-162935220D03*
G36*
X352954985Y-165111100D02*
G01*
X352812593Y-164303557D01*
X354585247Y-163990990D01*
X354727639Y-164798533D01*
X352954985Y-165111100D01*
G37*
G36*
X352694512Y-163633889D02*
G01*
X352552120Y-162826346D01*
X354324774Y-162513779D01*
X354467166Y-163321322D01*
X352694512Y-163633889D01*
G37*
G36*
X347770473Y-164502130D02*
G01*
X347628081Y-163694587D01*
X349400735Y-163382020D01*
X349543127Y-164189563D01*
X347770473Y-164502130D01*
G37*
G36*
X348030946Y-165979341D02*
G01*
X347888554Y-165171798D01*
X349661208Y-164859231D01*
X349803600Y-165666774D01*
X348030946Y-165979341D01*
G37*
G36*
X330658075Y-166686560D02*
G01*
X330800467Y-167494103D01*
X329027813Y-167806670D01*
X328885421Y-166999127D01*
X330658075Y-166686560D01*
G37*
G36*
X330918548Y-168163771D02*
G01*
X331060940Y-168971314D01*
X329288286Y-169283881D01*
X329145894Y-168476338D01*
X330918548Y-168163771D01*
G37*
G36*
X335842587Y-167295530D02*
G01*
X335984979Y-168103073D01*
X334212325Y-168415640D01*
X334069933Y-167608097D01*
X335842587Y-167295530D01*
G37*
G36*
X335582114Y-165818319D02*
G01*
X335724506Y-166625862D01*
X333951852Y-166938429D01*
X333809460Y-166130886D01*
X335582114Y-165818319D01*
G37*
G36*
X315406165Y-171715100D02*
G01*
X315263773Y-170907557D01*
X317036427Y-170594990D01*
X317178819Y-171402533D01*
X315406165Y-171715100D01*
G37*
G36*
X315145692Y-170237889D02*
G01*
X315003300Y-169430346D01*
X316775954Y-169117779D01*
X316918346Y-169925322D01*
X315145692Y-170237889D01*
G37*
G36*
X310221653Y-171106130D02*
G01*
X310079261Y-170298587D01*
X311851915Y-169986020D01*
X311994307Y-170793563D01*
X310221653Y-171106130D01*
G37*
G36*
X310482126Y-172583341D02*
G01*
X310339734Y-171775798D01*
X312112388Y-171463231D01*
X312254780Y-172270774D01*
X310482126Y-172583341D01*
G37*
G36*
X293116875Y-173288020D02*
G01*
X293259267Y-174095563D01*
X291486613Y-174408130D01*
X291344221Y-173600587D01*
X293116875Y-173288020D01*
G37*
G36*
X293377348Y-174765231D02*
G01*
X293519740Y-175572774D01*
X291747086Y-175885341D01*
X291604694Y-175077798D01*
X293377348Y-174765231D01*
G37*
G36*
X298301387Y-173896990D02*
G01*
X298443779Y-174704533D01*
X296671125Y-175017100D01*
X296528733Y-174209557D01*
X298301387Y-173896990D01*
G37*
G36*
X298040914Y-172419779D02*
G01*
X298183306Y-173227322D01*
X296410652Y-173539889D01*
X296268260Y-172732346D01*
X298040914Y-172419779D01*
G37*
G36*
X261533760Y-177251714D02*
G01*
X261676152Y-176444171D01*
X263448806Y-176756738D01*
X263306414Y-177564281D01*
X261533760Y-177251714D01*
G37*
G36*
X261794233Y-175774503D02*
G01*
X261936625Y-174966960D01*
X263709279Y-175279527D01*
X263566887Y-176087070D01*
X261794233Y-175774503D01*
G37*
G36*
X256870194Y-174906262D02*
G01*
X257012586Y-174098719D01*
X258785240Y-174411286D01*
X258642848Y-175218829D01*
X256870194Y-174906262D01*
G37*
G36*
X256609721Y-176383473D02*
G01*
X256752113Y-175575930D01*
X258524767Y-175888497D01*
X258382375Y-176696040D01*
X256609721Y-176383473D01*
G37*
G36*
X239862240Y-171045786D02*
G01*
X239719848Y-171853329D01*
X237947194Y-171540762D01*
X238089586Y-170733219D01*
X239862240Y-171045786D01*
G37*
G36*
X239601767Y-172522997D02*
G01*
X239459375Y-173330540D01*
X237686721Y-173017973D01*
X237829113Y-172210430D01*
X239601767Y-172522997D01*
G37*
G36*
X244525806Y-173391238D02*
G01*
X244383414Y-174198781D01*
X242610760Y-173886214D01*
X242753152Y-173078671D01*
X244525806Y-173391238D01*
G37*
G36*
X244786279Y-171914027D02*
G01*
X244643887Y-172721570D01*
X242871233Y-172409003D01*
X243013625Y-171601460D01*
X244786279Y-171914027D01*
G37*
G36*
X224005260Y-170647714D02*
G01*
X224147652Y-169840171D01*
X225920306Y-170152738D01*
X225777914Y-170960281D01*
X224005260Y-170647714D01*
G37*
G36*
X224265733Y-169170503D02*
G01*
X224408125Y-168362960D01*
X226180779Y-168675527D01*
X226038387Y-169483070D01*
X224265733Y-169170503D01*
G37*
G36*
X219341694Y-168302262D02*
G01*
X219484086Y-167494719D01*
X221256740Y-167807286D01*
X221114348Y-168614829D01*
X219341694Y-168302262D01*
G37*
G36*
X219081221Y-169779473D02*
G01*
X219223613Y-168971930D01*
X220996267Y-169284497D01*
X220853875Y-170092040D01*
X219081221Y-169779473D01*
G37*
G36*
X202460740Y-164441786D02*
G01*
X202318348Y-165249329D01*
X200545694Y-164936762D01*
X200688086Y-164129219D01*
X202460740Y-164441786D01*
G37*
G36*
X202200267Y-165918997D02*
G01*
X202057875Y-166726540D01*
X200285221Y-166413973D01*
X200427613Y-165606430D01*
X202200267Y-165918997D01*
G37*
G36*
X207124306Y-166787238D02*
G01*
X206981914Y-167594781D01*
X205209260Y-167282214D01*
X205351652Y-166474671D01*
X207124306Y-166787238D01*
G37*
G36*
X207384779Y-165310027D02*
G01*
X207242387Y-166117570D01*
X205469733Y-165805003D01*
X205612125Y-164997460D01*
X207384779Y-165310027D01*
G37*
G36*
X186603760Y-164043714D02*
G01*
X186746152Y-163236171D01*
X188518806Y-163548738D01*
X188376414Y-164356281D01*
X186603760Y-164043714D01*
G37*
G36*
X186864233Y-162566503D02*
G01*
X187006625Y-161758960D01*
X188779279Y-162071527D01*
X188636887Y-162879070D01*
X186864233Y-162566503D01*
G37*
G36*
X181940194Y-161698262D02*
G01*
X182082586Y-160890719D01*
X183855240Y-161203286D01*
X183712848Y-162010829D01*
X181940194Y-161698262D01*
G37*
G36*
X181679721Y-163175473D02*
G01*
X181822113Y-162367930D01*
X183594767Y-162680497D01*
X183452375Y-163488040D01*
X181679721Y-163175473D01*
G37*
X160885500Y-162940300D03*
X160885500Y-164440300D03*
X165885500Y-164440300D03*
X165885500Y-162940300D03*
X146708500Y-164453000D03*
X146708500Y-162953000D03*
X141708500Y-162953000D03*
X141708500Y-164453000D03*
G36*
G01*
X463753620Y-247897970D02*
X463753620Y-246985470D01*
G75*
G02*
X463997370Y-246741720I243750J0D01*
G01*
X464484870Y-246741720D01*
G75*
G02*
X464728620Y-246985470I0J-243750D01*
G01*
X464728620Y-247897970D01*
G75*
G02*
X464484870Y-248141720I-243750J0D01*
G01*
X463997370Y-248141720D01*
G75*
G02*
X463753620Y-247897970I0J243750D01*
G01*
G37*
G36*
G01*
X461878620Y-247897970D02*
X461878620Y-246985470D01*
G75*
G02*
X462122370Y-246741720I243750J0D01*
G01*
X462609870Y-246741720D01*
G75*
G02*
X462853620Y-246985470I0J-243750D01*
G01*
X462853620Y-247897970D01*
G75*
G02*
X462609870Y-248141720I-243750J0D01*
G01*
X462122370Y-248141720D01*
G75*
G02*
X461878620Y-247897970I0J243750D01*
G01*
G37*
G36*
G01*
X444622340Y-247880190D02*
X444622340Y-246967690D01*
G75*
G02*
X444866090Y-246723940I243750J0D01*
G01*
X445353590Y-246723940D01*
G75*
G02*
X445597340Y-246967690I0J-243750D01*
G01*
X445597340Y-247880190D01*
G75*
G02*
X445353590Y-248123940I-243750J0D01*
G01*
X444866090Y-248123940D01*
G75*
G02*
X444622340Y-247880190I0J243750D01*
G01*
G37*
G36*
G01*
X442747340Y-247880190D02*
X442747340Y-246967690D01*
G75*
G02*
X442991090Y-246723940I243750J0D01*
G01*
X443478590Y-246723940D01*
G75*
G02*
X443722340Y-246967690I0J-243750D01*
G01*
X443722340Y-247880190D01*
G75*
G02*
X443478590Y-248123940I-243750J0D01*
G01*
X442991090Y-248123940D01*
G75*
G02*
X442747340Y-247880190I0J243750D01*
G01*
G37*
G36*
G01*
X444640120Y-228774310D02*
X444640120Y-227861810D01*
G75*
G02*
X444883870Y-227618060I243750J0D01*
G01*
X445371370Y-227618060D01*
G75*
G02*
X445615120Y-227861810I0J-243750D01*
G01*
X445615120Y-228774310D01*
G75*
G02*
X445371370Y-229018060I-243750J0D01*
G01*
X444883870Y-229018060D01*
G75*
G02*
X444640120Y-228774310I0J243750D01*
G01*
G37*
G36*
G01*
X442765120Y-228774310D02*
X442765120Y-227861810D01*
G75*
G02*
X443008870Y-227618060I243750J0D01*
G01*
X443496370Y-227618060D01*
G75*
G02*
X443740120Y-227861810I0J-243750D01*
G01*
X443740120Y-228774310D01*
G75*
G02*
X443496370Y-229018060I-243750J0D01*
G01*
X443008870Y-229018060D01*
G75*
G02*
X442765120Y-228774310I0J243750D01*
G01*
G37*
G36*
G01*
X425120220Y-204961810D02*
X425120220Y-204049310D01*
G75*
G02*
X425363970Y-203805560I243750J0D01*
G01*
X425851470Y-203805560D01*
G75*
G02*
X426095220Y-204049310I0J-243750D01*
G01*
X426095220Y-204961810D01*
G75*
G02*
X425851470Y-205205560I-243750J0D01*
G01*
X425363970Y-205205560D01*
G75*
G02*
X425120220Y-204961810I0J243750D01*
G01*
G37*
G36*
G01*
X423245220Y-204961810D02*
X423245220Y-204049310D01*
G75*
G02*
X423488970Y-203805560I243750J0D01*
G01*
X423976470Y-203805560D01*
G75*
G02*
X424220220Y-204049310I0J-243750D01*
G01*
X424220220Y-204961810D01*
G75*
G02*
X423976470Y-205205560I-243750J0D01*
G01*
X423488970Y-205205560D01*
G75*
G02*
X423245220Y-204961810I0J243750D01*
G01*
G37*
G36*
G01*
X430695520Y-186094690D02*
X430695520Y-185182190D01*
G75*
G02*
X430939270Y-184938440I243750J0D01*
G01*
X431426770Y-184938440D01*
G75*
G02*
X431670520Y-185182190I0J-243750D01*
G01*
X431670520Y-186094690D01*
G75*
G02*
X431426770Y-186338440I-243750J0D01*
G01*
X430939270Y-186338440D01*
G75*
G02*
X430695520Y-186094690I0J243750D01*
G01*
G37*
G36*
G01*
X428820520Y-186094690D02*
X428820520Y-185182190D01*
G75*
G02*
X429064270Y-184938440I243750J0D01*
G01*
X429551770Y-184938440D01*
G75*
G02*
X429795520Y-185182190I0J-243750D01*
G01*
X429795520Y-186094690D01*
G75*
G02*
X429551770Y-186338440I-243750J0D01*
G01*
X429064270Y-186338440D01*
G75*
G02*
X428820520Y-186094690I0J243750D01*
G01*
G37*
G36*
G01*
X399400180Y-243089750D02*
X399400180Y-242177250D01*
G75*
G02*
X399643930Y-241933500I243750J0D01*
G01*
X400131430Y-241933500D01*
G75*
G02*
X400375180Y-242177250I0J-243750D01*
G01*
X400375180Y-243089750D01*
G75*
G02*
X400131430Y-243333500I-243750J0D01*
G01*
X399643930Y-243333500D01*
G75*
G02*
X399400180Y-243089750I0J243750D01*
G01*
G37*
G36*
G01*
X397525180Y-243089750D02*
X397525180Y-242177250D01*
G75*
G02*
X397768930Y-241933500I243750J0D01*
G01*
X398256430Y-241933500D01*
G75*
G02*
X398500180Y-242177250I0J-243750D01*
G01*
X398500180Y-243089750D01*
G75*
G02*
X398256430Y-243333500I-243750J0D01*
G01*
X397768930Y-243333500D01*
G75*
G02*
X397525180Y-243089750I0J243750D01*
G01*
G37*
G36*
G01*
X387622200Y-224014350D02*
X387622200Y-223101850D01*
G75*
G02*
X387865950Y-222858100I243750J0D01*
G01*
X388353450Y-222858100D01*
G75*
G02*
X388597200Y-223101850I0J-243750D01*
G01*
X388597200Y-224014350D01*
G75*
G02*
X388353450Y-224258100I-243750J0D01*
G01*
X387865950Y-224258100D01*
G75*
G02*
X387622200Y-224014350I0J243750D01*
G01*
G37*
G36*
G01*
X385747200Y-224014350D02*
X385747200Y-223101850D01*
G75*
G02*
X385990950Y-222858100I243750J0D01*
G01*
X386478450Y-222858100D01*
G75*
G02*
X386722200Y-223101850I0J-243750D01*
G01*
X386722200Y-224014350D01*
G75*
G02*
X386478450Y-224258100I-243750J0D01*
G01*
X385990950Y-224258100D01*
G75*
G02*
X385747200Y-224014350I0J243750D01*
G01*
G37*
G36*
G01*
X394218580Y-204969430D02*
X394218580Y-204056930D01*
G75*
G02*
X394462330Y-203813180I243750J0D01*
G01*
X394949830Y-203813180D01*
G75*
G02*
X395193580Y-204056930I0J-243750D01*
G01*
X395193580Y-204969430D01*
G75*
G02*
X394949830Y-205213180I-243750J0D01*
G01*
X394462330Y-205213180D01*
G75*
G02*
X394218580Y-204969430I0J243750D01*
G01*
G37*
G36*
G01*
X392343580Y-204969430D02*
X392343580Y-204056930D01*
G75*
G02*
X392587330Y-203813180I243750J0D01*
G01*
X393074830Y-203813180D01*
G75*
G02*
X393318580Y-204056930I0J-243750D01*
G01*
X393318580Y-204969430D01*
G75*
G02*
X393074830Y-205213180I-243750J0D01*
G01*
X392587330Y-205213180D01*
G75*
G02*
X392343580Y-204969430I0J243750D01*
G01*
G37*
G36*
G01*
X387441860Y-185916890D02*
X387441860Y-185004390D01*
G75*
G02*
X387685610Y-184760640I243750J0D01*
G01*
X388173110Y-184760640D01*
G75*
G02*
X388416860Y-185004390I0J-243750D01*
G01*
X388416860Y-185916890D01*
G75*
G02*
X388173110Y-186160640I-243750J0D01*
G01*
X387685610Y-186160640D01*
G75*
G02*
X387441860Y-185916890I0J243750D01*
G01*
G37*
G36*
G01*
X385566860Y-185916890D02*
X385566860Y-185004390D01*
G75*
G02*
X385810610Y-184760640I243750J0D01*
G01*
X386298110Y-184760640D01*
G75*
G02*
X386541860Y-185004390I0J-243750D01*
G01*
X386541860Y-185916890D01*
G75*
G02*
X386298110Y-186160640I-243750J0D01*
G01*
X385810610Y-186160640D01*
G75*
G02*
X385566860Y-185916890I0J243750D01*
G01*
G37*
G36*
G01*
X372989260Y-166869430D02*
X372989260Y-165956930D01*
G75*
G02*
X373233010Y-165713180I243750J0D01*
G01*
X373720510Y-165713180D01*
G75*
G02*
X373964260Y-165956930I0J-243750D01*
G01*
X373964260Y-166869430D01*
G75*
G02*
X373720510Y-167113180I-243750J0D01*
G01*
X373233010Y-167113180D01*
G75*
G02*
X372989260Y-166869430I0J243750D01*
G01*
G37*
G36*
G01*
X371114260Y-166869430D02*
X371114260Y-165956930D01*
G75*
G02*
X371358010Y-165713180I243750J0D01*
G01*
X371845510Y-165713180D01*
G75*
G02*
X372089260Y-165956930I0J-243750D01*
G01*
X372089260Y-166869430D01*
G75*
G02*
X371845510Y-167113180I-243750J0D01*
G01*
X371358010Y-167113180D01*
G75*
G02*
X371114260Y-166869430I0J243750D01*
G01*
G37*
G36*
G01*
X344359650Y-246037437D02*
X344201196Y-245138800D01*
G75*
G02*
X344398916Y-244856426I240047J42327D01*
G01*
X344879010Y-244771773D01*
G75*
G02*
X345161384Y-244969493I42327J-240047D01*
G01*
X345319838Y-245868130D01*
G75*
G02*
X345122118Y-246150504I-240047J-42327D01*
G01*
X344642024Y-246235157D01*
G75*
G02*
X344359650Y-246037437I-42327J240047D01*
G01*
G37*
G36*
G01*
X342513136Y-246363027D02*
X342354682Y-245464390D01*
G75*
G02*
X342552402Y-245182016I240047J42327D01*
G01*
X343032496Y-245097363D01*
G75*
G02*
X343314870Y-245295083I42327J-240047D01*
G01*
X343473324Y-246193720D01*
G75*
G02*
X343275604Y-246476094I-240047J-42327D01*
G01*
X342795510Y-246560747D01*
G75*
G02*
X342513136Y-246363027I-42327J240047D01*
G01*
G37*
G36*
G01*
X348146790Y-226022237D02*
X347988336Y-225123600D01*
G75*
G02*
X348186056Y-224841226I240047J42327D01*
G01*
X348666150Y-224756573D01*
G75*
G02*
X348948524Y-224954293I42327J-240047D01*
G01*
X349106978Y-225852930D01*
G75*
G02*
X348909258Y-226135304I-240047J-42327D01*
G01*
X348429164Y-226219957D01*
G75*
G02*
X348146790Y-226022237I-42327J240047D01*
G01*
G37*
G36*
G01*
X346300276Y-226347827D02*
X346141822Y-225449190D01*
G75*
G02*
X346339542Y-225166816I240047J42327D01*
G01*
X346819636Y-225082163D01*
G75*
G02*
X347102010Y-225279883I42327J-240047D01*
G01*
X347260464Y-226178520D01*
G75*
G02*
X347062744Y-226460894I-240047J-42327D01*
G01*
X346582650Y-226545547D01*
G75*
G02*
X346300276Y-226347827I-42327J240047D01*
G01*
G37*
G36*
G01*
X354207230Y-205593017D02*
X354048776Y-204694380D01*
G75*
G02*
X354246496Y-204412006I240047J42327D01*
G01*
X354726590Y-204327353D01*
G75*
G02*
X355008964Y-204525073I42327J-240047D01*
G01*
X355167418Y-205423710D01*
G75*
G02*
X354969698Y-205706084I-240047J-42327D01*
G01*
X354489604Y-205790737D01*
G75*
G02*
X354207230Y-205593017I-42327J240047D01*
G01*
G37*
G36*
G01*
X352360716Y-205918607D02*
X352202262Y-205019970D01*
G75*
G02*
X352399982Y-204737596I240047J42327D01*
G01*
X352880076Y-204652943D01*
G75*
G02*
X353162450Y-204850663I42327J-240047D01*
G01*
X353320904Y-205749300D01*
G75*
G02*
X353123184Y-206031674I-240047J-42327D01*
G01*
X352643090Y-206116327D01*
G75*
G02*
X352360716Y-205918607I-42327J240047D01*
G01*
G37*
G36*
G01*
X346257030Y-187663157D02*
X346098576Y-186764520D01*
G75*
G02*
X346296296Y-186482146I240047J42327D01*
G01*
X346776390Y-186397493D01*
G75*
G02*
X347058764Y-186595213I42327J-240047D01*
G01*
X347217218Y-187493850D01*
G75*
G02*
X347019498Y-187776224I-240047J-42327D01*
G01*
X346539404Y-187860877D01*
G75*
G02*
X346257030Y-187663157I-42327J240047D01*
G01*
G37*
G36*
G01*
X344410516Y-187988747D02*
X344252062Y-187090110D01*
G75*
G02*
X344449782Y-186807736I240047J42327D01*
G01*
X344929876Y-186723083D01*
G75*
G02*
X345212250Y-186920803I42327J-240047D01*
G01*
X345370704Y-187819440D01*
G75*
G02*
X345172984Y-188101814I-240047J-42327D01*
G01*
X344692890Y-188186467D01*
G75*
G02*
X344410516Y-187988747I-42327J240047D01*
G01*
G37*
G36*
G01*
X333450350Y-170574037D02*
X333291896Y-169675400D01*
G75*
G02*
X333489616Y-169393026I240047J42327D01*
G01*
X333969710Y-169308373D01*
G75*
G02*
X334252084Y-169506093I42327J-240047D01*
G01*
X334410538Y-170404730D01*
G75*
G02*
X334212818Y-170687104I-240047J-42327D01*
G01*
X333732724Y-170771757D01*
G75*
G02*
X333450350Y-170574037I-42327J240047D01*
G01*
G37*
G36*
G01*
X331603836Y-170899627D02*
X331445382Y-170000990D01*
G75*
G02*
X331643102Y-169718616I240047J42327D01*
G01*
X332123196Y-169633963D01*
G75*
G02*
X332405570Y-169831683I42327J-240047D01*
G01*
X332564024Y-170730320D01*
G75*
G02*
X332366304Y-171012694I-240047J-42327D01*
G01*
X331886210Y-171097347D01*
G75*
G02*
X331603836Y-170899627I-42327J240047D01*
G01*
G37*
G36*
G01*
X311540310Y-251815937D02*
X311381856Y-250917300D01*
G75*
G02*
X311579576Y-250634926I240047J42327D01*
G01*
X312059670Y-250550273D01*
G75*
G02*
X312342044Y-250747993I42327J-240047D01*
G01*
X312500498Y-251646630D01*
G75*
G02*
X312302778Y-251929004I-240047J-42327D01*
G01*
X311822684Y-252013657D01*
G75*
G02*
X311540310Y-251815937I-42327J240047D01*
G01*
G37*
G36*
G01*
X309693796Y-252141527D02*
X309535342Y-251242890D01*
G75*
G02*
X309733062Y-250960516I240047J42327D01*
G01*
X310213156Y-250875863D01*
G75*
G02*
X310495530Y-251073583I42327J-240047D01*
G01*
X310653984Y-251972220D01*
G75*
G02*
X310456264Y-252254594I-240047J-42327D01*
G01*
X309976170Y-252339247D01*
G75*
G02*
X309693796Y-252141527I-42327J240047D01*
G01*
G37*
G36*
G01*
X310585270Y-232644017D02*
X310426816Y-231745380D01*
G75*
G02*
X310624536Y-231463006I240047J42327D01*
G01*
X311104630Y-231378353D01*
G75*
G02*
X311387004Y-231576073I42327J-240047D01*
G01*
X311545458Y-232474710D01*
G75*
G02*
X311347738Y-232757084I-240047J-42327D01*
G01*
X310867644Y-232841737D01*
G75*
G02*
X310585270Y-232644017I-42327J240047D01*
G01*
G37*
G36*
G01*
X308738756Y-232969607D02*
X308580302Y-232070970D01*
G75*
G02*
X308778022Y-231788596I240047J42327D01*
G01*
X309258116Y-231703943D01*
G75*
G02*
X309540490Y-231901663I42327J-240047D01*
G01*
X309698944Y-232800300D01*
G75*
G02*
X309501224Y-233082674I-240047J-42327D01*
G01*
X309021130Y-233167327D01*
G75*
G02*
X308738756Y-232969607I-42327J240047D01*
G01*
G37*
G36*
G01*
X316724450Y-212222417D02*
X316565996Y-211323780D01*
G75*
G02*
X316763716Y-211041406I240047J42327D01*
G01*
X317243810Y-210956753D01*
G75*
G02*
X317526184Y-211154473I42327J-240047D01*
G01*
X317684638Y-212053110D01*
G75*
G02*
X317486918Y-212335484I-240047J-42327D01*
G01*
X317006824Y-212420137D01*
G75*
G02*
X316724450Y-212222417I-42327J240047D01*
G01*
G37*
G36*
G01*
X314877936Y-212548007D02*
X314719482Y-211649370D01*
G75*
G02*
X314917202Y-211366996I240047J42327D01*
G01*
X315397296Y-211282343D01*
G75*
G02*
X315679670Y-211480063I42327J-240047D01*
G01*
X315838124Y-212378700D01*
G75*
G02*
X315640404Y-212661074I-240047J-42327D01*
G01*
X315160310Y-212745727D01*
G75*
G02*
X314877936Y-212548007I-42327J240047D01*
G01*
G37*
G36*
G01*
X308799650Y-194267157D02*
X308641196Y-193368520D01*
G75*
G02*
X308838916Y-193086146I240047J42327D01*
G01*
X309319010Y-193001493D01*
G75*
G02*
X309601384Y-193199213I42327J-240047D01*
G01*
X309759838Y-194097850D01*
G75*
G02*
X309562118Y-194380224I-240047J-42327D01*
G01*
X309082024Y-194464877D01*
G75*
G02*
X308799650Y-194267157I-42327J240047D01*
G01*
G37*
G36*
G01*
X306953136Y-194592747D02*
X306794682Y-193694110D01*
G75*
G02*
X306992402Y-193411736I240047J42327D01*
G01*
X307472496Y-193327083D01*
G75*
G02*
X307754870Y-193524803I42327J-240047D01*
G01*
X307913324Y-194423440D01*
G75*
G02*
X307715604Y-194705814I-240047J-42327D01*
G01*
X307235510Y-194790467D01*
G75*
G02*
X306953136Y-194592747I-42327J240047D01*
G01*
G37*
G36*
G01*
X295911690Y-177198357D02*
X295753236Y-176299720D01*
G75*
G02*
X295950956Y-176017346I240047J42327D01*
G01*
X296431050Y-175932693D01*
G75*
G02*
X296713424Y-176130413I42327J-240047D01*
G01*
X296871878Y-177029050D01*
G75*
G02*
X296674158Y-177311424I-240047J-42327D01*
G01*
X296194064Y-177396077D01*
G75*
G02*
X295911690Y-177198357I-42327J240047D01*
G01*
G37*
G36*
G01*
X294065176Y-177523947D02*
X293906722Y-176625310D01*
G75*
G02*
X294104442Y-176342936I240047J42327D01*
G01*
X294584536Y-176258283D01*
G75*
G02*
X294866910Y-176456003I42327J-240047D01*
G01*
X295025364Y-177354640D01*
G75*
G02*
X294827644Y-177637014I-240047J-42327D01*
G01*
X294347550Y-177721667D01*
G75*
G02*
X294065176Y-177523947I-42327J240047D01*
G01*
G37*
G36*
G01*
X249474436Y-235223460D02*
X249632890Y-234324823D01*
G75*
G02*
X249915264Y-234127103I240047J-42327D01*
G01*
X250395358Y-234211756D01*
G75*
G02*
X250593078Y-234494130I-42327J-240047D01*
G01*
X250434624Y-235392767D01*
G75*
G02*
X250152250Y-235590487I-240047J42327D01*
G01*
X249672156Y-235505834D01*
G75*
G02*
X249474436Y-235223460I42327J240047D01*
G01*
G37*
G36*
G01*
X247627922Y-234897870D02*
X247786376Y-233999233D01*
G75*
G02*
X248068750Y-233801513I240047J-42327D01*
G01*
X248548844Y-233886166D01*
G75*
G02*
X248746564Y-234168540I-42327J-240047D01*
G01*
X248588110Y-235067177D01*
G75*
G02*
X248305736Y-235264897I-240047J42327D01*
G01*
X247825642Y-235180244D01*
G75*
G02*
X247627922Y-234897870I42327J240047D01*
G01*
G37*
G36*
G01*
X248712436Y-215665460D02*
X248870890Y-214766823D01*
G75*
G02*
X249153264Y-214569103I240047J-42327D01*
G01*
X249633358Y-214653756D01*
G75*
G02*
X249831078Y-214936130I-42327J-240047D01*
G01*
X249672624Y-215834767D01*
G75*
G02*
X249390250Y-216032487I-240047J42327D01*
G01*
X248910156Y-215947834D01*
G75*
G02*
X248712436Y-215665460I42327J240047D01*
G01*
G37*
G36*
G01*
X246865922Y-215339870D02*
X247024376Y-214441233D01*
G75*
G02*
X247306750Y-214243513I240047J-42327D01*
G01*
X247786844Y-214328166D01*
G75*
G02*
X247984564Y-214610540I-42327J-240047D01*
G01*
X247826110Y-215509177D01*
G75*
G02*
X247543736Y-215706897I-240047J42327D01*
G01*
X247063642Y-215622244D01*
G75*
G02*
X246865922Y-215339870I42327J240047D01*
G01*
G37*
G36*
G01*
X247124936Y-196043960D02*
X247283390Y-195145323D01*
G75*
G02*
X247565764Y-194947603I240047J-42327D01*
G01*
X248045858Y-195032256D01*
G75*
G02*
X248243578Y-195314630I-42327J-240047D01*
G01*
X248085124Y-196213267D01*
G75*
G02*
X247802750Y-196410987I-240047J42327D01*
G01*
X247322656Y-196326334D01*
G75*
G02*
X247124936Y-196043960I42327J240047D01*
G01*
G37*
G36*
G01*
X245278422Y-195718370D02*
X245436876Y-194819733D01*
G75*
G02*
X245719250Y-194622013I240047J-42327D01*
G01*
X246199344Y-194706666D01*
G75*
G02*
X246397064Y-194989040I-42327J-240047D01*
G01*
X246238610Y-195887677D01*
G75*
G02*
X245956236Y-196085397I-240047J42327D01*
G01*
X245476142Y-196000744D01*
G75*
G02*
X245278422Y-195718370I42327J240047D01*
G01*
G37*
G36*
G01*
X241092436Y-175660460D02*
X241250890Y-174761823D01*
G75*
G02*
X241533264Y-174564103I240047J-42327D01*
G01*
X242013358Y-174648756D01*
G75*
G02*
X242211078Y-174931130I-42327J-240047D01*
G01*
X242052624Y-175829767D01*
G75*
G02*
X241770250Y-176027487I-240047J42327D01*
G01*
X241290156Y-175942834D01*
G75*
G02*
X241092436Y-175660460I42327J240047D01*
G01*
G37*
G36*
G01*
X239245922Y-175334870D02*
X239404376Y-174436233D01*
G75*
G02*
X239686750Y-174238513I240047J-42327D01*
G01*
X240166844Y-174323166D01*
G75*
G02*
X240364564Y-174605540I-42327J-240047D01*
G01*
X240206110Y-175504177D01*
G75*
G02*
X239923736Y-175701897I-240047J42327D01*
G01*
X239443642Y-175617244D01*
G75*
G02*
X239245922Y-175334870I42327J240047D01*
G01*
G37*
G36*
G01*
X217343436Y-229508460D02*
X217501890Y-228609823D01*
G75*
G02*
X217784264Y-228412103I240047J-42327D01*
G01*
X218264358Y-228496756D01*
G75*
G02*
X218462078Y-228779130I-42327J-240047D01*
G01*
X218303624Y-229677767D01*
G75*
G02*
X218021250Y-229875487I-240047J42327D01*
G01*
X217541156Y-229790834D01*
G75*
G02*
X217343436Y-229508460I42327J240047D01*
G01*
G37*
G36*
G01*
X215496922Y-229182870D02*
X215655376Y-228284233D01*
G75*
G02*
X215937750Y-228086513I240047J-42327D01*
G01*
X216417844Y-228171166D01*
G75*
G02*
X216615564Y-228453540I-42327J-240047D01*
G01*
X216457110Y-229352177D01*
G75*
G02*
X216174736Y-229549897I-240047J42327D01*
G01*
X215694642Y-229465244D01*
G75*
G02*
X215496922Y-229182870I42327J240047D01*
G01*
G37*
G36*
G01*
X211183936Y-209061460D02*
X211342390Y-208162823D01*
G75*
G02*
X211624764Y-207965103I240047J-42327D01*
G01*
X212104858Y-208049756D01*
G75*
G02*
X212302578Y-208332130I-42327J-240047D01*
G01*
X212144124Y-209230767D01*
G75*
G02*
X211861750Y-209428487I-240047J42327D01*
G01*
X211381656Y-209343834D01*
G75*
G02*
X211183936Y-209061460I42327J240047D01*
G01*
G37*
G36*
G01*
X209337422Y-208735870D02*
X209495876Y-207837233D01*
G75*
G02*
X209778250Y-207639513I240047J-42327D01*
G01*
X210258344Y-207724166D01*
G75*
G02*
X210456064Y-208006540I-42327J-240047D01*
G01*
X210297610Y-208905177D01*
G75*
G02*
X210015236Y-209102897I-240047J42327D01*
G01*
X209535142Y-209018244D01*
G75*
G02*
X209337422Y-208735870I42327J240047D01*
G01*
G37*
G36*
G01*
X209596436Y-189439960D02*
X209754890Y-188541323D01*
G75*
G02*
X210037264Y-188343603I240047J-42327D01*
G01*
X210517358Y-188428256D01*
G75*
G02*
X210715078Y-188710630I-42327J-240047D01*
G01*
X210556624Y-189609267D01*
G75*
G02*
X210274250Y-189806987I-240047J42327D01*
G01*
X209794156Y-189722334D01*
G75*
G02*
X209596436Y-189439960I42327J240047D01*
G01*
G37*
G36*
G01*
X207749922Y-189114370D02*
X207908376Y-188215733D01*
G75*
G02*
X208190750Y-188018013I240047J-42327D01*
G01*
X208670844Y-188102666D01*
G75*
G02*
X208868564Y-188385040I-42327J-240047D01*
G01*
X208710110Y-189283677D01*
G75*
G02*
X208427736Y-189481397I-240047J42327D01*
G01*
X207947642Y-189396744D01*
G75*
G02*
X207749922Y-189114370I42327J240047D01*
G01*
G37*
G36*
G01*
X203690936Y-169056460D02*
X203849390Y-168157823D01*
G75*
G02*
X204131764Y-167960103I240047J-42327D01*
G01*
X204611858Y-168044756D01*
G75*
G02*
X204809578Y-168327130I-42327J-240047D01*
G01*
X204651124Y-169225767D01*
G75*
G02*
X204368750Y-169423487I-240047J42327D01*
G01*
X203888656Y-169338834D01*
G75*
G02*
X203690936Y-169056460I42327J240047D01*
G01*
G37*
G36*
G01*
X201844422Y-168730870D02*
X202002876Y-167832233D01*
G75*
G02*
X202285250Y-167634513I240047J-42327D01*
G01*
X202765344Y-167719166D01*
G75*
G02*
X202963064Y-168001540I-42327J-240047D01*
G01*
X202804610Y-168900177D01*
G75*
G02*
X202522236Y-169097897I-240047J42327D01*
G01*
X202042142Y-169013244D01*
G75*
G02*
X201844422Y-168730870I42327J240047D01*
G01*
G37*
G36*
G01*
X161168500Y-243026250D02*
X161168500Y-242113750D01*
G75*
G02*
X161412250Y-241870000I243750J0D01*
G01*
X161899750Y-241870000D01*
G75*
G02*
X162143500Y-242113750I0J-243750D01*
G01*
X162143500Y-243026250D01*
G75*
G02*
X161899750Y-243270000I-243750J0D01*
G01*
X161412250Y-243270000D01*
G75*
G02*
X161168500Y-243026250I0J243750D01*
G01*
G37*
G36*
G01*
X159293500Y-243026250D02*
X159293500Y-242113750D01*
G75*
G02*
X159537250Y-241870000I243750J0D01*
G01*
X160024750Y-241870000D01*
G75*
G02*
X160268500Y-242113750I0J-243750D01*
G01*
X160268500Y-243026250D01*
G75*
G02*
X160024750Y-243270000I-243750J0D01*
G01*
X159537250Y-243270000D01*
G75*
G02*
X159293500Y-243026250I0J243750D01*
G01*
G37*
G36*
G01*
X177932500Y-224016890D02*
X177932500Y-223104390D01*
G75*
G02*
X178176250Y-222860640I243750J0D01*
G01*
X178663750Y-222860640D01*
G75*
G02*
X178907500Y-223104390I0J-243750D01*
G01*
X178907500Y-224016890D01*
G75*
G02*
X178663750Y-224260640I-243750J0D01*
G01*
X178176250Y-224260640D01*
G75*
G02*
X177932500Y-224016890I0J243750D01*
G01*
G37*
G36*
G01*
X176057500Y-224016890D02*
X176057500Y-223104390D01*
G75*
G02*
X176301250Y-222860640I243750J0D01*
G01*
X176788750Y-222860640D01*
G75*
G02*
X177032500Y-223104390I0J-243750D01*
G01*
X177032500Y-224016890D01*
G75*
G02*
X176788750Y-224260640I-243750J0D01*
G01*
X176301250Y-224260640D01*
G75*
G02*
X176057500Y-224016890I0J243750D01*
G01*
G37*
G36*
G01*
X171328500Y-204926250D02*
X171328500Y-204013750D01*
G75*
G02*
X171572250Y-203770000I243750J0D01*
G01*
X172059750Y-203770000D01*
G75*
G02*
X172303500Y-204013750I0J-243750D01*
G01*
X172303500Y-204926250D01*
G75*
G02*
X172059750Y-205170000I-243750J0D01*
G01*
X171572250Y-205170000D01*
G75*
G02*
X171328500Y-204926250I0J243750D01*
G01*
G37*
G36*
G01*
X169453500Y-204926250D02*
X169453500Y-204013750D01*
G75*
G02*
X169697250Y-203770000I243750J0D01*
G01*
X170184750Y-203770000D01*
G75*
G02*
X170428500Y-204013750I0J-243750D01*
G01*
X170428500Y-204926250D01*
G75*
G02*
X170184750Y-205170000I-243750J0D01*
G01*
X169697250Y-205170000D01*
G75*
G02*
X169453500Y-204926250I0J243750D01*
G01*
G37*
G36*
G01*
X168456000Y-185876250D02*
X168456000Y-184963750D01*
G75*
G02*
X168699750Y-184720000I243750J0D01*
G01*
X169187250Y-184720000D01*
G75*
G02*
X169431000Y-184963750I0J-243750D01*
G01*
X169431000Y-185876250D01*
G75*
G02*
X169187250Y-186120000I-243750J0D01*
G01*
X168699750Y-186120000D01*
G75*
G02*
X168456000Y-185876250I0J243750D01*
G01*
G37*
G36*
G01*
X166581000Y-185876250D02*
X166581000Y-184963750D01*
G75*
G02*
X166824750Y-184720000I243750J0D01*
G01*
X167312250Y-184720000D01*
G75*
G02*
X167556000Y-184963750I0J-243750D01*
G01*
X167556000Y-185876250D01*
G75*
G02*
X167312250Y-186120000I-243750J0D01*
G01*
X166824750Y-186120000D01*
G75*
G02*
X166581000Y-185876250I0J243750D01*
G01*
G37*
G36*
G01*
X163772000Y-166889750D02*
X163772000Y-165977250D01*
G75*
G02*
X164015750Y-165733500I243750J0D01*
G01*
X164503250Y-165733500D01*
G75*
G02*
X164747000Y-165977250I0J-243750D01*
G01*
X164747000Y-166889750D01*
G75*
G02*
X164503250Y-167133500I-243750J0D01*
G01*
X164015750Y-167133500D01*
G75*
G02*
X163772000Y-166889750I0J243750D01*
G01*
G37*
G36*
G01*
X161897000Y-166889750D02*
X161897000Y-165977250D01*
G75*
G02*
X162140750Y-165733500I243750J0D01*
G01*
X162628250Y-165733500D01*
G75*
G02*
X162872000Y-165977250I0J-243750D01*
G01*
X162872000Y-166889750D01*
G75*
G02*
X162628250Y-167133500I-243750J0D01*
G01*
X162140750Y-167133500D01*
G75*
G02*
X161897000Y-166889750I0J243750D01*
G01*
G37*
D16*
X465695750Y-204259750D03*
D17*
X468195750Y-204259750D03*
X470695750Y-204259750D03*
D18*
X462595750Y-196759750D03*
X473795750Y-196759750D03*
D17*
X465695750Y-189759750D03*
X470695750Y-189759750D03*
D16*
X460996750Y-185209750D03*
D17*
X463496750Y-185209750D03*
X465996750Y-185209750D03*
D18*
X457896750Y-177709750D03*
X469096750Y-177709750D03*
D17*
X460996750Y-170709750D03*
X465996750Y-170709750D03*
D16*
X456170750Y-166096250D03*
D17*
X458670750Y-166096250D03*
X461170750Y-166096250D03*
D18*
X453070750Y-158596250D03*
X464270750Y-158596250D03*
D17*
X456170750Y-151596250D03*
X461170750Y-151596250D03*
D19*
X271124000Y-145091800D03*
X281524000Y-145091800D03*
D20*
X270749000Y-149691800D03*
X281899000Y-149691800D03*
X270749000Y-145091800D03*
X281899000Y-145091800D03*
D21*
X272574000Y-149771800D03*
X280074000Y-149771800D03*
D22*
X273124000Y-151271800D03*
X279524000Y-151271800D03*
X273874000Y-151271800D03*
D23*
X274574000Y-151271800D03*
X275074000Y-151271800D03*
X275574000Y-151271800D03*
D22*
X278774000Y-151271800D03*
D23*
X278074000Y-151271800D03*
X277574000Y-151271800D03*
X277074000Y-151271800D03*
X276574000Y-151271800D03*
X276074000Y-151271800D03*
D24*
X277424000Y-157565800D03*
X277424000Y-158515800D03*
X277424000Y-156615800D03*
X275224000Y-156615800D03*
X275224000Y-157565800D03*
X275224000Y-158515800D03*
D25*
X265193200Y-198488600D03*
X265193200Y-199288600D03*
X265193200Y-200088600D03*
X265193200Y-200888600D03*
X265193200Y-201688600D03*
X265193200Y-202488600D03*
X265193200Y-203288600D03*
X265193200Y-204088600D03*
X265193200Y-204888600D03*
X265193200Y-205688600D03*
X265193200Y-206488600D03*
D26*
X266893200Y-208188600D03*
X267693200Y-208188600D03*
X268493200Y-208188600D03*
X269293200Y-208188600D03*
X270093200Y-208188600D03*
X270893200Y-208188600D03*
X271693200Y-208188600D03*
X272493200Y-208188600D03*
X273293200Y-208188600D03*
X274093200Y-208188600D03*
X274893200Y-208188600D03*
D25*
X276593200Y-206488600D03*
X276593200Y-205688600D03*
X276593200Y-204888600D03*
X276593200Y-204088600D03*
X276593200Y-203288600D03*
X276593200Y-202488600D03*
X276593200Y-201688600D03*
X276593200Y-200888600D03*
X276593200Y-200088600D03*
X276593200Y-199288600D03*
X276593200Y-198488600D03*
D26*
X274893200Y-196788600D03*
X274093200Y-196788600D03*
X273293200Y-196788600D03*
X272493200Y-196788600D03*
X271693200Y-196788600D03*
X270893200Y-196788600D03*
X270093200Y-196788600D03*
X269293200Y-196788600D03*
X268493200Y-196788600D03*
X267693200Y-196788600D03*
X266893200Y-196788600D03*
G36*
G01*
X266726650Y-210852400D02*
X265814150Y-210852400D01*
G75*
G02*
X265570400Y-210608650I0J243750D01*
G01*
X265570400Y-210121150D01*
G75*
G02*
X265814150Y-209877400I243750J0D01*
G01*
X266726650Y-209877400D01*
G75*
G02*
X266970400Y-210121150I0J-243750D01*
G01*
X266970400Y-210608650D01*
G75*
G02*
X266726650Y-210852400I-243750J0D01*
G01*
G37*
G36*
G01*
X266726650Y-212727400D02*
X265814150Y-212727400D01*
G75*
G02*
X265570400Y-212483650I0J243750D01*
G01*
X265570400Y-211996150D01*
G75*
G02*
X265814150Y-211752400I243750J0D01*
G01*
X266726650Y-211752400D01*
G75*
G02*
X266970400Y-211996150I0J-243750D01*
G01*
X266970400Y-212483650D01*
G75*
G02*
X266726650Y-212727400I-243750J0D01*
G01*
G37*
G36*
G01*
X268343450Y-189148100D02*
X267430950Y-189148100D01*
G75*
G02*
X267187200Y-188904350I0J243750D01*
G01*
X267187200Y-188416850D01*
G75*
G02*
X267430950Y-188173100I243750J0D01*
G01*
X268343450Y-188173100D01*
G75*
G02*
X268587200Y-188416850I0J-243750D01*
G01*
X268587200Y-188904350D01*
G75*
G02*
X268343450Y-189148100I-243750J0D01*
G01*
G37*
G36*
G01*
X268343450Y-191023100D02*
X267430950Y-191023100D01*
G75*
G02*
X267187200Y-190779350I0J243750D01*
G01*
X267187200Y-190291850D01*
G75*
G02*
X267430950Y-190048100I243750J0D01*
G01*
X268343450Y-190048100D01*
G75*
G02*
X268587200Y-190291850I0J-243750D01*
G01*
X268587200Y-190779350D01*
G75*
G02*
X268343450Y-191023100I-243750J0D01*
G01*
G37*
G36*
G01*
X270324650Y-189148100D02*
X269412150Y-189148100D01*
G75*
G02*
X269168400Y-188904350I0J243750D01*
G01*
X269168400Y-188416850D01*
G75*
G02*
X269412150Y-188173100I243750J0D01*
G01*
X270324650Y-188173100D01*
G75*
G02*
X270568400Y-188416850I0J-243750D01*
G01*
X270568400Y-188904350D01*
G75*
G02*
X270324650Y-189148100I-243750J0D01*
G01*
G37*
G36*
G01*
X270324650Y-191023100D02*
X269412150Y-191023100D01*
G75*
G02*
X269168400Y-190779350I0J243750D01*
G01*
X269168400Y-190291850D01*
G75*
G02*
X269412150Y-190048100I243750J0D01*
G01*
X270324650Y-190048100D01*
G75*
G02*
X270568400Y-190291850I0J-243750D01*
G01*
X270568400Y-190779350D01*
G75*
G02*
X270324650Y-191023100I-243750J0D01*
G01*
G37*
G36*
G01*
X282224000Y-153375750D02*
X282224000Y-154288250D01*
G75*
G02*
X281980250Y-154532000I-243750J0D01*
G01*
X281492750Y-154532000D01*
G75*
G02*
X281249000Y-154288250I0J243750D01*
G01*
X281249000Y-153375750D01*
G75*
G02*
X281492750Y-153132000I243750J0D01*
G01*
X281980250Y-153132000D01*
G75*
G02*
X282224000Y-153375750I0J-243750D01*
G01*
G37*
G36*
G01*
X284099000Y-153375750D02*
X284099000Y-154288250D01*
G75*
G02*
X283855250Y-154532000I-243750J0D01*
G01*
X283367750Y-154532000D01*
G75*
G02*
X283124000Y-154288250I0J243750D01*
G01*
X283124000Y-153375750D01*
G75*
G02*
X283367750Y-153132000I243750J0D01*
G01*
X283855250Y-153132000D01*
G75*
G02*
X284099000Y-153375750I0J-243750D01*
G01*
G37*
G36*
G01*
X270424000Y-154288250D02*
X270424000Y-153375750D01*
G75*
G02*
X270667750Y-153132000I243750J0D01*
G01*
X271155250Y-153132000D01*
G75*
G02*
X271399000Y-153375750I0J-243750D01*
G01*
X271399000Y-154288250D01*
G75*
G02*
X271155250Y-154532000I-243750J0D01*
G01*
X270667750Y-154532000D01*
G75*
G02*
X270424000Y-154288250I0J243750D01*
G01*
G37*
G36*
G01*
X268549000Y-154288250D02*
X268549000Y-153375750D01*
G75*
G02*
X268792750Y-153132000I243750J0D01*
G01*
X269280250Y-153132000D01*
G75*
G02*
X269524000Y-153375750I0J-243750D01*
G01*
X269524000Y-154288250D01*
G75*
G02*
X269280250Y-154532000I-243750J0D01*
G01*
X268792750Y-154532000D01*
G75*
G02*
X268549000Y-154288250I0J243750D01*
G01*
G37*
G36*
G01*
X279782250Y-196526800D02*
X278869750Y-196526800D01*
G75*
G02*
X278626000Y-196283050I0J243750D01*
G01*
X278626000Y-195795550D01*
G75*
G02*
X278869750Y-195551800I243750J0D01*
G01*
X279782250Y-195551800D01*
G75*
G02*
X280026000Y-195795550I0J-243750D01*
G01*
X280026000Y-196283050D01*
G75*
G02*
X279782250Y-196526800I-243750J0D01*
G01*
G37*
G36*
G01*
X279782250Y-198401800D02*
X278869750Y-198401800D01*
G75*
G02*
X278626000Y-198158050I0J243750D01*
G01*
X278626000Y-197670550D01*
G75*
G02*
X278869750Y-197426800I243750J0D01*
G01*
X279782250Y-197426800D01*
G75*
G02*
X280026000Y-197670550I0J-243750D01*
G01*
X280026000Y-198158050D01*
G75*
G02*
X279782250Y-198401800I-243750J0D01*
G01*
G37*
G36*
G01*
X277162500Y-155092000D02*
X277162500Y-153842000D01*
G75*
G02*
X277412500Y-153592000I250000J0D01*
G01*
X278162500Y-153592000D01*
G75*
G02*
X278412500Y-153842000I0J-250000D01*
G01*
X278412500Y-155092000D01*
G75*
G02*
X278162500Y-155342000I-250000J0D01*
G01*
X277412500Y-155342000D01*
G75*
G02*
X277162500Y-155092000I0J250000D01*
G01*
G37*
G36*
G01*
X274362500Y-155092000D02*
X274362500Y-153842000D01*
G75*
G02*
X274612500Y-153592000I250000J0D01*
G01*
X275362500Y-153592000D01*
G75*
G02*
X275612500Y-153842000I0J-250000D01*
G01*
X275612500Y-155092000D01*
G75*
G02*
X275362500Y-155342000I-250000J0D01*
G01*
X274612500Y-155342000D01*
G75*
G02*
X274362500Y-155092000I0J250000D01*
G01*
G37*
G36*
G01*
X265609050Y-193224800D02*
X264696550Y-193224800D01*
G75*
G02*
X264452800Y-192981050I0J243750D01*
G01*
X264452800Y-192493550D01*
G75*
G02*
X264696550Y-192249800I243750J0D01*
G01*
X265609050Y-192249800D01*
G75*
G02*
X265852800Y-192493550I0J-243750D01*
G01*
X265852800Y-192981050D01*
G75*
G02*
X265609050Y-193224800I-243750J0D01*
G01*
G37*
G36*
G01*
X265609050Y-195099800D02*
X264696550Y-195099800D01*
G75*
G02*
X264452800Y-194856050I0J243750D01*
G01*
X264452800Y-194368550D01*
G75*
G02*
X264696550Y-194124800I243750J0D01*
G01*
X265609050Y-194124800D01*
G75*
G02*
X265852800Y-194368550I0J-243750D01*
G01*
X265852800Y-194856050D01*
G75*
G02*
X265609050Y-195099800I-243750J0D01*
G01*
G37*
G36*
G01*
X261197600Y-205715350D02*
X261197600Y-206627850D01*
G75*
G02*
X260953850Y-206871600I-243750J0D01*
G01*
X260466350Y-206871600D01*
G75*
G02*
X260222600Y-206627850I0J243750D01*
G01*
X260222600Y-205715350D01*
G75*
G02*
X260466350Y-205471600I243750J0D01*
G01*
X260953850Y-205471600D01*
G75*
G02*
X261197600Y-205715350I0J-243750D01*
G01*
G37*
G36*
G01*
X263072600Y-205715350D02*
X263072600Y-206627850D01*
G75*
G02*
X262828850Y-206871600I-243750J0D01*
G01*
X262341350Y-206871600D01*
G75*
G02*
X262097600Y-206627850I0J243750D01*
G01*
X262097600Y-205715350D01*
G75*
G02*
X262341350Y-205471600I243750J0D01*
G01*
X262828850Y-205471600D01*
G75*
G02*
X263072600Y-205715350I0J-243750D01*
G01*
G37*
G36*
G01*
X280538000Y-200328650D02*
X280538000Y-199416150D01*
G75*
G02*
X280781750Y-199172400I243750J0D01*
G01*
X281269250Y-199172400D01*
G75*
G02*
X281513000Y-199416150I0J-243750D01*
G01*
X281513000Y-200328650D01*
G75*
G02*
X281269250Y-200572400I-243750J0D01*
G01*
X280781750Y-200572400D01*
G75*
G02*
X280538000Y-200328650I0J243750D01*
G01*
G37*
G36*
G01*
X278663000Y-200328650D02*
X278663000Y-199416150D01*
G75*
G02*
X278906750Y-199172400I243750J0D01*
G01*
X279394250Y-199172400D01*
G75*
G02*
X279638000Y-199416150I0J-243750D01*
G01*
X279638000Y-200328650D01*
G75*
G02*
X279394250Y-200572400I-243750J0D01*
G01*
X278906750Y-200572400D01*
G75*
G02*
X278663000Y-200328650I0J243750D01*
G01*
G37*
G36*
G01*
X273992950Y-212006400D02*
X274905450Y-212006400D01*
G75*
G02*
X275149200Y-212250150I0J-243750D01*
G01*
X275149200Y-212737650D01*
G75*
G02*
X274905450Y-212981400I-243750J0D01*
G01*
X273992950Y-212981400D01*
G75*
G02*
X273749200Y-212737650I0J243750D01*
G01*
X273749200Y-212250150D01*
G75*
G02*
X273992950Y-212006400I243750J0D01*
G01*
G37*
G36*
G01*
X273992950Y-210131400D02*
X274905450Y-210131400D01*
G75*
G02*
X275149200Y-210375150I0J-243750D01*
G01*
X275149200Y-210862650D01*
G75*
G02*
X274905450Y-211106400I-243750J0D01*
G01*
X273992950Y-211106400D01*
G75*
G02*
X273749200Y-210862650I0J243750D01*
G01*
X273749200Y-210375150D01*
G75*
G02*
X273992950Y-210131400I243750J0D01*
G01*
G37*
G36*
G01*
X270841450Y-193224800D02*
X269928950Y-193224800D01*
G75*
G02*
X269685200Y-192981050I0J243750D01*
G01*
X269685200Y-192493550D01*
G75*
G02*
X269928950Y-192249800I243750J0D01*
G01*
X270841450Y-192249800D01*
G75*
G02*
X271085200Y-192493550I0J-243750D01*
G01*
X271085200Y-192981050D01*
G75*
G02*
X270841450Y-193224800I-243750J0D01*
G01*
G37*
G36*
G01*
X270841450Y-195099800D02*
X269928950Y-195099800D01*
G75*
G02*
X269685200Y-194856050I0J243750D01*
G01*
X269685200Y-194368550D01*
G75*
G02*
X269928950Y-194124800I243750J0D01*
G01*
X270841450Y-194124800D01*
G75*
G02*
X271085200Y-194368550I0J-243750D01*
G01*
X271085200Y-194856050D01*
G75*
G02*
X270841450Y-195099800I-243750J0D01*
G01*
G37*
D11*
X142471250Y-191326250D03*
D12*
X139931250Y-196406250D03*
D11*
X136121250Y-193866250D03*
D13*
X134851250Y-196406250D03*
X145011250Y-196406250D03*
D11*
X344157604Y-232277455D03*
D12*
X342538325Y-237721345D03*
D11*
X338345141Y-235881533D03*
D13*
X337535502Y-238603478D03*
X347541148Y-236839212D03*
D11*
X311312532Y-238132950D03*
D12*
X309693253Y-243576840D03*
D11*
X305500069Y-241737028D03*
D13*
X304690430Y-244458973D03*
X314696076Y-242694707D03*
D14*
X299180818Y-252523221D03*
X322631553Y-248388224D03*
D12*
X296534420Y-237514751D03*
X319985155Y-233379753D03*
D11*
X347880400Y-212243868D03*
D12*
X346261121Y-217687758D03*
D11*
X342067937Y-215847946D03*
D13*
X341258298Y-218569891D03*
X351263944Y-216805625D03*
D11*
X329119813Y-215551866D03*
D12*
X327500534Y-220995756D03*
D11*
X323307350Y-219155944D03*
D13*
X322497711Y-221877889D03*
X332503357Y-220113623D03*
D11*
X310359225Y-218859864D03*
D12*
X308739946Y-224303754D03*
D11*
X304546762Y-222463942D03*
D13*
X303737123Y-225185887D03*
X313742769Y-223421621D03*
D11*
X291598637Y-222167861D03*
D12*
X289979358Y-227611751D03*
D11*
X285786174Y-225771939D03*
D13*
X284976535Y-228493884D03*
X294982181Y-226729618D03*
D11*
X353952696Y-191829282D03*
D12*
X352333417Y-197273172D03*
D11*
X348140233Y-195433360D03*
D13*
X347330594Y-198155305D03*
X357336240Y-196391039D03*
D11*
X335192109Y-195137279D03*
D12*
X333572830Y-200581169D03*
D11*
X329379646Y-198741357D03*
D13*
X328570007Y-201463302D03*
X338575653Y-199699036D03*
D11*
X316419279Y-198456110D03*
D12*
X314800000Y-203900000D03*
D11*
X310606816Y-202060188D03*
D13*
X309797177Y-204782133D03*
X319802823Y-203017867D03*
D11*
X297670933Y-201753275D03*
D12*
X296051654Y-207197165D03*
D11*
X291858470Y-205357353D03*
D13*
X291048831Y-208079298D03*
X301054477Y-206315032D03*
D11*
X345954552Y-173895693D03*
D12*
X344335273Y-179339583D03*
D11*
X340142089Y-177499771D03*
D13*
X339332450Y-180221716D03*
X349338096Y-178457450D03*
D11*
X327193964Y-177203691D03*
D12*
X325574685Y-182647581D03*
D11*
X321381501Y-180807769D03*
D13*
X320571862Y-183529714D03*
X330577508Y-181765448D03*
D11*
X308433376Y-180511689D03*
D12*
X306814097Y-185955579D03*
D11*
X302620913Y-184115767D03*
D13*
X301811274Y-186837712D03*
X311816920Y-185073446D03*
D11*
X289672788Y-183819687D03*
D12*
X288053509Y-189263577D03*
D11*
X283860325Y-187423765D03*
D13*
X283050686Y-190145710D03*
X293056332Y-188381444D03*
D11*
X352026848Y-153481107D03*
D12*
X350407569Y-158924997D03*
D11*
X346214385Y-157085185D03*
D13*
X345404746Y-159807130D03*
X355410392Y-158042864D03*
D11*
X333266260Y-156789104D03*
D12*
X331646981Y-162232994D03*
D11*
X327453797Y-160393182D03*
D13*
X326644158Y-163115127D03*
X336649804Y-161350861D03*
D11*
X314505672Y-160097102D03*
D12*
X312886393Y-165540992D03*
D11*
X308693209Y-163701180D03*
D13*
X307883570Y-166423125D03*
X317889216Y-164658859D03*
D11*
X295745085Y-163405100D03*
D12*
X294125806Y-168848990D03*
D11*
X289932622Y-167009178D03*
D13*
X289122983Y-169731123D03*
X299128629Y-167966857D03*
D11*
X244111219Y-239743588D03*
D12*
X240727675Y-244305345D03*
D11*
X237416624Y-241142334D03*
D13*
X235724852Y-243423212D03*
X245730498Y-245187478D03*
D14*
X227789375Y-249116729D03*
X251240110Y-253251726D03*
D12*
X230435773Y-234108258D03*
X253886508Y-238243256D03*
D11*
X206626984Y-233227340D03*
D12*
X203243440Y-237789097D03*
D11*
X199932389Y-234626086D03*
D13*
X198240617Y-236906964D03*
X208246263Y-238671230D03*
D11*
X259177098Y-223119247D03*
D12*
X255793554Y-227681004D03*
D11*
X252482503Y-224517993D03*
D13*
X250790731Y-226798871D03*
X260796377Y-228563137D03*
D11*
X240416510Y-219811249D03*
D12*
X237032966Y-224373006D03*
D11*
X233721915Y-221209995D03*
D13*
X232030143Y-223490873D03*
X242035789Y-225255139D03*
D11*
X221655923Y-216503251D03*
D12*
X218272379Y-221065008D03*
D11*
X214961328Y-217901997D03*
D13*
X213269556Y-220182875D03*
X223275202Y-221947141D03*
D11*
X202895335Y-213195253D03*
D12*
X199511791Y-217757010D03*
D11*
X196200740Y-214593999D03*
D13*
X194508968Y-216874877D03*
X204514614Y-218639143D03*
D11*
X253104802Y-202704660D03*
D12*
X249721258Y-207266417D03*
D11*
X246410207Y-204103406D03*
D13*
X244718435Y-206384284D03*
X254724081Y-208148550D03*
D11*
X234344214Y-199396662D03*
D12*
X230960670Y-203958419D03*
D11*
X227649619Y-200795408D03*
D13*
X225957847Y-203076286D03*
X235963493Y-204840552D03*
D11*
X215583627Y-196088665D03*
D12*
X212200083Y-200650422D03*
D11*
X208889032Y-197487411D03*
D13*
X207197260Y-199768289D03*
X217202906Y-201532555D03*
D11*
X196823039Y-192780667D03*
D12*
X193439495Y-197342424D03*
D11*
X190128444Y-194179413D03*
D13*
X188436672Y-196460291D03*
X198442318Y-198224557D03*
D11*
X251722653Y-183117073D03*
D12*
X248339109Y-187678830D03*
D11*
X245028058Y-184515819D03*
D13*
X243336286Y-186796697D03*
X253341932Y-188560963D03*
D11*
X232962065Y-179809075D03*
D12*
X229578521Y-184370832D03*
D11*
X226267470Y-181207821D03*
D13*
X224575698Y-183488699D03*
X234581344Y-185252965D03*
D11*
X214201478Y-176501077D03*
D12*
X210817934Y-181062834D03*
D11*
X207506883Y-177899823D03*
D13*
X205815111Y-180180701D03*
X215820757Y-181944967D03*
D11*
X195440890Y-173193080D03*
D12*
X192057346Y-177754837D03*
D11*
X188746295Y-174591826D03*
D13*
X187054523Y-176872704D03*
X197060169Y-178636970D03*
D11*
X264410945Y-166010484D03*
D12*
X261027401Y-170572241D03*
D11*
X257716350Y-167409230D03*
D13*
X256024578Y-169690108D03*
X266030224Y-171454374D03*
D11*
X245650357Y-162702486D03*
D12*
X242266813Y-167264243D03*
D11*
X238955762Y-164101232D03*
D13*
X237263990Y-166382110D03*
X247269636Y-168146376D03*
D11*
X226889769Y-159394489D03*
D12*
X223506225Y-163956246D03*
D11*
X220195174Y-160793235D03*
D13*
X218503402Y-163074113D03*
X228509048Y-164838379D03*
D11*
X208129182Y-156086491D03*
D12*
X204745638Y-160648248D03*
D11*
X201434587Y-157485237D03*
D13*
X199742815Y-159766115D03*
X209748461Y-161530381D03*
D11*
X189368594Y-152778493D03*
D12*
X185985050Y-157340250D03*
D11*
X182673999Y-154177239D03*
D13*
X180982227Y-156458117D03*
X190987873Y-158222383D03*
D11*
X465858750Y-234192246D03*
D12*
X463318750Y-239272246D03*
D11*
X459508750Y-236732246D03*
D13*
X458238750Y-239272246D03*
X468398750Y-239272246D03*
D11*
X446808750Y-234192246D03*
D12*
X444268750Y-239272246D03*
D11*
X440458750Y-236732246D03*
D13*
X439188750Y-239272246D03*
X449348750Y-239272246D03*
D11*
X427758750Y-234192246D03*
D12*
X425218750Y-239272246D03*
D11*
X421408750Y-236732246D03*
D13*
X420138750Y-239272246D03*
X430298750Y-239272246D03*
D11*
X401565000Y-229429746D03*
D12*
X399025000Y-234509746D03*
D11*
X395215000Y-231969746D03*
D13*
X393945000Y-234509746D03*
X404105000Y-234509746D03*
D11*
X377752500Y-229429746D03*
D12*
X375212500Y-234509746D03*
D11*
X371402500Y-231969746D03*
D13*
X370132500Y-234509746D03*
X380292500Y-234509746D03*
D11*
X163440000Y-229429746D03*
D12*
X160900000Y-234509746D03*
D11*
X157090000Y-231969746D03*
D13*
X155820000Y-234509746D03*
X165980000Y-234509746D03*
D11*
X139627500Y-229429746D03*
D12*
X137087500Y-234509746D03*
D11*
X133277500Y-231969746D03*
D13*
X132007500Y-234509746D03*
X142167500Y-234509746D03*
D11*
X446808750Y-215142246D03*
D12*
X444268750Y-220222246D03*
D11*
X440458750Y-217682246D03*
D13*
X439188750Y-220222246D03*
X449348750Y-220222246D03*
D11*
X415852500Y-210379746D03*
D12*
X413312500Y-215459746D03*
D11*
X409502500Y-212919746D03*
D13*
X408232500Y-215459746D03*
X418392500Y-215459746D03*
D11*
X389658750Y-210379746D03*
D12*
X387118750Y-215459746D03*
D11*
X383308750Y-212919746D03*
D13*
X382038750Y-215459746D03*
X392198750Y-215459746D03*
D11*
X370608750Y-210379746D03*
D12*
X368068750Y-215459746D03*
D11*
X364258750Y-212919746D03*
D13*
X362988750Y-215459746D03*
X373148750Y-215459746D03*
D11*
X180108750Y-210379746D03*
D12*
X177568750Y-215459746D03*
D11*
X173758750Y-212919746D03*
D13*
X172488750Y-215459746D03*
X182648750Y-215459746D03*
D11*
X149152500Y-210379746D03*
D12*
X146612500Y-215459746D03*
D11*
X142802500Y-212919746D03*
D13*
X141532500Y-215459746D03*
X151692500Y-215459746D03*
D14*
X134706250Y-222444746D03*
X158518750Y-222444746D03*
D12*
X134706250Y-207204746D03*
X158518750Y-207204746D03*
D11*
X396326250Y-191329746D03*
D12*
X393786250Y-196409746D03*
D11*
X389976250Y-193869746D03*
D13*
X388706250Y-196409746D03*
X398866250Y-196409746D03*
D11*
X377276250Y-191329746D03*
D12*
X374736250Y-196409746D03*
D11*
X370926250Y-193869746D03*
D13*
X369656250Y-196409746D03*
X379816250Y-196409746D03*
D11*
X173441250Y-191329746D03*
D12*
X170901250Y-196409746D03*
D11*
X167091250Y-193869746D03*
D13*
X165821250Y-196409746D03*
X175981250Y-196409746D03*
D11*
X147247500Y-191329746D03*
D12*
X144707500Y-196409746D03*
D11*
X140897500Y-193869746D03*
D13*
X139627500Y-196409746D03*
X149787500Y-196409746D03*
D11*
X432521250Y-172279746D03*
D12*
X429981250Y-177359746D03*
D11*
X426171250Y-174819746D03*
D13*
X424901250Y-177359746D03*
X435061250Y-177359746D03*
D11*
X408708750Y-172279746D03*
D12*
X406168750Y-177359746D03*
D11*
X402358750Y-174819746D03*
D13*
X401088750Y-177359746D03*
X411248750Y-177359746D03*
D11*
X389658750Y-172279746D03*
D12*
X387118750Y-177359746D03*
D11*
X383308750Y-174819746D03*
D13*
X382038750Y-177359746D03*
X392198750Y-177359746D03*
D11*
X370608750Y-172279746D03*
D12*
X368068750Y-177359746D03*
D11*
X364258750Y-174819746D03*
D13*
X362988750Y-177359746D03*
X373148750Y-177359746D03*
D11*
X170583750Y-172279746D03*
D12*
X168043750Y-177359746D03*
D11*
X164233750Y-174819746D03*
D13*
X162963750Y-177359746D03*
X173123750Y-177359746D03*
D11*
X146771250Y-172279746D03*
D12*
X144231250Y-177359746D03*
D11*
X140421250Y-174819746D03*
D13*
X139151250Y-177359746D03*
X149311250Y-177359746D03*
D11*
X394421250Y-153229746D03*
D12*
X391881250Y-158309746D03*
D11*
X388071250Y-155769746D03*
D13*
X386801250Y-158309746D03*
X396961250Y-158309746D03*
D11*
X375371250Y-153229746D03*
D12*
X372831250Y-158309746D03*
D11*
X369021250Y-155769746D03*
D13*
X367751250Y-158309746D03*
X377911250Y-158309746D03*
D11*
X165821250Y-153229746D03*
D12*
X163281250Y-158309746D03*
D11*
X159471250Y-155769746D03*
D13*
X158201250Y-158309746D03*
X168361250Y-158309746D03*
D11*
X146771250Y-153229746D03*
D12*
X144231250Y-158309746D03*
D11*
X140421250Y-155769746D03*
D13*
X139151250Y-158309746D03*
X149311250Y-158309746D03*
M02*
