0
SECTION
2
HEADER
9
$INSUNITS
70
4
9
$ACADVER
1
AC1014
9
$HANDSEED
5
FFFF
0
ENDSEC
0
SECTION
2
TABLES
0
TABLE
2
VPORT
5
8
100
AcDbSymbolTable
0
ENDTAB
0
TABLE
2
LTYPE
5
5
100
AcDbSymbolTable
0
LTYPE
5
14
100
AcDbSymbolTableRecord
100
AcDbLinetypeTableRecord
2
BYBLOCK
70
0
0
LTYPE
5
15
100
AcDbSymbolTableRecord
100
AcDbLinetypeTableRecord
2
BYLAYER
70
0
0
ENDTAB
0
TABLE
2
LAYER
5
2
100
AcDbSymbolTable
70
2
0
LAYER
5
50
100
AcDbSymbolTableRecord
100
AcDbLayerTableRecord
2
0
70
0
6
CONTINUOUS
0
ENDTAB
0
TABLE
2
STYLE
5
3
100
AcDbSymbolTable
70
1
0
STYLE
5
11
100
AcDbSymbolTableRecord
100
AcDbTextStyleTableRecord
2
STANDARD
70
0
0
ENDTAB
0
TABLE
2
VIEW
5
6
100
AcDbSymbolTable
70
0
0
ENDTAB
0
TABLE
2
UCS
5
7
100
AcDbSymbolTable
70
0
0
ENDTAB
0
TABLE
2
APPID
5
9
100
AcDbSymbolTable
70
2
0
APPID
5
12
100
AcDbSymbolTableRecord
100
AcDbRegAppTableRecord
2
ACAD
70
0
0
ENDTAB
0
TABLE
2
DIMSTYLE
5
A
100
AcDbSymbolTable
70
1
0
ENDTAB
0
TABLE
2
BLOCK_RECORD
5
1
100
AcDbSymbolTable
70
1
0
BLOCK_RECORD
5
1F
100
AcDbSymbolTableRecord
100
AcDbBlockTableRecord
2
*MODEL_SPACE
0
BLOCK_RECORD
5
1B
100
AcDbSymbolTableRecord
100
AcDbBlockTableRecord
2
*PAPER_SPACE
0
ENDTAB
0
ENDSEC
0
SECTION
2
BLOCKS
0
BLOCK
5
20
100
AcDbEntity
100
AcDbBlockBegin
2
*MODEL_SPACE
0
ENDBLK
5
21
100
AcDbEntity
100
AcDbBlockEnd
0
BLOCK
5
1C
100
AcDbEntity
100
AcDbBlockBegin
2
*PAPER_SPACE
0
ENDBLK
5
1D
100
AcDbEntity
100
AcDbBlockEnd
0
ENDSEC
0
SECTION
2
ENTITIES
0
LWPOLYLINE
5
100
100
AcDbEntity
8
0
100
AcDbPolyline
90
4
70
1
43
0.0
10
-189.58754835097253
20
-66.342796701945005
10
-187.15554835097251
20
-80.129996701945032
10
-173.36954835097259
20
-77.699396701945005
10
-175.80054835097252
20
-63.911796701945022
0
LWPOLYLINE
5
101
100
AcDbEntity
8
0
100
AcDbPolyline
90
4
70
1
43
0.0
10
-216.96254835097253
20
-104.72909670194502
10
-219.39354835097251
20
-90.942296701945011
10
-233.18054835097251
20
-93.372996701945027
10
-230.74954835097253
20
-107.16009670194502
0
LWPOLYLINE
5
102
100
AcDbEntity
8
0
100
AcDbPolyline
90
4
70
1
43
0.0
10
-287.89454835097251
20
-73.599396701945011
10
-287.89454835097251
20
-87.599096701944973
10
-273.89454835097251
20
-87.599096701944973
10
-273.89454835097251
20
-73.599396701945011
0
LWPOLYLINE
5
103
100
AcDbEntity
8
0
100
AcDbPolyline
90
4
70
1
43
0.0
10
-292.94454835097252
20
-11.687096701945006
10
-306.94454835097252
20
-11.687096701945006
10
-306.94454835097252
20
-25.68659670194501
10
-292.94454835097252
20
-25.68659670194501
0
LWPOLYLINE
5
104
100
AcDbEntity
8
0
100
AcDbPolyline
90
8
70
1
43
0.0
10
-283.36854835097245
20
-68.519196701945035
10
-283.36854835097245
20
-57.01979670194504
42
0.41421356237311324
10
-284.3685483509725
20
-56.019796701944991
10
-289.94254835097257
20
-56.019796701945033
42
0.41421356237311846
10
-290.94254835097246
20
-57.019796701945026
10
-290.94254835097246
20
-68.519196701945035
42
0.41421356237308204
10
-289.94254835097257
20
-69.519196701945063
10
-284.3685483509725
20
-69.51919670194502
42
0.41421356237305862
0
LWPOLYLINE
5
105
100
AcDbEntity
8
0
100
AcDbPolyline
90
8
70
1
43
0.0
10
-307.99254835097247
20
-68.51919670194502
42
-0.41421356237313667
10
-308.99254835097258
20
-69.519196701945063
10
-314.56654835097254
20
-69.51919670194502
42
-0.41421356237313145
10
-315.56654835097248
20
-68.519196701945035
10
-315.56654835097254
20
-57.01979670194504
42
-0.41421356237310281
10
-314.56654835097254
20
-56.019796701945026
10
-308.99254835097253
20
-56.019796701945062
42
-0.41421356237311585
10
-307.99254835097247
20
-57.01979670194504
0
LWPOLYLINE
5
106
100
AcDbEntity
8
0
100
AcDbPolyline
90
8
70
1
43
0.0
10
-130.4808238252173
20
-6.4149776565047887
42
-0.41423266243252993
10
-129.32241033883739
20
-5.6036770851650628
10
-123.8308117287537
20
-6.5716188228813532
42
-0.41421962475847124
10
-123.01957897214027
20
-7.7300413757803828
10
-125.01600077384606
20
-19.05533034908677
42
-0.41418840029413373
10
-126.17433512803665
20
-19.866557632251642
10
-131.66502387108355
20
-18.899145440577808
42
-0.41421356237310525
10
-132.47633575988638
20
-17.740796175853582
0
LWPOLYLINE
5
107
100
AcDbEntity
8
0
100
AcDbPolyline
90
8
70
1
43
0.0
10
-194.70796575151928
20
-10.706904163763031
10
-200.19574401197769
20
-11.675151102300738
42
0.41421913118062259
10
-201.00677671173744
20
-12.833712272909175
10
-199.00843062636116
20
-24.15857305961616
42
0.41417336119890552
10
-197.85000793024864
20
-24.969610877749382
10
-192.36329551305931
20
-24.002220948078229
42
0.41422323954253226
10
-191.55212826165211
20
-22.843741871933425
10
-193.54940850375968
20
-11.518024076359945
42
0.41423851840593845
0
LWPOLYLINE
5
108
100
AcDbEntity
8
0
100
AcDbPolyline
90
8
70
1
43
0.0
10
-280.08154835097253
20
-94.119396701944964
10
-285.65654835097257
20
-94.119396701945007
42
0.41421356237304302
10
-286.65654835097246
20
-95.119396701945007
10
-286.65654835097246
20
-106.61919670194501
42
0.41421356237311063
10
-285.65654835097257
20
-107.61919670194503
10
-280.08154835097258
20
-107.61919670194499
42
0.41421356237305862
10
-279.08154835097253
20
-106.61919670194501
10
-279.08154835097253
20
-95.119396701945007
42
0.41421356237311063
0
LWPOLYLINE
5
109
100
AcDbEntity
8
0
100
AcDbPolyline
90
4
70
1
43
0.0
10
-209.08854835097253
20
-25.966296701945009
10
-211.52054835097249
20
-12.177596701945017
10
-225.30654835097261
20
-14.609896701945013
10
-222.87554835097251
20
-28.397196701945013
0
LWPOLYLINE
5
110
100
AcDbEntity
8
0
100
AcDbPolyline
90
4
70
1
43
0.0
10
-87.246448350972486
20
-45.089296701945031
10
-84.814048350972485
20
-31.303496701945015
10
-98.601248350972512
20
-28.87259670194501
10
-101.03354835097252
20
-42.658296701945005
0
LWPOLYLINE
5
111
100
AcDbEntity
8
0
100
AcDbPolyline
90
4
70
1
43
0.0
10
-106.0055483509725
20
-41.781996701945019
10
-103.57454835097251
20
-27.994796701945024
10
-117.36154835097251
20
-25.563896701945019
10
-119.79254835097254
20
-39.351096701945011
0
LWPOLYLINE
5
112
100
AcDbEntity
8
0
100
AcDbPolyline
90
4
70
1
43
0.0
10
-254.55654835097252
20
-106.64909670194503
10
-240.5575483509725
20
-106.64909670194503
10
-240.5575483509725
20
-92.649396701945008
10
-254.55654835097252
20
-92.649396701945008
0
LWPOLYLINE
5
113
100
AcDbEntity
8
0
100
AcDbPolyline
90
4
70
1
43
0.0
10
-288.18254835097252
20
-92.649396701945008
10
-302.18154835097261
20
-92.649396701945008
10
-302.18154835097261
20
-106.64909670194503
10
-288.18254835097252
20
-106.64909670194503
0
LWPOLYLINE
5
114
100
AcDbEntity
8
0
100
AcDbPolyline
90
8
70
1
43
0.0
10
-170.45848772251827
20
-6.4310024068391325
10
-175.94643026747713
20
-7.3983177603707251
42
0.41423851840589321
10
-176.75764813237686
20
-8.5568064243701691
10
-174.76036046993275
20
-19.882522911371385
42
0.41422323954260076
10
-173.60185406217624
20
-20.69365112738156
10
-168.11520621577426
20
-19.725895045228427
42
0.41417336119884868
10
-167.30408670473722
20
-18.567529548450512
10
-169.30007966862436
20
-7.2422537900707917
42
0.41421913118060727
0
LWPOLYLINE
5
115
100
AcDbEntity
8
0
100
AcDbPolyline
90
8
70
1
43
0.0
10
-6.2378783509725082
20
-36.968696701944992
42
-0.41421356237309048
10
-5.2378783509725064
20
-37.968696701944999
10
-5.2378783509725135
20
-49.467996701945026
42
-0.41421356237308915
10
-6.2378783509725082
20
-50.467996701945012
10
-11.812948350972512
20
-50.467996701944998
42
-0.41421356237310414
10
-12.81294835097251
20
-49.467996701945012
10
-12.81294835097251
20
-37.968696701944999
42
-0.41421356237309764
10
-11.81294835097251
20
-36.968696701944999
0
LWPOLYLINE
5
116
100
AcDbEntity
8
0
100
AcDbPolyline
90
8
70
1
43
0.0
10
-310.28254835097266
20
-107.61919670194496
42
-0.41421356237311063
10
-311.28254835097266
20
-106.61919670194504
10
-311.28254835097266
20
-95.119396701945007
42
-0.41421356237305862
10
-310.28254835097266
20
-94.119396701944964
10
-304.70754835097262
20
-94.119396701944979
42
-0.41421356237314183
10
-303.70754835097262
20
-95.119396701945007
10
-303.70754835097262
20
-106.61919670194501
42
-0.414213562373069
10
-304.7075483509725
20
-107.61919670194499
0
LWPOLYLINE
5
117
100
AcDbEntity
8
0
100
AcDbPolyline
90
4
70
1
43
0.0
10
-11.95724835097252
20
-106.64909670194503
10
-11.95724835097252
20
-92.649396701945008
10
-25.956648350972529
20
-92.649396701945008
10
-25.956648350972529
20
-106.64909670194503
0
LWPOLYLINE
5
118
100
AcDbEntity
8
0
100
AcDbPolyline
90
4
70
1
43
0.0
10
-7.6701483509724966
20
-68.549096701945004
10
-7.6701483509724966
20
-54.549396701945021
10
-26.433448350972526
20
-54.549396701945021
10
-26.433448350972526
20
-68.549096701945004
0
LWPOLYLINE
5
119
100
AcDbEntity
8
0
100
AcDbPolyline
90
4
70
1
43
0.0
10
-54.957348350972509
20
-108.81509670194502
10
-52.526748350972511
20
-95.026796701945031
10
-66.31394835097251
20
-92.595796701945005
10
-68.746048350972515
20
-106.38409670194503
0
LWPOLYLINE
5
120
100
AcDbEntity
8
0
100
AcDbPolyline
90
4
70
1
43
0.0
10
-340.28154835097257
20
-92.649396701945008
10
-340.28154835097257
20
-106.64909670194503
10
-326.28254835097266
20
-106.64909670194503
10
-326.28254835097266
20
-92.649396701945008
0
LWPOLYLINE
5
121
100
AcDbEntity
8
0
100
AcDbPolyline
90
4
70
1
43
0.0
10
-208.34854835097249
20
-69.651496701945007
10
-205.91754835097251
20
-83.43729670194503
10
-192.12854835097249
20
-81.006696701945032
10
-194.55954835097253
20
-67.220496701945009
0
LWPOLYLINE
5
122
100
AcDbEntity
8
0
100
AcDbPolyline
90
4
70
1
43
0.0
10
-106.2675483509725
20
-99.768096701944998
10
-92.478848350972513
20
-102.19909670194502
10
-90.047848350972487
20
-88.410796701945031
10
-103.83654835097249
20
-85.979796701944991
0
LWPOLYLINE
5
123
100
AcDbEntity
8
0
100
AcDbPolyline
90
4
70
1
43
0.0
10
-87.505348350972497
20
-103.07609670194503
10
-73.719448350972499
20
-105.50709670194502
10
-71.288548350972505
20
-91.719496701945005
10
-85.074748350972499
20
-89.288496701945036
0
LWPOLYLINE
5
124
100
AcDbEntity
8
0
100
AcDbPolyline
90
4
70
1
43
0.0
10
-198.20154835097253
20
-101.42209670194505
10
-200.63254835097251
20
-87.633596701945024
10
-214.41954835097252
20
-90.064296701945011
10
-211.98854835097251
20
-103.85309670194502
0
LWPOLYLINE
5
125
100
AcDbEntity
8
0
100
AcDbPolyline
90
4
70
1
43
0.0
10
-114.88154835097251
20
-64.689296701945011
10
-128.66854835097251
20
-62.258296701945014
10
-131.09954835097253
20
-76.04559670194503
10
-117.31254835097249
20
-78.476596701945013
0
LWPOLYLINE
5
126
100
AcDbEntity
8
0
100
AcDbPolyline
90
4
70
1
43
0.0
10
-125.02654835097249
20
-96.45979670194501
10
-111.24054835097252
20
-98.890796701945021
10
-108.80854835097252
20
-85.103496701945005
10
-122.59554835097249
20
-82.672496701945036
0
LWPOLYLINE
5
127
100
AcDbEntity
8
0
100
AcDbPolyline
90
4
70
1
43
0.0
10
-138.55354835097251
20
-36.042396701945009
10
-124.7675483509725
20
-38.47329670194501
10
-122.33654835097252
20
-24.687496701945015
10
-136.12254835097249
20
-22.256596701945011
0
CIRCLE
5
128
100
AcDbEntity
8
0
100
AcDbCircle
10
-179.8833247335254
20
8.6398840295966632
30
0
40
1.5500000000000114
210
0
220
-0
230
1
0
CIRCLE
5
129
100
AcDbEntity
8
0
100
AcDbCircle
10
-360.94991988080324
20
0.33308869262198193
30
0
40
1.5500000000000114
210
0
220
-0
230
1
0
CIRCLE
5
130
100
AcDbEntity
8
0
100
AcDbCircle
10
-361.52216854187566
20
-117.96898214995694
30
0
40
1.5500000000000114
210
0
220
-0
230
1
0
LWPOLYLINE
5
131
100
AcDbEntity
8
0
100
AcDbPolyline
90
4
70
1
43
0.0
10
-18.812948350972505
20
-16.449596701945008
10
-18.812948350972505
20
-30.449096701945013
10
-4.8134583509725104
20
-30.449096701945013
10
-4.8134583509725104
20
-16.449596701945008
0
CIRCLE
5
132
100
AcDbEntity
8
0
100
AcDbCircle
10
-85.135847032347954
20
-121.93709220122265
30
0
40
1.5499999999999934
210
0
220
-0
230
1
0
CIRCLE
5
133
100
AcDbEntity
8
0
100
AcDbCircle
10
-270.55703540956915
20
-121.58157023710163
30
0
40
1.5500000000000114
210
0
220
-0
230
1
0
CIRCLE
5
134
100
AcDbEntity
8
0
100
AcDbCircle
10
-115.38918882602232
20
7.6138904266957024
30
0
40
1.5499999999999934
210
0
220
-0
230
1
0
CIRCLE
5
135
100
AcDbEntity
8
0
100
AcDbCircle
10
6.3351344754597561
20
-1.9528023065576883
30
0
40
1.5499999999999998
210
0
220
-0
230
1
0
CIRCLE
5
136
100
AcDbEntity
8
0
100
AcDbCircle
10
5.9416648646875245
20
-118.93221545353495
30
0
40
1.5500000000000003
210
0
220
-0
230
1
0
LWPOLYLINE
5
137
100
AcDbEntity
8
0
100
AcDbPolyline
90
4
70
1
43
0.0
10
-325.99454835097254
20
-44.736596701945004
10
-311.99454835097254
20
-44.736596701945004
10
-311.99454835097254
20
-30.737096701945017
10
-325.99454835097254
20
-30.737096701945017
0
LWPOLYLINE
5
138
100
AcDbEntity
8
0
100
AcDbPolyline
90
4
70
1
43
0.0
10
-86.000748350972472
20
-25.966296701945009
10
-72.212048350972509
20
-28.397196701945013
10
-69.781048350972526
20
-14.609896701945013
10
-83.568348350972471
20
-12.177596701945017
0
LWPOLYLINE
5
139
100
AcDbEntity
8
0
100
AcDbPolyline
90
4
70
1
43
0.0
10
-331.04454835097266
20
-11.687096701945006
10
-345.0445483509726
20
-11.687096701945006
10
-345.0445483509726
20
-25.68659670194501
10
-331.04454835097266
20
-25.68659670194501
0
LWPOLYLINE
5
140
100
AcDbEntity
8
0
100
AcDbPolyline
90
4
70
1
43
0.0
10
-42.625348350972523
20
-30.449096701945013
10
-28.624548350972496
20
-30.449096701945013
10
-28.624548350972496
20
-16.449596701945008
10
-42.625348350972523
20
-16.449596701945008
0
LWPOLYLINE
5
141
100
AcDbEntity
8
0
100
AcDbPolyline
90
4
70
1
43
0.0
10
-196.4865483509725
20
-28.87259670194501
10
-210.27354835097253
20
-31.303496701945015
10
-207.84254835097249
20
-45.089296701945031
10
-194.05554835097251
20
-42.658296701945005
0
LWPOLYLINE
5
142
100
AcDbEntity
8
0
100
AcDbPolyline
90
4
70
1
43
0.0
10
-325.99454835097254
20
-25.68659670194501
10
-311.99454835097254
20
-25.68659670194501
10
-311.99454835097254
20
-11.687096701945006
10
-325.99454835097254
20
-11.687096701945006
0
LWPOLYLINE
5
143
100
AcDbEntity
8
0
100
AcDbPolyline
90
4
70
1
43
0.0
10
-215.24654835097255
20
-32.179896701945019
10
-229.03454835097253
20
-34.61069670194501
10
-226.60354835097255
20
-48.397996701945033
10
-212.81554835097251
20
-45.966996701945021
0
LWPOLYLINE
5
144
100
AcDbEntity
8
0
100
AcDbPolyline
90
4
70
1
43
0.0
10
-158.96554835097251
20
-22.256596701945011
10
-172.75254835097252
20
-24.687496701945015
10
-170.32154835097248
20
-38.47329670194501
10
-156.53454835097253
20
-36.042396701945009
0
LWPOLYLINE
5
145
100
AcDbEntity
8
0
100
AcDbPolyline
90
4
70
1
43
0.0
10
-94.960548350972488
20
-63.072896701945012
10
-81.173348350972503
20
-65.503496701945011
10
-78.74234835097252
20
-51.716296701945019
10
-92.529648350972508
20
-49.285596701945011
0
LWPOLYLINE
5
146
100
AcDbEntity
8
0
100
AcDbPolyline
90
4
70
1
43
0.0
10
-14.338448350972506
20
-35.49939670194501
10
-28.337948350972511
20
-35.49939670194501
10
-28.337948350972511
20
-49.499096701945021
10
-14.338448350972506
20
-49.499096701945021
0
LWPOLYLINE
5
147
100
AcDbEntity
8
0
100
AcDbPolyline
90
4
70
1
43
0.0
10
-123.5205483509725
20
-19.350396701945016
10
-109.73354835097251
20
-21.781196701945014
10
-107.3025483509725
20
-7.9939367019450103
10
-121.08954835097254
20
-5.5616767019450108
0
LWPOLYLINE
5
148
100
AcDbEntity
8
0
100
AcDbPolyline
90
4
70
1
43
0.0
10
-116.26354835097248
20
-45.10029670194502
10
-130.05054835097252
20
-42.669596701945011
10
-132.4815483509725
20
-56.456896701945013
10
-118.69454835097251
20
-58.887496701945011
0
LWPOLYLINE
5
149
100
AcDbEntity
8
0
100
AcDbPolyline
90
4
70
1
43
0.0
10
-52.627248350972522
20
-54.549396701945021
10
-52.627248350972522
20
-68.549096701945004
10
-38.626248350972503
20
-68.549096701945004
10
-38.626248350972503
20
-54.549396701945021
0
LWPOLYLINE
5
150
100
AcDbEntity
8
0
100
AcDbPolyline
90
4
70
1
43
0.0
10
-68.485648350972511
20
-48.397996701945033
10
-66.053648350972509
20
-34.61069670194501
10
-79.840848350972522
20
-32.179896701945019
10
-82.271548350972509
20
-45.966996701945021
0
LWPOLYLINE
5
151
100
AcDbEntity
8
0
100
AcDbPolyline
90
4
70
1
43
0.0
10
-249.79454835097249
20
-49.499096701945021
10
-235.7945483509726
20
-49.499096701945021
10
-235.7945483509726
20
-35.49939670194501
10
-249.79454835097249
20
-35.49939670194501
0
LWPOLYLINE
5
152
100
AcDbEntity
8
0
100
AcDbPolyline
90
4
70
1
43
0.0
10
-295.03754835097254
20
-49.499096701945021
10
-281.03854835097252
20
-49.499096701945021
10
-281.03854835097252
20
-35.49939670194501
10
-295.03754835097254
20
-35.49939670194501
0
LWPOLYLINE
5
153
100
AcDbEntity
8
0
100
AcDbPolyline
90
4
70
1
43
0.0
10
-254.84454835097256
20
-49.499096701945021
10
-254.84454835097256
20
-35.49939670194501
10
-268.8445483509725
20
-35.49939670194501
10
-268.8445483509725
20
-49.499096701945021
0
LWPOLYLINE
5
154
100
AcDbEntity
8
0
100
AcDbPolyline
90
4
70
1
43
0.0
10
-190.04554835097252
20
-22.607996701945012
10
-176.25654835097254
20
-20.177196701945022
10
-178.68854835097244
20
-6.3885167019450151
10
-192.47654835097254
20
-8.8207467019450103
0
LWPOLYLINE
5
155
100
AcDbEntity
8
0
100
AcDbPolyline
90
4
70
1
43
0.0
10
-59.294048350972517
20
-49.499096701945021
10
-45.294748350972505
20
-49.499096701945021
10
-45.294748350972505
20
-35.49939670194501
10
-59.294048350972517
20
-35.49939670194501
0
LWPOLYLINE
5
156
100
AcDbEntity
8
0
100
AcDbPolyline
90
4
70
1
43
0.0
10
-197.58454835097257
20
-48.408996701945014
10
-195.15354835097253
20
-62.196196701945027
10
-181.3675483509725
20
-59.765596701945029
10
-183.79854835097248
20
-45.978296701945013
0
LWPOLYLINE
5
157
100
AcDbEntity
8
0
100
AcDbPolyline
90
4
70
1
43
0.0
10
-349.80654835097261
20
-54.549396701945021
10
-349.80654835097261
20
-68.549096701945004
10
-335.80754835097252
20
-68.549096701945004
10
-335.80754835097252
20
-54.549396701945021
0
LWPOLYLINE
5
158
100
AcDbEntity
8
0
100
AcDbPolyline
90
4
70
1
43
0.0
10
-162.60554835097253
20
-56.456896701945013
10
-165.03654835097254
20
-42.669596701945011
10
-178.82554835097253
20
-45.10029670194502
10
-176.39454835097251
20
-58.887496701945011
0
LWPOLYLINE
5
159
100
AcDbEntity
8
0
100
AcDbPolyline
90
4
70
1
43
0.0
10
-331.04454835097266
20
-87.599096701944973
10
-331.04454835097266
20
-73.599396701945011
10
-345.0445483509726
20
-73.599396701945011
10
-345.0445483509726
20
-87.599096701944973
0
LWPOLYLINE
5
160
100
AcDbEntity
8
0
100
AcDbPolyline
90
4
70
1
43
0.0
10
-235.7945483509726
20
-87.599096701944973
10
-235.7945483509726
20
-73.599396701945011
10
-249.79454835097249
20
-73.599396701945011
10
-249.79454835097249
20
-87.599096701944973
0
LWPOLYLINE
5
161
100
AcDbEntity
8
0
100
AcDbPolyline
90
4
70
1
43
0.0
10
-61.030448350972506
20
-88.399896701945011
10
-58.599748350972511
20
-74.613696701945017
10
-72.38704835097252
20
-72.181596701945011
10
-74.817648350972519
20
-85.968896701945013
0
LWPOLYLINE
5
162
100
AcDbEntity
8
0
100
AcDbPolyline
90
4
70
1
43
0.0
10
-76.199848350972488
20
-66.381196701945015
10
-62.412648350972511
20
-68.812196701945027
10
-59.981948350972516
20
-55.024996701945014
10
-73.769248350972504
20
-52.593996701945031
0
LWPOLYLINE
5
163
100
AcDbEntity
8
0
100
AcDbPolyline
90
4
70
1
43
0.0
10
-254.84454835097256
20
-73.599396701945011
10
-268.8445483509725
20
-73.599396701945011
10
-268.8445483509725
20
-87.599096701944973
10
-254.84454835097256
20
-87.599096701944973
0
LWPOLYLINE
5
164
100
AcDbEntity
8
0
100
AcDbPolyline
90
4
70
1
43
0.0
10
-154.60754835097251
20
-74.390696701945018
10
-157.03854835097249
20
-60.603396701945016
10
-170.82554835097255
20
-63.035496701945007
10
-168.39454835097251
20
-76.821296701945016
0
LWPOLYLINE
5
165
100
AcDbEntity
8
0
100
AcDbPolyline
90
4
70
1
43
0.0
10
-306.46754835097249
20
-54.549396701945021
10
-306.46754835097249
20
-68.549096701945004
10
-292.46754835097249
20
-68.549096701945004
10
-292.46754835097249
20
-54.549396701945021
0
LWPOLYLINE
5
166
100
AcDbEntity
8
0
100
AcDbPolyline
90
4
70
1
43
0.0
10
-242.9385483509725
20
-30.449096701945013
10
-242.9385483509725
20
-16.449596701945008
10
-256.93754835097252
20
-16.449596701945008
10
-256.93754835097252
20
-30.449096701945013
0
LWPOLYLINE
5
167
100
AcDbEntity
8
0
100
AcDbPolyline
90
4
70
1
43
0.0
10
-275.51254835097251
20
-54.549396701945021
10
-275.51254835097251
20
-68.549096701945004
10
-261.51154835097253
20
-68.549096701945004
10
-261.51154835097253
20
-54.549396701945021
0
LWPOLYLINE
5
168
100
AcDbEntity
8
0
100
AcDbPolyline
90
4
70
1
43
0.0
10
-266.74954835097253
20
-30.449096701945013
10
-266.74954835097253
20
-16.449596701945008
10
-280.75054835097251
20
-16.449596701945008
10
-280.75054835097251
20
-30.449096701945013
0
LWPOLYLINE
5
169
100
AcDbEntity
8
0
100
AcDbPolyline
90
4
70
1
43
0.0
10
-189.08254835097253
20
-41.781996701945019
10
-175.29454835097258
20
-39.351096701945011
10
-177.72554835097253
20
-25.563896701945019
10
-191.51254835097248
20
-27.994796701945024
0
LWPOLYLINE
5
170
100
AcDbEntity
8
0
100
AcDbPolyline
90
4
70
1
43
0.0
10
-273.60654835097256
20
-92.649396701945008
10
-273.60654835097256
20
-106.64909670194503
10
-259.60754835097254
20
-106.64909670194503
10
-259.60754835097254
20
-92.649396701945008
0
LWPOLYLINE
5
171
100
AcDbEntity
8
0
100
AcDbPolyline
90
8
70
1
43
0.0
10
-30.863448350972508
20
-36.968696701945014
42
-0.41421356237310025
10
-29.863448350972508
20
-37.968696701944999
10
-29.863448350972504
20
-49.467996701945026
42
-0.41421356237308854
10
-30.863448350972511
20
-50.467996701945026
10
-36.438448350972514
20
-50.467996701945012
42
-0.41421356237308982
10
-37.4384483509725
20
-49.46799670194504
10
-37.438448350972521
20
-37.968696701945021
42
-0.41421356237310025
10
-36.438448350972507
20
-36.968696701944992
0
LWPOLYLINE
5
172
100
AcDbEntity
8
0
100
AcDbPolyline
90
8
70
1
43
0.0
10
-106.23021804018207
20
-10.690221679478915
42
-0.41421962475847135
10
-105.07172696830543
20
-9.8790867752551463
10
-99.580230183259772
20
-10.847606037696185
42
-0.41423266243254869
10
-98.769126991119549
20
-12.006157734506907
10
-100.76730710406926
20
-23.33150581970245
42
-0.4142135623730997
10
-101.9258474724752
20
-24.142544792116176
10
-107.4163081518722
20
-23.173839083649284
42
-0.41418840029411869
10
-108.22736204748317
20
-22.015383318648585
0
LWPOLYLINE
5
173
100
AcDbEntity
8
0
100
AcDbPolyline
90
4
70
1
43
0.0
10
-31.007248350972496
20
-106.64909670194503
10
-31.007248350972496
20
-92.649396701945008
10
-45.006548350972508
20
-92.649396701945008
10
-45.006548350972508
20
-106.64909670194503
0
LWPOLYLINE
5
174
100
AcDbEntity
8
0
100
AcDbPolyline
90
4
70
1
43
0.0
10
-49.769048350972511
20
-87.599096701944973
10
-35.769748350972499
20
-87.599096701944973
10
-35.769748350972499
20
-73.599396701945011
10
-49.769048350972511
20
-73.599396701945011
0
LWPOLYLINE
5
175
100
AcDbEntity
8
0
100
AcDbPolyline
90
4
70
1
43
0.0
10
-25.956648350972529
20
-87.599096701944973
10
-11.95724835097252
20
-87.599096701944973
10
-11.95724835097252
20
-73.599396701945011
10
-25.956648350972529
20
-73.599396701945011
0
LWPOLYLINE
5
176
100
AcDbEntity
8
0
100
AcDbPolyline
90
4
70
1
43
0.0
10
-141.35654835097245
20
-79.363796701944992
10
-143.78854835097252
20
-93.152496701945026
10
-130.00154835097251
20
-95.583496701945023
10
-127.5705483509725
20
-81.794796701945032
0
LWPOLYLINE
5
177
100
AcDbEntity
8
0
100
AcDbPolyline
90
4
70
1
43
0.0
10
-179.44154835097254
20
-98.113596701945028
10
-181.87154835097255
20
-84.326296701945012
10
-195.6595483509725
20
-86.756996701945027
10
-193.22854835097249
20
-100.54409670194502
0
LWPOLYLINE
5
178
100
AcDbEntity
8
0
100
AcDbPolyline
90
4
70
1
43
0.0
10
-213.91554835097256
20
-65.503496701945011
10
-200.12654835097254
20
-63.072896701945012
10
-202.55954835097253
20
-49.285596701945011
10
-216.34654835097254
20
-51.716296701945019
0
LWPOLYLINE
5
179
100
AcDbEntity
8
0
100
AcDbPolyline
90
4
70
1
43
0.0
10
-256.4625483509725
20
-54.549396701945021
10
-256.4625483509725
20
-68.549096701945004
10
-242.46154835097252
20
-68.549096701945004
10
-242.46154835097252
20
-54.549396701945021
0
LWPOLYLINE
5
180
100
AcDbEntity
8
0
100
AcDbPolyline
90
4
70
1
43
0.0
10
-163.11154835097255
20
-81.017596701945038
10
-176.8985483509725
20
-83.448296701945011
10
-174.46754835097252
20
-97.236996701945031
10
-160.68054835097251
20
-94.80629670194503
0
LWPOLYLINE
5
181
100
AcDbEntity
8
0
100
AcDbPolyline
90
4
70
1
43
0.0
10
-93.578448350972508
20
-82.661596701945044
10
-79.791148350972506
20
-85.092596701945027
10
-77.360148350972523
20
-71.305296701945025
10
-91.147448350972496
20
-68.874296701945013
0
LWPOLYLINE
5
182
100
AcDbEntity
8
0
100
AcDbPolyline
90
4
70
1
43
0.0
10
-112.33954835097254
20
-79.352896701945014
10
-98.551848350972506
20
-81.783896701945025
10
-96.120848350972508
20
-67.996596701945009
10
-109.90854835097251
20
-65.565596701945012
0
LWPOLYLINE
5
183
100
AcDbEntity
8
0
100
AcDbPolyline
90
4
70
1
43
0.0
10
-218.88754835097248
20
-66.381196701945015
10
-221.31854835097246
20
-52.593996701945031
10
-235.10554835097255
20
-55.024996701945014
10
-232.67454835097251
20
-68.812196701945027
0
LWPOLYLINE
5
184
100
AcDbEntity
8
0
100
AcDbPolyline
90
4
70
1
43
0.0
10
-111.2905483509725
20
-45.978296701945013
10
-113.72154835097251
20
-59.765596701945029
10
-99.93454835097252
20
-62.196196701945027
10
-97.503048350972506
20
-48.408996701945014
0
LWPOLYLINE
5
185
100
AcDbEntity
8
0
100
AcDbPolyline
90
4
70
1
43
0.0
10
-297.7075483509725
20
-73.599396701945011
10
-311.70654835097253
20
-73.599396701945011
10
-311.70654835097253
20
-87.599096701944973
10
-297.7075483509725
20
-87.599096701944973
0
LWPOLYLINE
5
186
100
AcDbEntity
8
0
100
AcDbPolyline
90
4
70
1
43
0.0
10
-210.88954835097252
20
-84.314996701944992
10
-213.32154835097248
20
-70.527796701945036
10
-227.10754835097251
20
-72.958796701945005
10
-224.67654835097252
20
-86.745996701945032
0
LWPOLYLINE
5
187
100
AcDbEntity
8
0
100
AcDbPolyline
90
13
70
1
43
0.0
10
-84.361760335149228
20
5.4868371366013946
10
-1.1567694434195992
20
5.3273019613315586
42
-0.40960444778605326
10
13.418433808175259
20
-9.5919025084921294
10
13.142017936114685
20
-111.2714172514784
42
-0.41397893872760944
10
-1.7524307778773363
20
-126.09697683748252
10
-354.93427586874242
20
-125.41979477238249
42
-0.35453403887347501
10
-368.77773783635911
20
-111.22269528873798
10
-368.4976800787436
20
-8.2035138047139338
42
-0.414528777886705
10
-352.39005967998719
20
7.8597324480732844
10
-210.42905023515249
20
7.5875399475929584
10
-150.25429831275164
20
17.650017014957054
42
-0.082140347001644007
10
-144.42683684487443
20
17.462078801602132
10
-85.129220432863946
20
5.6792273404844735
42
-0.024740362090112669
0
ENDSEC
0
SECTION
2
OBJECTS
0
DICTIONARY
5
C
100
AcDbDictionary
3
ACAD_GROUP
350
D
3
ACAD_MLINESTYLE
350
17
0
DICTIONARY
5
D
100
AcDbDictionary
0
DICTIONARY
5
1A
330
C
100
AcDbDictionary
0
DICTIONARY
5
17
100
AcDbDictionary
0
ENDSEC
0
EOF
