G04 #@! TF.GenerationSoftware,KiCad,Pcbnew,(5.1.6)-1*
G04 #@! TF.CreationDate,2020-08-21T21:37:27+09:00*
G04 #@! TF.ProjectId,trifecta,74726966-6563-4746-912e-6b696361645f,rev?*
G04 #@! TF.SameCoordinates,Original*
G04 #@! TF.FileFunction,Profile,NP*
%FSLAX46Y46*%
G04 Gerber Fmt 4.6, Leading zero omitted, Abs format (unit mm)*
G04 Created by KiCad (PCBNEW (5.1.6)-1) date 2020-08-21 21:37:27*
%MOMM*%
%LPD*%
G01*
G04 APERTURE LIST*
G04 #@! TA.AperFunction,Profile*
%ADD10C,0.200000*%
G04 #@! TD*
G04 #@! TA.AperFunction,Profile*
%ADD11C,0.150000*%
G04 #@! TD*
G04 #@! TA.AperFunction,Profile*
%ADD12C,0.120000*%
G04 #@! TD*
G04 APERTURE END LIST*
D10*
X149269000Y5533200D02*
X149269000Y12765200D01*
X134029000Y5533200D02*
X134029000Y12765200D01*
X134029000Y5533200D02*
X-7568190Y5525000D01*
X343424900Y5525000D02*
X149269000Y5533200D01*
X343424899Y-104499000D02*
X200217754Y-104499000D01*
X76113053Y-104499000D02*
G75*
G02*
X77329185Y-104605451I0J-7000000D01*
G01*
X76113053Y-104499000D02*
X-7568190Y-104499001D01*
X343424900Y5525000D02*
G75*
G02*
X348424900Y525000I0J-5000000D01*
G01*
X199001716Y-104605434D02*
G75*
G02*
X200217754Y-104499000I1216038J-6893566D01*
G01*
X-12568190Y525000D02*
G75*
G02*
X-7568190Y5525000I5000000J0D01*
G01*
X-7568190Y-104499000D02*
G75*
G02*
X-12568190Y-99499000I0J5000000D01*
G01*
X139379071Y-115122985D02*
G75*
G02*
X136946900Y-115122968I-1216039J6893566D01*
G01*
X348424900Y-99499001D02*
G75*
G02*
X343424899Y-104499000I-5000000J1D01*
G01*
X199001716Y-104605435D02*
X139379070Y-115122984D01*
X-12568190Y-99499000D02*
X-12568190Y525000D01*
X136946900Y-115122968D02*
X77329185Y-104605451D01*
X348424900Y525000D02*
X348424900Y-99499000D01*
D11*
X146319000Y12765200D02*
X149269000Y12765200D01*
X146319000Y7165200D02*
X146319000Y12765200D01*
X137798616Y7165200D02*
X137899000Y7165200D01*
X136979000Y12765200D02*
X136979000Y7165200D01*
X134029000Y12765200D02*
X136979000Y12765200D01*
X139111434Y6465200D02*
X144186566Y6465200D01*
X145499384Y7165200D02*
X145399000Y7165200D01*
X137538808Y7015200D02*
G75*
G02*
X136979000Y7165200I-259808J150000D01*
G01*
X137538808Y7015200D02*
G75*
G02*
X137798616Y7165200I259808J-150000D01*
G01*
X138617801Y6750200D02*
G75*
G03*
X139111435Y6465200I493634J285000D01*
G01*
X144680199Y6750200D02*
G75*
G02*
X144186565Y6465200I-493634J285000D01*
G01*
X145759192Y7015200D02*
G75*
G03*
X145499384Y7165200I-259808J-150000D01*
G01*
X145759192Y7015200D02*
G75*
G03*
X146319000Y7165200I259808J150000D01*
G01*
X138617801Y6750200D02*
G75*
G03*
X137899000Y7165200I-718801J-415000D01*
G01*
X144680199Y6750200D02*
G75*
G02*
X145399000Y7165200I718801J-415000D01*
G01*
D12*
X330348940Y-94290500D02*
X330348940Y-97290500D01*
X330348940Y-97290500D02*
X326948940Y-97290500D01*
X326948940Y-97290500D02*
X326948940Y-94290500D01*
X326948940Y-94290500D02*
X330348940Y-94290500D01*
X311177020Y-94272720D02*
X311177020Y-97272720D01*
X311177020Y-97272720D02*
X307777020Y-97272720D01*
X307777020Y-97272720D02*
X307777020Y-94272720D01*
X307777020Y-94272720D02*
X311177020Y-94272720D01*
X288737180Y-97295580D02*
X288737180Y-94295580D01*
X288737180Y-94295580D02*
X292137180Y-94295580D01*
X292137180Y-94295580D02*
X292137180Y-97295580D01*
X292137180Y-97295580D02*
X288737180Y-97295580D01*
X265992960Y-89520380D02*
X265992960Y-92520380D01*
X265992960Y-92520380D02*
X262592960Y-92520380D01*
X262592960Y-92520380D02*
X262592960Y-89520380D01*
X262592960Y-89520380D02*
X265992960Y-89520380D01*
X238656000Y-92502600D02*
X238656000Y-89502600D01*
X238656000Y-89502600D02*
X242056000Y-89502600D01*
X242056000Y-89502600D02*
X242056000Y-92502600D01*
X242056000Y-92502600D02*
X238656000Y-92502600D01*
X210098441Y-92346766D02*
X210619385Y-95301190D01*
X210619385Y-95301190D02*
X207271039Y-95891594D01*
X207271039Y-95891594D02*
X206750095Y-92937170D01*
X206750095Y-92937170D02*
X210098441Y-92346766D01*
X177238461Y-98135426D02*
X177759405Y-101089850D01*
X177759405Y-101089850D02*
X174411059Y-101680254D01*
X174411059Y-101680254D02*
X173890115Y-98725830D01*
X173890115Y-98725830D02*
X177238461Y-98135426D01*
X103166355Y-101925510D02*
X103687299Y-98971086D01*
X103687299Y-98971086D02*
X107035645Y-99561490D01*
X107035645Y-99561490D02*
X106514701Y-102515914D01*
X106514701Y-102515914D02*
X103166355Y-101925510D01*
X69049701Y-95911914D02*
X65701355Y-95321510D01*
X69570645Y-92957490D02*
X69049701Y-95911914D01*
X66222299Y-92367086D02*
X69570645Y-92957490D01*
X65701355Y-95321510D02*
X66222299Y-92367086D01*
X27743500Y-89528000D02*
X27743500Y-92528000D01*
X27743500Y-92528000D02*
X24343500Y-92528000D01*
X24343500Y-92528000D02*
X24343500Y-89528000D01*
X24343500Y-89528000D02*
X27743500Y-89528000D01*
X658000Y-92528000D02*
X658000Y-89528000D01*
X658000Y-89528000D02*
X4058000Y-89528000D01*
X4058000Y-89528000D02*
X4058000Y-92528000D01*
X4058000Y-92528000D02*
X658000Y-92528000D01*
X311197340Y-75245580D02*
X311197340Y-78245580D01*
X311197340Y-78245580D02*
X307797340Y-78245580D01*
X307797340Y-78245580D02*
X307797340Y-75245580D01*
X307797340Y-75245580D02*
X311197340Y-75245580D01*
X276562960Y-73498320D02*
X276562960Y-70498320D01*
X276562960Y-70498320D02*
X279962960Y-70498320D01*
X279962960Y-70498320D02*
X279962960Y-73498320D01*
X279962960Y-73498320D02*
X276562960Y-73498320D01*
X254181960Y-70462760D02*
X254181960Y-73462760D01*
X254181960Y-73462760D02*
X250781960Y-73462760D01*
X250781960Y-73462760D02*
X250781960Y-70462760D01*
X250781960Y-70462760D02*
X254181960Y-70462760D01*
X231432240Y-73467840D02*
X231432240Y-70467840D01*
X231432240Y-70467840D02*
X234832240Y-70467840D01*
X234832240Y-70467840D02*
X234832240Y-73467840D01*
X234832240Y-73467840D02*
X231432240Y-73467840D01*
X213850021Y-72326486D02*
X214370965Y-75280910D01*
X214370965Y-75280910D02*
X211022619Y-75871314D01*
X211022619Y-75871314D02*
X210501675Y-72916890D01*
X210501675Y-72916890D02*
X213850021Y-72326486D01*
X192348539Y-79178394D02*
X191827595Y-76223970D01*
X191827595Y-76223970D02*
X195175941Y-75633566D01*
X195175941Y-75633566D02*
X195696885Y-78587990D01*
X195696885Y-78587990D02*
X192348539Y-79178394D01*
X176313901Y-78940646D02*
X176834845Y-81895070D01*
X176834845Y-81895070D02*
X173486499Y-82485474D01*
X173486499Y-82485474D02*
X172965555Y-79531050D01*
X172965555Y-79531050D02*
X176313901Y-78940646D01*
X154888619Y-85784934D02*
X154367675Y-82830510D01*
X154367675Y-82830510D02*
X157716021Y-82240106D01*
X157716021Y-82240106D02*
X158236965Y-85194530D01*
X158236965Y-85194530D02*
X154888619Y-85784934D01*
X121958145Y-82797490D02*
X121437201Y-85751914D01*
X121437201Y-85751914D02*
X118088855Y-85161510D01*
X118088855Y-85161510D02*
X118609799Y-82207086D01*
X118609799Y-82207086D02*
X121958145Y-82797490D01*
X99483355Y-81923010D02*
X100004299Y-78968586D01*
X100004299Y-78968586D02*
X103352645Y-79558990D01*
X103352645Y-79558990D02*
X102831701Y-82513414D01*
X102831701Y-82513414D02*
X99483355Y-81923010D01*
X84683645Y-76256990D02*
X84162701Y-79211414D01*
X84162701Y-79211414D02*
X80814355Y-78621010D01*
X80814355Y-78621010D02*
X81335299Y-75666586D01*
X81335299Y-75666586D02*
X84683645Y-76256990D01*
X61954855Y-75319010D02*
X62475799Y-72364586D01*
X62475799Y-72364586D02*
X65824145Y-72954990D01*
X65824145Y-72954990D02*
X65303201Y-75909414D01*
X65303201Y-75909414D02*
X61954855Y-75319010D01*
X44571000Y-70478000D02*
X44571000Y-73478000D01*
X44571000Y-73478000D02*
X41171000Y-73478000D01*
X41171000Y-73478000D02*
X41171000Y-70478000D01*
X41171000Y-70478000D02*
X44571000Y-70478000D01*
X10246500Y-73478000D02*
X10246500Y-70478000D01*
X10246500Y-70478000D02*
X13646500Y-70478000D01*
X13646500Y-70478000D02*
X13646500Y-73478000D01*
X13646500Y-73478000D02*
X10246500Y-73478000D01*
X291710460Y-51410220D02*
X291710460Y-54410220D01*
X291710460Y-54410220D02*
X288310460Y-54410220D01*
X288310460Y-54410220D02*
X288310460Y-51410220D01*
X288310460Y-51410220D02*
X291710460Y-51410220D01*
X260773260Y-51428000D02*
X260773260Y-54428000D01*
X260773260Y-54428000D02*
X257373260Y-54428000D01*
X257373260Y-54428000D02*
X257373260Y-51428000D01*
X257373260Y-51428000D02*
X260773260Y-51428000D01*
X238142920Y-54400060D02*
X238142920Y-51400060D01*
X238142920Y-51400060D02*
X241542920Y-51400060D01*
X241542920Y-51400060D02*
X241542920Y-54400060D01*
X241542920Y-54400060D02*
X238142920Y-54400060D01*
X219869821Y-51915046D02*
X220390765Y-54869470D01*
X220390765Y-54869470D02*
X217042419Y-55459874D01*
X217042419Y-55459874D02*
X216521475Y-52505450D01*
X216521475Y-52505450D02*
X219869821Y-51915046D01*
X198261659Y-58792354D02*
X197740715Y-55837930D01*
X197740715Y-55837930D02*
X201089061Y-55247526D01*
X201089061Y-55247526D02*
X201610005Y-58201950D01*
X201610005Y-58201950D02*
X198261659Y-58792354D01*
X182409901Y-58529206D02*
X182930845Y-61483630D01*
X182930845Y-61483630D02*
X179582499Y-62074034D01*
X179582499Y-62074034D02*
X179061555Y-59119610D01*
X179061555Y-59119610D02*
X182409901Y-58529206D01*
X160748399Y-65386194D02*
X160227455Y-62431770D01*
X160227455Y-62431770D02*
X163575801Y-61841366D01*
X163575801Y-61841366D02*
X164096745Y-64795790D01*
X164096745Y-64795790D02*
X160748399Y-65386194D01*
X116052645Y-62477490D02*
X115531701Y-65431914D01*
X115531701Y-65431914D02*
X112183355Y-64841510D01*
X112183355Y-64841510D02*
X112704299Y-61887086D01*
X112704299Y-61887086D02*
X116052645Y-62477490D01*
X93387355Y-61476010D02*
X93908299Y-58521586D01*
X93908299Y-58521586D02*
X97256645Y-59111990D01*
X97256645Y-59111990D02*
X96735701Y-62066414D01*
X96735701Y-62066414D02*
X93387355Y-61476010D01*
X78587645Y-55809990D02*
X78066701Y-58764414D01*
X78066701Y-58764414D02*
X74718355Y-58174010D01*
X74718355Y-58174010D02*
X75239299Y-55219586D01*
X75239299Y-55219586D02*
X78587645Y-55809990D01*
X55350855Y-54808510D02*
X55871799Y-51854086D01*
X55871799Y-51854086D02*
X59220145Y-52444490D01*
X59220145Y-52444490D02*
X58699201Y-55398914D01*
X58699201Y-55398914D02*
X55350855Y-54808510D01*
X37903500Y-51428000D02*
X37903500Y-54428000D01*
X37903500Y-54428000D02*
X34503500Y-54428000D01*
X34503500Y-54428000D02*
X34503500Y-51428000D01*
X34503500Y-51428000D02*
X37903500Y-51428000D01*
X8278000Y-54491500D02*
X8278000Y-51491500D01*
X8278000Y-51491500D02*
X11678000Y-51491500D01*
X11678000Y-51491500D02*
X11678000Y-54491500D01*
X11678000Y-54491500D02*
X8278000Y-54491500D01*
X297016520Y-32378000D02*
X297016520Y-35378000D01*
X297016520Y-35378000D02*
X293616520Y-35378000D01*
X293616520Y-35378000D02*
X293616520Y-32378000D01*
X293616520Y-32378000D02*
X297016520Y-32378000D01*
X269687180Y-35365300D02*
X269687180Y-32365300D01*
X269687180Y-32365300D02*
X273087180Y-32365300D01*
X273087180Y-32365300D02*
X273087180Y-35365300D01*
X273087180Y-35365300D02*
X269687180Y-35365300D01*
X254054960Y-32355140D02*
X254054960Y-35355140D01*
X254054960Y-35355140D02*
X250654960Y-35355140D01*
X250654960Y-35355140D02*
X250654960Y-32355140D01*
X250654960Y-32355140D02*
X254054960Y-32355140D01*
X231622740Y-35360220D02*
X231622740Y-32360220D01*
X231622740Y-32360220D02*
X235022740Y-32360220D01*
X235022740Y-32360220D02*
X235022740Y-35360220D01*
X235022740Y-35360220D02*
X231622740Y-35360220D01*
X211932321Y-33962326D02*
X212453265Y-36916750D01*
X212453265Y-36916750D02*
X209104919Y-37507154D01*
X209104919Y-37507154D02*
X208583975Y-34552730D01*
X208583975Y-34552730D02*
X211932321Y-33962326D01*
X190263199Y-40849794D02*
X189742255Y-37895370D01*
X189742255Y-37895370D02*
X193090601Y-37304966D01*
X193090601Y-37304966D02*
X193611545Y-40259390D01*
X193611545Y-40259390D02*
X190263199Y-40849794D01*
X174507961Y-40576486D02*
X175028905Y-43530910D01*
X175028905Y-43530910D02*
X171680559Y-44121314D01*
X171680559Y-44121314D02*
X171159615Y-41166890D01*
X171159615Y-41166890D02*
X174507961Y-40576486D01*
X152907419Y-47425854D02*
X152386475Y-44471430D01*
X152386475Y-44471430D02*
X155734821Y-43881026D01*
X155734821Y-43881026D02*
X156255765Y-46835450D01*
X156255765Y-46835450D02*
X152907419Y-47425854D01*
X114465145Y-42855990D02*
X113944201Y-45810414D01*
X113944201Y-45810414D02*
X110595855Y-45220010D01*
X110595855Y-45220010D02*
X111116799Y-42265586D01*
X111116799Y-42265586D02*
X114465145Y-42855990D01*
X92053855Y-41918010D02*
X92574799Y-38963586D01*
X92574799Y-38963586D02*
X95923145Y-39553990D01*
X95923145Y-39553990D02*
X95402201Y-42508414D01*
X95402201Y-42508414D02*
X92053855Y-41918010D01*
X77000145Y-36188490D02*
X76479201Y-39142914D01*
X76479201Y-39142914D02*
X73130855Y-38552510D01*
X73130855Y-38552510D02*
X73651799Y-35598086D01*
X73651799Y-35598086D02*
X77000145Y-36188490D01*
X54461855Y-35314010D02*
X54982799Y-32359586D01*
X54982799Y-32359586D02*
X58331145Y-32949990D01*
X58331145Y-32949990D02*
X57810201Y-35904414D01*
X57810201Y-35904414D02*
X54461855Y-35314010D01*
X35046000Y-32378000D02*
X35046000Y-35378000D01*
X35046000Y-35378000D02*
X31646000Y-35378000D01*
X31646000Y-35378000D02*
X31646000Y-32378000D01*
X31646000Y-32378000D02*
X35046000Y-32378000D01*
X7770000Y-35378000D02*
X7770000Y-32378000D01*
X7770000Y-32378000D02*
X11170000Y-32378000D01*
X11170000Y-32378000D02*
X11170000Y-35378000D01*
X11170000Y-35378000D02*
X7770000Y-35378000D01*
X287405160Y-13333080D02*
X287405160Y-16333080D01*
X287405160Y-16333080D02*
X284005160Y-16333080D01*
X284005160Y-16333080D02*
X284005160Y-13333080D01*
X284005160Y-13333080D02*
X287405160Y-13333080D01*
X255445400Y-16307680D02*
X255445400Y-13307680D01*
X255445400Y-13307680D02*
X258845400Y-13307680D01*
X258845400Y-13307680D02*
X258845400Y-16307680D01*
X258845400Y-16307680D02*
X255445400Y-16307680D01*
X239574420Y-13310220D02*
X239574420Y-16310220D01*
X239574420Y-16310220D02*
X236174420Y-16310220D01*
X236174420Y-16310220D02*
X236174420Y-13310220D01*
X236174420Y-13310220D02*
X239574420Y-13310220D01*
X215089159Y-17143974D02*
X214568215Y-14189550D01*
X214568215Y-14189550D02*
X217916561Y-13599146D01*
X217916561Y-13599146D02*
X218437505Y-16553570D01*
X218437505Y-16553570D02*
X215089159Y-17143974D01*
X199173901Y-16903686D02*
X199694845Y-19858110D01*
X199694845Y-19858110D02*
X196346499Y-20448514D01*
X196346499Y-20448514D02*
X195825555Y-17494090D01*
X195825555Y-17494090D02*
X199173901Y-16903686D01*
X177540339Y-23747974D02*
X177019395Y-20793550D01*
X177019395Y-20793550D02*
X180367741Y-20203146D01*
X180367741Y-20203146D02*
X180888685Y-23157570D01*
X180888685Y-23157570D02*
X177540339Y-23747974D01*
X161632701Y-23505146D02*
X162153645Y-26459570D01*
X162153645Y-26459570D02*
X158805299Y-27049974D01*
X158805299Y-27049974D02*
X158284355Y-24095550D01*
X158284355Y-24095550D02*
X161632701Y-23505146D01*
X123549855Y-28138510D02*
X124070799Y-25184086D01*
X124070799Y-25184086D02*
X127419145Y-25774490D01*
X127419145Y-25774490D02*
X126898201Y-28728914D01*
X126898201Y-28728914D02*
X123549855Y-28138510D01*
X108496145Y-22408990D02*
X107975201Y-25363414D01*
X107975201Y-25363414D02*
X104626855Y-24773010D01*
X104626855Y-24773010D02*
X105147799Y-21818586D01*
X105147799Y-21818586D02*
X108496145Y-22408990D01*
X86021355Y-21534510D02*
X86542299Y-18580086D01*
X86542299Y-18580086D02*
X89890645Y-19170490D01*
X89890645Y-19170490D02*
X89369701Y-22124914D01*
X89369701Y-22124914D02*
X86021355Y-21534510D01*
X71094645Y-15804990D02*
X70573701Y-18759414D01*
X70573701Y-18759414D02*
X67225355Y-18169010D01*
X67225355Y-18169010D02*
X67746299Y-15214586D01*
X67746299Y-15214586D02*
X71094645Y-15804990D01*
X48619855Y-14930510D02*
X49140799Y-11976086D01*
X49140799Y-11976086D02*
X52489145Y-12566490D01*
X52489145Y-12566490D02*
X51968201Y-15520914D01*
X51968201Y-15520914D02*
X48619855Y-14930510D01*
X30410500Y-13315300D02*
X30410500Y-16315300D01*
X30410500Y-16315300D02*
X27010500Y-16315300D01*
X27010500Y-16315300D02*
X27010500Y-13315300D01*
X27010500Y-13315300D02*
X30410500Y-13315300D01*
X7833500Y-16328000D02*
X7833500Y-13328000D01*
X7833500Y-13328000D02*
X11233500Y-13328000D01*
X11233500Y-13328000D02*
X11233500Y-16328000D01*
X11233500Y-16328000D02*
X7833500Y-16328000D01*
M02*
