M48
; DRILL file {KiCad (5.99.0-1131-g93b7eacfb)} date 05/05/20 10:31:14
; FORMAT={-:-/ absolute / inch / decimal}
; #@! TF.CreationDate,2020-05-05T10:31:14+09:00
; #@! TF.GenerationSoftware,Kicad,Pcbnew,(5.99.0-1131-g93b7eacfb)
; #@! TF.FileFunction,NonPlated,1,2,NPTH
FMAT,2
INCH
T1C0.0157
T2C0.0591
T3C0.0689
T4C0.1200
T5C0.1570
%
G90
G05
T1
X10.7313Y-5.8965
X11.0265Y-5.8965
T3
X16.5409Y-9.4202
X16.9409Y-9.4202
X15.3034Y-7.7327
X15.7034Y-7.7327
X12.6209Y-7.2256
X13.0149Y-7.1561
X14.2909Y-8.4827
X14.6909Y-8.4827
X5.1971Y-9.2327
X5.5971Y-9.2327
X8.896Y-7.9951
X9.2899Y-8.0646
X12.6968Y-8.7353
X13.0907Y-8.6659
X14.5534Y-7.7327
X14.9534Y-7.7327
X8.1574Y-7.8649
X8.5513Y-7.9344
X16.3534Y-6.2327
X16.7534Y-6.2327
X12.1967Y-8.0623
X12.5907Y-7.9928
X9.2805Y-9.5836
X9.6744Y-9.6531
X13.5986Y-6.2916
X13.9925Y-6.2222
X6.7909Y-8.4827
X7.1909Y-8.4827
X9.3411Y-6.5505
X9.735Y-6.6199
X9.8737Y-8.9291
X10.2676Y-8.9985
X12.86Y-6.4219
X13.2539Y-6.3524
X6.5284Y-7.7327
X6.9284Y-7.7327
X7.3644Y-6.9635
X7.7583Y-7.033
X8.3964Y-8.6686
X8.7904Y-8.7381
X12.1214Y-6.5521
X12.5153Y-6.4826
X15.0409Y-8.4827
X15.4409Y-8.4827
X7.1253Y-6.1598
X7.5192Y-6.2292
X16.5221Y-7.7327
X16.9221Y-7.7327
X11.4586Y-8.1921
X11.8525Y-8.1226
X9.5802Y-7.3542
X9.9741Y-7.4237
X5.4971Y-7.7327
X5.8971Y-7.7327
X7.8047Y-9.327
X8.1987Y-9.3965
X13.3595Y-7.0953
X13.7535Y-7.0259
X9.135Y-8.7989
X9.529Y-8.8683
X16.7284Y-6.9827
X17.1284Y-6.9827
X5.4784Y-6.2327
X5.8784Y-6.2327
X14.5721Y-9.2327
X14.9721Y-9.2327
X11.8823Y-7.3558
X12.2763Y-7.2864
X8.103Y-7.0937
X8.4969Y-7.1632
X15.7909Y-6.9827
X16.1909Y-6.9827
X15.2284Y-6.2327
X15.6284Y-6.2327
X11.9582Y-8.8656
X12.3521Y-8.7961
X6.1346Y-9.2327
X6.5346Y-9.2327
X11.1437Y-7.4861
X11.5377Y-7.4166
X7.6578Y-8.5384
X8.0518Y-8.6078
X5.5721Y-8.4827
X5.9721Y-8.4827
X11.2195Y-8.9958
X11.6135Y-8.9264
X15.0409Y-6.9827
X15.4409Y-6.9827
X13.2888Y-9.3938
X13.6827Y-9.3244
X7.8639Y-6.29
X8.2578Y-6.3595
X14.2909Y-6.9827
X14.6909Y-6.9827
X11.3828Y-6.6823
X11.7767Y-6.6129
X6.4159Y-6.9827
X6.8159Y-6.9827
X9.6346Y-8.1254
X10.0285Y-8.1948
X5.4784Y-6.9827
X5.8784Y-6.9827
X14.4784Y-6.2327
X14.8784Y-6.2327
X10.0797Y-6.6807
X10.4736Y-6.7502
X13.4354Y-8.6051
X13.8293Y-8.5357
X15.5096Y-9.2327
X15.9096Y-9.2327
X5.3091Y-7.7325
X5.7091Y-7.7325
X8.6025Y-6.4202
X8.9964Y-6.4897
X6.2284Y-6.2327
X6.6284Y-6.2327
X18.0409Y-9.4202
X18.4409Y-9.4202
X12.9358Y-7.9316
X13.3298Y-7.8622
X7.4188Y-7.7347
X7.8127Y-7.8041
X11.9957Y-9.6244
X12.3896Y-9.5549
X17.2909Y-9.4202
X17.6909Y-9.4202
X8.8416Y-7.224
X9.2355Y-7.2934
X17.2909Y-8.6702
X17.6909Y-8.6702
X13.6744Y-7.8014
X14.0684Y-7.7319
X16.0721Y-8.4827
X16.4721Y-8.4827
T4
X11.7788Y-9.9419
X12.702Y-9.7791
X16.0846Y-6.5077
X17.0221Y-6.5077
X8.9681Y-9.8077
X9.8913Y-9.9705
X16.2534Y-8.0077
X17.1909Y-8.0077
X5.3034Y-8.7577
X6.2409Y-8.7577
T5
X14.7721Y-9.2327
X12.0793Y-7.3211
X8.2999Y-7.1285
X15.9909Y-6.9827
X15.4284Y-6.2327
X12.1551Y-8.8309
X6.3346Y-9.2327
X11.3407Y-7.4513
X7.8548Y-8.5731
X5.3034Y-8.1577
X5.7721Y-8.4827
X6.2409Y-8.1577
X11.4165Y-8.9611
X15.2409Y-6.9827
X13.4858Y-9.3591
X8.0609Y-6.3247
X14.4909Y-6.9827
X11.5798Y-6.6476
X6.6159Y-6.9827
X9.8315Y-8.1601
X5.6784Y-6.9827
X14.6784Y-6.2327
X10.2767Y-6.7154
X13.6323Y-8.5704
X15.7096Y-9.2327
X5.5091Y-7.7325
X8.7995Y-6.455
X6.4284Y-6.2327
X18.2409Y-9.4202
X13.1328Y-7.8969
X7.6157Y-7.7694
X11.6746Y-9.351
X12.1926Y-9.5896
X12.5978Y-9.1882
X17.4909Y-9.4202
X9.0385Y-7.2587
X17.4909Y-8.6702
X13.8714Y-7.7667
X16.2721Y-8.4827
X16.7409Y-9.4202
X15.5034Y-7.7327
X12.8179Y-7.1908
X14.4909Y-8.4827
X5.3971Y-9.2327
X9.0929Y-8.0299
X12.8937Y-8.7006
X14.7534Y-7.7327
X8.3543Y-7.8996
X16.0846Y-5.9077
X16.5534Y-6.2327
X17.0221Y-5.9077
X12.3937Y-8.0276
X9.0723Y-9.2169
X9.4775Y-9.6183
X9.9955Y-9.3797
X13.7956Y-6.2569
X6.9909Y-8.4827
X9.5381Y-6.5852
X10.0706Y-8.9638
X13.057Y-6.3871
X6.7284Y-7.7327
X7.5613Y-6.9982
X8.5934Y-8.7033
X12.3184Y-6.5174
X15.2409Y-8.4827
X7.3222Y-6.1945
X16.2534Y-7.4077
X16.7221Y-7.7327
X17.1909Y-7.4077
X11.6556Y-8.1574
X9.7771Y-7.3889
X5.6971Y-7.7327
X8.0017Y-9.3618
X13.5565Y-7.0606
X9.332Y-8.8336
X16.9284Y-6.9827
X5.6784Y-6.2327
T2
G00X17.8374Y-6.2695
M15
G01X17.8374Y-6.2184
M16
G05
G00X18.2784Y-6.2695
M15
G01X18.2784Y-6.2184
M16
G05
G00X18.2124Y-7.772
M15
G01X18.2124Y-7.7209
M16
G05
G00X18.6534Y-7.772
M15
G01X18.6534Y-7.7209
M16
G05
G00X18.0274Y-7.022
M15
G01X18.0274Y-6.9709
M16
G05
G00X18.4684Y-7.022
M15
G01X18.4684Y-6.9709
M16
G05
T0
M30
